<svg width="500" height="117" viewBox="0 0 500 117" fill="none" xmlns="http://www.w3.org/2000/svg">
<g clip-path="url(#clip0_1526_7808)">
<path d="M0.494784 92.8584C0.494784 84.7272 3.21623 78.5146 8.65908 74.2208C14.1019 69.927 21.5515 67.7828 31.0077 67.7883C35.5141 67.7477 40.0062 68.3023 44.3674 69.4377L51.2947 71.087V66.139C51.2947 61.7407 49.8653 58.3046 47.0064 55.8306C44.1475 53.3565 40.2441 52.1195 35.296 52.1195C25.9497 52.1195 20.287 56.4629 18.3078 65.1494L0 60.2014C1.81282 52.9093 6.17041 46.5045 12.2876 42.141C18.3902 37.8032 26.1147 35.6316 35.461 35.6261C47.2263 35.6261 56.1603 38.32 62.2629 43.7079C68.3655 49.0958 71.4167 56.9576 71.4167 67.2935V115.455H52.1194V103.414C46.9514 112.546 38.3198 117.109 26.2246 117.104C19.5521 117.239 13.0739 114.853 8.08179 110.424C3.02929 105.971 0.500282 100.116 0.494784 92.8584ZM51.2947 86.5909V85.9312L46.5116 84.4468C41.3436 82.9129 37.2752 82.1432 34.3064 82.1377C26.0597 82.1377 21.9363 85.2715 21.9363 91.539C21.9363 97.8065 26.1697 100.94 34.6363 100.94C39.5843 100.94 43.5977 99.6758 46.6765 97.1468C49.7553 94.6178 51.2947 91.0992 51.2947 86.5909Z" fill="white"/>
<path d="M154.461 0V20.6168H113.722V115.454H91.456V20.6168H50.5522V0H154.461Z" fill="white"/>
<path d="M133.68 92.8584C133.68 84.7272 136.401 78.5146 141.844 74.2208C147.287 69.927 154.736 67.7828 164.193 67.7883C168.699 67.7477 173.191 68.3023 177.552 69.4377L184.48 71.087V66.139C184.48 61.7407 183.05 58.3046 180.191 55.8306C177.332 53.3565 173.429 52.1195 168.481 52.1195C159.135 52.1195 153.472 56.4629 151.493 65.1494L133.185 60.2014C134.998 52.9093 139.355 46.5045 145.473 42.141C151.575 37.8032 159.3 35.6316 168.646 35.6261C180.411 35.6261 189.345 38.32 195.448 43.7079C201.55 49.0958 204.602 56.9576 204.602 67.2936V115.455H185.304V103.414C180.136 112.546 171.505 117.109 159.41 117.104C152.737 117.239 146.259 114.853 141.267 110.424C136.214 105.971 133.685 100.116 133.68 92.8584ZM184.48 86.5909V85.9312L179.697 84.4468C174.529 82.9129 170.46 82.1432 167.491 82.1377C159.245 82.1377 155.121 85.2715 155.121 91.539C155.121 97.8065 159.355 100.94 167.821 100.94C172.769 100.94 176.783 99.6758 179.861 97.1468C182.94 94.6178 184.48 91.0992 184.48 86.5909Z" fill="white"/>
<path d="M221.417 115.454V0H242.529V115.454H221.417Z" fill="white"/>
<path d="M314.778 85.6013L332.756 92.6935C330.309 99.9902 325.563 106.298 319.231 110.671C312.963 114.96 305.321 117.104 296.305 117.104C284.1 117.104 274.149 113.31 266.452 105.723C258.755 98.1363 254.906 88.1853 254.906 75.8702C254.906 64.5447 258.562 55.0059 265.875 47.254C273.187 39.5021 282.505 35.6261 293.831 35.6261C304.717 35.6261 313.486 38.8148 320.138 45.1923C326.79 51.5698 330.117 60.0914 330.117 70.7572C330.137 73.9725 329.805 77.1804 329.127 80.3234H276.018C276.123 86.0466 278.129 90.5823 282.038 93.9305C285.947 97.2787 290.813 98.9556 296.635 98.9611C306.201 98.9611 312.249 94.5078 314.778 85.6013ZM276.018 66.3039H309.5L309.665 65.6442C309.728 63.8318 309.366 62.0299 308.607 60.3829C307.847 58.7359 306.713 57.2897 305.294 56.1605C302.375 53.8019 298.554 52.6199 293.831 52.6144C289.701 52.5252 285.662 53.8328 282.368 56.3254C279.13 58.7886 276.878 62.3273 276.018 66.3039V66.3039Z" fill="white"/>
<path d="M365.249 115.455H344.137V37.2754H365.249V47.5014C370.411 39.5845 378.328 35.6261 388.999 35.6261C397.576 35.6261 404.421 38.1826 409.534 43.2956C414.647 48.4085 417.203 55.4183 417.203 64.3247V115.455H396.092V70.0975C396.092 64.7151 394.772 60.4817 392.133 57.3975C389.494 54.3132 385.921 52.7738 381.412 52.7793C379.195 52.7033 376.989 53.1314 374.96 54.0313C372.932 54.9312 371.134 56.2795 369.702 57.9747C366.733 61.4384 365.249 66.194 365.249 72.2416V115.455Z" fill="white"/>
<path d="M441.448 89.0649V54.5934H425.285V37.2753H441.448V11.5455H462.395V37.2753H491.753V54.5934H462.395V89.0649C462.395 92.0337 463.219 94.3427 464.869 95.9921C465.716 96.8208 466.724 97.4678 467.83 97.8932C468.936 98.3186 470.117 98.5136 471.301 98.4661C476.799 98.4661 479.878 94.8375 480.538 87.5804L500 91.209C498.9 99.4557 495.822 105.833 490.764 110.341C485.706 114.85 479.053 117.104 470.807 117.104C461.46 117.104 454.231 114.602 449.118 109.599C444.005 104.596 441.448 97.7514 441.448 89.0649Z" fill="white"/>
</g>
<defs>
<clipPath id="clip0_1526_7808">
<rect width="500" height="117" fill="white"/>
</clipPath>
</defs>
</svg>
