<?xml version="1.0" encoding="utf-8"?>
<!-- Generator: Adobe Illustrator 24.0.0, SVG Export Plug-In . SVG Version: 6.00 Build 0)  -->
<svg version="1.1" id="Layer_1" xmlns="http://www.w3.org/2000/svg" xmlns:xlink="http://www.w3.org/1999/xlink" x="0px" y="0px"
	 viewBox="0 0 349 579.3" style="enable-background:new 0 0 349 579.3;" xml:space="preserve">
<style type="text/css">
	.st0{fill:#FFFFFF;}
</style>
<g>
	<g>
		<g>
			<path class="st0" d="M160.4,165.2H133l0-2.1c0.2-27.3,7.1-47.4,22.2-64.4h-40V75.3h75.1v20.1l-0.7,0.6
				c-12,11-19.6,21.1-23.9,31.8c-3.8,9.5-5.4,19.8-5.4,35.4V165.2z M137.1,161.1h19.2c0.2-26.6,5.3-44.7,29.9-67.5V79.4h-66.9v15.3
				h45.5l-3.4,3.5C145.2,114.7,137.7,134.2,137.1,161.1z"/>
			<path class="st0" d="M160.8,165.7h-28.3l0-2.5c0.2-27.2,6.9-47,21.7-63.9h-39.5V74.9h76v20.7l-0.8,0.7
				c-11.9,10.9-19.5,21-23.8,31.6c-3.8,9.5-5.4,19.7-5.4,35.2V165.7z M133.4,164.8h26.5v-1.6c0-15.6,1.6-25.9,5.4-35.5
				c4.3-10.8,11.9-20.9,24-32l0.5-0.5V75.8h-74.2v22.6h40.5l-0.7,0.7c-15.1,17-21.9,36.7-22.1,64.1L133.4,164.8z M156.7,161.6h-20.1
				l0-0.5c0.6-27.1,8.1-46.6,24.4-63.3l2.7-2.7h-44.9V79h67.8v14.9l-0.1,0.1c-24.7,22.9-29.5,41.3-29.8,67.2L156.7,161.6z
				 M137.6,160.7h18.3c0.3-25.9,5.2-44.3,29.9-67.3V79.9h-66v14.4h46.1l-4.1,4.2C145.7,114.9,138.2,134.1,137.6,160.7z"/>
		</g>
		<g>
			<path class="st0" d="M272.8,165.2h-74.3l0.1-2.1c0.4-14.3,3.8-25.6,10.5-34.7c5.9-8,14.3-14.2,26.5-19.6c9.2-4.1,9.2-5,9.2-7
				c0-1.2,0-3.8-7.5-3.8c-8,0-16,2.7-24.4,8.4l-1.8,1.2l-13.1-21l1.7-1.1c12.4-7.9,24.1-11.5,37.9-11.5c22.3,0,34.5,9.3,34.5,26.2
				c0,6.6-1.4,11.4-4.4,15.5c-3.3,4.4-8.7,8.2-17.1,12.1c-14.2,6.6-19.2,10.8-21.4,14h43.5V165.2z M202.8,161.1h66v-15.3h-45.6
				l1-2.7c2-5.6,6.8-10.7,24.8-19.1c16.2-7.5,19.2-13.9,19.2-23.9c0-18.3-16.6-22.1-30.4-22.1c-12.3,0-22.9,3-34,9.8l8.7,14
				c8.4-5.3,16.6-7.9,24.9-7.9c7.7,0,11.6,2.7,11.6,7.9c0,4.8-2.5,6.6-11.6,10.7c-11.5,5.1-19.4,10.9-24.9,18.3
				C206.5,138.8,203.4,148.7,202.8,161.1z"/>
			<path class="st0" d="M273.3,165.7h-75.2l0.1-2.5c0.4-14.4,3.8-25.8,10.6-34.9c6-8,14.4-14.3,26.7-19.8c8.9-4,8.9-4.8,8.9-6.6
				c0-1.1,0-3.4-7.1-3.4c-7.9,0-15.8,2.7-24.1,8.3l-2.1,1.4l-13.6-21.8l2.1-1.3c12.5-8,24.2-11.5,38.1-11.5c22.6,0,35,9.5,35,26.6
				c0,6.7-1.4,11.5-4.5,15.7c-3.3,4.4-8.8,8.3-17.3,12.3c-14.1,6.6-18.7,10.6-20.7,13.2h43.1V165.7z M199,164.8h73.4v-22.6h-43.9
				l0.5-0.7c1.7-2.6,5.9-6.9,21.5-14.2c8.3-3.9,13.7-7.7,16.9-12c3-4,4.3-8.7,4.3-15.2c0-16.6-12.1-25.8-34.1-25.8
				c-13.7,0-25.3,3.5-37.6,11.4l-1.3,0.9l12.6,20.3l1.4-0.9c8.5-5.7,16.5-8.4,24.6-8.4c7,0,8,2.2,8,4.3c0,2.3-0.5,3.3-9.5,7.4
				c-12.1,5.4-20.4,11.6-26.3,19.5c-6.7,9-10.1,20.2-10.4,34.4L199,164.8z M269.2,161.6h-66.9l0-0.5c0.6-12.5,3.8-22.5,9.7-30.5
				c5.5-7.5,13.5-13.3,25-18.5c8.9-4,11.4-5.7,11.4-10.3c0-5-3.8-7.5-11.2-7.5c-8.2,0-16.3,2.6-24.6,7.8l-0.4,0.2l-9.2-14.8l0.4-0.2
				c11.2-6.8,21.7-9.8,34.2-9.8c14.1,0,30.9,3.9,30.9,22.6c0,10.2-3,16.7-19.4,24.3c-17.9,8.3-22.7,13.3-24.6,18.8l-0.8,2.1h45.4
				V161.6z M203.2,160.7h65.1v-14.4h-45.8l1.2-3.3c2-5.7,6.9-10.9,25.1-19.3c16-7.4,18.9-13.7,18.9-23.5c0-17.9-16.3-21.7-30-21.7
				c-12.2,0-22.5,2.9-33.4,9.5l8.3,13.3c8.4-5.2,16.5-7.7,24.7-7.7c8,0,12,2.8,12,8.4c0,5.1-2.5,6.9-11.9,11.1
				c-11.4,5.1-19.2,10.9-24.7,18.2C207,138.9,203.9,148.6,203.2,160.7z"/>
		</g>
	</g>
	<g>
		<g>
			<path class="st0" d="M189.9,503.1h-74l0.1-2.1c0.4-14.2,3.8-25.5,10.5-34.5c5.9-8,14.3-14.2,26.4-19.6c9.2-4.1,9.2-5,9.2-6.9
				c0-1.2,0-3.8-7.5-3.8c-8,0-15.9,2.7-24.3,8.3l-1.7,1.2l-13-21l1.7-1.1c12.4-7.9,24-11.4,37.8-11.4c22.2,0,34.4,9.3,34.4,26.1
				c0,6.6-1.4,11.3-4.4,15.4c-3.2,4.4-8.7,8.2-17.1,12.1c-14.1,6.6-19.1,10.7-21.3,14h43.4V503.1z M120.1,499.1h65.7v-15.2h-45.4
				l1-2.7c2-5.6,6.8-10.7,24.8-19c16.1-7.5,19.1-13.9,19.1-23.8c0-18.2-16.5-22-30.3-22c-12.3,0-22.8,3-33.8,9.7l8.7,14
				c8.4-5.3,16.5-7.9,24.8-7.9c7.7,0,11.6,2.7,11.6,7.9c0,4.8-2.5,6.6-11.6,10.7c-11.4,5.1-19.3,10.9-24.8,18.3
				C123.8,476.8,120.7,486.7,120.1,499.1z"/>
			<path class="st0" d="M190.3,503.6h-74.9l0.1-2.5c0.4-14.3,3.8-25.7,10.6-34.8c6-8,14.4-14.3,26.6-19.7c8.9-4,8.9-4.8,8.9-6.5
				c0-1.1,0-3.4-7.1-3.4c-7.9,0-15.8,2.7-24,8.3l-2.1,1.4l-13.5-21.7l2.1-1.3c12.4-8,24.1-11.5,38-11.5c22.5,0,34.9,9.4,34.9,26.5
				c0,6.7-1.4,11.5-4.5,15.7c-3.3,4.4-8.8,8.3-17.2,12.2c-14.1,6.5-18.7,10.6-20.6,13.1h42.9V503.6z M116.3,502.7h73.1v-22.5h-43.7
				l0.5-0.7c1.7-2.6,5.8-6.9,21.5-14.1c8.3-3.8,13.7-7.6,16.9-11.9c3-4,4.3-8.7,4.3-15.2c0-16.6-12.1-25.7-34-25.7
				c-13.7,0-25.2,3.5-37.5,11.4l-1.3,0.8l12.6,20.2l1.4-0.9c8.4-5.7,16.4-8.4,24.5-8.4c7,0,7.9,2.2,7.9,4.3c0,2.3-0.5,3.3-9.4,7.3
				c-12,5.4-20.3,11.5-26.2,19.4c-6.6,8.9-10.1,20.2-10.4,34.3L116.3,502.7z M186.2,499.5h-66.6l0-0.5c0.6-12.5,3.8-22.4,9.7-30.4
				c5.5-7.4,13.5-13.3,25-18.4c8.9-4,11.3-5.7,11.3-10.3c0-5-3.7-7.5-11.1-7.5c-8.2,0-16.2,2.6-24.5,7.8l-0.4,0.2l-9.2-14.7l0.4-0.2
				c11.1-6.8,21.6-9.8,34.1-9.8c14,0,30.8,3.9,30.8,22.5c0,10.1-3,16.6-19.4,24.2c-17.8,8.3-22.6,13.3-24.5,18.7l-0.8,2.1h45.3
				V499.5z M120.5,498.6h64.8v-14.4h-45.6l1.2-3.3c2-5.7,6.9-10.9,25-19.3c15.9-7.4,18.8-13.7,18.8-23.4c0-17.8-16.3-21.6-29.9-21.6
				c-12.1,0-22.4,2.9-33.2,9.4l8.2,13.2c8.4-5.2,16.4-7.7,24.6-7.7c8,0,12,2.8,12,8.3c0,5.1-2.5,6.9-11.9,11.1
				c-11.4,5.1-19.2,10.8-24.6,18.1C124.3,476.9,121.2,486.5,120.5,498.6z"/>
		</g>
		<g>
			<path class="st0" d="M272.8,503.1h-74l0.1-2.1c0.4-14.2,3.8-25.5,10.5-34.5c5.9-8,14.3-14.2,26.4-19.6c9.2-4.1,9.2-5,9.2-6.9
				c0-1.2,0-3.8-7.5-3.8c-8,0-15.9,2.7-24.3,8.3l-1.7,1.2l-13-21l1.7-1.1c12.4-7.9,24-11.4,37.8-11.4c22.2,0,34.4,9.3,34.4,26.1
				c0,6.6-1.4,11.3-4.4,15.4c-3.2,4.4-8.7,8.2-17.1,12.1c-14.1,6.6-19.1,10.7-21.3,14h43.4V503.1z M203,499.1h65.7v-15.2h-45.4
				l1-2.7c2-5.6,6.8-10.7,24.8-19c16.1-7.5,19.1-13.9,19.1-23.8c0-18.2-16.5-22-30.3-22c-12.3,0-22.8,3-33.8,9.7l8.7,14
				c8.4-5.3,16.5-7.9,24.8-7.9c7.7,0,11.6,2.7,11.6,7.9c0,4.8-2.5,6.6-11.6,10.7c-11.4,5.1-19.3,10.9-24.8,18.3
				C206.8,476.8,203.6,486.7,203,499.1z"/>
			<path class="st0" d="M273.3,503.6h-74.9l0.1-2.5c0.4-14.3,3.8-25.7,10.6-34.8c6-8,14.4-14.3,26.6-19.7c8.9-4,8.9-4.8,8.9-6.5
				c0-1.1,0-3.4-7.1-3.4c-7.9,0-15.8,2.7-24,8.3l-2.1,1.4l-13.5-21.7l2.1-1.3c12.4-8,24.1-11.5,38-11.5c22.5,0,34.9,9.4,34.9,26.5
				c0,6.7-1.4,11.5-4.5,15.7c-3.3,4.4-8.8,8.3-17.2,12.2c-14.1,6.5-18.7,10.6-20.6,13.1h42.9V503.6z M199.3,502.7h73.1v-22.5h-43.7
				l0.5-0.7c1.7-2.6,5.8-6.9,21.5-14.1c8.3-3.8,13.7-7.6,16.9-11.9c3-4,4.3-8.7,4.3-15.2c0-16.6-12.1-25.7-34-25.7
				c-13.7,0-25.2,3.5-37.5,11.4l-1.3,0.8l12.6,20.2l1.4-0.9c8.4-5.7,16.4-8.4,24.5-8.4c7,0,7.9,2.2,7.9,4.3c0,2.3-0.5,3.3-9.4,7.3
				c-12,5.4-20.3,11.5-26.2,19.4c-6.6,8.9-10.1,20.2-10.4,34.3L199.3,502.7z M269.2,499.5h-66.6l0-0.5c0.6-12.5,3.8-22.4,9.7-30.4
				c5.5-7.4,13.5-13.3,25-18.4c8.9-4,11.3-5.7,11.3-10.3c0-5-3.7-7.5-11.1-7.5c-8.2,0-16.2,2.6-24.5,7.8l-0.4,0.2l-9.2-14.7l0.4-0.2
				c11.1-6.8,21.6-9.8,34.1-9.8c14,0,30.8,3.9,30.8,22.5c0,10.1-3,16.6-19.4,24.2c-17.8,8.3-22.6,13.3-24.5,18.7l-0.8,2.1h45.3
				V499.5z M203.5,498.6h64.8v-14.4h-45.6l1.2-3.3c2-5.7,6.9-10.9,25-19.3c15.9-7.4,18.8-13.7,18.8-23.4c0-17.8-16.3-21.6-29.9-21.6
				c-12.1,0-22.4,2.9-33.2,9.4l8.2,13.2c8.4-5.2,16.4-7.7,24.6-7.7c8,0,12,2.8,12,8.3c0,5.1-2.5,6.9-11.9,11.1
				c-11.4,5.1-19.2,10.8-24.6,18.1C207.2,476.9,204.1,486.5,203.5,498.6z"/>
		</g>
	</g>
	<g>
		<path class="st0" d="M146.5,327.7c1.4,6.5,4.1,12.2,6.7,17.1l-2.7,1.4c-1.1,0.6-1.9,1.5-2.3,2.7c-0.3,1.1-0.2,2.4,0.4,3.4l5.3,9.3
			c1.2,2.1,3.9,2.9,6.1,1.8l16.6-8.4c1.1-0.6,1.9-1.5,2.3-2.7c0.3-1.2,0.2-2.4-0.4-3.4l-2.7-4.7c-0.3-0.6-0.7-1.2-1-1.9l-1.1-2
			c-3.1-5.6-6-11-7.2-16.5c-2.5-11.7,0.4-24.1,7.4-32.2c5.2-5.9,12.2-9.2,19.8-9.2c7.6,0,14.6,3.3,19.8,9.2c7,8.1,9.9,20.4,7.4,32.2
			c-1.2,5.5-4.1,10.9-7.2,16.5l-1.1,2c-0.3,0.6-0.7,1.3-1,1.9l-2.7,4.7c-0.6,1-0.7,2.3-0.4,3.4c0.3,1.2,1.2,2.1,2.3,2.7l16.6,8.4
			c2.2,1.1,4.9,0.3,6.1-1.8l5.3-9.3c0.6-1,0.7-2.3,0.4-3.4c-0.4-1.2-1.2-2.1-2.3-2.7l-2.7-1.4c2.6-4.9,5.3-10.6,6.7-17.1
			c1.7-8.2,1.7-16.9-0.1-25.1c-1.9-8.9-6-17-11.6-23.5c-9.1-10.5-21.7-16.2-35.4-16.2s-26.3,5.8-35.4,16.2
			c-5.7,6.5-9.7,14.6-11.6,23.5C144.8,310.8,144.8,319.5,146.5,327.7z M150.7,303.5c1.8-8.2,5.5-15.7,10.7-21.6
			c8.3-9.5,19.7-14.8,32.2-14.8c12.5,0,23.9,5.2,32.2,14.8c5.2,6,8.9,13.4,10.7,21.6c1.7,7.6,1.7,15.6,0.1,23.3
			c-1.4,6.8-4.5,12.8-7.3,17.9c-0.3,0.5-0.3,1.1-0.2,1.6c0.2,0.5,0.6,1,1.1,1.3l4.6,2.3c0.1,0.1,0.1,0.1,0.1,0.3l-5.3,9.3
			c-0.1,0.1-0.2,0.2-0.4,0.2c-0.1,0-0.1,0-0.2-0.1l-16.6-8.4c-0.1-0.1-0.1-0.1-0.1-0.3l2.7-4.7c0.4-0.6,0.7-1.3,1.1-2l1.1-2
			c3.2-5.9,6.3-11.5,7.6-17.7c2.8-13-0.4-26.7-8.3-35.8c-6-6.9-14.1-10.7-23-10.7c-8.8,0-17,3.8-23,10.7
			c-7.9,9.1-11.1,22.8-8.3,35.8c1.3,6.2,4.4,11.7,7.6,17.7l1.1,2c0.4,0.7,0.7,1.3,1.1,2l2.7,4.8c0,0,0,0.1-0.1,0.2l-16.6,8.4
			c-0.2,0.1-0.5,0-0.6-0.1l-5.3-9.4c0,0,0-0.1,0.1-0.2l4.6-2.3c0.5-0.3,0.9-0.7,1.1-1.3c0.2-0.5,0.1-1.1-0.2-1.6
			c-2.8-5.1-5.8-11.1-7.3-17.9C149,319.2,149.1,311.1,150.7,303.5z"/>
		<path class="st0" d="M157.9,364.3c-1.8,0-3.5-0.9-4.4-2.5l-5.3-9.3c-0.6-1.1-0.8-2.4-0.4-3.7c0.4-1.3,1.3-2.3,2.5-2.9l2.4-1.2
			c-2.5-4.7-5.1-10.3-6.5-16.9l0,0c-1.7-8.3-1.7-17,0.1-25.2c2-8.9,6-17.1,11.7-23.6c9.2-10.5,21.8-16.3,35.7-16.3
			c13.8,0,26.5,5.8,35.7,16.3c5.7,6.5,9.7,14.7,11.7,23.6c1.8,8.2,1.8,16.9,0.1,25.2c-1.4,6.6-4.1,12.2-6.5,16.9l2.4,1.2
			c1.2,0.6,2.1,1.6,2.5,2.9c0.4,1.2,0.2,2.6-0.4,3.7l-5.3,9.3c-1.3,2.3-4.3,3.2-6.6,2l-16.6-8.4c-1.2-0.6-2.1-1.7-2.5-2.9
			c-0.4-1.3-0.2-2.6,0.4-3.7l2.7-4.7c0.4-0.6,0.7-1.2,1-1.9l1.1-2c3.1-5.6,6-10.9,7.2-16.4c2.5-11.6-0.3-23.8-7.3-31.9
			c-5.1-5.9-12-9.1-19.5-9.1c-7.5,0-14.4,3.2-19.5,9.1c-7,8-9.8,20.2-7.3,31.9c1.2,5.5,4.1,10.8,7.2,16.4l1.1,2
			c0.3,0.6,0.7,1.3,1,1.9l2.7,4.7c0.7,1.1,0.8,2.5,0.4,3.7c-0.4,1.3-1.3,2.3-2.5,2.9l-16.6,8.4C159.4,364.1,158.7,364.3,157.9,364.3
			z M193.6,263.3c-13.6,0-26.1,5.7-35.1,16.1c-5.6,6.4-9.6,14.5-11.5,23.3c-1.8,8.1-1.8,16.7-0.1,24.9l0,0c1.4,6.6,4.1,12.3,6.6,17
			l0.2,0.3l-3,1.5c-1,0.5-1.8,1.4-2.1,2.5c-0.3,1-0.2,2.1,0.3,3.1l5.3,9.3c1.1,1.9,3.6,2.7,5.6,1.7l16.6-8.4c1-0.5,1.8-1.4,2.1-2.5
			c0.3-1.1,0.2-2.2-0.4-3.1l-2.7-4.7c-0.4-0.6-0.7-1.2-1.1-1.9l-1.1-2c-3.1-5.7-6-11-7.2-16.6c-2.5-11.9,0.4-24.3,7.5-32.5
			c5.2-6,12.4-9.3,20.1-9.3c7.7,0,14.8,3.3,20.1,9.3c7.1,8.2,10,20.6,7.5,32.5c-1.2,5.6-4.1,11-7.2,16.6l-1.1,2
			c-0.3,0.6-0.7,1.3-1.1,1.9l-2.7,4.7c-0.5,1-0.7,2.1-0.4,3.1c0.3,1.1,1.1,2,2.1,2.5l16.6,8.4c2,1,4.5,0.3,5.6-1.7l5.3-9.3
			c0.5-1,0.7-2.1,0.3-3.1c-0.3-1.1-1.1-1.9-2.1-2.5l-3-1.5l0.2-0.3c2.5-4.7,5.2-10.4,6.6-17c1.7-8.2,1.7-16.8-0.1-24.9
			c-1.9-8.8-5.9-16.9-11.5-23.3C219.7,269,207.3,263.3,193.6,263.3z M229.4,360.1c-0.1,0-0.3,0-0.4-0.1l-16.6-8.4
			c-0.4-0.2-0.3-0.5-0.3-0.6l0-0.2l2.7-4.7c0.4-0.6,0.7-1.3,1.1-1.9l1.1-2c3.2-5.9,6.3-11.5,7.6-17.6c2.7-12.9-0.4-26.5-8.3-35.5
			c-5.9-6.8-14-10.5-22.7-10.5c-8.7,0-16.8,3.7-22.7,10.5c-7.8,9-11,22.6-8.3,35.5c1.3,6.1,4.3,11.7,7.6,17.6l1.1,2
			c0.4,0.7,0.7,1.3,1.1,1.9l2.8,4.9l0,0.2c0,0.1-0.1,0.3-0.3,0.4l-16.6,8.4c-0.4,0.2-0.9,0.1-1.1-0.3l-5.3-9.6l0-0.2
			c0-0.1,0.1-0.3,0.3-0.4l4.6-2.3c0.4-0.2,0.7-0.6,0.9-1c0.1-0.4,0.1-0.9-0.1-1.3c-2.8-5.1-5.8-11.1-7.3-18
			c-1.6-7.7-1.6-15.8,0.1-23.4l0,0c1.8-8.2,5.5-15.8,10.8-21.8c8.4-9.6,19.9-14.9,32.5-14.9c12.6,0,24.1,5.3,32.5,14.9
			c5.2,6,9,13.5,10.8,21.8c1.7,7.6,1.7,15.8,0.1,23.4c-1.5,6.9-4.5,12.9-7.3,18c-0.2,0.4-0.3,0.9-0.1,1.3s0.5,0.8,0.9,1l4.6,2.3
			c0.4,0.2,0.3,0.5,0.3,0.6l0,0.2l-5.3,9.3C230,359.9,229.7,360.1,229.4,360.1z M152.7,350.2l5.1,9.2c0,0,0,0,0.1,0l16.4-8.3
			l-2.5-4.5c-0.4-0.6-0.7-1.3-1.1-2l-1.1-2c-3.3-5.9-6.3-11.6-7.7-17.8c-2.8-13.1,0.5-27,8.4-36.1c6.1-7,14.3-10.8,23.3-10.8
			c8.9,0,17.2,3.8,23.3,10.8c8,9.2,11.2,23,8.4,36.1c-1.3,6.2-4.4,11.8-7.7,17.8l-1.1,2c-0.4,0.7-0.7,1.3-1.1,2l-2.6,4.5l16.5,8.4
			l0.1,0l5.1-9.1l-4.5-2.3c-0.6-0.3-1-0.8-1.2-1.5c-0.2-0.6-0.1-1.3,0.2-1.9c2.7-5.1,5.8-11,7.2-17.8c1.6-7.6,1.6-15.6-0.1-23.1
			c-1.8-8.1-5.5-15.5-10.6-21.5c-8.2-9.4-19.6-14.6-31.9-14.6c-12.4,0-23.7,5.2-31.9,14.6c-5.1,5.9-8.8,13.3-10.6,21.5
			c-1.7,7.5-1.7,15.5-0.1,23.1c1.4,6.8,4.5,12.8,7.2,17.8c0.3,0.6,0.4,1.3,0.2,1.9c-0.2,0.6-0.7,1.2-1.2,1.5L152.7,350.2z"/>
	</g>
	<path class="st0" d="M208.5,279.4c1.4,0.8,3.3,0.3,4.2-1.1c0.5-0.7,0.6-1.6,0.4-2.5c-0.2-0.8-0.8-1.6-1.5-1.9c0,0-0.1,0-0.1-0.1
		c-0.5-0.2-1-0.4-1.5-0.4c-0.3,0-0.7,0.1-1,0.2c-0.8,0.3-1.5,0.9-1.9,1.7C206.5,276.8,207.1,278.6,208.5,279.4z"/>
	<path class="st0" d="M178.7,279.4c1.4-0.8,2-2.6,1.3-4.1l0,0c-0.4-0.8-1-1.4-1.8-1.6c-0.3-0.1-0.7-0.2-1-0.2c-0.5,0-1,0.1-1.5,0.4
		c-0.8,0.4-1.3,1.1-1.5,2c-0.2,0.8-0.1,1.7,0.4,2.5C175.4,279.7,177.3,280.2,178.7,279.4z"/>
	<path class="st0" d="M230.5,305.2c0.8-0.2,1.6-0.7,2-1.4c0.4-0.7,0.6-1.6,0.4-2.4c0,0,0-0.1,0-0.1c-0.2-0.8-0.8-1.5-1.5-1.9
		c-0.5-0.3-1-0.4-1.5-0.4c-0.3,0-0.7,0.1-1,0.2c-1.6,0.5-2.5,2.2-2.1,3.8C227.2,304.6,228.8,305.6,230.5,305.2z"/>
	<path class="st0" d="M156.8,305.3c1.6,0.3,3.3-0.7,3.7-2.3c0.4-1.6-0.5-3.3-2.1-3.8l0,0c-0.3-0.1-0.6-0.1-0.9-0.1
		c-0.5,0-1,0.1-1.5,0.4c-0.7,0.4-1.3,1.1-1.5,2c-0.2,0.8-0.1,1.7,0.4,2.4C155.2,304.6,155.9,305.1,156.8,305.3z"/>
	<path class="st0" d="M228.9,331.3L228.9,331.3C228.9,331.2,228.9,331.2,228.9,331.3c-0.4-0.1-0.8-0.2-1.1-0.2c-1.2,0-2.4,0.7-2.9,2
		c-0.6,1.6,0.1,3.4,1.7,4.1c0.8,0.3,1.7,0.4,2.5,0c0.8-0.3,1.4-0.9,1.7-1.8c0.3-0.8,0.3-1.7,0-2.5
		C230.3,332.1,229.7,331.5,228.9,331.3z"/>
	<path class="st0" d="M158.4,331.3c-0.8,0.3-1.5,0.9-1.8,1.7c-0.3,0.8-0.4,1.7,0,2.5c0.3,0.8,1,1.4,1.7,1.7c0.8,0.3,1.7,0.3,2.5-0.1
		c1.5-0.7,2.2-2.4,1.6-4c0,0,0,0,0-0.1c-0.5-1.2-1.6-2-2.9-2C159.1,331.1,158.8,331.2,158.4,331.3z"/>
	<g>
		<path class="st0" d="M194,394.3l-2.1-1.8c-5.4-4.9-13.9-6.9-26.2-8.6c-11-1.5-23.4-3.2-33.1-8c-11.6-5.7-17.3-14.6-17.3-27.4
			V192.8h157.5v155.9c0,12.7-5.7,21.7-17.3,27.4c-9.7,4.7-22.1,6.5-33.1,8c-12.3,1.7-20.5,3.6-26.2,8.6L194,394.3z M119.9,197.4
			v151.3c0,24.4,24.7,27.8,46.4,30.7c12,1.7,22.7,3.1,27.7,8.2c5-5.1,15.7-6.5,27.7-8.2c21.8-3,46.4-6.4,46.4-30.7V197.4H119.9z"/>
		<path class="st0" d="M194,394.9l-2.4-2c-5.2-4.8-13.5-6.7-25.9-8.4c-11-1.5-23.5-3.2-33.3-8c-11.8-5.8-17.6-14.9-17.6-27.8V192.3
			h158.5v156.4c0,12.9-5.7,22-17.6,27.8c-9.8,4.8-22.3,6.5-33.3,8c-12.2,1.7-20.3,3.6-25.9,8.4L194,394.9z M115.8,193.3v155.4
			c0,12.5,5.6,21.3,17,26.9c9.6,4.7,22,6.4,33,7.9c12.7,1.7,21,3.7,26.5,8.7l1.8,1.5l1.8-1.5c5.8-5,14.1-7,26.5-8.7
			c10.9-1.5,23.4-3.2,33-7.9c11.4-5.6,17-14.4,17-26.9V193.3H115.8z M194,388.3l-0.4-0.4c-4.9-5-15.3-6.4-27.4-8
			c-22-3-46.9-6.4-46.9-31.2V196.9h149.2v151.8c0,24.8-24.9,28.2-46.9,31.2c-12.1,1.7-22.5,3.1-27.4,8L194,388.3z M120.4,197.9
			v150.8c0,23.9,24.4,27.3,46,30.2c12,1.6,22.4,3.1,27.6,8c5.2-4.9,15.6-6.3,27.6-8c21.6-3,46-6.3,46-30.2V197.9H120.4z"/>
	</g>
	<g>
		<path class="st0" d="M218.4,254.5h-49.3c-0.6,0-1.2-0.4-1.3-1l-9.8-33c-0.1-0.4,0-0.9,0.2-1.2c0.3-0.4,0.7-0.6,1.1-0.6
			c9.3-0.1,16.6,6.3,17.2,6.8c0.1,0.1,0.1,0.1,0.2,0.2c0.5,0.6,0.4,1.4-0.1,1.9c-0.1,0.1-0.3,0.2-0.4,0.3c-2.3,1-3.7,3.2-3.7,5.7
			c0,3.4,2.8,6.2,6.2,6.2s6.2-2.8,6.2-6.2c0-2.6-1.6-4.9-4-5.8c-0.1,0-0.1,0-0.2,0c-0.7-0.1-1.2-0.7-1.2-1.4
			c0-10.9,13-18.4,13.6-18.7c0.4-0.2,0.9-0.2,1.4,0c0.6,0.3,13.6,7.8,13.6,18.7c0,0.7-0.5,1.3-1.2,1.4c-0.1,0-0.2,0-0.2,0
			c-2.4,0.9-4,3.2-4,5.8c0,3.4,2.8,6.2,6.2,6.2c3.4,0,6.2-2.8,6.2-6.2c0-2.5-1.5-4.7-3.7-5.7c-0.2-0.1-0.3-0.2-0.4-0.3
			c-0.5-0.5-0.6-1.3-0.1-1.9c0.1-0.1,0.1-0.1,0.2-0.2c0.5-0.4,7.8-6.8,17.1-6.8c0.1,0,0.1,0,0.2,0c0.4,0,0.9,0.2,1.1,0.6
			c0.3,0.4,0.3,0.8,0.2,1.2l-9.8,33C219.6,254.1,219.1,254.5,218.4,254.5z M170.2,251.7h47.2l8.9-30.1c-5.2,0.5-9.7,3.2-11.9,4.9
			c2.2,1.7,3.5,4.3,3.5,7.2c0,5-4.1,9-9,9c-5,0-9-4.1-9-9c0-3.6,2.1-6.8,5.4-8.3c-0.7-7.5-9-13.3-11.4-14.8
			c-2.5,1.6-10.7,7.3-11.4,14.8c3.3,1.4,5.4,4.6,5.4,8.3c0,5-4.1,9-9,9s-9-4.1-9-9c0-2.9,1.3-5.5,3.5-7.2c-2.2-1.6-6.7-4.3-11.9-4.9
			L170.2,251.7z M194.5,210.1L194.5,210.1L194.5,210.1z"/>
		<path class="st0" d="M218.4,254.6h-49.3c-0.7,0-1.3-0.4-1.5-1.1l-9.8-33c-0.1-0.5,0-1,0.2-1.3c0.3-0.4,0.7-0.6,1.2-0.6
			c0.1,0,0.1,0,0.2,0c9.2,0,16.4,6.2,17.1,6.9c0.1,0.1,0.1,0.1,0.2,0.2c0.5,0.6,0.4,1.5-0.1,2.1c-0.1,0.1-0.3,0.2-0.5,0.3
			c-2.2,1-3.6,3.2-3.6,5.6c0,3.4,2.7,6.1,6.1,6.1s6.1-2.7,6.1-6.1c0-2.6-1.5-4.8-3.9-5.7c0,0,0,0,0,0c-0.1,0-0.1,0-0.2,0
			c-0.7-0.1-1.3-0.8-1.3-1.5c0-11,13.1-18.5,13.6-18.8c0.5-0.3,1-0.3,1.5,0c0.6,0.3,13.6,7.8,13.6,18.8c0,0.8-0.6,1.4-1.3,1.5
			c-0.1,0-0.1,0-0.2,0l0,0c-2.4,0.9-3.9,3.1-3.9,5.7c0,3.4,2.7,6.1,6.1,6.1s6.1-2.7,6.1-6.1c0-2.4-1.4-4.6-3.7-5.6
			c-0.2-0.1-0.3-0.2-0.5-0.3c-0.6-0.5-0.6-1.4-0.1-2.1c0.1-0.1,0.1-0.1,0.2-0.2c0.3-0.3,7.8-6.9,17.2-6.9l0.2,0
			c0.5,0,0.9,0.2,1.2,0.6s0.4,0.9,0.2,1.3l-9.8,33C219.7,254.2,219.1,254.6,218.4,254.6z M159.5,218.8c-0.1,0-0.1,0-0.2,0
			c-0.4,0-0.8,0.2-1,0.5c-0.2,0.3-0.3,0.7-0.2,1.1l9.8,33c0.2,0.5,0.7,0.9,1.2,0.9h49.3c0.6,0,1.1-0.4,1.2-0.9l9.8-33
			c0.1-0.4,0-0.8-0.2-1.1c-0.2-0.3-0.6-0.5-1-0.5l-0.2,0c-9.3,0-16.7,6.5-17,6.8c-0.1,0.1-0.1,0.1-0.2,0.2c-0.4,0.5-0.4,1.3,0.1,1.7
			c0.1,0.1,0.3,0.2,0.4,0.3c2.3,1,3.8,3.3,3.8,5.8c0,3.5-2.9,6.4-6.4,6.4s-6.4-2.9-6.4-6.4c0-2.7,1.6-5,4.1-5.9l0,0l0.1,0
			c0,0,0.1,0,0.1,0c0.6-0.1,1.1-0.6,1.1-1.3c0-10.9-13-18.3-13.5-18.6c-0.4-0.2-0.9-0.2-1.2,0c-0.6,0.3-13.5,7.7-13.5,18.6
			c0,0.6,0.5,1.2,1.1,1.3c0.1,0,0.1,0,0.2,0l0,0l0,0c2.5,0.9,4.1,3.3,4.1,5.9c0,3.5-2.9,6.4-6.4,6.4s-6.4-2.9-6.4-6.4
			c0-2.5,1.5-4.8,3.8-5.8c0.2-0.1,0.3-0.1,0.4-0.3c0.5-0.5,0.5-1.2,0.1-1.7c0-0.1-0.1-0.1-0.2-0.2
			C175.7,224.9,168.6,218.8,159.5,218.8z M217.5,251.8h-47.4l0-0.1l-9-30.3l0.2,0c5.3,0.5,9.8,3.3,12,4.9l0.1,0.1l-0.1,0.1
			c-2.2,1.7-3.5,4.3-3.5,7.1c0,4.9,4,8.9,8.9,8.9c4.9,0,8.9-4,8.9-8.9c0-3.5-2.1-6.7-5.3-8.2l-0.1,0l0-0.1c0.7-7.5,9-13.3,11.5-14.9
			l0.1,0l0.1,0c2.5,1.6,10.8,7.4,11.5,14.9l0,0.1l-0.1,0c-3.2,1.4-5.3,4.6-5.3,8.2c0,4.9,4,8.9,8.9,8.9c4.9,0,8.9-4,8.9-8.9
			c0-2.8-1.3-5.4-3.5-7.1l-0.1-0.1l0.1-0.1c2.2-1.6,6.7-4.3,12-4.9l0.2,0l-0.1,0.2L217.5,251.8z M170.3,251.6h47l8.8-29.9
			c-5,0.6-9.3,3.1-11.6,4.7c2.2,1.7,3.5,4.4,3.5,7.2c0,5.1-4.1,9.2-9.2,9.2c-5.1,0-9.2-4.1-9.2-9.2c0-3.6,2.1-6.9,5.4-8.3
			c-0.8-7.3-8.7-13-11.3-14.6c-2.6,1.6-10.5,7.3-11.3,14.6c3.3,1.5,5.4,4.7,5.4,8.3c0,5.1-4.1,9.2-9.2,9.2c-5.1,0-9.2-4.1-9.2-9.2
			c0-2.8,1.3-5.4,3.5-7.2c-2.2-1.6-6.5-4.2-11.6-4.7L170.3,251.6z"/>
	</g>
	<g>
		<path class="st0" d="M91.8,78.5h-5.2V85H84v-6.5h-5.3v8.3H76V75h18.6v11.7h-2.8V78.5z"/>
		<path class="st0" d="M91.2,99.8c-0.2-0.1-0.3-0.2-0.4-0.3c-0.1-0.1-0.1-0.3-0.1-0.4c0-0.2,0.1-0.4,0.2-0.6
			c0.1-0.2,0.3-0.5,0.4-0.8c0.2-0.3,0.3-0.6,0.4-1c0.1-0.4,0.2-0.9,0.2-1.4c0-0.5-0.1-0.9-0.2-1.3c-0.1-0.4-0.3-0.7-0.5-0.9
			c-0.2-0.2-0.5-0.4-0.7-0.5c-0.3-0.1-0.6-0.2-0.9-0.2c-0.4,0-0.8,0.1-1.1,0.4c-0.3,0.2-0.5,0.6-0.7,1c-0.2,0.4-0.4,0.9-0.6,1.4
			c-0.2,0.5-0.3,1-0.5,1.6c-0.2,0.5-0.4,1.1-0.6,1.6c-0.2,0.5-0.6,1-0.9,1.4c-0.4,0.4-0.8,0.7-1.4,1c-0.5,0.2-1.2,0.4-2,0.4
			c-0.8,0-1.6-0.1-2.4-0.4c-0.7-0.3-1.4-0.7-1.9-1.3c-0.5-0.6-1-1.2-1.3-2c-0.3-0.8-0.5-1.7-0.5-2.7c0-0.6,0.1-1.2,0.2-1.8
			c0.1-0.6,0.3-1.1,0.5-1.7c0.2-0.5,0.5-1,0.8-1.5c0.3-0.5,0.6-0.9,1-1.2l1.7,1c0.1,0.1,0.2,0.2,0.3,0.3c0.1,0.1,0.1,0.3,0.1,0.4
			c0,0.2-0.1,0.4-0.3,0.7c-0.2,0.2-0.4,0.5-0.6,0.9s-0.4,0.7-0.6,1.2c-0.2,0.5-0.3,1-0.3,1.7c0,1,0.2,1.7,0.7,2.3
			c0.5,0.5,1.1,0.8,2,0.8c0.5,0,0.9-0.1,1.2-0.4c0.3-0.2,0.6-0.6,0.8-1c0.2-0.4,0.4-0.9,0.5-1.4c0.1-0.5,0.3-1,0.5-1.6
			c0.2-0.5,0.4-1.1,0.6-1.6c0.2-0.5,0.6-1,0.9-1.4c0.4-0.4,0.9-0.7,1.4-1c0.6-0.2,1.3-0.4,2.1-0.4c0.7,0,1.3,0.1,2,0.4
			c0.6,0.3,1.2,0.7,1.7,1.2c0.5,0.5,0.9,1.1,1.2,1.9c0.3,0.8,0.5,1.6,0.5,2.6c0,1.1-0.2,2.1-0.5,3c-0.3,0.9-0.8,1.7-1.4,2.4
			L91.2,99.8z"/>
		<path class="st0" d="M94.6,110c0,1.2-0.1,2.3-0.4,3.2c-0.3,0.9-0.7,1.7-1.2,2.3c-0.5,0.6-1.1,1-1.9,1.3c-0.7,0.3-1.5,0.4-2.4,0.4
			c-0.9,0-1.7-0.2-2.5-0.5c-0.8-0.3-1.4-0.8-1.9-1.4c-0.5-0.6-1-1.4-1.3-2.3c-0.3-0.9-0.5-2-0.5-3.2v-2.6H76V104h18.6V110z
			 M85.2,110c0,0.6,0.1,1.2,0.2,1.7c0.2,0.5,0.4,0.9,0.7,1.2c0.3,0.3,0.7,0.5,1.1,0.7c0.4,0.2,0.9,0.2,1.4,0.2
			c0.5,0,0.9-0.1,1.4-0.2c0.4-0.2,0.7-0.4,1-0.7c0.3-0.3,0.5-0.7,0.6-1.2c0.2-0.5,0.2-1,0.2-1.7v-2.6h-6.7V110z"/>
		<path class="st0" d="M85.3,137.6c-1.4,0-2.6-0.2-3.8-0.7c-1.2-0.5-2.2-1.1-3-1.9c-0.8-0.8-1.5-1.8-2-3c-0.5-1.2-0.7-2.4-0.7-3.9
			c0-1.4,0.2-2.7,0.7-3.8s1.1-2.2,2-3c0.8-0.8,1.9-1.5,3-1.9c1.2-0.5,2.4-0.7,3.8-0.7c1.4,0,2.6,0.2,3.8,0.7s2.2,1.1,3,1.9
			c0.8,0.8,1.5,1.8,2,3s0.7,2.4,0.7,3.8c0,0.9-0.1,1.8-0.3,2.7c-0.2,0.8-0.5,1.6-0.9,2.3c-0.4,0.7-0.9,1.3-1.5,1.9
			c-0.6,0.6-1.2,1-1.9,1.4c-0.7,0.4-1.5,0.7-2.3,0.9C87.1,137.5,86.2,137.6,85.3,137.6z M85.3,134.1c1,0,1.9-0.1,2.7-0.4
			s1.5-0.7,2.1-1.2c0.6-0.5,1-1.1,1.3-1.8c0.3-0.7,0.5-1.5,0.5-2.5c0-0.9-0.2-1.7-0.5-2.5c-0.3-0.7-0.7-1.3-1.3-1.9
			c-0.6-0.5-1.3-0.9-2.1-1.2c-0.8-0.3-1.7-0.4-2.7-0.4c-1,0-1.9,0.1-2.7,0.4c-0.8,0.3-1.5,0.7-2.1,1.2c-0.6,0.5-1,1.1-1.3,1.9
			c-0.3,0.7-0.5,1.5-0.5,2.5c0,0.9,0.1,1.7,0.5,2.5c0.3,0.7,0.7,1.3,1.3,1.8c0.6,0.5,1.2,0.9,2.1,1.2S84.3,134.1,85.3,134.1z"/>
		<path class="st0" d="M85.3,158.4c-1.4,0-2.6-0.2-3.8-0.7c-1.2-0.5-2.2-1.1-3-1.9c-0.8-0.8-1.5-1.8-2-3s-0.7-2.4-0.7-3.9
			c0-1.4,0.2-2.7,0.7-3.8s1.1-2.2,2-3c0.8-0.8,1.9-1.5,3-1.9c1.2-0.5,2.4-0.7,3.8-0.7c1.4,0,2.6,0.2,3.8,0.7s2.2,1.1,3,1.9
			c0.8,0.8,1.5,1.8,2,3s0.7,2.4,0.7,3.8c0,0.9-0.1,1.8-0.3,2.7c-0.2,0.8-0.5,1.6-0.9,2.3c-0.4,0.7-0.9,1.3-1.5,1.9
			c-0.6,0.6-1.2,1-1.9,1.4c-0.7,0.4-1.5,0.7-2.3,0.9C87.1,158.3,86.2,158.4,85.3,158.4z M85.3,154.9c1,0,1.9-0.1,2.7-0.4
			s1.5-0.7,2.1-1.2c0.6-0.5,1-1.1,1.3-1.8c0.3-0.7,0.5-1.5,0.5-2.5c0-0.9-0.2-1.7-0.5-2.5c-0.3-0.7-0.7-1.3-1.3-1.9
			s-1.3-0.9-2.1-1.2c-0.8-0.3-1.7-0.4-2.7-0.4c-1,0-1.9,0.1-2.7,0.4c-0.8,0.3-1.5,0.7-2.1,1.2c-0.6,0.5-1,1.1-1.3,1.9
			c-0.3,0.7-0.5,1.5-0.5,2.5c0,0.9,0.1,1.7,0.5,2.5c0.3,0.7,0.7,1.3,1.3,1.8c0.6,0.5,1.2,0.9,2.1,1.2S84.3,154.9,85.3,154.9z"/>
		<path class="st0" d="M84.8,167.9v10.4h-2.3v-10.4H84.8z"/>
		<path class="st0" d="M87.8,192.1c0.1,0.4,0.1,0.8,0.2,1.2c0,0.4,0.1,0.7,0.1,1.1c0,1-0.1,1.8-0.4,2.6c-0.3,0.7-0.7,1.4-1.2,1.9
			c-0.5,0.5-1.1,0.9-1.8,1.1c-0.7,0.3-1.4,0.4-2.2,0.4c-1,0-1.9-0.2-2.7-0.5c-0.8-0.3-1.5-0.8-2.1-1.4c-0.6-0.6-1-1.3-1.3-2.2
			c-0.3-0.8-0.5-1.8-0.5-2.8c0-0.6,0.1-1.1,0.2-1.7c0.1-0.5,0.3-1,0.5-1.5c0.2-0.5,0.4-0.9,0.7-1.3c0.3-0.4,0.5-0.7,0.8-1l1.4,1
			c0.3,0.2,0.4,0.5,0.4,0.8c0,0.2-0.1,0.4-0.2,0.7c-0.1,0.2-0.3,0.5-0.5,0.8c-0.2,0.3-0.3,0.6-0.5,1c-0.1,0.4-0.2,0.9-0.2,1.4
			c0,0.6,0.1,1.1,0.3,1.5c0.2,0.4,0.5,0.8,0.8,1.1c0.3,0.3,0.7,0.5,1.2,0.7c0.5,0.2,1,0.2,1.5,0.2c1,0,1.8-0.3,2.4-0.9
			c0.6-0.6,0.9-1.5,0.9-2.6c0-0.9-0.2-1.8-0.5-2.7l0.6-2l9,1.5v9.2h-1.4c-0.5,0-0.8-0.1-1.1-0.4c-0.3-0.3-0.4-0.8-0.4-1.4v-5.1
			L87.8,192.1z"/>
		<path class="st0" d="M85.3,216c-1.6,0-3-0.2-4.2-0.5c-1.2-0.3-2.2-0.8-3-1.4c-0.8-0.6-1.4-1.3-1.7-2.2c-0.4-0.8-0.6-1.7-0.6-2.7
			c0-1,0.2-1.9,0.6-2.7c0.4-0.8,1-1.5,1.7-2.2c0.8-0.6,1.8-1.1,3-1.4c1.2-0.3,2.6-0.5,4.2-0.5c1.6,0,3,0.2,4.2,0.5
			c1.2,0.3,2.2,0.8,3,1.4c0.8,0.6,1.4,1.3,1.7,2.2c0.4,0.8,0.6,1.7,0.6,2.7c0,1-0.2,1.9-0.6,2.7s-1,1.6-1.7,2.2
			c-0.8,0.6-1.8,1.1-3,1.4C88.3,215.9,86.9,216,85.3,216z M85.3,212.8c1.3,0,2.5-0.1,3.3-0.3c0.9-0.2,1.6-0.5,2.1-0.8
			c0.5-0.3,0.9-0.7,1.1-1.1c0.2-0.4,0.3-0.9,0.3-1.3c0-0.5-0.1-0.9-0.3-1.3c-0.2-0.4-0.6-0.8-1.1-1.1c-0.5-0.3-1.2-0.6-2.1-0.8
			c-0.9-0.2-2-0.3-3.3-0.3s-2.5,0.1-3.3,0.3c-0.9,0.2-1.6,0.5-2.1,0.8c-0.5,0.3-0.9,0.7-1.1,1.1c-0.2,0.4-0.3,0.9-0.3,1.3
			c0,0.5,0.1,0.9,0.3,1.3c0.2,0.4,0.6,0.8,1.1,1.1c0.5,0.3,1.2,0.6,2.1,0.8C82.8,212.7,83.9,212.8,85.3,212.8z"/>
		<path class="st0" d="M94.6,240L76,232.5v-3.1l18.6-7.5v2.8c0,0.3-0.1,0.5-0.2,0.7c-0.1,0.2-0.3,0.3-0.6,0.4l-11.3,4.4
			c-0.4,0.1-0.8,0.3-1.2,0.4c-0.4,0.1-0.9,0.3-1.4,0.4c0.5,0.1,0.9,0.2,1.4,0.3c0.4,0.1,0.8,0.3,1.2,0.4l11.3,4.4
			c0.2,0.1,0.4,0.2,0.5,0.4c0.2,0.2,0.2,0.4,0.2,0.7V240z"/>
		<path class="st0" d="M78.8,249.4c0,0.7,0.1,1.3,0.3,1.8c0.2,0.5,0.5,1,0.9,1.3c0.4,0.4,0.9,0.6,1.5,0.8c0.6,0.2,1.2,0.3,1.9,0.3
			h11.1v3.5H83.4c-1.1,0-2.1-0.2-3.1-0.5c-0.9-0.4-1.8-0.9-2.4-1.5c-0.7-0.7-1.2-1.5-1.6-2.4c-0.4-1-0.6-2-0.6-3.2
			c0-1.2,0.2-2.3,0.6-3.2c0.4-1,0.9-1.8,1.6-2.4c0.7-0.7,1.5-1.2,2.4-1.5c0.9-0.4,2-0.5,3.1-0.5h11.1v3.5H83.5
			c-0.7,0-1.4,0.1-1.9,0.3c-0.6,0.2-1.1,0.5-1.5,0.8c-0.4,0.4-0.7,0.8-0.9,1.3C78.9,248.1,78.8,248.7,78.8,249.4z"/>
		<path class="st0" d="M85.3,278.8c-1.4,0-2.6-0.2-3.8-0.7c-1.2-0.5-2.2-1.1-3-1.9c-0.8-0.8-1.5-1.8-2-3s-0.7-2.4-0.7-3.9
			c0-1.4,0.2-2.7,0.7-3.8s1.1-2.2,2-3c0.8-0.8,1.9-1.5,3-1.9c1.2-0.5,2.4-0.7,3.8-0.7c1.4,0,2.6,0.2,3.8,0.7c1.2,0.5,2.2,1.1,3,1.9
			c0.8,0.8,1.5,1.8,2,3s0.7,2.4,0.7,3.8c0,0.9-0.1,1.8-0.3,2.7c-0.2,0.8-0.5,1.6-0.9,2.3c-0.4,0.7-0.9,1.3-1.5,1.9
			c-0.6,0.6-1.2,1-1.9,1.4c-0.7,0.4-1.5,0.7-2.3,0.9C87.1,278.7,86.2,278.8,85.3,278.8z M85.3,275.2c1,0,1.9-0.1,2.7-0.4
			c0.8-0.3,1.5-0.7,2.1-1.2c0.6-0.5,1-1.1,1.3-1.8c0.3-0.7,0.5-1.5,0.5-2.5c0-0.9-0.2-1.7-0.5-2.5c-0.3-0.7-0.7-1.3-1.3-1.9
			s-1.3-0.9-2.1-1.2c-0.8-0.3-1.7-0.4-2.7-0.4c-1,0-1.9,0.1-2.7,0.4c-0.8,0.3-1.5,0.7-2.1,1.2c-0.6,0.5-1,1.1-1.3,1.9
			c-0.3,0.7-0.5,1.5-0.5,2.5c0,0.9,0.1,1.7,0.5,2.5c0.3,0.7,0.7,1.3,1.3,1.8c0.6,0.5,1.2,0.9,2.1,1.2
			C83.3,275.1,84.3,275.2,85.3,275.2z"/>
		<path class="st0" d="M91.7,294.2v-5.6H76v-3.5h15.8v-5.6h2.8v14.7H91.7z"/>
		<path class="st0" d="M91.7,309.6V304H76v-3.5h15.8v-5.6h2.8v14.7H91.7z"/>
		<path class="st0" d="M76,326.2v-2.7c0-0.3,0.1-0.5,0.2-0.7c0.2-0.2,0.3-0.3,0.6-0.4l3.8-1.4v-7.7l-3.8-1.4
			c-0.2-0.1-0.4-0.2-0.5-0.4c-0.2-0.2-0.2-0.4-0.2-0.7V308l18.6,7.3v3.5L76,326.2z M83,320.1l6.2-2.3c0.3-0.1,0.6-0.2,1-0.3
			c0.4-0.1,0.8-0.2,1.2-0.4c-0.4-0.1-0.8-0.2-1.2-0.3c-0.4-0.1-0.7-0.2-1-0.3l-6.2-2.3V320.1z"/>
		<path class="st0" d="M86.8,337v0.8c0,0.3,0,0.6,0.1,0.8c0.1,0.2,0.2,0.4,0.4,0.6l6.5,5.1c0.3,0.2,0.5,0.4,0.6,0.7
			c0.1,0.2,0.2,0.5,0.2,0.9v3l-7.7-6.3c-0.5-0.4-0.8-0.8-1-1.1c-0.1,0.3-0.2,0.5-0.4,0.8c-0.2,0.2-0.4,0.4-0.7,0.6l-8.7,6.5v-3
			c0-0.4,0.1-0.7,0.2-0.9c0.1-0.2,0.3-0.4,0.5-0.5l6.9-5.3c0.2-0.2,0.4-0.4,0.5-0.6c0.1-0.2,0.1-0.5,0.1-0.9V337H76v-3.5h18.6v3.5
			H86.8z"/>
		<path class="st0" d="M76,367.1v-2.7c0-0.3,0.1-0.5,0.2-0.7c0.2-0.2,0.3-0.3,0.6-0.4l3.8-1.4v-7.7l-3.8-1.4
			c-0.2-0.1-0.4-0.2-0.5-0.4c-0.2-0.2-0.2-0.4-0.2-0.7v-2.7l18.6,7.3v3.5L76,367.1z M83,361l6.2-2.3c0.3-0.1,0.6-0.2,1-0.3
			c0.4-0.1,0.8-0.2,1.2-0.4c-0.4-0.1-0.8-0.2-1.2-0.3c-0.4-0.1-0.7-0.2-1-0.3l-6.2-2.3V361z"/>
		<path class="st0" d="M78.8,376.1c0,0.7,0.1,1.3,0.3,1.8s0.5,1,0.9,1.3c0.4,0.4,0.9,0.6,1.5,0.8s1.2,0.3,1.9,0.3h11.1v3.5H83.4
			c-1.1,0-2.1-0.2-3.1-0.5c-0.9-0.4-1.8-0.9-2.4-1.5c-0.7-0.7-1.2-1.5-1.6-2.4c-0.4-1-0.6-2-0.6-3.2c0-1.2,0.2-2.3,0.6-3.2
			c0.4-1,0.9-1.8,1.6-2.4s1.5-1.2,2.4-1.5c0.9-0.4,2-0.5,3.1-0.5h11.1v3.5H83.5c-0.7,0-1.4,0.1-1.9,0.3c-0.6,0.2-1.1,0.5-1.5,0.8
			c-0.4,0.4-0.7,0.8-0.9,1.3C78.9,374.8,78.8,375.4,78.8,376.1z"/>
		<path class="st0" d="M94.6,393.7c0,1.2-0.1,2.3-0.4,3.2c-0.3,0.9-0.7,1.7-1.2,2.3c-0.5,0.6-1.1,1-1.9,1.3
			c-0.7,0.3-1.5,0.4-2.4,0.4c-0.9,0-1.7-0.2-2.5-0.5c-0.8-0.3-1.4-0.8-1.9-1.4c-0.5-0.6-1-1.4-1.3-2.3c-0.3-0.9-0.5-2-0.5-3.2v-2.6
			H76v-3.5h18.6V393.7z M85.2,393.7c0,0.6,0.1,1.2,0.2,1.7c0.2,0.5,0.4,0.9,0.7,1.2c0.3,0.3,0.7,0.5,1.1,0.7
			c0.4,0.2,0.9,0.2,1.4,0.2c0.5,0,0.9-0.1,1.4-0.2c0.4-0.2,0.7-0.4,1-0.7c0.3-0.3,0.5-0.7,0.6-1.2c0.2-0.5,0.2-1,0.2-1.7v-2.6h-6.7
			V393.7z"/>
		<path class="st0" d="M78.8,411.1c0,0.7,0.1,1.3,0.3,1.8c0.2,0.5,0.5,1,0.9,1.3c0.4,0.4,0.9,0.6,1.5,0.8c0.6,0.2,1.2,0.3,1.9,0.3
			h11.1v3.5H83.4c-1.1,0-2.1-0.2-3.1-0.5c-0.9-0.4-1.8-0.9-2.4-1.5c-0.7-0.7-1.2-1.5-1.6-2.4c-0.4-1-0.6-2-0.6-3.2
			c0-1.2,0.2-2.3,0.6-3.2c0.4-1,0.9-1.8,1.6-2.4c0.7-0.7,1.5-1.2,2.4-1.5c0.9-0.4,2-0.5,3.1-0.5h11.1v3.5H83.5
			c-0.7,0-1.4,0.1-1.9,0.3c-0.6,0.2-1.1,0.5-1.5,0.8c-0.4,0.4-0.7,0.8-0.9,1.3C78.9,409.8,78.8,410.4,78.8,411.1z"/>
		<path class="st0" d="M94.6,438.4H76v-1.8c0-0.3,0-0.5,0.1-0.7c0.1-0.2,0.2-0.4,0.5-0.5l12.4-9.7c-0.6,0.1-1.1,0.1-1.6,0.1H76v-3
			h18.6v1.8c0,0.1,0,0.3,0,0.4c0,0.1,0,0.2-0.1,0.3c0,0.1-0.1,0.2-0.2,0.2c-0.1,0.1-0.2,0.2-0.3,0.3l-12.5,9.8c0.3,0,0.6,0,0.9-0.1
			c0.3,0,0.6,0,0.8,0h11.3V438.4z"/>
		<path class="st0" d="M86.8,446v0.8c0,0.3,0,0.6,0.1,0.8c0.1,0.2,0.2,0.4,0.4,0.6l6.5,5.1c0.3,0.2,0.5,0.4,0.6,0.7
			c0.1,0.2,0.2,0.5,0.2,0.9v3l-7.7-6.3c-0.5-0.4-0.8-0.8-1-1.1c-0.1,0.3-0.2,0.5-0.4,0.8c-0.2,0.2-0.4,0.4-0.7,0.6l-8.7,6.5v-3
			c0-0.4,0.1-0.7,0.2-0.9c0.1-0.2,0.3-0.4,0.5-0.5l6.9-5.3c0.2-0.2,0.4-0.4,0.5-0.6c0.1-0.2,0.1-0.5,0.1-0.9V446H76v-3.5h18.6v3.5
			H86.8z"/>
		<path class="st0" d="M76,463.6v-3.5h18.6v3.5H76z"/>
		<path class="st0" d="M94.6,483.5H76v-1.8c0-0.3,0-0.5,0.1-0.7c0.1-0.2,0.2-0.4,0.5-0.5l12.4-9.7c-0.6,0.1-1.1,0.1-1.6,0.1H76v-3
			h18.6v1.8c0,0.1,0,0.3,0,0.4c0,0.1,0,0.2-0.1,0.3c0,0.1-0.1,0.2-0.2,0.2c-0.1,0.1-0.2,0.2-0.3,0.3l-12.5,9.8c0.3,0,0.6,0,0.9-0.1
			c0.3,0,0.6,0,0.8,0h11.3V483.5z"/>
		<path class="st0" d="M76,503.6v-2.7c0-0.3,0.1-0.5,0.2-0.7c0.2-0.2,0.3-0.3,0.6-0.4l3.8-1.4v-7.7l-3.8-1.4
			c-0.2-0.1-0.4-0.2-0.5-0.4c-0.2-0.2-0.2-0.4-0.2-0.7v-2.7l18.6,7.3v3.5L76,503.6z M83,497.5l6.2-2.3c0.3-0.1,0.6-0.2,1-0.3
			c0.4-0.1,0.8-0.2,1.2-0.4c-0.4-0.1-0.8-0.2-1.2-0.3c-0.4-0.1-0.7-0.2-1-0.3l-6.2-2.3V497.5z"/>
	</g>
</g>
</svg>
