<?xml version="1.0" encoding="utf-8"?>
<!-- Generator: Adobe Illustrator 16.0.0, SVG Export Plug-In . SVG Version: 6.00 Build 0)  -->
<!DOCTYPE svg PUBLIC "-//W3C//DTD SVG 1.1//EN" "http://www.w3.org/Graphics/SVG/1.1/DTD/svg11.dtd">
<svg version="1.1" id="Layer_1" xmlns="http://www.w3.org/2000/svg" xmlns:xlink="http://www.w3.org/1999/xlink" x="0px" y="0px"
	 width="278.298px" height="449.872px" viewBox="0 0 278.298 449.872" enable-background="new 0 0 278.298 449.872"
	 xml:space="preserve">
<g>
	<g>
		<defs>
			<rect id="SVGID_1_" x="-497.139" y="-90.064" width="1270.08" height="670.081"/>
		</defs>
		<clipPath id="SVGID_2_">
			<use xlink:href="#SVGID_1_"  overflow="visible"/>
		</clipPath>
		<g clip-path="url(#SVGID_2_)">
			<defs>
				<rect id="SVGID_3_" x="-497.139" y="-90.064" width="1270.08" height="670.081"/>
			</defs>
			<clipPath id="SVGID_4_">
				<use xlink:href="#SVGID_3_"  overflow="visible"/>
			</clipPath>
			<path clip-path="url(#SVGID_4_)" fill="#010101" d="M0,449.872V209.906L73.066,0h136.091l69.141,210.589
				c0,0,3.574,239.283,0,239.283H0z"/>
		</g>
		<g clip-path="url(#SVGID_2_)">
			<defs>
				<rect id="SVGID_5_" x="-497.139" y="-90.064" width="1270.08" height="670.081"/>
			</defs>
			<clipPath id="SVGID_6_">
				<use xlink:href="#SVGID_5_"  overflow="visible"/>
			</clipPath>
			<path clip-path="url(#SVGID_6_)" fill="#841618" d="M58.373,194.652c1.39-0.158,12.4-0.905,13.432-0.873
				c0.972,0.031,1.153,0.354,1.153,1.822c-0.139,36.219-0.463,96.256-0.463,96.561H32.239c0,0-0.882-52.166-1.036-57.986
				c0.021-1.459-2.053-3.049-3.557-4.1c-0.76-0.531-3.98-0.85-21.1-0.814c-0.814,0.002-1.628-0.086-2.442-0.121
				c-0.518-0.023-0.784-0.297-0.885-0.787c-0.161-0.789-0.14-1.572,0.045-2.348c0.137-0.575,0.567-0.918,1.162-0.967
				c16.76-0.659,28.053-4.188,32.2-6.1c11.698-5.047,18.5-17.162,21.306-23.406C58.033,195.311,58.265,194.791,58.373,194.652"/>
			<path clip-path="url(#SVGID_6_)" fill="#841618" d="M78.333,235.68c1.484-2.932,13.366-0.75,16.144-0.217
				c4.726,1.176,14.812,3.133,26.282,0.613c17.127-3.76,28.068-12.114,32.863-17.727c7.254-8.488,11.119-18.168,10.941-30.201
				c-1.354-0.014-3.146,2.676-4.592,5.402c-1.877,3.535-5.625,7.76-11.063,8.383c-14.043,1.614-45.854-0.963-62.839-3.121
				c-0.759-0.097-1.495-0.209-2.197-0.549c-2.292-1.111-4.714-1.646-7.268-1.529c-0.351,0.017-0.709,0.043-1.047,0.13
				c-0.619,0.157-0.82,0.459-0.863,1.112c-0.233,3.563-1.636,79.715-1.525,80.989c0.147,1.674,0.74,1.764,1.203,1.563
				c0.27-0.117,0.538-0.281,0.746-0.486c0.426-0.418,0.85-0.85,1.203-1.326c12.532-16.924,25.124-24.15,36.292-24.439
				c6.71-0.172,11.09,2.727,13.419,5.473c3.917,4.666,8.666,15.365,9.685,32.414c15.084,0,45.691,0,45.691,0
				c-1.221-15.207-14.891-42.611-54.292-44.471c-8.255-0.391-27.953,0.141-47.416,18.455c-1.996,1.877-2.455,1.883-2.734,1.512
				C74.781,264.745,76.245,239.803,78.333,235.68"/>
			<path clip-path="url(#SVGID_6_)" fill="#841618" d="M260.774,157.214c0,0-51.51-0.704-100.785,3.126
				c-73.55,5.716-114.781-3.402-136.872-16.848l7.739-21.595c35.071,21.774,225.66,23.606,226.072,23.605L260.774,157.214z"/>
			<path clip-path="url(#SVGID_6_)" fill="#841618" d="M255.136,319.885c-1.451-0.098-2.844-0.447-4.156-1.086
				c-0.988-0.48-3.549-2.168-4.201-4.93l1.602-0.941c0.406,1.516,0.963,2.469,1.832,3.189c1.207,0.998,2.59,1.598,4.129,1.818
				c0.412,0.059,0.887,0.1,1.305,0.119c0.115-3.352,0.189-6.861,0.242-10.508c-1.459-0.258-2.908-0.516-3.5-0.664
				c-1.791-0.445-3.299-1.396-4.436-2.873c-1.813-2.354-1.697-5.33,0.281-7.553c0.602-0.676,1.289-1.258,2.088-1.68
				c1.883-0.992,3.773-1.492,5.668-1.5c0.008-4.877,0.004-9.982,0.004-15.377c0-33.58-6.748-49.504-12.75-57.596
				c-5.691-7.672-13.225-15.296-16.678-17.833c-9.131-6.709-19.355-7.364-31.203-6.456c-7.738,0.594-15.012,4.444-18.172,6.086
				c-8.309,4.318-15.613,9.92-21.783,16.985c-7.328,8.392-11.832,16.517-16.16,29.146c30.945,6.248,42.158,29.957,43.27,43.771
				l2.701,0.002c0,0-0.039-55.281-0.066-59.139c-0.156-7.433,0.85-18.184,1.441-20.672c1.563-7.371,5.9-11.994,10.98-12.896
				c3.211-0.57,9.145-0.511,13.15,2.705c3.113,2.501,5.609,6.141,6.439,8.214c12.744,31.774,12.867,79.36,11.152,107.458
				c0.91,0.271,1.881,0.402,2.893,0.332c3.342-0.232,6.33-2.725,7.18-6.07c0.223-0.875,0.283-1.768,0.283-2.668
				c-0.002-4.867,0.004-15.641,0.004-15.641h1.799c0,0,0.02,11.1-0.016,16.295c-0.037,5.527-4.031,8.764-7.314,9.602
				c-1.674,0.428-3.439,0.453-4.951,0.098c-0.658,9.965-1.531,17.199-2.084,19.951c-6.813,33.906-12.205,56.025-42.32,57.545
				c-36.848,1.857-66.877-30.07-129.079-19.996c-19.7,3.191-33.566,7.773-50.92,16.209c-1.14,0.553-2.344,1.045-3.577,1.508v20.725
				c5.766-1.379,12.648-3.186,21.529-5.416c32.968-8.275,41.87-15.555,59.551-12.412c33.191,5.904,106.316,24.773,144.611-6.191
				c22.836-18.467,28.348-37.689,29.672-71.646C255.429,319.895,255.284,319.895,255.136,319.885"/>
		</g>
		<g clip-path="url(#SVGID_2_)">
			<defs>
				<rect id="SVGID_7_" x="-497.139" y="-90.064" width="1270.08" height="670.081"/>
			</defs>
			<clipPath id="SVGID_8_">
				<use xlink:href="#SVGID_7_"  overflow="visible"/>
			</clipPath>
			<path clip-path="url(#SVGID_8_)" fill="#FDFEFF" d="M81.25,345.143c0.006-1.637-0.006-1.012-0.006-1.012h-0.001
				c-0.004-0.582-0.009-1.4-0.017-2.537c-0.047-6.957-5.072-11.031-9.206-12.086c-4.089-1.043-7.809-0.238-11.072,2.445
				c-2.94,2.42-4.461,5.57-4.551,9.383c-0.01,0.418-0.016,0.836-0.019,1.254c-0.002-1.232-0.004,0.615-0.005,1.301
				c0,0.033,0,0.063,0,0.094c0,0.09,0,0.146,0,0.146c0,0.045,0,0.09,0,0.135h0.006c0,0.02,0,0.037,0,0.057
				c0,0.375-0.001,0.75-0.003,1.123c-0.001-0.393-0.002-0.787-0.003-1.18c0,0,0,1.059,0.001,2.08
				c-0.003,1.07-0.002,2.141,0.023,3.211c0.09,3.813,1.611,6.963,4.551,9.383c3.263,2.686,6.983,3.488,11.072,2.445
				c4.134-1.057,9.159-5.129,9.206-12.084c0.014-2.094,0.021-3.373,0.024-4.15C81.252,345.417,81.253,345.54,81.25,345.143
				 M78.621,351.836c-1.07,4.209-4.829,7.346-9.033,7.637c-4.684,0.324-8.753-2.525-10.257-6.527
				c-0.5-1.332-0.684-2.707-0.682-4.125c0.003-1.666,0.005-2.771,0.006-3.504c0,0.277,0.001,0.381,0-0.109
				c0.001-1.539-0.001-1.273-0.002-1.133c-0.001-0.502-0.002-1.154-0.004-2.002c-0.002-1.418,0.182-2.793,0.682-4.125
				c1.504-4.002,5.573-6.852,10.257-6.527c4.204,0.291,7.963,3.428,9.033,7.637c0.28,1.102,0.356,2.225,0.356,3.359
				c0,1.5,0,2.375,0,2.842c0,0.693,0,1.719,0,3.221C78.977,349.61,78.9,350.735,78.621,351.836"/>
			<path clip-path="url(#SVGID_8_)" fill="#FDFEFF" d="M135.704,349.055c-1.324-1.686-3.008-2.91-5.092-3.461
				c-1.385-0.365-7.001-1.213-8.379-1.467c-2.232-0.41-3.975-1.594-5.228-3.488c-0.623-0.943-0.935-1.971-0.822-3.111
				c0.11-1.1,0.596-2.029,1.307-2.844c1.081-1.242,2.421-2.111,3.974-2.639c2.325-0.789,4.696-0.893,7.085-0.352
				c1.694,0.385,3.237,1.098,4.522,2.297c0.947,0.885,1.842,2.293,2.096,3.883l2.041-1.129c-0.23-1.516-1.066-2.875-1.859-3.75
				c-0.787-0.871-1.684-1.617-2.727-2.152c-4.731-2.432-9.458-2.375-14.155,0.1c-1.006,0.529-1.871,1.262-2.628,2.113
				c-2.488,2.797-2.634,6.541-0.354,9.504c1.432,1.859,3.329,3.055,5.582,3.615c1.522,0.379,7.539,1.338,8.963,1.686
				c1.541,0.375,2.795,1.275,3.803,2.492c1.65,1.986,1.65,4.5,0.002,6.484c-0.244,0.295-0.516,0.57-0.801,0.826
				c-0.975,0.873-2.125,1.539-3.365,1.957c-2.018,0.682-4.079,0.758-6.144,0.463c-1.935-0.277-3.677-1.033-5.194-2.289
				c-1.095-0.906-1.796-2.105-2.307-4.012l-2.015,1.182c0.821,3.477,4.044,5.602,5.286,6.205c1.652,0.803,3.404,1.242,5.23,1.365
				c3.237,0.219,6.261-0.438,8.984-2.262c0.918-0.615,1.715-1.361,2.361-2.262C137.884,355.209,137.835,351.764,135.704,349.055"/>
			<rect x="261.542" y="329.434" clip-path="url(#SVGID_8_)" fill="#FDFEFF" width="2.254" height="32.758"/>
			<path clip-path="url(#SVGID_8_)" fill="#FDFEFF" d="M192.919,361.827l-11.773-14.363c1.104,0,2.146-0.059,3.131-0.178
				c0.986-0.117,1.996-0.41,3.033-0.881c1.502-0.639,2.805-1.689,3.906-3.15s1.654-3.115,1.654-4.965
				c0-1.176-0.26-2.318-0.777-3.426c-0.518-1.109-1.262-2.1-2.229-2.975c-1.004-0.906-2.172-1.604-3.508-2.092
				c-1.336-0.486-2.771-0.73-4.309-0.73h-11.371v32.76h2.256v-30.49h9.115c1.705,0,3.207,0.336,4.51,1.008
				c1.301,0.67,2.303,1.535,3.006,2.596c0.701,1.057,1.051,2.174,1.051,3.35c0,1.311-0.418,2.512-1.252,3.604
				c-0.836,1.092-1.82,1.908-2.955,2.445c-1.535,0.637-3.539,0.957-6.012,0.957h-4.008l13.527,16.531H192.919z"/>
			<polygon clip-path="url(#SVGID_8_)" fill="#FDFEFF" points="42.007,345.899 54.231,329.067 51.374,329.067 32.389,355.325 
				32.389,329.067 30.135,329.067 30.135,362.381 40.654,347.866 52.327,361.827 55.332,361.827 			"/>
			<polygon clip-path="url(#SVGID_8_)" fill="#FDFEFF" points="164.257,361.827 164.257,359.458 145.421,359.458 145.421,346.606 
				160.099,346.606 160.099,344.288 145.421,344.288 145.421,331.385 164.257,331.385 164.257,329.067 143.167,329.067 
				143.167,361.827 			"/>
			<polygon clip-path="url(#SVGID_8_)" fill="#FDFEFF" points="227.905,329.434 227.905,331.752 240.911,331.752 240.911,362.194 
				243.229,362.194 243.229,331.752 256.185,331.752 256.185,329.434 			"/>
			<polygon clip-path="url(#SVGID_8_)" fill="#FDFEFF" points="195.116,329.344 195.116,331.663 208.122,331.663 208.122,362.104 
				210.44,362.104 210.44,331.663 223.394,331.663 223.394,329.344 			"/>
			<polygon clip-path="url(#SVGID_8_)" fill="#FDFEFF" points="88.287,361.827 86.118,361.827 86.118,329.45 106.151,355.432 
				106.151,329.069 108.32,329.069 108.32,361.799 88.287,335.817 			"/>
		</g>
		<g clip-path="url(#SVGID_2_)">
			<defs>
				<rect id="SVGID_9_" x="-497.139" y="-90.064" width="1270.08" height="670.081"/>
			</defs>
			<clipPath id="SVGID_10_">
				<use xlink:href="#SVGID_9_"  overflow="visible"/>
			</clipPath>
			<path clip-path="url(#SVGID_10_)" fill="#841618" d="M228.286,317.682c-2.422-0.729-4.361-2.555-5.229-4.861
				c-0.398-1.059-0.543-2.152-0.541-3.277c0.008-4.949,0.002-15.914,0.002-15.914h-1.811c0,0,0.004,8.586,0.004,12.338
				c0.002,1.389-0.018,2.775,0.016,4.16c0.07,3.031,1.279,5.533,3.617,7.457c1.197,0.984,2.473,1.652,3.818,2.002"/>
			<path clip-path="url(#SVGID_10_)" fill="#841618" d="M255.888,307.547c1.518,0.268,3.045,0.535,3.623,0.676
				c1.225,0.299,2.219,1.014,3.021,1.979c1.313,1.58,1.311,3.578,0.002,5.156c-0.24,0.291-0.518,0.559-0.807,0.803
				c-0.842,0.713-1.801,1.209-2.859,1.52c-1.057,0.309-2.125,0.418-3.199,0.377l0.033,1.854c2.357,0.066,4.568-0.48,6.574-1.824
				c0.729-0.488,1.361-1.082,1.877-1.797c1.6-2.227,1.561-4.965-0.135-7.117c-1.053-1.34-2.389-2.313-4.045-2.75
				c-0.646-0.172-2.457-0.475-4.063-0.736"/>
			<path clip-path="url(#SVGID_10_)" fill="#841618" d="M255.993,295.108c0.777,0,1.557,0.092,2.34,0.268
				c1.346,0.305,2.572,0.873,3.596,1.826c0.752,0.701,1.463,1.822,1.664,3.086l1.623-0.898c-0.184-1.205-0.85-2.283-1.479-2.979
				c-0.625-0.693-1.338-1.285-2.168-1.711c-1.859-0.957-3.719-1.43-5.576-1.424"/>
			<path clip-path="url(#SVGID_10_)" fill="#841618" d="M255.911,305.686c-1.123-0.182-2.146-0.346-2.598-0.428
				c-1.773-0.328-3.158-1.268-4.154-2.773c-0.496-0.75-0.744-1.568-0.654-2.473c0.088-0.873,0.475-1.613,1.039-2.262
				c0.859-0.986,1.924-1.676,3.158-2.096c1.086-0.369,2.186-0.549,3.293-0.547"/>
			<rect x="211.079" y="293.639" clip-path="url(#SVGID_10_)" fill="#841618" width="1.793" height="26.033"/>
			<path clip-path="url(#SVGID_10_)" fill="#841618" d="M203.993,319.672l-9.355-11.414c0.877,0,1.707-0.047,2.49-0.141
				c0.781-0.092,1.584-0.326,2.408-0.701c1.193-0.506,2.229-1.34,3.105-2.502c0.875-1.162,1.313-2.477,1.313-3.945
				c0-0.936-0.205-1.844-0.615-2.723c-0.412-0.883-1.004-1.668-1.773-2.363c-0.797-0.721-1.725-1.275-2.785-1.664
				c-1.063-0.387-2.205-0.58-3.426-0.58h-9.035v26.033h1.791v-24.23h7.244c1.355,0,2.549,0.268,3.584,0.803
				c1.035,0.533,1.83,1.221,2.389,2.061c0.557,0.84,0.836,1.729,0.836,2.664c0,1.041-0.332,1.996-0.994,2.863
				c-0.664,0.867-1.447,1.516-2.35,1.943c-1.221,0.508-2.814,0.762-4.777,0.762h-3.186l10.75,13.135H203.993z"/>
			<path clip-path="url(#SVGID_10_)" fill="#841618" d="M170.368,293.7l-12.184,26.354h1.992l3.064-6.609h13.773l2.906,6.609h1.951
				L170.368,293.7z M164.077,311.643l6.211-13.498l5.932,13.498H164.077z"/>
			<polygon clip-path="url(#SVGID_10_)" fill="#841618" points="142.888,307.016 152.601,293.641 150.331,293.641 135.243,314.506 
				135.243,293.641 133.452,293.641 133.452,320.114 141.812,308.579 151.089,319.672 153.476,319.672 			"/>
			<polygon clip-path="url(#SVGID_10_)" fill="#841618" points="117.369,307.016 127.083,293.641 124.813,293.641 109.726,314.506 
				109.726,293.641 107.934,293.641 107.934,320.114 116.294,308.579 125.57,319.672 127.958,319.672 			"/>
			<polygon clip-path="url(#SVGID_10_)" fill="#841618" points="101.445,319.672 101.445,317.79 86.476,317.79 86.476,307.579 
				98.14,307.579 98.14,305.735 86.476,305.735 86.476,295.483 101.445,295.483 101.445,293.639 84.685,293.639 84.685,319.672 			
				"/>
			<polygon clip-path="url(#SVGID_10_)" fill="#841618" points="78.197,319.672 78.197,317.79 63.228,317.79 63.228,307.579 
				74.892,307.579 74.892,305.735 63.228,305.735 63.228,295.483 78.197,295.483 78.197,293.639 61.437,293.639 61.437,319.672 			
				"/>
			<polygon clip-path="url(#SVGID_10_)" fill="#841618" points="32.239,293.639 32.239,295.483 42.574,295.483 42.574,319.672 
				44.417,319.672 44.417,295.483 54.711,295.483 54.711,293.639 			"/>
		</g>
		<g clip-path="url(#SVGID_2_)">
			<path fill="#841618" d="M50.073,102.934v-32.32h21.38v6.995H57.989v5.838h12.439v6.89H57.989v5.812h14.07v6.785H50.073z
				 M52.072,101.435H70.06v-3.787H56.017v-8.836h12.439v-3.866H56.017V76.11h13.465v-3.971h-17.41V101.435z M52.782,100.777
				l0.263-0.263h16.489v0.263H52.782z M53.098,73.138l-0.263-0.263h16.095v0.263H53.098z M54.176,74.216l-0.263-0.263h15.017v0.263
				H54.176z M53.913,99.699l0.263-0.263h15.358v0.263H53.913z M55.254,75.294l-0.263-0.263h13.938v0.263H55.254z M54.991,98.621
				l0.315-0.263h14.227v0.263H54.991z M56.017,85.919v-0.263h11.887v0.263H56.017z M56.017,86.997v-0.263h11.887v0.263H56.017z
				 M56.017,88.075v-0.263h11.887v0.263H56.017z"/>
			<path fill="#841618" d="M75.688,93.466h7.705c0,0.93,0.324,1.727,0.973,2.393c0.648,0.667,1.438,1,2.367,1
				c1,0,1.789-0.263,2.367-0.789s0.868-1.201,0.868-2.025c0-0.315-0.053-0.618-0.158-0.907c-0.105-0.29-0.285-0.552-0.539-0.789
				c-0.254-0.237-0.5-0.442-0.736-0.618c-0.237-0.175-0.579-0.355-1.026-0.539c-0.447-0.184-0.798-0.319-1.052-0.408
				c-0.254-0.087-0.649-0.219-1.184-0.394s-0.907-0.307-1.118-0.395c-2.91-1.034-5.049-2.297-6.417-3.787
				c-1.368-1.49-2.051-3.559-2.051-6.206c0-2.875,1.078-5.339,3.235-7.39c2.156-2.051,4.742-3.077,7.758-3.077
				c3.418,0,6.048,0.969,7.889,2.906c1.841,1.938,2.875,4.493,3.103,7.666H90.23c0-0.964-0.285-1.762-0.855-2.393
				c-0.57-0.631-1.398-0.947-2.485-0.947c-0.93,0-1.727,0.268-2.394,0.802c-0.666,0.535-0.999,1.302-0.999,2.301
				c0,0.316,0.053,0.623,0.158,0.92c0.105,0.298,0.276,0.552,0.513,0.763c0.237,0.21,0.464,0.391,0.684,0.539
				c0.219,0.149,0.543,0.294,0.973,0.434c0.43,0.141,0.776,0.254,1.039,0.342c0.263,0.088,0.657,0.207,1.183,0.355
				c0.526,0.149,0.912,0.259,1.157,0.329c5.645,1.683,8.468,5.023,8.468,10.02c0,2.876-1.069,5.334-3.208,7.377
				c-2.139,2.042-4.716,3.063-7.732,3.063c-3.418,0-6.114-1.004-8.086-3.011C76.674,98.994,75.688,96.482,75.688,93.466z
				 M77.581,94.965c0.07,2.051,0.986,3.822,2.748,5.312c1.762,1.491,3.896,2.235,6.403,2.235s4.65-0.881,6.43-2.643
				c1.779-1.762,2.669-3.861,2.669-6.299c0-2.542-0.684-4.453-2.051-5.733c-1.367-1.279-3.41-2.314-6.127-3.103
				c-1.069-0.315-1.85-0.556-2.34-0.723c-0.491-0.167-1.078-0.438-1.762-0.815c-0.684-0.376-1.157-0.837-1.42-1.38
				c-0.263-0.543-0.395-1.192-0.395-1.946c0-1.402,0.464-2.524,1.394-3.366c0.929-0.841,2.13-1.262,3.603-1.262
				c2.507,0,4.155,1.114,4.944,3.34h4.05c-0.175-1.946-1.008-3.686-2.499-5.22c-1.49-1.534-3.655-2.301-6.496-2.301
				c-2.507,0-4.667,0.877-6.482,2.63c-1.814,1.753-2.722,3.857-2.722,6.312c0,2.121,0.53,3.835,1.591,5.141s3.002,2.459,5.825,3.458
				c0.21,0.07,0.648,0.224,1.315,0.46c0.666,0.236,1.135,0.408,1.407,0.513s0.679,0.285,1.223,0.539
				c0.543,0.254,0.938,0.486,1.183,0.697s0.521,0.478,0.829,0.802c0.307,0.325,0.521,0.684,0.645,1.078
				c0.122,0.395,0.184,0.846,0.184,1.354c0,1.368-0.491,2.428-1.473,3.182s-2.156,1.131-3.524,1.131
				c-1.297-0.035-2.384-0.377-3.261-1.026c-0.877-0.648-1.438-1.438-1.683-2.367H77.581z M78.054,79.66v-0.263h3.129v0.263H78.054z
				 M78.054,80.738v-0.263h3.129l0.053,0.263H78.054z M78.16,78.582l0.105-0.315h3.129l-0.105,0.315H78.16z M78.212,81.869
				l-0.052-0.263h3.234l0.105,0.263H78.212z M78.501,82.947l-0.053-0.263h3.603l-0.053-0.053l0.315,0.316H78.501z M78.501,77.451
				l0.053-0.263h3.287l-0.184,0.263H78.501z M78.922,76.373l0.158-0.315h3.708l-0.368,0.315H78.922z M79.132,84.078l-0.158-0.263
				h4.366l0.42,0.263H79.132z M79.58,75.242l0.21-0.263h4.733l-0.579,0.263H79.58z M80.105,85.156l-0.263-0.263h6.18l1.026,0.263
				H80.105z M80.474,74.164l0.342-0.263h5.917v0.263H80.474z M81.657,86.287l-0.579-0.316h8.441l0.815,0.316H81.657z M81.999,73.033
				l0.421-0.263h4.313v0.263H81.999z M83.183,87.102h8.678l0.315,0.263h-8.573L83.183,87.102z M84.313,71.955l1.289-0.263h1.13
				v0.263H84.313z M85.392,88.18h7.916l0.263,0.316h-7.364L85.392,88.18z M86.732,99.489v-0.263h6.127l-0.263,0.263H86.732z
				 M86.732,100.567v-0.263h4.839l-0.368,0.263H86.732z M86.732,101.698v-0.263h2.735l-1,0.263H86.732z M88.521,89.311h5.707
				l0.105,0.263H89.1L88.521,89.311z M89.362,98.41l0.658-0.315h3.813l-0.158,0.21l-0.053,0.105H89.362z M90.546,90.39h4.155
				l0.105,0.263h-3.918L90.546,90.39z M90.993,97.279l0.263-0.263h3.182l-0.158,0.263H90.993z M91.677,91.783l-0.158-0.263h3.55
				l0.131,0.263H91.677z M91.808,96.201l0.158-0.315h2.945l-0.105,0.315H91.808z M92.124,92.861l-0.052-0.263h3.182v0.263H92.124z
				 M92.176,95.07l0.053-0.263h2.972l-0.079,0.263H92.176z M92.282,93.992v-0.263h3.024l-0.052,0.263H92.282z"/>
			<path fill="#841618" d="M102.985,102.934v-32.32h7.916v32.32H102.985z M104.983,101.435h3.945V72.139h-3.945V101.435z
				 M105.536,72.875v-0.263h2.84v0.263H105.536z M105.536,73.953V73.69h2.84v0.263H105.536z M105.536,75.031v-0.263h2.84v0.263
				H105.536z M105.536,76.11v-0.263h2.84v0.263H105.536z M105.536,77.188v-0.263h2.84v0.263H105.536z M105.536,78.266v-0.263h2.84
				v0.263H105.536z M105.536,79.344v-0.263h2.84v0.263H105.536z M105.536,80.422V80.16h2.84v0.263H105.536z M105.536,81.5v-0.263
				h2.84V81.5H105.536z M105.536,82.579v-0.263h2.84v0.263H105.536z M105.536,83.657v-0.263h2.84v0.263H105.536z M105.536,84.735
				v-0.263h2.84v0.263H105.536z M105.536,85.813v-0.289h2.84v0.289H105.536z M105.536,86.892v-0.289h2.84v0.289H105.536z
				 M105.536,87.97v-0.29h2.84v0.29H105.536z"/>
			<path fill="#841618" d="M121.814,102.934V77.608h-7.258v-6.995h22.512v6.995h-7.338v25.325H121.814z M123.813,101.435h3.945
				V76.11h7.311v-3.971h-18.514v3.971h7.258V101.435z M117.081,73.217v-0.289h17.461v0.289H117.081z M117.081,74.269v-0.263h17.461
				v0.263H117.081z M117.081,75.347v-0.263h17.461v0.263H117.081z"/>
			<path fill="#841618" d="M146.456,102.934V77.608h-7.26v-6.995h22.512v6.995h-7.338v25.325H146.456z M148.454,101.435h3.945V76.11
				h7.311v-3.971h-18.514v3.971h7.258V101.435z M141.722,73.217v-0.289h17.461v0.289H141.722z M141.722,74.269v-0.263h17.461v0.263
				H141.722z M141.722,75.347v-0.263h17.461v0.263H141.722z"/>
			<path fill="#841618" d="M158.835,102.934l15.727-33.398h1.395l15.83,33.398h-8.494l-1.631-3.34h-12.754l-1.578,3.34H158.835z
				 M161.622,101.435h4.262l9.045-19.513h0.764l8.941,19.513h4.365l-13.754-28.98L161.622,101.435z M165.015,95.281l0.158-0.263
				h2.973l-0.158,0.263H165.015z M165.567,94.203l0.105-0.263h2.971l-0.184,0.263H165.567z M166.04,93.125l0.158-0.263h2.92
				l-0.158,0.263H166.04z M166.593,92.046l0.105-0.263h2.893l-0.158,0.263H166.593z M167.065,90.968l0.158-0.263h2.92l-0.158,0.263
				H167.065z M167.618,89.89l0.105-0.263h2.893l-0.158,0.263H167.618z M168.093,88.812l0.104-0.263h2.92l-0.158,0.263H168.093z
				 M168.565,87.733l0.184-0.263h2.893l-0.156,0.263H168.565z M173.589,66.958c-0.51,0.509-1.158,0.763-1.947,0.763
				s-1.432-0.254-1.932-0.763c-0.5-0.508-0.75-1.122-0.75-1.841s0.25-1.328,0.75-1.828c0.5-0.5,1.143-0.75,1.932-0.75
				s1.438,0.25,1.947,0.75c0.508,0.5,0.762,1.109,0.762,1.828S174.097,66.45,173.589,66.958z M169.118,86.682l0.105-0.29h2.918
				l-0.184,0.29H169.118z M169.485,98.147h11.545l-1.262-2.709h-9.1L169.485,98.147z M169.591,85.603l0.184-0.289h2.893
				l-0.156,0.289H169.591z M170.144,84.525l0.105-0.289h2.918l-0.184,0.289H170.144z M170.354,65.13
				c0,1.008,0.428,1.512,1.287,1.512s1.289-0.504,1.289-1.512s-0.43-1.512-1.289-1.512S170.354,64.122,170.354,65.13z
				 M170.616,83.447l0.158-0.289h2.92l-0.158,0.289H170.616z M170.669,97.438l0.105-0.263h8.73l0.105,0.263H170.669z
				 M170.905,65.275v-0.263h1.5v0.263H170.905z M170.958,64.433l0.105-0.289h1.236l0.053,0.289H170.958z M171.063,66.143
				l-0.105-0.263h1.447l-0.105,0.263H171.063z M171.169,82.369l0.105-0.29h2.893l-0.158,0.29H171.169z M171.169,96.359l0.105-0.263
				h7.811l0.158,0.263H171.169z M171.433,93.887h7.494l-3.682-8.126h-0.105L171.433,93.887z M171.642,81.291l0.158-0.29h6.838
				l0.184,0.29H171.642z M172.194,80.212l0.105-0.263h5.865l0.104,0.263H172.194z M172.667,79.134l0.105-0.263h4.865l0.158,0.263
				H172.667z M173.167,78.056l0.158-0.263h3.813l0.105,0.263H173.167z M173.694,76.978l0.104-0.263h2.814l0.158,0.263H173.694z
				 M174.167,75.899l0.184-0.263h1.762l0.105,0.263H174.167z M174.72,74.821l0.105-0.263h0.762l0.158,0.263H174.72z M175.14,73.848
				l0.105-0.21l0.131,0.21H175.14z M180.808,66.958c-0.5,0.509-1.145,0.763-1.934,0.763s-1.438-0.254-1.945-0.763
				c-0.51-0.508-0.764-1.122-0.764-1.841s0.254-1.328,0.764-1.828c0.508-0.5,1.156-0.75,1.945-0.75s1.434,0.25,1.934,0.75
				c0.5,0.5,0.748,1.109,0.748,1.828S181.308,66.45,180.808,66.958z M176.56,82.369l-0.184-0.29h2.814l0.105,0.29H176.56z
				 M177.034,83.447l-0.158-0.289h2.787l0.158,0.289H177.034z M177.507,84.525l-0.158-0.289h2.867l0.105,0.289H177.507z
				 M177.56,65.13c0,1.008,0.434,1.512,1.301,1.512c0.869,0,1.303-0.504,1.303-1.512s-0.434-1.512-1.303-1.512
				C177.993,63.618,177.56,64.122,177.56,65.13z M178.007,85.603l-0.158-0.289h2.84l0.158,0.289H178.007z M178.112,65.275v-0.263
				h1.498v0.263H178.112z M178.165,64.433l0.104-0.289h1.236l0.053,0.289H178.165z M178.269,66.143l-0.104-0.263h1.445l-0.105,0.263
				H178.269z M178.479,86.682l-0.158-0.29h2.92l0.105,0.29H178.479z M178.979,87.733l-0.158-0.263h2.893l0.158,0.263H178.979z
				 M179.452,88.812l-0.156-0.263h2.971l0.105,0.263H179.452z M179.952,89.89l-0.184-0.263h2.971l0.158,0.263H179.952z
				 M180.269,90.705h3.023l0.105,0.263h-2.973L180.269,90.705z M180.688,91.783h3.076l0.158,0.263h-3.076L180.688,91.783z
				 M181.188,92.861h3.104l0.131,0.263h-3.076L181.188,92.861z M181.661,93.939h3.131l0.156,0.263h-3.129L181.661,93.939z
				 M182.108,95.018h3.209l0.105,0.263h-3.156L182.108,95.018z"/>
			<path fill="#841618" d="M193.495,102.934l15.727-33.398h1.395l15.83,33.398h-8.494l-1.631-3.34h-12.754l-1.578,3.34H193.495z
				 M196.282,101.435h4.262l9.045-19.513h0.764l8.941,19.513h4.365l-13.754-28.98L196.282,101.435z M199.675,95.281l0.158-0.263
				h2.973l-0.158,0.263H199.675z M200.228,94.203l0.105-0.263h2.971l-0.184,0.263H200.228z M200.7,93.125l0.158-0.263h2.92
				l-0.158,0.263H200.7z M201.253,92.046l0.105-0.263h2.893l-0.158,0.263H201.253z M201.726,90.968l0.158-0.263h2.92l-0.158,0.263
				H201.726z M202.278,89.89l0.105-0.263h2.893l-0.158,0.263H202.278z M202.753,88.812l0.104-0.263h2.92l-0.158,0.263H202.753z
				 M203.226,87.733l0.184-0.263h2.893l-0.156,0.263H203.226z M208.249,66.958c-0.51,0.509-1.158,0.763-1.947,0.763
				s-1.432-0.254-1.932-0.763c-0.5-0.508-0.75-1.122-0.75-1.841s0.25-1.328,0.75-1.828c0.5-0.5,1.143-0.75,1.932-0.75
				s1.438,0.25,1.947,0.75c0.508,0.5,0.762,1.109,0.762,1.828S208.757,66.45,208.249,66.958z M203.778,86.682l0.105-0.29h2.918
				l-0.184,0.29H203.778z M204.146,98.147h11.545l-1.262-2.709h-9.1L204.146,98.147z M204.251,85.603l0.184-0.289h2.893
				l-0.156,0.289H204.251z M204.804,84.525l0.105-0.289h2.918l-0.184,0.289H204.804z M205.015,65.13
				c0,1.008,0.428,1.512,1.287,1.512s1.289-0.504,1.289-1.512s-0.43-1.512-1.289-1.512S205.015,64.122,205.015,65.13z
				 M205.276,83.447l0.158-0.289h2.92l-0.158,0.289H205.276z M205.329,97.438l0.105-0.263h8.73l0.105,0.263H205.329z
				 M205.565,65.275v-0.263h1.5v0.263H205.565z M205.618,64.433l0.105-0.289h1.236l0.053,0.289H205.618z M205.724,66.143
				l-0.105-0.263h1.447l-0.105,0.263H205.724z M205.829,82.369l0.105-0.29h2.893l-0.158,0.29H205.829z M205.829,96.359l0.105-0.263
				h7.811l0.158,0.263H205.829z M206.093,93.887h7.494l-3.682-8.126H209.8L206.093,93.887z M206.302,81.291l0.158-0.29h6.838
				l0.184,0.29H206.302z M206.854,80.212l0.105-0.263h5.865l0.104,0.263H206.854z M207.327,79.134l0.105-0.263h4.865l0.158,0.263
				H207.327z M207.827,78.056l0.158-0.263h3.813l0.105,0.263H207.827z M208.354,76.978l0.104-0.263h2.814l0.158,0.263H208.354z
				 M208.827,75.899l0.184-0.263h1.762l0.105,0.263H208.827z M209.38,74.821l0.105-0.263h0.762l0.158,0.263H209.38z M209.8,73.848
				l0.105-0.21l0.131,0.21H209.8z M215.468,66.958c-0.5,0.509-1.145,0.763-1.934,0.763s-1.438-0.254-1.945-0.763
				c-0.51-0.508-0.764-1.122-0.764-1.841s0.254-1.328,0.764-1.828c0.508-0.5,1.156-0.75,1.945-0.75s1.434,0.25,1.934,0.75
				c0.5,0.5,0.748,1.109,0.748,1.828S215.968,66.45,215.468,66.958z M211.22,82.369l-0.184-0.29h2.814l0.105,0.29H211.22z
				 M211.694,83.447l-0.158-0.289h2.787l0.158,0.289H211.694z M212.167,84.525l-0.158-0.289h2.867l0.105,0.289H212.167z
				 M212.22,65.13c0,1.008,0.434,1.512,1.301,1.512c0.869,0,1.303-0.504,1.303-1.512s-0.434-1.512-1.303-1.512
				C212.653,63.618,212.22,64.122,212.22,65.13z M212.667,85.603l-0.158-0.289h2.84l0.158,0.289H212.667z M212.772,65.275v-0.263
				h1.498v0.263H212.772z M212.825,64.433l0.104-0.289h1.236l0.053,0.289H212.825z M212.929,66.143l-0.104-0.263h1.445l-0.105,0.263
				H212.929z M213.14,86.682l-0.158-0.29h2.92l0.105,0.29H213.14z M213.64,87.733l-0.158-0.263h2.893l0.158,0.263H213.64z
				 M214.112,88.812l-0.156-0.263h2.971l0.105,0.263H214.112z M214.612,89.89l-0.184-0.263h2.971l0.158,0.263H214.612z
				 M214.929,90.705h3.023l0.105,0.263h-2.973L214.929,90.705z M215.349,91.783h3.076l0.158,0.263h-3.076L215.349,91.783z
				 M215.849,92.861h3.104l0.131,0.263h-3.076L215.849,92.861z M216.321,93.939h3.131l0.156,0.263h-3.129L216.321,93.939z
				 M216.769,95.018h3.209l0.105,0.263h-3.156L216.769,95.018z"/>
			<path fill="#841618" d="M228.474,81.173c0-1.993,1.346-3.394,3.23-3.394c1.887,0,3.125,1.4,3.18,3.394
				c0,1.885-1.24,3.339-3.232,3.339C229.767,84.512,228.474,83.058,228.474,81.173z M228.474,100.187
				c0-1.993,1.346-3.394,3.23-3.394c1.887,0,3.125,1.4,3.18,3.394c0,1.885-1.24,3.339-3.232,3.339
				C229.767,103.526,228.474,102.072,228.474,100.187z"/>
		</g>
	</g>
</g>
</svg>
