<?xml version="1.0" encoding="utf-8"?>
<!-- Generator: Adobe Illustrator 16.0.0, SVG Export Plug-In . SVG Version: 6.00 Build 0)  -->
<!DOCTYPE svg PUBLIC "-//W3C//DTD SVG 1.1//EN" "http://www.w3.org/Graphics/SVG/1.1/DTD/svg11.dtd">
<svg version="1.1" id="Layer_1" xmlns="http://www.w3.org/2000/svg" xmlns:xlink="http://www.w3.org/1999/xlink" x="0px" y="0px"
	 width="278.298px" height="449.872px" viewBox="0 0 278.298 449.872" enable-background="new 0 0 278.298 449.872"
	 xml:space="preserve">
<g>
	<defs>
		<polygon id="SVGID_1_" points="73.065,0 0,209.906 0,449.872 278.298,449.872 278.298,210.589 209.157,0 		"/>
	</defs>
	<clipPath id="SVGID_2_">
		<use xlink:href="#SVGID_1_"  overflow="visible"/>
	</clipPath>
	<g clip-path="url(#SVGID_2_)">
		<defs>
			<rect id="SVGID_3_" x="-852.702" y="-90.064" width="1270.08" height="670.08"/>
		</defs>
		<clipPath id="SVGID_4_">
			<use xlink:href="#SVGID_3_"  overflow="visible"/>
		</clipPath>
		<g clip-path="url(#SVGID_4_)">
			<path fill="#010101" d="M0,449.872V209.906L73.065,0h136.092l69.141,210.589c0,0,3.574,239.283,0,239.283H0z"/>
			<path fill="#010101" d="M-355.563,449.872V209.906L-282.497,0h136.092l69.141,210.589c0,0,3.574,239.283,0,239.283H-355.563z"/>
			<path fill="#010101" d="M-713.01,449.872V209.906L-639.944,0h136.091l69.141,210.589c0,0,3.574,239.283,0,239.283H-713.01z"/>
		</g>
		<g clip-path="url(#SVGID_4_)">
			<defs>
				<rect id="SVGID_5_" x="-852.702" y="-90.064" width="1270.08" height="670.08"/>
			</defs>
			<clipPath id="SVGID_6_">
				<use xlink:href="#SVGID_5_"  overflow="visible"/>
			</clipPath>
			<path clip-path="url(#SVGID_6_)" fill="#841618" d="M-110.654,352.311l-0.057-0.006c0.004,0.006,0.008,0.012,0.011,0.017
				L-110.654,352.311z"/>
			<path clip-path="url(#SVGID_6_)" fill="#841618" d="M-297.19,194.652c1.39-0.157,12.4-0.905,13.432-0.873
				c0.972,0.031,1.153,0.354,1.153,1.823c-0.139,36.218-0.463,96.256-0.463,96.561h-40.256c0,0-0.882-52.166-1.036-57.986
				c0.021-1.46-2.053-3.049-3.557-4.101c-0.76-0.53-3.98-0.85-21.1-0.814c-0.814,0.002-1.628-0.086-2.442-0.121
				c-0.518-0.023-0.784-0.296-0.885-0.787c-0.161-0.789-0.14-1.572,0.045-2.348c0.137-0.574,0.567-0.918,1.162-0.967
				c16.76-0.659,28.053-4.188,32.2-6.1c11.698-5.047,18.5-17.163,21.306-23.406C-297.53,195.311-297.298,194.791-297.19,194.652"/>
			<path clip-path="url(#SVGID_6_)" fill="#841618" d="M-277.23,235.68c1.484-2.932,13.366-0.75,16.144-0.217
				c4.726,1.176,14.812,3.133,26.282,0.614c17.127-3.761,28.068-12.114,32.864-17.728c7.253-8.488,11.118-18.167,10.941-30.202
				c-1.354-0.013-3.146,2.676-4.593,5.403c-1.876,3.535-5.625,7.759-11.062,8.383c-14.043,1.614-45.854-0.964-62.84-3.122
				c-0.759-0.096-1.495-0.209-2.197-0.549c-2.292-1.11-4.714-1.645-7.268-1.528c-0.351,0.016-0.709,0.043-1.047,0.129
				c-0.619,0.157-0.82,0.459-0.863,1.113c-0.233,3.563-1.636,79.715-1.525,80.988c0.147,1.674,0.74,1.764,1.203,1.563
				c0.27-0.117,0.538-0.281,0.746-0.486c0.426-0.418,0.85-0.85,1.203-1.327c12.532-16.923,25.124-24.149,36.292-24.438
				c6.71-0.173,11.09,2.726,13.419,5.473c3.918,4.665,8.665,15.364,9.685,32.414c15.084,0,45.692,0,45.692,0
				c-1.222-15.208-14.891-42.611-54.293-44.471c-8.255-0.391-27.953,0.141-47.416,18.454c-1.996,1.878-2.455,1.884-2.734,1.513
				C-280.782,264.744-279.318,239.803-277.23,235.68"/>
			<path clip-path="url(#SVGID_6_)" fill="#841618" d="M-564.142,449.872h-30.241c0.468-0.932,2.586-13.097,27.575-30.128
				c23.034-15.7,76.681-46.92,133.681-26.297l-0.132,25.212C-523.784,385.906-562.644,446.952-564.142,449.872"/>
			<path clip-path="url(#SVGID_6_)" fill="#841618" d="M-677.373,107.531l9.904-28.479c23.527-27.288,71.043-70.712,116.855-74.49
				c35.767-2.949,50.6,9.84,51.55,10.331l9.276,27.944c-0.109-0.053-30.48-19.571-59.642-15.56
				C-588.672,32.678-639.12,63.163-677.373,107.531"/>
			<path clip-path="url(#SVGID_6_)" fill="#841618" d="M-94.789,157.214c0,0-51.509-0.704-100.785,3.126
				c-73.55,5.716-114.781-3.402-136.871-16.848l7.739-21.595c35.071,21.774,225.66,23.606,226.072,23.605L-94.789,157.214z"/>
			<path clip-path="url(#SVGID_6_)" fill="#841618" d="M102.5,230.705c0.312-1.893-0.97-3.679-2.861-3.99l-10.587-1.74
				c-1.892-0.311-3.678,0.97-3.988,2.861l-0.144,0.867l-49.152-1.266c-3.369-0.555-6.483,1.327-6.955,4.201l-0.977,5.933
				c-0.473,2.874,1.875,5.653,5.244,6.207l46.97,14.543l-0.152,0.925c-0.313,1.893,0.97,3.679,2.862,3.989l10.586,1.741
				c1.892,0.311,3.678-0.97,3.988-2.862l0.93-5.647l3.246-19.739L102.5,230.705z"/>
			<path clip-path="url(#SVGID_6_)" fill="#841618" d="M237.852,87.397L225.46,49.653c-20.537-10.741-47.558-14.403-80.609-3.186
				c-55.279,18.762-109.586,68.726-112.27,69.84l-9.026,25.928c0.635-0.263,73.903-74.377,131.509-86.236
				C195.849,47.604,222.747,66.749,237.852,87.397"/>
			<path clip-path="url(#SVGID_6_)" fill="#841618" d="M250.152,124.862c-4.273,19.248-22.492,44.543-46.152,46.712
				c-12.642,1.19-19.575,4.596-30.231,12.214c-39.436,28.192-38.925,54.159-76.138,53.698l-6.517,18.318
				c0,0,34.599,6.067,51.077-19.807c16.198-25.436,57.005-56.318,85.554-57.786c16.049-1.95,26.979-8.802,33.941-18.219
				L250.152,124.862z"/>
			<path clip-path="url(#SVGID_6_)" fill="#841618" d="M-100.427,319.885c-1.452-0.098-2.845-0.447-4.157-1.086
				c-0.987-0.48-3.548-2.167-4.2-4.93l1.601-0.94c0.406,1.515,0.963,2.469,1.833,3.189c1.206,0.998,2.59,1.598,4.128,1.817
				c0.413,0.06,0.887,0.101,1.306,0.119c0.115-3.352,0.189-6.86,0.242-10.508c-1.459-0.258-2.908-0.516-3.5-0.663
				c-1.791-0.445-3.3-1.396-4.437-2.873c-1.813-2.354-1.697-5.33,0.281-7.553c0.602-0.677,1.289-1.258,2.089-1.68
				c1.883-0.992,3.773-1.492,5.667-1.5c0.009-4.877,0.004-9.983,0.004-15.378c0-33.58-6.747-49.504-12.75-57.596
				c-5.69-7.672-13.224-15.296-16.677-17.833c-9.132-6.709-19.356-7.365-31.204-6.456c-7.738,0.594-15.012,4.444-18.171,6.086
				c-8.31,4.318-15.613,9.92-21.783,16.985c-7.329,8.392-11.832,16.518-16.161,29.146c30.945,6.248,42.159,29.958,43.27,43.772
				l2.702,0.001c0,0-0.039-55.281-0.066-59.139c-0.157-7.433,0.85-18.184,1.441-20.671c1.562-7.372,5.9-11.995,10.979-12.896
				c3.212-0.57,9.146-0.511,13.15,2.705c3.113,2.501,5.609,6.141,6.44,8.214c12.743,31.773,12.867,79.359,11.152,107.457
				c0.909,0.271,1.88,0.402,2.893,0.332c3.341-0.231,6.329-2.724,7.18-6.069c0.223-0.876,0.282-1.769,0.282-2.669
				c-0.001-4.867,0.004-15.641,0.004-15.641h1.799c0,0,0.021,11.101-0.015,16.295c-0.037,5.527-4.031,8.765-7.315,9.603
				c-1.673,0.428-3.438,0.452-4.951,0.097c-0.658,9.966-1.53,17.199-2.083,19.951c-6.813,33.907-12.206,56.026-42.32,57.545
				c-36.849,1.857-66.878-30.069-129.079-19.995c-19.7,3.19-33.566,7.772-50.92,16.208c-1.14,0.553-2.344,1.045-3.577,1.509v20.724
				c5.766-1.379,12.648-3.186,21.529-5.415c32.968-8.276,41.87-15.556,59.551-12.412c33.191,5.903,106.315,24.773,144.61-6.192
				c22.837-18.466,28.348-37.688,29.672-71.646C-100.134,319.896-100.279,319.895-100.427,319.885"/>
			<path clip-path="url(#SVGID_6_)" fill="#841618" d="M-106.019,297.751c-0.564,0.649-0.951,1.387-1.039,2.261
				c-0.09,0.906,0.158,1.724,0.654,2.473c0.995,1.506,2.381,2.446,4.154,2.772c0.449,0.083,1.464,0.245,2.58,0.427v1.38
				c0.052-3.814,0.079-7.784,0.091-11.95c-1.104,0-2.199,0.175-3.282,0.542C-104.094,296.074-105.159,296.765-106.019,297.751"/>
		</g>
		<g clip-path="url(#SVGID_4_)">
			<defs>
				<rect id="SVGID_7_" x="-852.702" y="-90.064" width="1270.08" height="670.08"/>
			</defs>
			<clipPath id="SVGID_8_">
				<use xlink:href="#SVGID_7_"  overflow="visible"/>
			</clipPath>
			<path clip-path="url(#SVGID_8_)" fill="#FDFEFF" d="M-274.313,345.143c0.006-1.637-0.006-1.011-0.006-1.011h-0.001
				c-0.004-0.582-0.009-1.4-0.017-2.538c-0.047-6.956-5.072-11.03-9.206-12.085c-4.089-1.043-7.809-0.239-11.072,2.444
				c-2.94,2.42-4.461,5.57-4.551,9.383c-0.01,0.418-0.016,0.836-0.019,1.254c-0.002-1.232-0.004,0.615-0.005,1.302
				c0,0.032,0,0.063,0,0.094c0,0.09,0,0.146,0,0.146c0,0.045,0,0.089,0,0.134h0.006c0,0.02,0,0.037,0,0.057
				c0,0.375-0.001,0.75-0.003,1.124c-0.001-0.394-0.002-0.788-0.003-1.181c0,0,0,1.06,0.001,2.081
				c-0.003,1.07-0.002,2.141,0.023,3.211c0.09,3.813,1.611,6.963,4.551,9.382c3.263,2.686,6.983,3.489,11.072,2.445
				c4.134-1.056,9.159-5.129,9.206-12.084c0.014-2.093,0.021-3.372,0.024-4.149C-274.311,345.417-274.31,345.539-274.313,345.143
				 M-276.942,351.837c-1.07,4.209-4.829,7.346-9.033,7.637c-4.684,0.323-8.753-2.526-10.257-6.528
				c-0.5-1.332-0.684-2.707-0.682-4.124c0.003-1.666,0.005-2.771,0.006-3.505c0,0.278,0.001,0.381,0-0.109
				c0.001-1.538-0.001-1.273-0.002-1.132c-0.001-0.503-0.002-1.154-0.004-2.003c-0.002-1.418,0.182-2.793,0.682-4.125
				c1.504-4.001,5.573-6.851,10.257-6.526c4.204,0.29,7.963,3.428,9.033,7.637c0.28,1.102,0.356,2.225,0.356,3.358
				c0,1.501,0,2.375,0,2.843c0,0.693,0,1.718,0,3.22C-276.586,349.61-276.663,350.734-276.942,351.837"/>
			<path clip-path="url(#SVGID_8_)" fill="#FDFEFF" d="M-219.858,349.055c-1.325-1.685-3.009-2.909-5.092-3.461
				c-1.384-0.365-7.002-1.212-8.38-1.466c-2.232-0.411-3.975-1.594-5.228-3.489c-0.623-0.942-0.935-1.971-0.822-3.111
				c0.11-1.1,0.596-2.028,1.307-2.844c1.081-1.241,2.421-2.11,3.974-2.639c2.325-0.789,4.696-0.892,7.085-0.351
				c1.694,0.384,3.238,1.097,4.523,2.297c0.948,0.884,1.841,2.293,2.095,3.883l2.042-1.13c-0.23-1.515-1.067-2.874-1.859-3.75
				c-0.788-0.871-1.685-1.616-2.728-2.152c-4.731-2.431-9.458-2.375-14.155,0.101c-1.006,0.529-1.871,1.262-2.628,2.112
				c-2.488,2.798-2.634,6.542-0.354,9.505c1.432,1.858,3.329,3.055,5.582,3.614c1.522,0.379,7.539,1.339,8.964,1.687
				c1.541,0.375,2.794,1.275,3.802,2.491c1.651,1.987,1.65,4.501,0.003,6.485c-0.244,0.294-0.516,0.569-0.802,0.825
				c-0.973,0.874-2.125,1.539-3.365,1.958c-2.018,0.681-4.079,0.757-6.144,0.462c-1.935-0.276-3.677-1.032-5.194-2.288
				c-1.095-0.906-1.796-2.105-2.307-4.013l-2.015,1.183c0.821,3.477,4.044,5.601,5.286,6.204c1.652,0.803,3.404,1.243,5.23,1.366
				c3.237,0.218,6.261-0.438,8.985-2.263c0.918-0.615,1.715-1.361,2.361-2.261C-217.679,355.209-217.728,351.764-219.858,349.055"/>
			<rect x="-94.021" y="329.434" clip-path="url(#SVGID_8_)" fill="#FDFEFF" width="2.254" height="32.759"/>
			<path clip-path="url(#SVGID_8_)" fill="#FDFEFF" d="M-162.644,361.826l-11.773-14.363c1.104,0,2.146-0.059,3.131-0.177
				c0.985-0.117,1.995-0.411,3.032-0.882c1.502-0.639,2.806-1.688,3.907-3.15c1.101-1.461,1.653-3.115,1.653-4.964
				c0-1.176-0.26-2.319-0.776-3.427c-0.518-1.109-1.262-2.1-2.229-2.974c-1.004-0.906-2.173-1.604-3.508-2.092
				c-1.337-0.487-2.771-0.73-4.309-0.73h-11.371v32.759h2.255v-30.49h9.116c1.704,0,3.206,0.336,4.509,1.008
				c1.302,0.671,2.304,1.536,3.006,2.596c0.701,1.057,1.052,2.175,1.052,3.351c0,1.31-0.418,2.512-1.252,3.603
				c-0.836,1.093-1.82,1.908-2.955,2.445c-1.536,0.638-3.54,0.958-6.013,0.958h-4.007l13.526,16.53H-162.644z"/>
			<polygon clip-path="url(#SVGID_8_)" fill="#FDFEFF" points="-313.556,345.899 -301.332,329.067 -304.189,329.067 
				-323.174,355.324 -323.174,329.067 -325.428,329.067 -325.428,362.381 -314.909,347.865 -303.236,361.826 -300.231,361.826 			
				"/>
			<polygon clip-path="url(#SVGID_8_)" fill="#FDFEFF" points="-191.306,361.826 -191.306,359.457 -210.142,359.457 
				-210.142,346.606 -195.464,346.606 -195.464,344.287 -210.142,344.287 -210.142,331.386 -191.306,331.386 -191.306,329.067 
				-212.396,329.067 -212.396,361.826 			"/>
			<polygon clip-path="url(#SVGID_8_)" fill="#FDFEFF" points="-127.657,329.434 -127.657,331.752 -114.652,331.752 
				-114.652,362.193 -112.333,362.193 -112.333,331.752 -99.379,331.752 -99.379,329.434 			"/>
			<polygon clip-path="url(#SVGID_8_)" fill="#FDFEFF" points="-160.446,329.345 -160.446,331.663 -147.441,331.663 
				-147.441,362.104 -145.123,362.104 -145.123,331.663 -132.169,331.663 -132.169,329.345 			"/>
			<polygon clip-path="url(#SVGID_8_)" fill="#FDFEFF" points="-267.276,361.826 -269.445,361.826 -269.445,329.45 
				-249.412,355.432 -249.412,329.068 -247.243,329.068 -247.243,361.8 -267.276,335.817 			"/>
		</g>
		<g clip-path="url(#SVGID_4_)">
			<defs>
				<rect id="SVGID_9_" x="-852.702" y="-90.064" width="1270.08" height="670.08"/>
			</defs>
			<clipPath id="SVGID_10_">
				<use xlink:href="#SVGID_9_"  overflow="visible"/>
			</clipPath>
			<path clip-path="url(#SVGID_10_)" fill="#841618" d="M-127.276,317.683c-2.422-0.729-4.361-2.555-5.229-4.862
				c-0.398-1.059-0.544-2.151-0.542-3.277c0.009-4.949,0.003-15.914,0.003-15.914h-1.811c0,0,0.003,8.587,0.004,12.339
				c0.001,1.388-0.019,2.774,0.015,4.16c0.071,3.03,1.28,5.533,3.617,7.456c1.198,0.985,2.473,1.652,3.819,2.002"/>
			<path clip-path="url(#SVGID_10_)" fill="#841618" d="M-99.676,307.547c1.519,0.268,3.046,0.535,3.624,0.676
				c1.225,0.299,2.219,1.015,3.021,1.979c1.312,1.58,1.311,3.577,0.002,5.155c-0.241,0.291-0.519,0.559-0.808,0.804
				c-0.841,0.713-1.801,1.209-2.859,1.52c-1.056,0.309-2.124,0.417-3.198,0.377l0.032,1.854c2.358,0.065,4.569-0.481,6.574-1.825
				c0.729-0.488,1.362-1.081,1.877-1.796c1.6-2.228,1.561-4.965-0.134-7.117c-1.053-1.34-2.39-2.313-4.046-2.75
				c-0.646-0.172-2.457-0.475-4.062-0.736"/>
			<path clip-path="url(#SVGID_10_)" fill="#841618" d="M-99.569,295.107c0.776,0.001,1.557,0.092,2.34,0.269
				c1.346,0.305,2.572,0.872,3.595,1.826c0.753,0.701,1.463,1.821,1.664,3.085l1.623-0.897c-0.184-1.205-0.849-2.284-1.478-2.979
				c-0.626-0.693-1.339-1.285-2.168-1.711c-1.859-0.956-3.72-1.429-5.576-1.424"/>
			<path clip-path="url(#SVGID_10_)" fill="#841618" d="M-99.651,305.687c-1.124-0.183-2.147-0.346-2.598-0.429
				c-1.773-0.327-3.159-1.268-4.154-2.773c-0.496-0.749-0.744-1.567-0.654-2.473c0.087-0.873,0.475-1.612,1.039-2.261
				c0.859-0.986,1.924-1.677,3.158-2.096c1.086-0.369,2.185-0.549,3.292-0.548"/>
			<rect x="-144.483" y="293.64" clip-path="url(#SVGID_10_)" fill="#841618" width="1.792" height="26.033"/>
			<path clip-path="url(#SVGID_10_)" fill="#841618" d="M-151.569,319.673l-9.355-11.414c0.877,0,1.706-0.047,2.489-0.141
				c0.781-0.093,1.585-0.327,2.409-0.701c1.193-0.506,2.229-1.341,3.104-2.503c0.875-1.161,1.313-2.477,1.313-3.945
				c0-0.935-0.206-1.843-0.616-2.723c-0.412-0.882-1.003-1.668-1.772-2.363c-0.797-0.721-1.725-1.274-2.786-1.663
				c-1.063-0.387-2.204-0.58-3.425-0.58h-9.036v26.033h1.791v-24.23h7.245c1.354,0,2.548,0.268,3.583,0.802
				c1.035,0.533,1.831,1.221,2.389,2.062c0.558,0.84,0.837,1.729,0.837,2.663c0,1.041-0.332,1.997-0.995,2.863
				c-0.664,0.868-1.447,1.516-2.35,1.943c-1.221,0.508-2.813,0.762-4.776,0.762h-3.186l10.749,13.136H-151.569z"/>
			<path clip-path="url(#SVGID_10_)" fill="#841618" d="M-185.195,293.7l-12.184,26.353h1.992l3.065-6.608h13.773l2.906,6.608h1.951
				L-185.195,293.7z M-191.485,311.644l6.21-13.498l5.932,13.498H-191.485z"/>
			<polygon clip-path="url(#SVGID_10_)" fill="#841618" points="-212.676,307.017 -202.962,293.641 -205.232,293.641 
				-220.319,314.506 -220.319,293.641 -222.111,293.641 -222.111,320.114 -213.751,308.579 -204.475,319.673 -202.087,319.673 			
				"/>
			<polygon clip-path="url(#SVGID_10_)" fill="#841618" points="-238.194,307.017 -228.48,293.641 -230.75,293.641 
				-245.837,314.506 -245.837,293.641 -247.629,293.641 -247.629,320.114 -239.269,308.579 -229.993,319.673 -227.605,319.673 			
				"/>
			<polygon clip-path="url(#SVGID_10_)" fill="#841618" points="-254.118,319.673 -254.118,317.79 -269.087,317.79 
				-269.087,307.578 -257.423,307.578 -257.423,305.735 -269.087,305.735 -269.087,295.482 -254.118,295.482 -254.118,293.64 
				-270.878,293.64 -270.878,319.673 			"/>
			<polygon clip-path="url(#SVGID_10_)" fill="#841618" points="-277.366,319.673 -277.366,317.79 -292.335,317.79 
				-292.335,307.578 -280.671,307.578 -280.671,305.735 -292.335,305.735 -292.335,295.482 -277.366,295.482 -277.366,293.64 
				-294.126,293.64 -294.126,319.673 			"/>
			<polygon clip-path="url(#SVGID_10_)" fill="#841618" points="-323.324,293.64 -323.324,295.482 -312.989,295.482 
				-312.989,319.673 -311.146,319.673 -311.146,295.482 -300.852,295.482 -300.852,293.64 			"/>
		</g>
		<path clip-path="url(#SVGID_4_)" fill="#841618" d="M-708.105,278.172h21.506l16.898,39.521l10.194-26.254l-5.307-13.267h21.227
			l16.758,39.381l15.361-39.381h21.366l-34.912,86.582h-2.793l-20.668-48.318l-19.969,48.318h-2.654L-708.105,278.172z
			 M-649.452,306.102h1.955l20.947,49.156l29.606-73.176h-10.614l-17.875,45.386h-2.234l-19.691-45.386h-10.473l3.631,9.217
			l-13.686,35.89h-2.793l-19.69-45.106h-10.753l31.281,73.036L-649.452,306.102z M-699.027,283.618h7.68l0.279,0.698h-7.541
			L-699.027,283.618z M-697.91,286.411h7.82l0.279,0.698h-7.68L-697.91,286.411z M-696.653,289.204h7.82l0.279,0.698h-7.681
			L-696.653,289.204z M-695.536,291.997h7.96l0.279,0.698h-7.82L-695.536,291.997z M-694.279,294.791h7.82l0.279,0.697h-7.68
			L-694.279,294.791z M-693.162,297.584h7.96l0.279,0.697h-7.82L-693.162,297.584z M-691.905,300.377h7.96l0.279,0.697h-7.82
			L-691.905,300.377z M-690.649,303.17h7.821l0.279,0.697h-7.681L-690.649,303.17z M-689.393,305.963h7.821l0.279,0.697h-7.681
			L-689.393,305.963z M-688.275,308.755h7.96l0.28,0.698h-7.821L-688.275,308.755z M-687.019,311.548h7.821l0.279,0.698h-7.681
			L-687.019,311.548z M-685.901,314.341h7.96l0.28,0.698h-7.821L-685.901,314.341z M-684.645,317.134h7.821l0.279,0.698h-7.681
			L-684.645,317.134z M-683.527,319.927h7.96l0.28,0.699h-7.821L-683.527,319.927z M-682.271,322.72h7.96l0.28,0.699h-7.821
			L-682.271,322.72z M-681.152,325.513h7.959l0.28,0.699h-7.821L-681.152,325.513z M-679.896,328.306h7.96l0.28,0.698h-7.821
			L-679.896,328.306z M-678.639,331.099h7.96l0.279,0.698h-7.82L-678.639,331.099z M-677.522,333.892h7.96l0.28,0.698h-7.821
			L-677.522,333.892z M-676.265,336.685h7.96l0.279,0.698h-7.82L-676.265,336.685z M-675.148,339.478h8.1l0.279,0.698h-7.96
			L-675.148,339.478z M-666.21,342.271l-0.279,0.698h-6.983l-0.419-0.698H-666.21z M-667.327,345.063l-0.28,0.698h-4.748
			l-0.419-0.698H-667.327z M-668.444,347.856l-0.28,0.698h-2.374l-0.419-0.698H-668.444z M-669.563,350.649l-0.279,0.838
			l-0.419-0.838H-669.563z M-655.736,283.618h7.401l0.279,0.698h-7.262L-655.736,283.618z M-654.619,286.411h7.541l0.279,0.698
			h-7.401L-654.619,286.411z M-653.362,289.204h7.541l0.279,0.698h-7.401L-653.362,289.204z M-652.245,291.997h7.68l0.28,0.698
			h-7.541L-652.245,291.997z M-650.988,294.791h7.541l0.279,0.697h-7.401L-650.988,294.791z M-649.732,297.584h7.541l0.28,0.697
			h-7.402L-649.732,297.584z M-648.614,300.377h7.541l0.279,0.697h-7.401L-648.614,300.377z M-647.498,303.17h7.68l0.28,0.697
			h-7.541L-647.498,303.17z M-646.24,305.963h7.68l0.28,0.697h-7.541L-646.24,305.963z M-644.984,308.755h7.681l0.279,0.698h-7.541
			L-644.984,308.755z M-643.866,311.548h7.68l0.28,0.698h-7.541L-643.866,311.548z M-642.61,314.341h7.681l0.279,0.698h-7.541
			L-642.61,314.341z M-641.492,317.134h7.82l0.279,0.698h-7.68L-641.492,317.134z M-632.416,319.927l0.279,0.699h-7.681
			l-0.418-0.699H-632.416z M-631.298,322.72l0.279,0.699h-7.68l-0.419-0.699H-631.298z M-630.042,325.513l0.279,0.699h-7.681
			l-0.418-0.699H-630.042z M-628.784,328.306l0.279,0.698h-7.681l-0.419-0.698H-628.784z M-627.667,331.099l0.279,0.698h-7.541
			l-0.419-0.698H-627.667z M-626.41,333.892l0.279,0.698h-7.681l-0.419-0.698H-626.41z M-625.153,336.685l0.279,0.698h-7.681
			l-0.419-0.698H-625.153z M-624.036,339.478l0.279,0.698h-7.681l-0.419-0.698H-624.036z M-622.779,342.271l-0.28,0.698h-7.122
			l-0.419-0.698H-622.779z M-623.897,345.063l-0.419,0.698h-4.748l-0.419-0.698H-623.897z M-625.014,347.856l-0.419,0.698h-2.374
			l-0.419-0.698H-625.014z M-626.131,350.649l-0.419,0.838l-0.419-0.838H-626.131z"/>
		<g clip-path="url(#SVGID_4_)">
			<defs>
				<rect id="SVGID_11_" x="-852.702" y="-90.064" width="1270.08" height="670.08"/>
			</defs>
			<clipPath id="SVGID_12_">
				<use xlink:href="#SVGID_11_"  overflow="visible"/>
			</clipPath>
			<path clip-path="url(#SVGID_12_)" fill="#841618" d="M-582.005,278.172h33.795c13.965,0,25.136,10.334,25.136,23.461
				c0,7.82-3.211,12.708-9.077,17.177v0.279c8.658,6.145,12.289,12.01,12.289,20.668c0,11.591-9.216,22.204-25.136,22.204h-37.007
				V278.172z M-544.998,358.051c12.708,0,19.969-8.798,19.969-18.294c0-7.261-3.91-14.523-13.546-19.969v-1.118
				c7.821-4.608,10.334-10.334,10.334-17.037c0-10.893-8.937-19.551-19.969-19.551h-28.628v75.969H-544.998z M-566.784,284.038
				h22.624l2.513,0.697h-25.137V284.038z M-566.784,286.69h29.047l-0.139-0.14l1.117,0.838h-30.025V286.69z M-566.784,289.483
				h32.259l0.559,0.698h-32.818V289.483z M-566.784,292.137h14.943c7.82,0,13.266,5.028,13.266,11.591
				c0,6.982-5.446,11.73-13.266,11.73h-14.943V292.137z M-566.784,317.134h28.07l-0.978,0.698h-27.092V317.134z M-566.784,319.927
				h26.394l0.978,0.698h-27.372V319.927z M-566.784,322.72h30.304l0.698,0.559h-31.002V322.72z M-566.784,325.094h17.596
				c7.82,0,12.987,5.167,12.987,11.312c0,6.843-5.167,11.172-12.987,11.172h-17.596V325.094z M-566.784,350.23h36.588l-0.698,0.698
				h-35.89V350.23z M-566.784,353.023h33.656l-0.978,0.698h-32.678V353.023z M-566.784,355.816h27.651l-5.865,0.698h-21.786V355.816
				z M-551.841,311.548c4.748,0,8.099-3.212,8.099-7.82c0-4.329-3.351-7.681-8.099-7.681h-9.776v15.501H-551.841z M-549.188,343.667
				c4.748,0,7.82-2.793,7.82-7.262c0-4.05-3.072-7.401-7.82-7.401h-12.429v14.663H-549.188z M-532.29,292.276l0.279,0.698h-11.172
				l-1.536-0.698H-532.29z M-542.485,314.341h7.541l-0.838,0.699h-7.541L-542.485,314.341z M-541.786,347.577h13.266l-0.279,0.559
				h-14.105L-541.786,347.577z M-533.268,325.373l0.698,0.698h-7.68l-1.118-0.698H-533.268z M-540.669,295.069h9.635l0.28,0.698
				h-9.217L-540.669,295.069z M-539.692,311.548h6.983l-0.559,0.699h-7.122L-539.692,311.548z M-538.714,297.862h8.658v0.559h-8.379
				L-538.714,297.862z M-538.016,344.784h10.753l-0.279,0.698h-11.172L-538.016,344.784z M-538.016,308.895h6.843l-0.419,0.698
				h-6.843L-538.016,308.895z M-530.754,328.166l0.558,0.698h-7.261l-0.699-0.698H-530.754z M-537.597,300.516h7.82v0.698h-7.68
				L-537.597,300.516z M-537.318,306.102h7.122l-0.279,0.698h-7.122L-537.318,306.102z M-537.178,303.309h7.401v0.698h-7.401
				V303.309z M-536.061,341.991h9.496l-0.279,0.698h-9.636L-536.061,341.991z M-529.078,330.959l0.418,0.698h-7.122l-0.419-0.698
				H-529.078z M-535.083,339.198h8.658v0.698h-8.798L-535.083,339.198z M-535.083,333.752h7.401l0.279,0.698h-7.541
				L-535.083,333.752z M-534.804,336.405h7.96v0.698h-7.96V336.405z"/>
			<path clip-path="url(#SVGID_12_)" fill="#841618" d="M-509.949,278.172h20.529v37.426h0.279l24.159-37.426h22.623l-28.768,39.8
				l30.304,43.99h-22.623l-25.695-40.639h-0.279v40.639h-20.529V278.172z M-494.587,282.083h-10.194v75.969h10.194V282.083z
				 M-460.234,358.051h11.451l-27.371-40.218l25.556-35.75h-11.032l-24.299,36.169L-460.234,358.051z M-483.556,316.994h6.005
				l-0.559,0.698h-6.005L-483.556,316.994z M-483.136,319.787h6.424l0.558,0.698h-6.563L-483.136,319.787z M-481.601,314.201h6.424
				l-0.559,0.698h-6.424L-481.601,314.201z M-481.321,322.58h6.564l0.419,0.559h-6.704L-481.321,322.58z M-479.786,311.408h6.703
				l-0.558,0.698h-6.703L-479.786,311.408z M-479.646,325.233h6.563l0.559,0.698h-6.703L-479.646,325.233z M-477.831,308.615h6.703
				l-0.558,0.698h-6.703L-477.831,308.615z M-477.831,328.026h6.703l0.559,0.698h-6.843L-477.831,328.026z M-476.015,305.822h6.843
				l-0.559,0.698h-6.843L-476.015,305.822z M-476.015,330.819h6.703l0.558,0.698h-6.842L-476.015,330.819z M-474.06,303.029h6.843
				l-0.559,0.698h-6.843L-474.06,303.029z M-474.199,333.612h6.843l0.559,0.698h-6.983L-474.199,333.612z M-472.245,300.236h6.983
				l-0.559,0.698h-6.982L-472.245,300.236z M-465.542,336.405l0.559,0.698h-6.982l-0.419-0.698H-465.542z M-470.29,297.443h6.983
				l-0.559,0.698h-6.982L-470.29,297.443z M-463.586,339.198l0.559,0.698h-7.122l-0.419-0.698H-463.586z M-468.474,294.65h7.122
				l-0.559,0.698h-7.122L-468.474,294.65z M-461.771,341.991l0.558,0.698h-7.261l-0.419-0.698H-461.771z M-466.658,291.997h7.262
				l-0.559,0.698h-7.261L-466.658,291.997z M-459.815,344.784l0.559,0.698h-7.402l-0.419-0.698H-459.815z M-464.842,289.204h7.401
				l-0.559,0.698h-7.401L-464.842,289.204z M-458,347.577l0.699,0.698h-7.541l-0.419-0.698H-458z M-462.888,286.411h7.401
				l-0.559,0.698h-7.401L-462.888,286.411z M-456.045,350.37l0.699,0.698h-7.681l-0.419-0.698H-456.045z M-454.089,353.023
				l0.558,0.698h-7.82l-0.419-0.698H-454.089z M-461.072,283.618h7.541l-0.558,0.698h-7.541L-461.072,283.618z M-452.274,355.816
				l0.698,0.698h-7.96l-0.419-0.698H-452.274z"/>
		</g>
		<g clip-path="url(#SVGID_4_)">
			<text transform="matrix(1 0 0 1 -308.0669 102.9336)"><tspan x="0" y="0" fill="#841618" font-family="'AcierBATText-Gris'" font-size="53.8583">esit</tspan><tspan x="78.739" y="0" fill="#841618" font-family="'AcierBATText-Gris'" font-size="53.8583" letter-spacing="-4">t</tspan><tspan x="91.773" y="0" fill="#841618" font-family="'AcierBATText-Gris'" font-size="53.8583">ä</tspan><tspan x="117.732" y="0" fill="#841618" font-family="'AcierBATText-Gris'" font-size="53.8583" letter-spacing="-1">ä</tspan><tspan x="142.076" y="0" fill="#841618" font-family="'AcierBATText-Gris'" font-size="53.8583">:</tspan></text>
		</g>
		<g clip-path="url(#SVGID_4_)">
			<text transform="matrix(1 0 0 1 14.3652 317.6621)"><tspan x="0" y="0" fill="#841618" font-family="'AcierBATText-Gris'" font-size="56.6929">di</tspan><tspan x="45.24" y="0" fill="#841618" font-family="'AcierBATText-Gris'" font-size="56.6929" letter-spacing="-2">p</tspan><tspan x="75.287" y="0" fill="#841618" font-family="'AcierBATText-Gris'" font-size="56.6929">olis</tspan><tspan x="155.506" y="0" fill="#841618" font-family="'AcierBATText-Gris'" font-size="56.6929" letter-spacing="-1">s</tspan><tspan x="176.879" y="0" fill="#841618" font-family="'AcierBATText-Gris'" font-size="56.6929">a</tspan></text>
		</g>
		<g clip-path="url(#SVGID_4_)">
			<text transform="matrix(1 0 0 1 -681.644 192.3848)" fill="#841618" font-family="'AcierBATText-Gris'" font-size="107.7165">RETU</text>
		</g>
		<g clip-path="url(#SVGID_4_)">
			<text transform="matrix(1 0 0 1 -695.6514 265.1592)" fill="#841618" font-family="'AcierBATText-Gris'" font-size="85.0394">PERÄN </text>
		</g>
		<g clip-path="url(#SVGID_4_)">
			<text transform="matrix(1 0 0 1 -697.8604 415.8789)"><tspan x="0" y="0" fill="#FFFFFF" font-family="'Acier-TextGris'" font-size="39.685">pe 1</tspan><tspan x="63.093" y="0" fill="#FFFFFF" font-family="'Acier-TextGris'" font-size="39.685" letter-spacing="-1">8</tspan><tspan x="81.57" y="0" fill="#FFFFFF" font-family="'Acier-TextGris'" font-size="39.685" letter-spacing="-1">.</tspan><tspan x="88.752" y="0" fill="#FFFFFF" font-family="'Acier-TextGris'" font-size="39.685">11.</tspan></text>
		</g>
		<g clip-path="url(#SVGID_4_)">
			<defs>
				<rect id="SVGID_13_" x="-852.702" y="-90.064" width="1270.08" height="670.08"/>
			</defs>
			<clipPath id="SVGID_14_">
				<use xlink:href="#SVGID_13_"  overflow="visible"/>
			</clipPath>
			<path clip-path="url(#SVGID_14_)" fill="#841618" d="M46.755,398.604H35.899c-1.497,0-3.056-3.058-3.056-3.058
				s-0.063-1.185,0-1.622c0.062-0.436-1.248-3.866-1.186-5.177c0.063-1.31,0.624-2.371,0.624-2.371s-0.562-0.998-0.313-2.246
				c0.25-1.247,0.936-2.744,0.936-3.555v-8.297c0-1.686,1.81-4.055,2.121-4.679c0.313-0.624,7.05-24.703,7.425-25.391
				c0.374-0.686,2.37-2.432,11.104-2.432h83.862c0.832,0,0.978,6.487,0.978,6.487l122.955-0.848l3.369,23.773l-1.685,33.468
				l-0.202,5.053h-49.36c0,0-1.04-7.898-2.62-11.229c-2.932-6.177-8.547-10.667-18.466-10.605
				c-9.918,0.063-17.342,4.273-19.712,11.447c-2.371,7.174-2.693,10.948-2.693,10.948H87.844c0,0,0.159-9.049-3.587-14.058
				c-3.92-5.239-8.235-7.9-14.639-7.9c-6.405,0-11.271,0.374-16.387,4.989C48.117,395.922,46.755,398.604,46.755,398.604"/>
			<path clip-path="url(#SVGID_14_)" fill="#010101" d="M209.333,405.466c0,9.682-7.848,17.529-17.528,17.529
				c-9.683,0-17.53-7.848-17.53-17.529c0-9.681,7.848-17.528,17.53-17.528C201.485,387.938,209.333,395.785,209.333,405.466"/>
			<path clip-path="url(#SVGID_14_)" fill="#656565" d="M202.846,405.154c0,6.098-4.943,11.042-11.042,11.042
				c-6.098,0-11.041-4.944-11.041-11.042s4.943-11.042,11.041-11.042C197.902,394.112,202.846,399.057,202.846,405.154"/>
			<path clip-path="url(#SVGID_14_)" fill="#841618" d="M201.047,405.154c0,5.104-4.138,9.243-9.243,9.243
				c-5.104,0-9.243-4.139-9.243-9.243c0-5.105,4.139-9.243,9.243-9.243C196.909,395.911,201.047,400.049,201.047,405.154"/>
			<path clip-path="url(#SVGID_14_)" fill="#010101" d="M196.088,405.154c0,2.366-1.918,4.284-4.284,4.284
				c-2.365,0-4.283-1.918-4.283-4.284s1.918-4.284,4.283-4.284C194.17,400.87,196.088,402.788,196.088,405.154"/>
			<path clip-path="url(#SVGID_14_)" fill="#010101" d="M85.474,406.007c0,9.015-7.309,16.323-16.323,16.323
				c-9.016,0-16.324-7.309-16.324-16.323s7.309-16.323,16.324-16.323C78.165,389.684,85.474,396.992,85.474,406.007"/>
			<path clip-path="url(#SVGID_14_)" fill="#656565" d="M79.432,405.717c0,5.679-4.603,10.281-10.281,10.281
				c-5.68,0-10.282-4.603-10.282-10.281c0-5.68,4.603-10.282,10.282-10.282C74.829,395.435,79.432,400.037,79.432,405.717"/>
			<path clip-path="url(#SVGID_14_)" fill="#841618" d="M77.757,405.717c0,4.754-3.854,8.606-8.606,8.606
				c-4.754,0-8.607-3.853-8.607-8.606c0-4.755,3.854-8.607,8.607-8.607C73.903,397.109,77.757,400.962,77.757,405.717"/>
			<path clip-path="url(#SVGID_14_)" fill="#010101" d="M73.139,405.717c0,2.202-1.786,3.988-3.988,3.988
				c-2.203,0-3.989-1.786-3.989-3.988c0-2.203,1.786-3.989,3.989-3.989C71.353,401.728,73.139,403.514,73.139,405.717"/>
			<rect x="16.313" y="397.108" clip-path="url(#SVGID_14_)" fill="#010101" width="16.593" height="12.329"/>
			<rect x="33.946" y="398.043" clip-path="url(#SVGID_14_)" fill="#656565" width="12.965" height="7.485"/>
			<polygon clip-path="url(#SVGID_14_)" fill="#FDFEFF" points="264.719,369.19 90.609,370.844 90.609,377.956 264.38,375.918 			
				"/>
			<path clip-path="url(#SVGID_14_)" fill="#010101" d="M105.458,366.519h17.817c1.695,0,3.069-1.374,3.069-3.068v-15.155
				c0-1.695-1.374-3.069-3.069-3.069h-17.817c-1.694,0-3.068,1.374-3.068,3.069v15.155
				C102.39,365.145,103.764,366.519,105.458,366.519"/>
			<path clip-path="url(#SVGID_14_)" fill="#656565" d="M106.718,365.104h15.381c1.463,0,2.649-1.186,2.649-2.648v-13.083
				c0-1.464-1.187-2.65-2.649-2.65h-15.381c-1.463,0-2.649,1.187-2.649,2.65v13.083
				C104.068,363.919,105.255,365.104,106.718,365.104"/>
			<polygon clip-path="url(#SVGID_14_)" fill="#FDFEFF" points="88.904,377.956 88.904,371.759 32.906,372.278 32.906,378.081 			
				"/>
			<path clip-path="url(#SVGID_14_)" fill="#010101" d="M77.779,361.611h7.684c1.108,0,2.006-0.897,2.006-2.006l-1.755-10.502
				c0-1.108-0.898-2.006-2.007-2.006h-5.928c-1.108,0-2.006,0.897-2.006,2.006v10.502C75.773,360.714,76.671,361.611,77.779,361.611
				"/>
			<path clip-path="url(#SVGID_14_)" fill="#656565" d="M78.396,360.447h6.451c0.93,0,1.684-0.754,1.684-1.685l-1.473-8.816
				c0-0.931-0.755-1.685-1.685-1.685h-4.978c-0.93,0-1.684,0.754-1.684,1.685v8.816C76.712,359.693,77.466,360.447,78.396,360.447"
				/>
			<path clip-path="url(#SVGID_14_)" fill="#656565" d="M69.004,359.694v-10.117c0-1.388-0.419-2.106-2.146-2.106H47.682
				c-0.813,0-1.823,0.954-1.948,1.593c-0.28,1.424-2.662,14.998-2.878,15.858c-0.216,0.862,0.156,1.598,0.894,1.598h4.163
				c1.195,0,1.329-0.367,1.75-1.525c0.421-1.157,0.614-1.689,0.919-2.523c0.311-0.849,1.004-1.195,1.93-1.195h14.874
				C67.042,361.275,69.004,361.353,69.004,359.694"/>
			<path clip-path="url(#SVGID_14_)" fill="none" stroke="#010101" stroke-width="1.334" stroke-miterlimit="10" d="M69.004,359.694
				v-10.117c0-1.388-0.419-2.106-2.146-2.106H47.682c-0.813,0-1.823,0.954-1.948,1.593c-0.28,1.424-2.662,14.998-2.878,15.858
				c-0.216,0.862,0.156,1.598,0.894,1.598h4.163c1.195,0,1.329-0.367,1.75-1.525c0.421-1.157,0.614-1.689,0.919-2.523
				c0.311-0.849,1.004-1.195,1.93-1.195h14.874C67.042,361.275,69.004,361.353,69.004,359.694z"/>
			<path clip-path="url(#SVGID_14_)" fill="none" stroke="#656565" stroke-miterlimit="10" d="M137.418,340.546
				c0,0,116.136-0.301,118.069-0.27c1.934,0.033,4.813-0.479,4.846,4.949"/>
			
				<line clip-path="url(#SVGID_14_)" fill="none" stroke="#656565" stroke-width="1.385" stroke-miterlimit="10" x1="222.827" y1="345.665" x2="222.827" y2="340.267"/>
			
				<line clip-path="url(#SVGID_14_)" fill="none" stroke="#656565" stroke-width="1.385" stroke-miterlimit="10" x1="186.272" y1="345.938" x2="186.272" y2="340.54"/>
			
				<line clip-path="url(#SVGID_14_)" fill="none" stroke="#656565" stroke-width="1.385" stroke-miterlimit="10" x1="149.467" y1="346.153" x2="149.467" y2="340.756"/>
			<path clip-path="url(#SVGID_14_)" fill="#FFFFFF" d="M179.68,348.957c1.212-0.393,1.702-0.209,1.807,1.032
				c0.422,4.944,0.949,9.878,1.439,14.815c0.019,0.192,0.06,0.384,0.245,0.574c0.408-5.503,0.816-11.006,1.223-16.478
				c2.195-0.424,2.236-0.372,2.418,1.647c0.406,4.538,0.838,9.072,1.269,13.607c0.03,0.31,0.134,0.611,0.393,0.909
				c0.226-2.964,0.459-5.927,0.675-8.891c0.15-2.069,0.333-4.138,0.39-6.209c0.033-1.191,0.529-1.411,1.694-1.006
				c-0.061,0.993-0.093,2.033-0.191,3.067c-0.463,4.897-0.925,9.794-1.429,14.688c-0.206,2.006-0.253,2.001-2.498,1.656
				c-0.501-5.559-1.006-11.166-1.51-16.771c-0.05,0.001-0.099,0.003-0.148,0.004c-0.2,2.834-0.401,5.668-0.601,8.501
				c-0.15,2.15-0.309,4.299-0.443,6.45c-0.134,2.127-0.178,2.172-2.558,1.921C181.13,361.991,180.405,355.475,179.68,348.957"/>
			<path clip-path="url(#SVGID_14_)" fill="#FFFFFF" d="M168.956,359.382c0.05,2.984,0.102,6.015,0.154,9.111
				c-0.711,0.013-1.217,0.021-1.81,0.03c-0.036-0.413-0.091-0.769-0.094-1.124c-0.043-5.777-0.055-11.555-0.14-17.332
				c-0.016-1.053,0.236-1.505,1.349-1.387c0.846,0.091,1.708,0.017,2.562,0.046c1.834,0.063,2.418,0.633,2.459,2.43
				c0.035,1.586,0.036,3.173,0.059,4.76c0.015,1.095-0.2,2.05-1.785,2.441c1.657,0.308,1.916,1.232,1.906,2.407
				c-0.019,2.236,0.027,4.475,0.066,6.713c0.013,0.637-0.039,1.1-0.875,1.114c-0.844,0.014-1.022-0.377-1.017-1.117
				c0.019-2.034-0.011-4.068-0.028-6.104C171.746,359.29,171.265,358.917,168.956,359.382 M169.135,357.476
				c2.066,0.363,2.486,0.04,2.489-1.902c0.001-1.094-0.017-2.188-0.025-3.282c-0.014-1.935-0.503-2.313-2.584-1.874
				C169.054,352.725,169.094,355.058,169.135,357.476"/>
			<path clip-path="url(#SVGID_14_)" fill="#FFFFFF" d="M202.782,358.443c0.74,0.193,1.073,0.949,1.076,1.942
				c0.006,1.791,0.053,3.582,0.035,5.373c-0.02,1.923-0.554,2.532-2.452,2.554c-4.31,0.05-3.433,0.668-3.507-3.335
				c-0.091-4.842-0.06-9.687-0.083-14.531c-0.003-0.483-0.016-0.968-0.029-1.733c1.578,0.063,3.064,0.039,4.526,0.214
				c0.944,0.112,1.283,0.974,1.313,1.829c0.063,1.83,0.127,3.667,0.018,5.49C203.637,356.958,203.126,357.641,202.782,358.443
				 M199.846,366.746c1.947,0.171,2.226-0.076,2.221-1.875c-0.004-1.343-0.016-2.685-0.037-4.026
				c-0.025-1.632-0.577-2.017-2.311-1.55C199.761,361.738,199.803,364.202,199.846,366.746 M199.712,357.449
				c0.921,0.138,1.987,0.331,2.085-0.717c0.173-1.882,0.068-3.802-0.089-5.69c-0.026-0.305-0.912-0.595-1.442-0.759
				c-0.146-0.044-0.634,0.394-0.635,0.612C199.617,353.07,199.675,355.246,199.712,357.449"/>
			<path clip-path="url(#SVGID_14_)" fill="#FFFFFF" d="M212.691,356.637c0.541-2.206,1.13-4.402,1.604-6.622
				c0.243-1.139,0.771-1.529,2.027-1.08c-0.458,1.725-0.697,3.569-1.429,5.189c-1.5,3.317-0.348,6.333,0.604,9.43
				c0.452,1.47,0.814,2.968,1.215,4.445c-1.473,0.521-1.605,0.454-1.975-0.938c-0.694-2.613-1.386-5.228-2.361-7.799
				c0.05,2.951,0.101,5.901,0.15,8.817c-1.617,0.405-1.715,0.343-1.731-1.058c-0.062-5.536-0.12-11.072-0.18-16.607
				c-0.005-0.48-0.016-0.962-0.026-1.531c0.645-0.012,1.146-0.02,1.768-0.03c0.044,2.61,0.088,5.189,0.131,7.77
				C212.556,356.627,212.623,356.632,212.691,356.637"/>
		</g>
	</g>
</g>
</svg>
