<?xml version="1.0" encoding="utf-8"?>
<!-- Generator: Adobe Illustrator 16.0.0, SVG Export Plug-In . SVG Version: 6.00 Build 0)  -->
<!DOCTYPE svg PUBLIC "-//W3C//DTD SVG 1.1//EN" "http://www.w3.org/Graphics/SVG/1.1/DTD/svg11.dtd">
<svg version="1.1" id="Layer_1" xmlns="http://www.w3.org/2000/svg" xmlns:xlink="http://www.w3.org/1999/xlink" x="0px" y="0px"
	 width="278.298px" height="449.872px" viewBox="0 0 278.298 449.872" enable-background="new 0 0 278.298 449.872"
	 xml:space="preserve">
<g>
	<defs>
		<polygon id="SVGID_1_" points="73.065,0 0,209.906 0,449.872 278.298,449.872 278.298,210.589 209.157,0 		"/>
	</defs>
	<clipPath id="SVGID_2_">
		<use xlink:href="#SVGID_1_"  overflow="visible"/>
	</clipPath>
	<g clip-path="url(#SVGID_2_)">
		<defs>
			<rect id="SVGID_3_" x="-852.702" y="-90.064" width="1270.08" height="670.08"/>
		</defs>
		<clipPath id="SVGID_4_">
			<use xlink:href="#SVGID_3_"  overflow="visible"/>
		</clipPath>
		<g clip-path="url(#SVGID_4_)">
			<path fill="#010101" d="M0,449.872V209.906L73.065,0h136.092l69.141,210.589c0,0,3.574,239.283,0,239.283H0z"/>
		</g>
		<g clip-path="url(#SVGID_4_)">
			<defs>
				<rect id="SVGID_5_" x="-852.702" y="-90.064" width="1270.08" height="670.08"/>
			</defs>
			<clipPath id="SVGID_6_">
				<use xlink:href="#SVGID_5_"  overflow="visible"/>
			</clipPath>
			<path clip-path="url(#SVGID_6_)" fill="#841618" d="M102.5,230.705c0.312-1.893-0.97-3.679-2.861-3.99l-10.587-1.74
				c-1.892-0.311-3.678,0.97-3.988,2.861l-0.144,0.867l-49.152-1.266c-3.369-0.555-6.483,1.327-6.955,4.201l-0.977,5.933
				c-0.473,2.874,1.875,5.653,5.244,6.207l46.97,14.543l-0.152,0.925c-0.313,1.893,0.97,3.679,2.862,3.989l10.586,1.741
				c1.892,0.311,3.678-0.97,3.988-2.862l0.93-5.647l3.246-19.739L102.5,230.705z"/>
			<path clip-path="url(#SVGID_6_)" fill="#841618" d="M237.852,87.397L225.46,49.653c-20.537-10.741-47.558-14.403-80.609-3.186
				c-55.279,18.762-109.586,68.726-112.27,69.84l-9.026,25.928c0.635-0.263,73.903-74.377,131.509-86.236
				C195.849,47.604,222.747,66.749,237.852,87.397"/>
			<path clip-path="url(#SVGID_6_)" fill="#841618" d="M250.152,124.862c-4.273,19.248-22.492,44.543-46.152,46.712
				c-12.642,1.19-19.575,4.596-30.231,12.214c-39.436,28.192-38.925,54.159-76.138,53.698l-6.517,18.318
				c0,0,34.599,6.067,51.077-19.807c16.198-25.436,57.005-56.318,85.554-57.786c16.049-1.95,26.979-8.802,33.941-18.219
				L250.152,124.862z"/>
		</g>
		<g clip-path="url(#SVGID_4_)">
			<path fill="#841618" d="M17.078,317.662v-34.021h11.848c5.02,0,9.241,1.624,12.665,4.872c3.423,3.248,5.135,7.28,5.135,12.098
				c0,4.688-1.643,8.701-4.928,12.041c-3.285,3.341-7.575,5.011-12.872,5.011H17.078z M19.182,316.084h9.744
				c4.65,0,8.434-1.513,11.35-4.54c2.916-3.026,4.374-6.671,4.374-10.934c0-4.355-1.514-8.005-4.54-10.948
				s-6.754-4.416-11.184-4.416h-9.744V316.084z M23.334,286.298v-0.276h7.862l1.605,0.276H23.334z M23.334,287.434v-0.277h11.959
				l0.609,0.277H23.334z M23.334,288.568v-0.277h13.979l0.415,0.277H23.334z M23.334,311.655v-22.063h5.426
				c3.47,0,6.256,1.043,8.36,3.128c2.104,2.086,3.155,4.715,3.155,7.89c0,3.285-1.089,5.947-3.267,7.986s-4.927,3.059-8.249,3.059
				H23.334z M23.334,313.012v-0.277H37.84l-0.388,0.277H23.334z M23.334,314.146v-0.276h12.679l-0.609,0.276H23.334z
				 M23.334,315.227v-0.222h9.578l-1.135,0.222H23.334z M25.41,310.077h3.35c2.713,0,4.96-0.872,6.741-2.616
				c1.78-1.743,2.671-4.027,2.671-6.851c0-2.713-0.849-4.96-2.547-6.741c-1.698-1.78-3.986-2.671-6.865-2.671h-3.35V310.077z
				 M32.165,311.877l0.747-0.222h6.284l-0.222,0.222H32.165z M32.275,289.371h6.589l-0.056-0.056l0.442,0.332h-6.062L32.275,289.371
				z M34.933,310.797l0.526-0.276h4.982l-0.276,0.276H34.933z M35.237,290.506h4.817l0.276,0.277h-4.65L35.237,290.506z
				 M36.594,309.662l0.443-0.277H41.3l-0.222,0.277H36.594z M36.871,291.641h4.207l0.166,0.222h-4.097L36.871,291.641z
				 M37.784,308.582l0.277-0.276h3.902l-0.221,0.276H37.784z M38.228,292.997l-0.277-0.276h3.793l0.221,0.276H38.228z
				 M38.698,307.447l0.221-0.276h3.682l-0.166,0.276H38.698z M39.03,294.133l-0.166-0.277h3.57l0.111,0.277H39.03z M39.418,306.313
				l0.11-0.222h3.516l-0.11,0.222H39.418z M39.639,295.212l-0.166-0.276h3.461l0.11,0.276H39.639z M40.165,296.347l-0.166-0.276
				h3.35l0.11,0.276H40.165z M39.999,305.232l0.056-0.276h3.404l-0.11,0.276H39.999z M40.331,304.126l0.11-0.305h3.295l-0.111,0.305
				H40.331z M40.441,297.427l-0.055-0.222h3.294l0.056,0.222H40.441z M40.663,298.562l-0.056-0.277h3.239l0.11,0.277H40.663z
				 M40.607,303.046l0.056-0.305h3.294l-0.11,0.305H40.607z M40.719,301.911l0.056-0.305h3.238v0.305H40.719z M40.774,299.696
				v-0.276h3.238v0.276H40.774z M40.829,300.776v-0.305h3.239v0.305H40.829z"/>
			<path fill="#841618" d="M52.373,317.662v-34.021h8.332v34.021H52.373z M54.477,316.084h4.152v-30.838h-4.152V316.084z
				 M55.059,286.021v-0.276h2.989v0.276H55.059z M55.059,287.156v-0.276h2.989v0.276H55.059z M55.059,288.291v-0.276h2.989v0.276
				H55.059z M55.059,289.427v-0.277h2.989v0.277H55.059z M55.059,290.562v-0.277h2.989v0.277H55.059z M55.059,291.696v-0.276h2.989
				v0.276H55.059z M55.059,292.831v-0.276h2.989v0.276H55.059z M55.059,293.966v-0.276h2.989v0.276H55.059z M55.059,295.102v-0.277
				h2.989v0.277H55.059z M55.059,296.236v-0.277h2.989v0.277H55.059z M55.059,297.371v-0.276h2.989v0.276H55.059z M55.059,298.506
				v-0.276h2.989v0.276H55.059z M55.059,299.641v-0.304h2.989v0.304H55.059z M55.059,300.776v-0.305h2.989v0.305H55.059z
				 M55.059,301.911v-0.305h2.989v0.305H55.059z"/>
			<path fill="#841618" d="M66.131,317.662v-34.021h14.229c3.358,0,6.044,1.07,8.056,3.211c2.011,2.142,3.018,4.697,3.018,7.668
				c0,3.175-1.053,5.786-3.156,7.834c-2.104,2.049-4.743,3.073-7.917,3.073h-5.951v12.235H66.131z M68.234,316.084h4.098v-12.263
				h8.138c2.565,0,4.683-0.896,6.354-2.686c1.67-1.79,2.505-4.051,2.505-6.782c0-2.564-0.793-4.724-2.381-6.478
				c-1.587-1.753-3.746-2.63-6.478-2.63H68.234V316.084z M72.332,299.862v-10.823h7.474c1.55,0,2.777,0.517,3.682,1.55
				c0.904,1.034,1.356,2.308,1.356,3.82c0,1.587-0.442,2.893-1.328,3.917c-0.887,1.024-2.123,1.536-3.71,1.536H72.332z
				 M72.387,286.132v-0.276h8.499c0.683,0.074,1.338,0.166,1.965,0.276H72.387z M72.387,287.268v-0.277h12.401l0.388,0.277H72.387z
				 M72.387,288.402v-0.277h13.869l0.305,0.277H72.387z M72.387,300.887v-0.276h14.174l-0.305,0.276H72.387z M72.387,302.021v-0.276
				h12.845l-0.498,0.276H72.387z M72.387,303.156v-0.304h10.658c-0.536,0.11-1.034,0.212-1.495,0.304H72.387z M74.408,298.284h5.176
				c1.015,0,1.827-0.396,2.437-1.189c0.608-0.794,0.913-1.726,0.913-2.796c0-0.979-0.295-1.818-0.886-2.52s-1.412-1.052-2.464-1.052
				h-5.176V298.284z M82.574,299.752l0.471-0.277h4.29l-0.221,0.277H82.574z M83.321,289.537l-0.388-0.276h4.291l0.222,0.276H83.321
				z M83.985,298.617l0.25-0.277h3.736l-0.166,0.277H83.985z M84.29,290.672l-0.166-0.276h3.737l0.11,0.276H84.29z M84.733,297.481
				l0.166-0.276h3.46l-0.11,0.276H84.733z M84.955,291.807l-0.167-0.276h3.516l0.111,0.276H84.955z M85.314,292.942l-0.139-0.277
				h3.405v0.277H85.314z M85.176,296.347l0.056-0.276h3.405l-0.111,0.276H85.176z M85.37,295.212l0.055-0.276h3.322l-0.056,0.166
				v0.11H85.37z M85.425,294.077V293.8h3.267v0.277H85.425z"/>
			<path fill="#841618" d="M100.018,313.579c-3.433-3.479-5.149-7.788-5.149-12.928s1.717-9.448,5.149-12.928
				c3.433-3.479,7.815-5.218,13.148-5.218c5.297,0,9.676,1.739,13.136,5.218c3.46,3.479,5.19,7.788,5.19,12.928
				s-1.73,9.449-5.19,12.928s-7.839,5.218-13.136,5.218C107.833,318.797,103.45,317.058,100.018,313.579z M96.944,300.665
				c0,4.65,1.532,8.554,4.596,11.71c3.063,3.155,6.938,4.733,11.626,4.733s8.563-1.578,11.627-4.733
				c3.063-3.156,4.595-7.06,4.595-11.71s-1.541-8.571-4.622-11.765c-3.083-3.192-6.948-4.789-11.6-4.789
				c-4.688,0-8.563,1.588-11.626,4.762S96.944,295.978,96.944,300.665z M97.526,299.696l0.055-0.276h3.046l-0.056,0.276H97.526z
				 M97.526,300.831v-0.276h3.045v0.276H97.526z M97.581,301.967l-0.055-0.305h3.045l0.056,0.305H97.581z M97.637,298.562
				l0.056-0.277h3.128l-0.11,0.277H97.637z M97.692,303.102l-0.056-0.305h3.073l0.11,0.305H97.692z M97.803,297.427l0.056-0.277
				h3.184l-0.111,0.277H97.803z M97.914,304.236l-0.111-0.305h3.128l0.111,0.305H97.914z M98.08,296.292l0.055-0.277h3.239
				l-0.111,0.277H98.08z M98.439,295.156l0.056-0.276h3.404l-0.193,0.276H98.439z M98.827,294.021l0.11-0.276h3.571l-0.222,0.276
				H98.827z M99.325,292.887l0.194-0.277h3.848l-0.222,0.277H99.325z M100.018,291.752l0.222-0.277h4.207l-0.359,0.277H100.018z
				 M100.82,290.617l0.222-0.277h4.761l-0.388,0.277H100.82z M104.461,309.219c-2.206-2.307-3.309-5.162-3.309-8.567
				s1.107-6.229,3.322-8.471c2.214-2.242,5.111-3.363,8.691-3.363c3.562,0,6.455,1.131,8.679,3.391
				c2.224,2.262,3.336,5.08,3.336,8.457c0,3.396-1.112,6.247-3.336,8.554c-2.224,2.308-5.117,3.461-8.679,3.461
				C109.567,312.68,106.665,311.526,104.461,309.219z M101.816,289.481l0.305-0.276h5.952l-0.748,0.276H101.816z M102.952,288.347
				l0.471-0.276h19.543l0.305,0.276h-7.834l-2.271-0.166l-2.104,0.166H102.952z M105.997,293.315
				c-1.79,1.947-2.686,4.393-2.686,7.336c0,2.944,0.896,5.389,2.686,7.336s4.18,2.92,7.169,2.92c2.953,0,5.334-0.982,7.143-2.947
				c1.809-1.966,2.713-4.402,2.713-7.309s-0.904-5.343-2.713-7.308c-1.809-1.966-4.189-2.948-7.143-2.948
				C110.177,290.396,107.787,291.369,105.997,293.315z M104.612,287.212l0.443-0.277h16.222l0.332,0.277H104.612z M106.661,286.077
				l0.72-0.277h11.571l0.747,0.277H106.661z M110.398,284.941l2.768-0.221l3.018,0.221H110.398z M118.398,289.205h5.813
				l-0.056-0.056l0.36,0.332h-5.509L118.398,289.205z M120.53,290.34h4.65l0.305,0.277h-4.54L120.53,290.34z M121.887,291.475h4.152
				l0.221,0.277h-4.014L121.887,291.475z M122.91,292.609h3.82l0.166,0.277h-3.682L122.91,292.609z M123.935,294.021l-0.166-0.276
				h3.516l0.111,0.276H123.935z M124.571,295.156l-0.166-0.276h3.322l0.138,0.276H124.571z M125.069,296.292l-0.166-0.277h3.239
				l0.11,0.277H125.069z M125.347,297.427l-0.11-0.277h3.183l0.111,0.277H125.347z M125.236,304.236l0.11-0.305h3.128l-0.056,0.305
				H125.236z M125.596,298.562l-0.056-0.277h3.101l0.056,0.277H125.596z M125.54,303.102l0.056-0.305h3.101l-0.111,0.305H125.54z
				 M125.651,301.967l0.055-0.305h3.046v0.305H125.651z M125.706,299.696v-0.276h3.046v0.276H125.706z M125.762,300.831v-0.276
				h3.045v0.276H125.762z"/>
			<path fill="#841618" d="M137.25,317.662v-34.021h8.332v26.88h14.811v7.142H137.25z M139.354,316.084h18.935v-3.986h-14.782
				v-26.852h-4.152V316.084z M140.102,315.393l0.276-0.277h17.356v0.277H140.102z M141.292,314.257l0.276-0.276h16.166v0.276
				H141.292z M142.427,313.122l0.332-0.276h14.976v0.276H142.427z"/>
			<path fill="#841618" d="M164.378,317.662v-34.021h8.332v34.021H164.378z M166.481,316.084h4.152v-30.838h-4.152V316.084z
				 M167.063,286.021v-0.276h2.989v0.276H167.063z M167.063,287.156v-0.276h2.989v0.276H167.063z M167.063,288.291v-0.276h2.989
				v0.276H167.063z M167.063,289.427v-0.277h2.989v0.277H167.063z M167.063,290.562v-0.277h2.989v0.277H167.063z M167.063,291.696
				v-0.276h2.989v0.276H167.063z M167.063,292.831v-0.276h2.989v0.276H167.063z M167.063,293.966v-0.276h2.989v0.276H167.063z
				 M167.063,295.102v-0.277h2.989v0.277H167.063z M167.063,296.236v-0.277h2.989v0.277H167.063z M167.063,297.371v-0.276h2.989
				v0.276H167.063z M167.063,298.506v-0.276h2.989v0.276H167.063z M167.063,299.641v-0.304h2.989v0.304H167.063z M167.063,300.776
				v-0.305h2.989v0.305H167.063z M167.063,301.911v-0.305h2.989v0.305H167.063z"/>
			<path fill="#841618" d="M177.97,307.696h8.11c0,0.979,0.342,1.818,1.024,2.52s1.514,1.052,2.491,1.052
				c1.053,0,1.883-0.276,2.492-0.83c0.608-0.554,0.913-1.265,0.913-2.132c0-0.332-0.056-0.65-0.166-0.955s-0.3-0.581-0.567-0.83
				c-0.268-0.25-0.526-0.466-0.775-0.651c-0.249-0.184-0.609-0.373-1.079-0.567c-0.471-0.193-0.841-0.336-1.107-0.429
				c-0.268-0.092-0.684-0.23-1.246-0.415c-0.563-0.185-0.955-0.323-1.177-0.415c-3.063-1.089-5.314-2.418-6.754-3.986
				s-2.159-3.746-2.159-6.533c0-3.026,1.135-5.619,3.404-7.778c2.271-2.159,4.992-3.239,8.167-3.239c3.599,0,6.366,1.02,8.305,3.059
				c1.938,2.04,3.026,4.729,3.267,8.069h-7.835c0-1.015-0.3-1.854-0.899-2.519c-0.6-0.665-1.472-0.997-2.616-0.997
				c-0.978,0-1.817,0.282-2.519,0.845c-0.701,0.563-1.052,1.37-1.052,2.422c0,0.332,0.055,0.655,0.166,0.969
				c0.11,0.314,0.29,0.582,0.54,0.803c0.249,0.222,0.488,0.411,0.72,0.567c0.23,0.157,0.571,0.31,1.023,0.457
				c0.452,0.148,0.817,0.268,1.094,0.36c0.277,0.092,0.692,0.217,1.246,0.373c0.554,0.157,0.959,0.272,1.218,0.347
				c5.942,1.771,8.914,5.287,8.914,10.547c0,3.026-1.126,5.615-3.378,7.765s-4.965,3.225-8.139,3.225
				c-3.599,0-6.436-1.057-8.512-3.169C179.008,313.515,177.97,310.871,177.97,307.696z M179.963,309.274
				c0.073,2.159,1.038,4.023,2.893,5.592s4.102,2.353,6.74,2.353c2.64,0,4.896-0.927,6.769-2.781c1.873-1.855,2.81-4.064,2.81-6.63
				c0-2.676-0.72-4.688-2.159-6.035c-1.439-1.347-3.59-2.436-6.449-3.267c-1.126-0.332-1.947-0.585-2.464-0.761
				c-0.518-0.176-1.136-0.461-1.855-0.858c-0.72-0.396-1.218-0.881-1.494-1.453c-0.277-0.572-0.415-1.255-0.415-2.049
				c0-1.477,0.488-2.657,1.467-3.543c0.978-0.886,2.242-1.329,3.792-1.329c2.64,0,4.374,1.172,5.205,3.516h4.263
				c-0.185-2.048-1.062-3.88-2.63-5.495c-1.568-1.614-3.848-2.422-6.838-2.422c-2.639,0-4.913,0.923-6.823,2.769
				s-2.865,4.06-2.865,6.644c0,2.233,0.558,4.037,1.675,5.412c1.116,1.375,3.16,2.588,6.132,3.64
				c0.222,0.074,0.683,0.235,1.384,0.484s1.194,0.43,1.481,0.54c0.285,0.11,0.715,0.3,1.287,0.567
				c0.571,0.268,0.987,0.513,1.245,0.733c0.259,0.222,0.549,0.503,0.872,0.845s0.549,0.72,0.679,1.135
				c0.129,0.415,0.193,0.891,0.193,1.426c0,1.439-0.517,2.557-1.55,3.35c-1.034,0.794-2.271,1.19-3.71,1.19
				c-1.365-0.037-2.51-0.396-3.433-1.08c-0.923-0.683-1.513-1.513-1.771-2.491H179.963z M180.461,293.163v-0.276h3.294v0.276
				H180.461z M180.461,294.299v-0.277h3.294l0.056,0.277H180.461z M180.571,292.028l0.111-0.332h3.294l-0.11,0.332H180.571z
				 M180.627,295.488l-0.056-0.276h3.405l0.11,0.276H180.627z M180.932,296.624l-0.056-0.277h3.793l-0.056-0.055l0.332,0.332
				H180.932z M180.932,290.838l0.056-0.276h3.46l-0.193,0.276H180.932z M181.374,289.703l0.167-0.332h3.902l-0.387,0.332H181.374z
				 M181.596,297.814l-0.166-0.277h4.596l0.442,0.277H181.596z M182.066,288.513l0.222-0.276h4.982l-0.608,0.276H182.066z
				 M182.62,298.949l-0.276-0.277h6.505l1.08,0.277H182.62z M183.008,287.378l0.359-0.276h6.229v0.276H183.008z M184.254,300.14
				l-0.609-0.332h8.886l0.858,0.332H184.254z M184.613,286.188l0.443-0.276h4.539v0.276H184.613z M185.859,300.997h9.135
				l0.332,0.277h-9.024L185.859,300.997z M187.05,285.053l1.355-0.277h1.19v0.277H187.05z M188.185,302.133h8.332l0.276,0.332
				h-7.751L188.185,302.133z M189.596,314.036v-0.277h6.45l-0.276,0.277H189.596z M189.596,315.171v-0.277h5.094l-0.388,0.277
				H189.596z M189.596,316.361v-0.277h2.879l-1.052,0.277H189.596z M191.479,303.323h6.007l0.111,0.276h-5.509L191.479,303.323z
				 M192.364,312.9l0.692-0.332h4.014l-0.166,0.222l-0.056,0.11H192.364z M193.61,304.458h4.373l0.111,0.276h-4.125L193.61,304.458z
				 M194.081,311.711l0.276-0.277h3.35l-0.166,0.277H194.081z M194.801,305.925l-0.167-0.276h3.737l0.139,0.276H194.801z
				 M194.938,310.575l0.166-0.332h3.101l-0.11,0.332H194.938z M195.271,307.06l-0.055-0.276h3.35v0.276H195.271z M195.326,309.385
				l0.056-0.276h3.128l-0.083,0.276H195.326z M195.437,308.25v-0.276h3.184l-0.055,0.276H195.437z"/>
			<path fill="#841618" d="M206.538,307.696h8.11c0,0.979,0.342,1.818,1.024,2.52s1.514,1.052,2.491,1.052
				c1.053,0,1.883-0.276,2.492-0.83c0.608-0.554,0.913-1.265,0.913-2.132c0-0.332-0.056-0.65-0.166-0.955s-0.3-0.581-0.567-0.83
				c-0.268-0.25-0.526-0.466-0.775-0.651c-0.249-0.184-0.609-0.373-1.079-0.567c-0.471-0.193-0.841-0.336-1.107-0.429
				c-0.268-0.092-0.684-0.23-1.246-0.415c-0.563-0.185-0.955-0.323-1.177-0.415c-3.063-1.089-5.314-2.418-6.754-3.986
				s-2.159-3.746-2.159-6.533c0-3.026,1.135-5.619,3.404-7.778c2.271-2.159,4.992-3.239,8.167-3.239c3.599,0,6.366,1.02,8.305,3.059
				c1.938,2.04,3.026,4.729,3.267,8.069h-7.835c0-1.015-0.3-1.854-0.899-2.519c-0.6-0.665-1.472-0.997-2.616-0.997
				c-0.978,0-1.817,0.282-2.519,0.845c-0.701,0.563-1.052,1.37-1.052,2.422c0,0.332,0.055,0.655,0.166,0.969
				c0.11,0.314,0.29,0.582,0.54,0.803c0.249,0.222,0.488,0.411,0.72,0.567c0.23,0.157,0.571,0.31,1.023,0.457
				c0.452,0.148,0.817,0.268,1.094,0.36c0.277,0.092,0.692,0.217,1.246,0.373c0.554,0.157,0.959,0.272,1.218,0.347
				c5.942,1.771,8.914,5.287,8.914,10.547c0,3.026-1.126,5.615-3.378,7.765s-4.965,3.225-8.139,3.225
				c-3.599,0-6.436-1.057-8.512-3.169C207.576,313.515,206.538,310.871,206.538,307.696z M208.531,309.274
				c0.073,2.159,1.038,4.023,2.893,5.592s4.102,2.353,6.74,2.353c2.64,0,4.896-0.927,6.769-2.781c1.873-1.855,2.81-4.064,2.81-6.63
				c0-2.676-0.72-4.688-2.159-6.035c-1.439-1.347-3.59-2.436-6.449-3.267c-1.126-0.332-1.947-0.585-2.464-0.761
				c-0.518-0.176-1.136-0.461-1.855-0.858c-0.72-0.396-1.218-0.881-1.494-1.453c-0.277-0.572-0.415-1.255-0.415-2.049
				c0-1.477,0.488-2.657,1.467-3.543c0.978-0.886,2.242-1.329,3.792-1.329c2.64,0,4.374,1.172,5.205,3.516h4.263
				c-0.185-2.048-1.062-3.88-2.63-5.495c-1.568-1.614-3.848-2.422-6.838-2.422c-2.639,0-4.913,0.923-6.823,2.769
				s-2.865,4.06-2.865,6.644c0,2.233,0.558,4.037,1.675,5.412c1.116,1.375,3.16,2.588,6.132,3.64
				c0.222,0.074,0.683,0.235,1.384,0.484s1.194,0.43,1.481,0.54c0.285,0.11,0.715,0.3,1.287,0.567
				c0.571,0.268,0.987,0.513,1.245,0.733c0.259,0.222,0.549,0.503,0.872,0.845s0.549,0.72,0.679,1.135
				c0.129,0.415,0.193,0.891,0.193,1.426c0,1.439-0.517,2.557-1.55,3.35c-1.034,0.794-2.271,1.19-3.71,1.19
				c-1.365-0.037-2.51-0.396-3.433-1.08c-0.923-0.683-1.513-1.513-1.771-2.491H208.531z M209.029,293.163v-0.276h3.294v0.276
				H209.029z M209.029,294.299v-0.277h3.294l0.056,0.277H209.029z M209.14,292.028l0.111-0.332h3.294l-0.11,0.332H209.14z
				 M209.195,295.488l-0.056-0.276h3.405l0.11,0.276H209.195z M209.5,296.624l-0.056-0.277h3.793l-0.056-0.055l0.332,0.332H209.5z
				 M209.5,290.838l0.056-0.276h3.46l-0.193,0.276H209.5z M209.942,289.703l0.167-0.332h3.902l-0.387,0.332H209.942z
				 M210.164,297.814l-0.166-0.277h4.596l0.442,0.277H210.164z M210.635,288.513l0.222-0.276h4.982l-0.608,0.276H210.635z
				 M211.188,298.949l-0.276-0.277h6.505l1.08,0.277H211.188z M211.576,287.378l0.359-0.276h6.229v0.276H211.576z M212.822,300.14
				l-0.609-0.332h8.886l0.858,0.332H212.822z M213.182,286.188l0.443-0.276h4.539v0.276H213.182z M214.428,300.997h9.135
				l0.332,0.277h-9.024L214.428,300.997z M215.618,285.053l1.355-0.277h1.19v0.277H215.618z M216.753,302.133h8.332l0.276,0.332
				h-7.751L216.753,302.133z M218.164,314.036v-0.277h6.45l-0.276,0.277H218.164z M218.164,315.171v-0.277h5.094l-0.388,0.277
				H218.164z M218.164,316.361v-0.277h2.879l-1.052,0.277H218.164z M220.047,303.323h6.007l0.111,0.276h-5.509L220.047,303.323z
				 M220.933,312.9l0.692-0.332h4.014l-0.166,0.222l-0.056,0.11H220.933z M222.179,304.458h4.373l0.111,0.276h-4.125
				L222.179,304.458z M222.649,311.711l0.276-0.277h3.35l-0.166,0.277H222.649z M223.369,305.925l-0.167-0.276h3.737l0.139,0.276
				H223.369z M223.507,310.575l0.166-0.332h3.101l-0.11,0.332H223.507z M223.839,307.06l-0.055-0.276h3.35v0.276H223.839z
				 M223.895,309.385l0.056-0.276h3.128l-0.083,0.276H223.895z M224.005,308.25v-0.276h3.184l-0.055,0.276H224.005z"/>
			<path fill="#841618" d="M232.395,317.662l16.555-35.156h1.467l16.665,35.156h-8.941l-1.717-3.516h-13.426l-1.661,3.516H232.395z
				 M235.329,316.084h4.484l9.522-20.54h0.804l9.411,20.54h4.596l-14.478-30.506L235.329,316.084z M238.9,309.606l0.166-0.276h3.128
				l-0.166,0.276H238.9z M239.481,308.472l0.111-0.276h3.128l-0.194,0.276H239.481z M239.979,307.337l0.166-0.277h3.073
				l-0.166,0.277H239.979z M240.562,306.202l0.11-0.277h3.045l-0.166,0.277H240.562z M241.06,305.066l0.166-0.276h3.072
				l-0.166,0.276H241.06z M241.641,303.932l0.111-0.276h3.045l-0.166,0.276H241.641z M242.139,302.797l0.111-0.277h3.072
				l-0.166,0.277H242.139z M242.638,301.662l0.193-0.277h3.045l-0.166,0.277H242.638z M243.219,300.555l0.11-0.305h3.073
				l-0.194,0.305H243.219z M243.606,312.624h12.152l-1.329-2.852h-9.578L243.606,312.624z M243.717,299.42l0.194-0.305h3.045
				l-0.166,0.305H243.717z M244.298,298.284l0.111-0.304h3.072l-0.193,0.304H244.298z M244.797,297.149l0.166-0.305h3.072
				l-0.166,0.305H244.797z M244.852,311.877l0.111-0.277h9.19l0.11,0.277H244.852z M245.378,296.015l0.11-0.305h3.045l-0.166,0.305
				H245.378z M245.378,310.741l0.11-0.276h8.222l0.166,0.276H245.378z M245.654,308.14h7.89l-3.875-8.554h-0.111L245.654,308.14z
				 M245.876,294.88l0.166-0.305h7.197l0.194,0.305H245.876z M246.457,293.745l0.111-0.277h6.173l0.11,0.277H246.457z
				 M246.956,292.609l0.11-0.276h5.121l0.166,0.276H246.956z M247.481,291.475l0.166-0.276h4.015l0.11,0.276H247.481z
				 M248.035,290.34l0.111-0.276h2.962l0.166,0.276H248.035z M248.533,289.205l0.194-0.277h1.854l0.11,0.277H248.533z
				 M249.115,288.07l0.11-0.277h0.803l0.166,0.277H249.115z M249.558,287.046l0.111-0.222l0.138,0.222H249.558z M251.053,296.015
				l-0.193-0.305h2.962l0.11,0.305H251.053z M251.551,297.149l-0.166-0.305h2.935l0.166,0.305H251.551z M252.049,298.284
				l-0.166-0.304h3.018l0.11,0.304H252.049z M252.575,299.42l-0.166-0.305h2.989l0.166,0.305H252.575z M253.073,300.555
				l-0.166-0.305h3.073l0.11,0.305H253.073z M253.6,301.662l-0.166-0.277h3.045l0.166,0.277H253.6z M254.098,302.797l-0.166-0.277
				h3.128l0.111,0.277H254.098z M254.624,303.932l-0.194-0.276h3.128l0.166,0.276H254.624z M254.956,304.79h3.184l0.11,0.276h-3.128
				L254.956,304.79z M255.398,305.925h3.239l0.166,0.277h-3.239L255.398,305.925z M255.925,307.06h3.267l0.139,0.277h-3.239
				L255.925,307.06z M256.423,308.195h3.294l0.166,0.276h-3.294L256.423,308.195z M256.894,309.33h3.377l0.111,0.276h-3.322
				L256.894,309.33z"/>
		</g>
		<g clip-path="url(#SVGID_4_)">
			<defs>
				<rect id="SVGID_7_" x="-852.702" y="-90.064" width="1270.08" height="670.08"/>
			</defs>
			<clipPath id="SVGID_8_">
				<use xlink:href="#SVGID_7_"  overflow="visible"/>
			</clipPath>
			<path clip-path="url(#SVGID_8_)" fill="#841618" d="M46.755,398.604H35.899c-1.497,0-3.056-3.058-3.056-3.058
				s-0.063-1.185,0-1.622c0.062-0.436-1.248-3.866-1.186-5.177c0.063-1.31,0.624-2.371,0.624-2.371s-0.562-0.998-0.313-2.246
				c0.25-1.247,0.936-2.744,0.936-3.555v-8.297c0-1.686,1.81-4.055,2.121-4.679c0.313-0.624,7.05-24.703,7.425-25.391
				c0.374-0.686,2.37-2.432,11.104-2.432h83.862c0.832,0,0.978,6.487,0.978,6.487l122.955-0.848l3.369,23.773l-1.685,33.468
				l-0.202,5.053h-49.36c0,0-1.04-7.898-2.62-11.229c-2.932-6.177-8.547-10.667-18.466-10.605
				c-9.918,0.063-17.342,4.273-19.712,11.447c-2.371,7.174-2.693,10.948-2.693,10.948H87.844c0,0,0.159-9.049-3.587-14.058
				c-3.92-5.239-8.235-7.9-14.639-7.9c-6.405,0-11.271,0.374-16.387,4.989C48.117,395.922,46.755,398.604,46.755,398.604"/>
			<path clip-path="url(#SVGID_8_)" fill="#010101" d="M209.333,405.466c0,9.682-7.848,17.529-17.528,17.529
				c-9.683,0-17.53-7.848-17.53-17.529c0-9.681,7.848-17.528,17.53-17.528C201.485,387.938,209.333,395.785,209.333,405.466"/>
			<path clip-path="url(#SVGID_8_)" fill="#656565" d="M202.846,405.154c0,6.098-4.943,11.042-11.042,11.042
				c-6.098,0-11.041-4.944-11.041-11.042s4.943-11.042,11.041-11.042C197.902,394.112,202.846,399.057,202.846,405.154"/>
			<path clip-path="url(#SVGID_8_)" fill="#841618" d="M201.047,405.154c0,5.104-4.138,9.243-9.243,9.243
				c-5.104,0-9.243-4.139-9.243-9.243c0-5.105,4.139-9.243,9.243-9.243C196.909,395.911,201.047,400.049,201.047,405.154"/>
			<path clip-path="url(#SVGID_8_)" fill="#010101" d="M196.088,405.154c0,2.366-1.918,4.284-4.284,4.284
				c-2.365,0-4.283-1.918-4.283-4.284s1.918-4.284,4.283-4.284C194.17,400.87,196.088,402.788,196.088,405.154"/>
			<path clip-path="url(#SVGID_8_)" fill="#010101" d="M85.474,406.007c0,9.015-7.309,16.323-16.323,16.323
				c-9.016,0-16.324-7.309-16.324-16.323s7.309-16.323,16.324-16.323C78.165,389.684,85.474,396.992,85.474,406.007"/>
			<path clip-path="url(#SVGID_8_)" fill="#656565" d="M79.432,405.717c0,5.679-4.603,10.281-10.281,10.281
				c-5.68,0-10.282-4.603-10.282-10.281c0-5.68,4.603-10.282,10.282-10.282C74.829,395.435,79.432,400.037,79.432,405.717"/>
			<path clip-path="url(#SVGID_8_)" fill="#841618" d="M77.757,405.717c0,4.754-3.854,8.606-8.606,8.606
				c-4.754,0-8.607-3.853-8.607-8.606c0-4.755,3.854-8.607,8.607-8.607C73.903,397.109,77.757,400.962,77.757,405.717"/>
			<path clip-path="url(#SVGID_8_)" fill="#010101" d="M73.139,405.717c0,2.202-1.786,3.988-3.988,3.988
				c-2.203,0-3.989-1.786-3.989-3.988c0-2.203,1.786-3.989,3.989-3.989C71.353,401.728,73.139,403.514,73.139,405.717"/>
			<rect x="16.313" y="397.108" clip-path="url(#SVGID_8_)" fill="#010101" width="16.593" height="12.329"/>
			<rect x="33.946" y="398.043" clip-path="url(#SVGID_8_)" fill="#656565" width="12.965" height="7.485"/>
			<polygon clip-path="url(#SVGID_8_)" fill="#FDFEFF" points="264.719,369.19 90.609,370.844 90.609,377.956 264.38,375.918 			"/>
			<path clip-path="url(#SVGID_8_)" fill="#010101" d="M105.458,366.519h17.817c1.695,0,3.069-1.374,3.069-3.068v-15.155
				c0-1.695-1.374-3.069-3.069-3.069h-17.817c-1.694,0-3.068,1.374-3.068,3.069v15.155
				C102.39,365.145,103.764,366.519,105.458,366.519"/>
			<path clip-path="url(#SVGID_8_)" fill="#656565" d="M106.718,365.104h15.381c1.463,0,2.649-1.186,2.649-2.648v-13.083
				c0-1.464-1.187-2.65-2.649-2.65h-15.381c-1.463,0-2.649,1.187-2.649,2.65v13.083
				C104.068,363.919,105.255,365.104,106.718,365.104"/>
			<polygon clip-path="url(#SVGID_8_)" fill="#FDFEFF" points="88.904,377.956 88.904,371.759 32.906,372.278 32.906,378.081 			"/>
			<path clip-path="url(#SVGID_8_)" fill="#010101" d="M77.779,361.611h7.684c1.108,0,2.006-0.897,2.006-2.006l-1.755-10.502
				c0-1.108-0.898-2.006-2.007-2.006h-5.928c-1.108,0-2.006,0.897-2.006,2.006v10.502C75.773,360.714,76.671,361.611,77.779,361.611
				"/>
			<path clip-path="url(#SVGID_8_)" fill="#656565" d="M78.396,360.447h6.451c0.93,0,1.684-0.754,1.684-1.685l-1.473-8.816
				c0-0.931-0.755-1.685-1.685-1.685h-4.978c-0.93,0-1.684,0.754-1.684,1.685v8.816C76.712,359.693,77.466,360.447,78.396,360.447"
				/>
			<path clip-path="url(#SVGID_8_)" fill="#656565" d="M69.004,359.694v-10.117c0-1.388-0.419-2.106-2.146-2.106H47.682
				c-0.813,0-1.823,0.954-1.948,1.593c-0.28,1.424-2.662,14.998-2.878,15.858c-0.216,0.862,0.156,1.598,0.894,1.598h4.163
				c1.195,0,1.329-0.367,1.75-1.525c0.421-1.157,0.614-1.689,0.919-2.523c0.311-0.849,1.004-1.195,1.93-1.195h14.874
				C67.042,361.275,69.004,361.353,69.004,359.694"/>
			<path clip-path="url(#SVGID_8_)" fill="none" stroke="#010101" stroke-width="1.334" stroke-miterlimit="10" d="M69.004,359.694
				v-10.117c0-1.388-0.419-2.106-2.146-2.106H47.682c-0.813,0-1.823,0.954-1.948,1.593c-0.28,1.424-2.662,14.998-2.878,15.858
				c-0.216,0.862,0.156,1.598,0.894,1.598h4.163c1.195,0,1.329-0.367,1.75-1.525c0.421-1.157,0.614-1.689,0.919-2.523
				c0.311-0.849,1.004-1.195,1.93-1.195h14.874C67.042,361.275,69.004,361.353,69.004,359.694z"/>
			<path clip-path="url(#SVGID_8_)" fill="none" stroke="#656565" stroke-miterlimit="10" d="M137.418,340.546
				c0,0,116.136-0.301,118.069-0.27c1.934,0.033,4.813-0.479,4.846,4.949"/>
			
				<line clip-path="url(#SVGID_8_)" fill="none" stroke="#656565" stroke-width="1.385" stroke-miterlimit="10" x1="222.827" y1="345.665" x2="222.827" y2="340.267"/>
			
				<line clip-path="url(#SVGID_8_)" fill="none" stroke="#656565" stroke-width="1.385" stroke-miterlimit="10" x1="186.272" y1="345.938" x2="186.272" y2="340.54"/>
			
				<line clip-path="url(#SVGID_8_)" fill="none" stroke="#656565" stroke-width="1.385" stroke-miterlimit="10" x1="149.467" y1="346.153" x2="149.467" y2="340.756"/>
			<path clip-path="url(#SVGID_8_)" fill="#FFFFFF" d="M179.68,348.957c1.212-0.393,1.702-0.209,1.807,1.032
				c0.422,4.944,0.949,9.878,1.439,14.815c0.019,0.192,0.06,0.384,0.245,0.574c0.408-5.503,0.816-11.006,1.223-16.478
				c2.195-0.424,2.236-0.372,2.418,1.647c0.406,4.538,0.838,9.072,1.269,13.607c0.03,0.31,0.134,0.611,0.393,0.909
				c0.226-2.964,0.459-5.927,0.675-8.891c0.15-2.069,0.333-4.138,0.39-6.209c0.033-1.191,0.529-1.411,1.694-1.006
				c-0.061,0.993-0.093,2.033-0.191,3.067c-0.463,4.897-0.925,9.794-1.429,14.688c-0.206,2.006-0.253,2.001-2.498,1.656
				c-0.501-5.559-1.006-11.166-1.51-16.771c-0.05,0.001-0.099,0.003-0.148,0.004c-0.2,2.834-0.401,5.668-0.601,8.501
				c-0.15,2.15-0.309,4.299-0.443,6.45c-0.134,2.127-0.178,2.172-2.558,1.921C181.13,361.991,180.405,355.475,179.68,348.957"/>
			<path clip-path="url(#SVGID_8_)" fill="#FFFFFF" d="M168.956,359.382c0.05,2.984,0.102,6.015,0.154,9.111
				c-0.711,0.013-1.217,0.021-1.81,0.03c-0.036-0.413-0.091-0.769-0.094-1.124c-0.043-5.777-0.055-11.555-0.14-17.332
				c-0.016-1.053,0.236-1.505,1.349-1.387c0.846,0.091,1.708,0.017,2.562,0.046c1.834,0.063,2.418,0.633,2.459,2.43
				c0.035,1.586,0.036,3.173,0.059,4.76c0.015,1.095-0.2,2.05-1.785,2.441c1.657,0.308,1.916,1.232,1.906,2.407
				c-0.019,2.236,0.027,4.475,0.066,6.713c0.013,0.637-0.039,1.1-0.875,1.114c-0.844,0.014-1.022-0.377-1.017-1.117
				c0.019-2.034-0.011-4.068-0.028-6.104C171.746,359.29,171.265,358.917,168.956,359.382 M169.135,357.476
				c2.066,0.363,2.486,0.04,2.489-1.902c0.001-1.094-0.017-2.188-0.025-3.282c-0.014-1.935-0.503-2.313-2.584-1.874
				C169.054,352.725,169.094,355.058,169.135,357.476"/>
			<path clip-path="url(#SVGID_8_)" fill="#FFFFFF" d="M202.782,358.443c0.74,0.193,1.073,0.949,1.076,1.942
				c0.006,1.791,0.053,3.582,0.035,5.373c-0.02,1.923-0.554,2.532-2.452,2.554c-4.31,0.05-3.433,0.668-3.507-3.335
				c-0.091-4.842-0.06-9.687-0.083-14.531c-0.003-0.483-0.016-0.968-0.029-1.733c1.578,0.063,3.064,0.039,4.526,0.214
				c0.944,0.112,1.283,0.974,1.313,1.829c0.063,1.83,0.127,3.667,0.018,5.49C203.637,356.958,203.126,357.641,202.782,358.443
				 M199.846,366.746c1.947,0.171,2.226-0.076,2.221-1.875c-0.004-1.343-0.016-2.685-0.037-4.026
				c-0.025-1.632-0.577-2.017-2.311-1.55C199.761,361.738,199.803,364.202,199.846,366.746 M199.712,357.449
				c0.921,0.138,1.987,0.331,2.085-0.717c0.173-1.882,0.068-3.802-0.089-5.69c-0.026-0.305-0.912-0.595-1.442-0.759
				c-0.146-0.044-0.634,0.394-0.635,0.612C199.617,353.07,199.675,355.246,199.712,357.449"/>
			<path clip-path="url(#SVGID_8_)" fill="#FFFFFF" d="M212.691,356.637c0.541-2.206,1.13-4.402,1.604-6.622
				c0.243-1.139,0.771-1.529,2.027-1.08c-0.458,1.725-0.697,3.569-1.429,5.189c-1.5,3.317-0.348,6.333,0.604,9.43
				c0.452,1.47,0.814,2.968,1.215,4.445c-1.473,0.521-1.605,0.454-1.975-0.938c-0.694-2.613-1.386-5.228-2.361-7.799
				c0.05,2.951,0.101,5.901,0.15,8.817c-1.617,0.405-1.715,0.343-1.731-1.058c-0.062-5.536-0.12-11.072-0.18-16.607
				c-0.005-0.48-0.016-0.962-0.026-1.531c0.645-0.012,1.146-0.02,1.768-0.03c0.044,2.61,0.088,5.189,0.131,7.77
				C212.556,356.627,212.623,356.632,212.691,356.637"/>
		</g>
	</g>
</g>
</svg>
