<svg width="286" height="458" viewBox="0 0 286 458" fill="none" xmlns="http://www.w3.org/2000/svg">
<path d="M73.9 0.929016L0.774994 214.066V457.07H285.225V214.066L214.195 0.929016H73.9Z" fill="#371025"/>
<mask id="mask0_1_3" style="mask-type:alpha" maskUnits="userSpaceOnUse" x="0" y="0" width="286" height="458">
<path d="M73.9 0.929016L0.774994 214.066V457.07H285.225V214.066L214.195 0.929016H73.9Z" fill="#371025"/>
</mask>
<g mask="url(#mask0_1_3)">
<path d="M9.84 295.326C22.713 310.306 35.912 325.01 49.426 339.418C51.687 341.828 54.112 344.328 57.282 345.262C59.535 345.924 61.957 345.721 64.258 345.241C73.094 343.401 80.713 337.675 86.648 330.874C95.12 321.165 100.758 308.778 101.35 295.907C101.435 294.073 101.392 292.134 100.457 290.552C99.658 289.198 98.309 288.282 96.998 287.419C76.823 274.128 55.439 262.79 34.094 251.476C33.871 249.507 33.519 248.558 32.269 247.105C30.98 245.609 29.529 243.988 28.487 242.316C26.599 239.289 24.303 236.086 20.684 232.314C14.688 226.064 8.08401 220.199 1.69001 214.468C-1.28999 211.797 -4.6 209.387 -7.776 206.977C-9.361 205.773 -11.426 204.65 -13.391 204.273C-19.111 203.174 -25.296 207.431 -29.643 210.723C-35.171 214.911 -39.16 220.758 -43.226 226.293C-47.585 232.228 -50.289 239.269 -51.983 246.421C-53.199 251.556 -54.482 259.427 -50.839 264.001C-48.919 266.409 -45.53 267.757 -42.874 268.989C-38.77 270.895 -34.788 272.454 -30.551 274.471C-22.969 278.078 -15.495 281.959 -8.10499 285.942C-3.19299 288.59 2.301 291.159 7.678 293.77C8.221 294.031 9.465 294.891 9.84 295.326Z" fill="#512924"/>
<path d="M235.623 2.58846L213.012 -13.8826L20.32 250.643L42.9314 267.114L235.623 2.58846Z" fill="#512924"/>
<path d="M83.523 337.605C99.261 349.541 115.261 361.136 131.502 372.378C134.22 374.259 137.117 376.192 140.413 376.437C142.755 376.611 145.081 375.902 147.227 374.949C155.479 371.291 161.721 364.088 166.092 356.189C172.33 344.916 175.237 331.621 173.106 318.914C172.801 317.101 172.352 315.215 171.106 313.863C170.042 312.709 168.528 312.097 167.063 311.529C144.545 302.783 121.253 296.201 98.004 289.633C97.371 287.754 96.828 286.901 95.299 285.744C93.725 284.551 91.965 283.273 90.594 281.857C88.113 279.294 85.194 276.648 80.862 273.722C73.684 268.872 65.994 264.529 58.537 260.273C55.061 258.289 51.319 256.628 47.707 254.941C45.904 254.097 43.649 253.435 41.649 253.48C35.826 253.609 30.673 259.072 27.118 263.205C22.595 268.463 19.927 275.019 17.116 281.287C14.102 288.006 12.944 295.457 12.792 302.808C12.683 308.081 13.085 316.046 17.61 319.749C19.994 321.702 23.59 322.306 26.446 322.95C30.858 323.95 35.081 324.638 39.647 325.716C47.819 327.648 55.942 329.868 64.004 332.206C69.363 333.761 75.275 335.116 81.082 336.536C81.67 336.682 83.066 337.258 83.523 337.605Z" fill="#8B4720"/>
<path d="M242.639 3.90307L217.067 -7.4408L84.3623 291.71L109.934 303.054L242.639 3.90307Z" fill="#8B4720"/>
<path d="M170.725 370.279C188.696 378.476 206.848 386.283 225.161 393.689C228.224 394.929 231.474 396.181 234.745 395.697C237.067 395.353 239.181 394.152 241.065 392.754C248.315 387.373 252.827 378.979 255.36 370.313C258.975 357.946 258.895 344.338 254.032 332.407C253.339 330.706 252.485 328.962 250.973 327.919C249.68 327.026 248.071 326.761 246.518 326.526C222.629 322.928 198.461 321.612 174.338 320.299C173.309 318.606 172.592 317.891 170.846 317.098C169.049 316.28 167.053 315.418 165.405 314.338C162.421 312.381 158.993 310.44 154.126 308.533C146.06 305.377 137.605 302.824 129.396 300.306C125.568 299.132 121.553 298.331 117.66 297.478C115.717 297.05 113.371 296.898 111.43 297.38C105.776 298.782 101.948 305.241 99.384 310.052C96.123 316.175 94.957 323.156 93.589 329.886C92.122 337.103 92.624 344.628 94.088 351.831C95.139 357.003 97.276 364.685 102.502 367.308C105.256 368.689 108.898 368.49 111.825 368.494C116.349 368.504 120.619 368.246 125.312 368.299C133.708 368.393 142.12 368.778 150.5 369.293C156.068 369.635 162.135 369.66 168.111 369.773C168.713 369.785 170.203 370.043 170.725 370.279Z" fill="#F8961D"/>
<path d="M252.804 9.81306L225.37 4.34973L161.456 325.295L188.89 330.758L252.804 9.81306Z" fill="#F8961D"/>
<path d="M253.072 320.799L236.902 263.561L252.955 261.049L253.072 320.799Z" fill="#F8961D"/>
<path d="M268.232 245.352L265.926 305.457L279.049 255.893L268.232 245.352Z" fill="#F8961D"/>
<path d="M242.723 402.836L235.861 445.932L222.814 441.9L242.723 402.836Z" fill="#F8961D"/>
</g>
</svg>
