<svg width="286" height="457" viewBox="0 0 286 457" fill="none" xmlns="http://www.w3.org/2000/svg">
<mask id="mask0_1_18" style="mask-type:alpha" maskUnits="userSpaceOnUse" x="0" y="0" width="286" height="457">
<path d="M73.9 0.397003L0.775024 213.533V456.539H285.225V213.533L214.195 0.397003H73.9Z" fill="#371025"/>
</mask>
<g mask="url(#mask0_1_18)">
<path d="M73.9 0.397003L0.775024 213.533V456.539H285.225V213.533L214.195 0.397003H73.9Z" fill="#371025"/>
<path d="M82.8851 396.799C82.8631 336.123 91.1721 291.252 98.5731 231.029" stroke="#F8961D" stroke-width="7" stroke-miterlimit="10"/>
<path d="M105 349.6C106.836 372.532 84.0981 393.063 54.2121 395.455C24.3261 397.847 -1.38896 381.197 -3.22496 358.266C-5.06296 335.332 17.676 314.803 47.562 312.411C77.447 310.016 103.164 326.668 105 349.6Z" fill="#512924"/>
<path d="M199.852 336.164C201.688 359.096 177.211 379.766 145.183 382.33C113.155 384.894 85.7021 368.383 83.8661 345.451C82.0301 322.519 106.506 301.849 138.534 299.285C170.563 296.721 198.015 313.232 199.852 336.164Z" fill="#8B4720"/>
<path d="M289.078 325.77C290.914 348.702 266.512 369.366 234.574 371.922C202.636 374.479 175.257 357.963 173.421 335.029C171.584 312.097 195.987 291.433 227.924 288.877C259.862 286.318 287.242 302.838 289.078 325.77Z" fill="#F8961D"/>
<path d="M20.981 129.977L61.843 131.112L66.537 49.559C66.537 49.559 119.564 58.36 149.251 57.596V65.43C149.251 65.43 198.388 64.381 223.571 55.175L229.114 127.825L302.733 125.956L297.132 -4.59L9.51404 -8.228L20.981 129.977Z" fill="#F8961D"/>
<path d="M158.973 419.648C160.574 359.687 168.683 300.113 176.782 240.679C149.313 239.777 121.891 237.464 94.66 233.753" stroke="#F8961D" stroke-width="7" stroke-miterlimit="10"/>
<path d="M270.346 292.158L231.447 258.168L241.427 245.262L270.346 292.158Z" fill="#F8961D"/>
<path d="M257.571 375.52L222.039 405.82L231.764 415.217L257.571 375.52Z" fill="#F8961D"/>
<path d="M261.527 388.916L274.177 366.604L272.438 391.088L261.527 388.916Z" fill="#F8961D"/>
</g>
</svg>
