<?xml version="1.0" encoding="iso-8859-1"?>
<!-- Generator: Adobe Illustrator 16.0.0, SVG Export Plug-In . SVG Version: 6.00 Build 0)  -->
<!DOCTYPE svg PUBLIC "-//W3C//DTD SVG 1.1//EN" "http://www.w3.org/Graphics/SVG/1.1/DTD/svg11.dtd">
<svg version="1.1" id="Layer_1" xmlns="http://www.w3.org/2000/svg" xmlns:xlink="http://www.w3.org/1999/xlink" x="0px" y="0px"
	 width="284.449px" height="456.144px" viewBox="0 0 284.449 456.144" style="enable-background:new 0 0 284.449 456.144;"
	 xml:space="preserve">
<g>
	<defs>
		<polygon id="SVGID_1_" points="73.126,0 0,213.137 0,456.144 284.449,456.144 284.449,213.137 213.419,0 		"/>
	</defs>
	<clipPath id="SVGID_2_">
		<use xlink:href="#SVGID_1_"  style="overflow:visible;"/>
	</clipPath>
	<g style="clip-path:url(#SVGID_2_);">
		<g>
			<defs>
				<path id="SVGID_3_" d="M-283.439,0l-73.126,213.137v243.007h284.449V213.137L-143.144,0H-283.439z M73.126,0L0,213.137v243.007
					h284.449V213.137L213.419,0H73.126z M428.792,0l-73.125,213.137v243.007h284.447V213.137L569.087,0H428.792z"/>
			</defs>
			<clipPath id="SVGID_4_">
				<use xlink:href="#SVGID_3_"  style="overflow:visible;"/>
			</clipPath>
			<rect x="-459.98" y="-56.533" style="clip-path:url(#SVGID_4_);fill:#8B8E6B;" width="1172.546" height="567.25"/>
			<polygon style="clip-path:url(#SVGID_4_);fill:#BABE8E;" points="88.027,180.259 1368.24,180.259 1368.24,-26.741 			"/>
			<polygon style="clip-path:url(#SVGID_4_);fill:#BABE8E;" points="88.027,180.259 1196.724,820.367 1300.224,641.099 			"/>
			<polygon style="clip-path:url(#SVGID_4_);fill:#BABE8E;" points="88.027,180.259 728.134,1288.957 907.402,1185.457 			"/>
			<polygon style="clip-path:url(#SVGID_4_);fill:#BABE8E;" points="88.027,180.259 88.027,1460.472 295.027,1460.472 			"/>
			<polygon style="clip-path:url(#SVGID_4_);fill:#BABE8E;" points="88.027,180.259 -552.08,1288.957 -372.812,1392.457 			"/>
			<polygon style="clip-path:url(#SVGID_4_);fill:#BABE8E;" points="88.027,180.259 -1020.669,820.367 -917.169,999.634 			"/>
			<polygon style="clip-path:url(#SVGID_4_);fill:#BABE8E;" points="88.027,180.259 -1192.186,180.259 -1192.186,387.259 			"/>
			<polygon style="clip-path:url(#SVGID_4_);fill:#BABE8E;" points="88.027,180.259 -1020.669,-459.848 -1124.169,-280.58 			"/>
			<polygon style="clip-path:url(#SVGID_4_);fill:#BABE8E;" points="88.027,180.259 -552.08,-928.438 -731.347,-824.938 			"/>
			<polygon style="clip-path:url(#SVGID_4_);fill:#BABE8E;" points="88.027,180.259 88.027,-1099.954 -118.973,-1099.954 			"/>
			<polygon style="clip-path:url(#SVGID_4_);fill:#BABE8E;" points="88.027,180.259 728.134,-928.438 548.867,-1031.938 			"/>
			<polygon style="clip-path:url(#SVGID_4_);fill:#BABE8E;" points="88.027,180.259 1196.724,-459.848 1093.224,-639.115 			"/>
			<path style="clip-path:url(#SVGID_4_);fill:#BABE8E;" d="M116.77,180.22c0,15.875-12.868,28.742-28.742,28.742
				c-15.873,0-28.741-12.867-28.741-28.742c0-15.874,12.868-28.742,28.741-28.742C103.901,151.478,116.77,164.346,116.77,180.22"/>
			<path style="clip-path:url(#SVGID_4_);fill:#921A20;" d="M-106.761,411.761c-18.187,5.449-37.309,6.738-56.189,8.725
				c-55.183,5.813-74.817,10.49-130.062,5.307c-11.37-1.066-12.386-7.934-23.755-9c-3.756-0.352-27.782-15.711-30.297-18.523
				c-1.703-18.973-26.427-0.545-25.505-19.572c0.308-6.346,0.773-12.75,2.641-18.822c-9.196-3.137-19.053-1.707-28.399-4.363
				c0.72-13.789,1.378-28.018-3.362-40.988c-1.815-4.967-4.395-9.652-5.844-14.738c-1.67-5.867-1.776-12.051-1.87-18.148
				c-0.545-35.34-1.089-70.681-1.634-106.019c-0.201-13.034-0.383-26.238,2.732-38.896c0.715-2.908,5.703-2.976,8.453-1.791
				c2.75,1.186,4.69,3.75,5.926,6.478c0.957,2.113,1.586,4.407,2.94,6.29c2.272,3.16,6.151,4.63,9.686,6.257
				c8.981,4.132,16.907,10.194,24.969,15.916c7.307,5.188,14.785,10.131,22.26,15.074c6.303,4.166,12.764,8.404,20.096,10.23
				c-0.607-2.172,0.14-4.422,1.801-5.949c-2.198-1.426-3.623-3.857-4.322-6.381c-0.863-3.123-1.229-6.438-0.565-9.609
				c0.664-3.17,2.442-6.184,5.18-7.914c0.329-9.342,2.387-18.938,6.745-27.208c3.989-7.571,9.483-14.227,14.983-20.782
				c2.614-3.114,5.305-6.277,8.797-8.359c-0.125-0.564-0.02-0.976,0.014-1.552c-1.826-1.69-1.642-4.779-1.124-7.213
				c1.502-7.059,3.817-13.946,6.885-20.479c4.176,7.127,6.751,14.986,7.403,23.221c0.133,1.688,0.067,3.661-1.277,4.691
				c-0.059,0.709-0.144,1.59-0.203,2.298c2.171,1.298,3.819,3.265,5.504,5.151c6.613,7.401,13.267,14.859,18.372,23.37
				c5.104,8.512,8.619,18.24,8.354,28.161c3.062,3.242,5.104,7.934,5.393,12.384c0.288,4.45-1.023,8.987-3.641,12.598
				c1.117,2.688,1.175,5.783,1.129,8.695l-0.388,24.774c8.842,3.574,16.381,9.652,23.883,15.541
				c4.878,3.828,9.756,7.658,14.635,11.486c15.496,12.164,28.488,28.006,42.193,42.157c0.637-2.322,1.846-4.598,3.157-6.619
				c0.818-1.26,1.745-2.561,3.128-3.15c0.809,0.166,1.175,0.957,1.692,1.602c0.512,0.637,1.067,1.24,1.557,1.895
				c1.279,1.703,2.097,3.699,2.9,5.672c0.421,1.033,0.848,2.092,0.912,3.205c0.465-0.145,1.134,0.396,1.429,0.785
				c0.269,0.354,0.545,0.725,0.625,1.16c0.108,0.592-0.175,1.199-0.595,1.629c-0.419,0.432-0.961,0.715-1.494,0.994
				c-0.045,0.727-0.064,1.754,0.047,2.475c0.371,2.408,0.742,4.816,1.114,7.227c1.121,1.021,1.892,3.133,1.916,4.65
				c0.003,0.219-0.01,0.451-0.127,0.637c-0.091,0.143-0.236,0.244-0.378,0.336c-0.519,0.336-1.068,0.623-1.639,0.859
				c-0.158,9.85-0.219,19.574,1.321,29.305c0.577,0.113,1.392,0.504,1.968,0.619c0.826,0.164,1.767,0.414,2.125,1.174
				c-0.734-3-0.866-6.557-0.183-9.568c0.119-0.523,0.265-1.057,0.576-1.496c0.742-1.049,2.313-1.277,3.471-0.723
				c1.158,0.557,1.921,1.732,2.278,2.967c0.357,1.236,0.36,2.541,0.361,3.824c0.002,2.457,0.004,4.912,0.005,7.369
				c0.001,0.807,0.045,1.719,0.646,2.258c0.283,0.254,0.656,0.389,0.946,0.635c0.609,0.518,0.73,1.395,0.809,2.189
				c-0.79,0.051-1.579,0.102-2.369,0.152c1.001,2.779,1.234,5.998,1.425,8.947c0.965,14.891,1.497,29.816,3.016,44.66
				C-117.974,411.822-112.431,410.05-106.761,411.761"/>
			<polygon style="clip-path:url(#SVGID_4_);fill:#921A20;" points="367.73,236.269 474.199,217.02 491.335,177.375 503.015,92.798 
				555.281,130.909 604.304,175.926 625.023,195.45 718.21,186.456 766.169,191.442 631.939,356.125 306.152,419.341 
				306.152,354.205 346.404,350.794 348.099,350.113 350.146,351.134 356.285,350.197 358.076,352.158 361.572,352.669 
				365.919,349.855 372.996,349.515 381.265,350.539 382.033,348.064 384.931,346.105 389.621,347.298 393.117,345.167 
				394.822,343.972 397.55,343.972 399.511,344.826 402.156,343.291 404.457,343.632 404.371,341.585 405.138,340.05 
				404.371,339.113 403.689,335.363 404.201,333.144 406.332,332.037 406.929,329.648 410.595,329.906 412.3,330.417 
				414.943,329.82 414.857,326.24 400.876,323.851 400.791,321.634 398.318,321.464 398.232,310.806 399.085,310.806 
				399.341,306.289 401.386,306.033 401.642,304.158 402.496,303.474 409.572,302.111 414.857,302.025 414.943,289.664 
				368.732,282.246 			"/>
			<path style="clip-path:url(#SVGID_4_);fill:#921A20;" d="M-348.153,405.617c-2.698-1.777-5.45-3.465-8.098-5.326l-7.942-5.588
				l-7.745-5.893c-1.301-0.967-2.559-1.996-3.807-3.039l-3.758-3.109c-9.961-8.367-19.409-17.424-28.207-27.135l37.945-34.109
				c7.138,7.861,14.846,15.254,23.041,22.143l3.094,2.561c1.024,0.863,2.058,1.715,3.142,2.512l6.409,4.883l6.609,4.645
				c2.199,1.555,4.516,2.955,6.765,4.445L-348.153,405.617z"/>
			<path style="clip-path:url(#SVGID_4_);fill:none;stroke:#FFFFFF;stroke-width:2;stroke-miterlimit:10;" d="M-369.129,322.091
				l-12.601,11.422c11.412,12.492,24.116,23.836,37.818,33.875l-10.025,13.738c-14.58-10.68-28.16-22.793-40.393-36.189
				l-12.601,11.424"/>
			
				<line style="clip-path:url(#SVGID_4_);fill:none;stroke:#FFFFFF;stroke-width:2;stroke-miterlimit:10;" x1="-357.265" y1="356.912" x2="-346.364" y2="343.857"/>
			
				<line style="clip-path:url(#SVGID_4_);fill:none;stroke:#FFFFFF;stroke-width:2;stroke-miterlimit:10;" x1="-379.066" y1="383.023" x2="-368.166" y2="369.968"/>
			
				<line style="clip-path:url(#SVGID_4_);fill:none;stroke:#FFFFFF;stroke-width:2;stroke-miterlimit:10;" x1="-381.669" y1="357.91" x2="-369.906" y2="345.626"/>
			<path style="clip-path:url(#SVGID_4_);fill:none;stroke:#FFFFFF;stroke-width:2;stroke-miterlimit:10;" d="M-343.912,367.388
				l6.951,4.887c2.319,1.627,4.742,3.105,7.107,4.666"/>
			<path style="clip-path:url(#SVGID_4_);fill:none;stroke:#FFFFFF;stroke-width:2;stroke-miterlimit:10;" d="M-353.938,381.126
				l7.389,5.197c2.467,1.727,5.033,3.301,7.545,4.955"/>
			<path style="clip-path:url(#SVGID_4_);fill:#921A20;" d="M-278.99,439.082c-12.038-4.258-23.888-9.123-35.457-14.672
				c-11.545-5.605-22.812-11.861-33.706-18.793l27.448-43.012c9.117,5.797,18.613,11.078,28.404,15.838
				c9.821,4.707,19.941,8.861,30.261,12.512L-278.99,439.082z"/>
			<path style="clip-path:url(#SVGID_4_);fill:none;stroke:#FFFFFF;stroke-width:2;stroke-miterlimit:10;" d="M-319.916,363.117
				l-9.097,14.371c1.764,1.186,3.614,2.24,5.437,3.338l5.484,3.266l5.599,3.076c1.862,1.033,3.727,2.061,5.644,2.994l5.707,2.879
				c1.894,0.977,3.86,1.811,5.786,2.723c1.943,0.879,3.855,1.824,5.821,2.652l5.897,2.488l-6.5,15.717l-6.216-2.625
				c-2.073-0.873-4.095-1.867-6.144-2.797c-2.035-0.963-4.105-1.848-6.109-2.875l-6.032-3.043c-2.023-0.988-3.998-2.074-5.969-3.166
				l-5.925-3.256l-5.813-3.459c-1.932-1.164-3.889-2.285-5.765-3.541l-9.097,14.369"/>
			
				<line style="clip-path:url(#SVGID_4_);fill:none;stroke:#FFFFFF;stroke-width:2;stroke-miterlimit:10;" x1="-299.227" y1="393.976" x2="-291.87" y2="378.642"/>
			
				<line style="clip-path:url(#SVGID_4_);fill:none;stroke:#FFFFFF;stroke-width:2;stroke-miterlimit:10;" x1="-313.941" y1="424.644" x2="-306.584" y2="409.31"/>
			
				<line style="clip-path:url(#SVGID_4_);fill:none;stroke:#FFFFFF;stroke-width:2;stroke-miterlimit:10;" x1="-322.583" y1="401.029" x2="-314.359" y2="386.142"/>
			<path style="clip-path:url(#SVGID_4_);fill:none;stroke:#FFFFFF;stroke-width:2;stroke-miterlimit:10;" d="M-283.638,400.904
				c2.604,1.146,5.28,2.119,7.934,3.148l3.985,1.529c1.333,0.498,2.687,0.941,4.029,1.414"/>
			<path style="clip-path:url(#SVGID_4_);fill:none;stroke:#FFFFFF;stroke-width:2;stroke-miterlimit:10;" d="M-290.138,416.621
				c2.748,1.205,5.564,2.234,8.359,3.316l4.199,1.609c1.403,0.525,2.827,0.994,4.24,1.492"/>
			<path style="clip-path:url(#SVGID_4_);fill:#921A20;" d="M-205.076,456.968c-12.479-1.811-24.92-4.162-37.263-7.104
				c-3.08-0.775-6.169-1.465-9.24-2.316l-9.209-2.559l-9.135-2.838c-1.527-0.459-3.038-0.969-4.543-1.502l-4.524-1.57l16.95-48.125
				l3.879,1.348c1.289,0.461,2.586,0.898,3.901,1.289l7.852,2.443l7.931,2.201c2.643,0.736,5.345,1.33,8.014,2.008
				c10.729,2.553,21.614,4.615,32.608,6.215L-205.076,456.968z"/>
			<path style="clip-path:url(#SVGID_4_);fill:none;stroke:#FFFFFF;stroke-width:2;stroke-miterlimit:10;" d="M-261.139,391.267
				l-5.6,16.059c2.021,0.691,4.026,1.426,6.059,2.08l6.119,1.908l3.058,0.953l3.089,0.857l6.176,1.717
				c2.063,0.559,4.153,1.031,6.228,1.553c2.083,0.49,4.145,1.066,6.246,1.484c4.192,0.879,8.361,1.861,12.587,2.588l-3.155,16.711
				c-4.414-0.762-8.783-1.781-13.168-2.707c-2.198-0.439-4.363-1.041-6.545-1.555c-2.176-0.545-4.362-1.043-6.529-1.629
				l-6.492-1.801l-3.245-0.904l-3.218-1.002l-6.433-2.008c-2.139-0.689-4.251-1.459-6.377-2.186l-5.6,16.059"/>
			
				<line style="clip-path:url(#SVGID_4_);fill:none;stroke:#FFFFFF;stroke-width:2;stroke-miterlimit:10;" x1="-233.932" y1="416.904" x2="-229.997" y2="400.359"/>
			
				<line style="clip-path:url(#SVGID_4_);fill:none;stroke:#FFFFFF;stroke-width:2;stroke-miterlimit:10;" x1="-241.802" y1="449.998" x2="-237.867" y2="433.451"/>
			
				<line style="clip-path:url(#SVGID_4_);fill:none;stroke:#FFFFFF;stroke-width:2;stroke-miterlimit:10;" x1="-255.23" y1="428.884" x2="-250.474" y2="412.554"/>
			<path style="clip-path:url(#SVGID_4_);fill:none;stroke:#FFFFFF;stroke-width:2;stroke-miterlimit:10;" d="M-217.177,420.466
				c5.606,1.102,11.263,1.957,16.915,2.83"/>
			<path style="clip-path:url(#SVGID_4_);fill:none;stroke:#FFFFFF;stroke-width:2;stroke-miterlimit:10;" d="M-220.333,437.179
				c5.863,1.15,11.765,2.045,17.663,2.953"/>
			<path style="clip-path:url(#SVGID_4_);fill:#921A20;" d="M-130.154,461.517c-12.437,0.205-24.927-0.064-37.427-0.82
				c-12.5-0.752-25.013-1.955-37.495-3.727l7.221-50.512c11.003,1.563,22.117,2.631,33.291,3.305
				c11.174,0.676,22.416,0.924,33.694,0.734L-130.154,461.517z"/>
			<path style="clip-path:url(#SVGID_4_);fill:none;stroke:#FFFFFF;stroke-width:2;stroke-miterlimit:10;" d="M-196.895,406.583
				l-2.365,16.844c17.004,2.348,34.175,3.674,51.395,4.037l-0.354,17.006c-17.832-0.377-35.677-1.752-53.405-4.201l-2.365,16.844"/>
			
				<line style="clip-path:url(#SVGID_4_);fill:none;stroke:#FFFFFF;stroke-width:2;stroke-miterlimit:10;" x1="-165.064" y1="426.769" x2="-164.077" y2="409.791"/>
			
				<line style="clip-path:url(#SVGID_4_);fill:none;stroke:#FFFFFF;stroke-width:2;stroke-miterlimit:10;" x1="-167.037" y1="460.728" x2="-166.05" y2="443.75"/>
			
				<line style="clip-path:url(#SVGID_4_);fill:none;stroke:#FFFFFF;stroke-width:2;stroke-miterlimit:10;" x1="-183.862" y1="442.373" x2="-182.206" y2="425.447"/>
			<path style="clip-path:url(#SVGID_4_);fill:none;stroke:#FFFFFF;stroke-width:2;stroke-miterlimit:10;" d="M-147.865,427.466
				l8.614,0.098c2.872,0.02,5.747-0.043,8.62-0.059"/>
			<path style="clip-path:url(#SVGID_4_);fill:none;stroke:#FFFFFF;stroke-width:2;stroke-miterlimit:10;" d="M-148.219,444.47
				l8.915,0.102c2.972,0.02,5.941-0.043,8.911-0.061"/>
			<path style="clip-path:url(#SVGID_4_);fill:#921A20;" d="M-56.043,455.787c-6.205,0.869-12.363,1.643-18.496,2.273
				c-3.07,0.309-6.134,0.658-9.211,0.934l-9.234,0.799c-12.335,0.947-24.73,1.541-37.169,1.725l-0.717-51.02
				c11.277-0.168,22.583-0.705,33.898-1.572l8.486-0.734c2.83-0.254,5.66-0.578,8.488-0.863c5.666-0.58,11.276-1.285,16.815-2.063
				L-56.043,455.787z"/>
			<path style="clip-path:url(#SVGID_4_);fill:none;stroke:#FFFFFF;stroke-width:2;stroke-miterlimit:10;" d="M-129.889,410.49
				l0.273,17.006c17.243-0.244,34.495-1.457,51.691-3.283l1.826,16.91c-17.664,1.875-35.427,3.125-53.244,3.379l0.273,17.006"/>
			
				<line style="clip-path:url(#SVGID_4_);fill:none;stroke:#FFFFFF;stroke-width:2;stroke-miterlimit:10;" x1="-95.137" y1="425.835" x2="-96.48" y2="408.88"/>
			
				<line style="clip-path:url(#SVGID_4_);fill:none;stroke:#FFFFFF;stroke-width:2;stroke-miterlimit:10;" x1="-92.449" y1="459.746" x2="-93.793" y2="442.791"/>
			
				<line style="clip-path:url(#SVGID_4_);fill:none;stroke:#FFFFFF;stroke-width:2;stroke-miterlimit:10;" x1="-111.547" y1="443.914" x2="-112.373" y2="426.925"/>
			<path style="clip-path:url(#SVGID_4_);fill:none;stroke:#FFFFFF;stroke-width:2;stroke-miterlimit:10;" d="M-77.925,424.212
				c5.735-0.594,11.444-1.309,17.122-2.107"/>
			<path style="clip-path:url(#SVGID_4_);fill:none;stroke:#FFFFFF;stroke-width:2;stroke-miterlimit:10;" d="M-76.099,441.123
				c5.89-0.609,11.778-1.348,17.675-2.176"/>
			<path style="clip-path:url(#SVGID_4_);fill:#921A20;" d="M19.188,435.972c-1.543,0.707-3.103,1.328-4.659,1.955
				c-1.56,0.619-3.113,1.281-4.68,1.857c-3.133,1.146-6.266,2.33-9.414,3.332c-6.289,2.121-12.602,3.887-18.904,5.486
				c-6.308,1.607-12.595,2.91-18.867,4.133c-6.26,1.141-12.512,2.199-18.707,3.051l-7.141-50.521
				c22.156-3.088,43.275-7.947,62.023-16.084L19.188,435.972z"/>
			<path style="clip-path:url(#SVGID_4_);fill:none;stroke:#FFFFFF;stroke-width:2;stroke-miterlimit:10;" d="M-62.221,405.126
				l2.42,16.834c17.011-2.445,33.768-5.877,49.754-11.205l5.377,16.135c-17.297,5.762-35.038,9.361-52.711,11.906l2.418,16.834"/>
			
				<line style="clip-path:url(#SVGID_4_);fill:none;stroke:#FFFFFF;stroke-width:2;stroke-miterlimit:10;" x1="-26.269" y1="415.494" x2="-30.442" y2="399.005"/>
			
				<line style="clip-path:url(#SVGID_4_);fill:none;stroke:#FFFFFF;stroke-width:2;stroke-miterlimit:10;" x1="-17.92" y1="448.468" x2="-22.095" y2="431.98"/>
			
				<line style="clip-path:url(#SVGID_4_);fill:none;stroke:#FFFFFF;stroke-width:2;stroke-miterlimit:10;" x1="-39.704" y1="435.867" x2="-42.893" y2="419.162"/>
			<path style="clip-path:url(#SVGID_4_);fill:none;stroke:#FFFFFF;stroke-width:2;stroke-miterlimit:10;" d="M-10.048,410.755
				c2.681-0.846,5.289-1.855,7.923-2.807c1.311-0.49,2.592-1.037,3.892-1.553c1.295-0.52,2.594-1.033,3.856-1.617"/>
			<path style="clip-path:url(#SVGID_4_);fill:none;stroke:#FFFFFF;stroke-width:2;stroke-miterlimit:10;" d="M-4.669,426.89
				c2.892-0.916,5.738-2.01,8.599-3.049c1.426-0.533,2.834-1.131,4.252-1.693c1.416-0.568,2.832-1.133,4.225-1.773"/>
			<path style="clip-path:url(#SVGID_4_);fill:#921A20;" d="M81.849,399.404c-8.508,4.254-17.481,10.426-27.763,17.219
				c-5.121,3.379-10.641,6.898-16.592,10.277c-6.004,3.299-12.096,6.432-18.305,9.072l-20.35-46.791
				c4.714-1.99,9.165-4.32,13.564-6.709c4.36-2.479,8.859-5.318,13.635-8.473c9.518-6.23,20.059-13.684,32.757-20.115
				L81.849,399.404z"/>
			<path style="clip-path:url(#SVGID_4_);fill:none;stroke:#FFFFFF;stroke-width:2;stroke-miterlimit:10;" d="M-0.35,388.82
				l6.871,15.559l2.863-1.271c0.948-0.434,1.875-0.91,2.813-1.361l2.808-1.371l2.749-1.471c3.688-1.906,7.247-4.066,10.854-6.318
				c7.192-4.518,14.372-9.525,21.974-14.361l9.125,14.352c-7.193,4.572-14.398,9.598-22.05,14.41
				c-3.825,2.391-7.769,4.781-11.866,6.908l-3.05,1.625l-3.099,1.518c-1.034,0.498-2.061,1.023-3.104,1.502l-3.144,1.398
				l6.871,15.557"/>
			
				<line style="clip-path:url(#SVGID_4_);fill:none;stroke:#FFFFFF;stroke-width:2;stroke-miterlimit:10;" x1="35.813" y1="387.925" x2="26.455" y2="373.726"/>
			
				<line style="clip-path:url(#SVGID_4_);fill:none;stroke:#FFFFFF;stroke-width:2;stroke-miterlimit:10;" x1="54.533" y1="416.328" x2="45.174" y2="402.126"/>
			
				<line style="clip-path:url(#SVGID_4_);fill:none;stroke:#FFFFFF;stroke-width:2;stroke-miterlimit:10;" x1="29.834" y1="411.685" x2="21.404" y2="396.914"/>
			<path style="clip-path:url(#SVGID_4_);fill:none;stroke:#FFFFFF;stroke-width:2;stroke-miterlimit:10;" d="M50.582,378.224
				c5.073-3.211,10.327-6.377,15.898-9.166"/>
			<path style="clip-path:url(#SVGID_4_);fill:none;stroke:#FFFFFF;stroke-width:2;stroke-miterlimit:10;" d="M59.707,392.578
				c4.798-3.039,9.574-5.908,14.457-8.348"/>
			<path style="clip-path:url(#SVGID_4_);fill:#921A20;" d="M139.412,386.611c-20.753,0.244-40.537,4.145-57.564,12.793
				l-23.053-45.52c12.643-6.443,26.096-10.957,39.592-13.889c13.517-2.924,27.097-4.24,40.427-4.404L139.412,386.611z"/>
			<path style="clip-path:url(#SVGID_4_);fill:none;stroke:#FFFFFF;stroke-width:2;stroke-miterlimit:10;" d="M59.91,353.359
				l7.566,15.232l6.342-2.953l1.588-0.734l1.631-0.623l3.263-1.242l3.267-1.238c0.545-0.201,1.086-0.42,1.636-0.607l1.666-0.506
				l6.667-2.014c8.958-2.346,18.052-4.205,27.199-5.031l1.771,16.916c-8.322,0.74-16.462,2.434-24.447,4.512l-5.92,1.787
				l-1.48,0.445c-0.486,0.166-0.961,0.361-1.443,0.541l-2.881,1.098l-2.882,1.092l-1.442,0.543l-1.393,0.652l-5.576,2.596
				l7.566,15.234"/>
			
				<line style="clip-path:url(#SVGID_4_);fill:none;stroke:#FFFFFF;stroke-width:2;stroke-miterlimit:10;" x1="102.534" y1="356.494" x2="98.977" y2="339.863"/>
			
				<line style="clip-path:url(#SVGID_4_);fill:none;stroke:#FFFFFF;stroke-width:2;stroke-miterlimit:10;" x1="109.65" y1="389.755" x2="106.093" y2="373.125"/>
			
				<line style="clip-path:url(#SVGID_4_);fill:none;stroke:#FFFFFF;stroke-width:2;stroke-miterlimit:10;" x1="90.175" y1="377.476" x2="84.654" y2="361.39"/>
			<path style="clip-path:url(#SVGID_4_);fill:none;stroke:#FFFFFF;stroke-width:2;stroke-miterlimit:10;" d="M120.735,353.642
				l4.569-0.48l4.572-0.252l4.571-0.246c1.524-0.092,3.043-0.039,4.565-0.066"/>
			<path style="clip-path:url(#SVGID_4_);fill:none;stroke:#FFFFFF;stroke-width:2;stroke-miterlimit:10;" d="M122.506,370.558
				l4.146-0.443l4.182-0.223l4.18-0.229c1.393-0.088,2.801-0.035,4.199-0.059"/>
			<path style="clip-path:url(#SVGID_4_);fill:#921A20;" d="M203.312,395.054c-10.762-2.676-21.523-4.846-32.219-6.346
				c-10.691-1.488-21.302-2.219-31.681-2.098l-0.599-51.02c13.335-0.154,26.454,0.795,39.252,2.572
				c12.797,1.791,25.311,4.33,37.564,7.377L203.312,395.054z"/>
			<path style="clip-path:url(#SVGID_4_);fill:none;stroke:#FFFFFF;stroke-width:2;stroke-miterlimit:10;" d="M139.973,335.585
				l0.115,17.006c9.135-0.15,18.201,0.514,27.208,1.393c4.482,0.561,8.988,1.023,13.426,1.791c2.225,0.363,4.461,0.672,6.672,1.08
				l6.627,1.262l-3.305,16.684l-6.291-1.197c-2.096-0.389-4.203-0.676-6.305-1.021c-4.203-0.73-8.422-1.154-12.637-1.688
				c-8.43-0.816-16.882-1.441-25.281-1.295l0.115,17.008"/>
			
				<line style="clip-path:url(#SVGID_4_);fill:none;stroke:#FFFFFF;stroke-width:2;stroke-miterlimit:10;" x1="176.271" y1="355.076" x2="178.626" y2="338.232"/>
			
				<line style="clip-path:url(#SVGID_4_);fill:none;stroke:#FFFFFF;stroke-width:2;stroke-miterlimit:10;" x1="171.558" y1="388.763" x2="173.914" y2="371.919"/>
			
				<line style="clip-path:url(#SVGID_4_);fill:none;stroke:#FFFFFF;stroke-width:2;stroke-miterlimit:10;" x1="157.048" y1="370.152" x2="158.271" y2="353.189"/>
			<path style="clip-path:url(#SVGID_4_);fill:none;stroke:#FFFFFF;stroke-width:2;stroke-miterlimit:10;" d="M194.021,358.117
				c2.955,0.523,5.855,1.238,8.783,1.863c1.457,0.33,2.926,0.629,4.375,0.984l4.344,1.08"/>
			<path style="clip-path:url(#SVGID_4_);fill:none;stroke:#FFFFFF;stroke-width:2;stroke-miterlimit:10;" d="M190.716,374.8
				c2.801,0.492,5.576,1.182,8.365,1.775c1.393,0.314,2.787,0.598,4.176,0.938l4.16,1.037"/>
			<path style="clip-path:url(#SVGID_4_);fill:#921A20;" d="M269.419,415.488c-11.348-3.754-22.498-7.537-33.502-11.029
				c-5.5-1.732-10.982-3.439-16.426-5.02c-2.744-0.838-5.414-1.535-8.109-2.283l-4.033-1.098l-4.037-1.002l12.318-49.516
				l4.594,1.145l4.549,1.234c3.021,0.836,6.086,1.646,9.016,2.539c5.943,1.727,11.785,3.545,17.598,5.377
				c11.604,3.686,22.914,7.523,34.084,11.221L269.419,415.488z"/>
			<path style="clip-path:url(#SVGID_4_);fill:none;stroke:#FFFFFF;stroke-width:2;stroke-miterlimit:10;" d="M216.697,345.806
				l-4.148,16.494c4.361,1.035,8.643,2.297,12.961,3.459c4.266,1.252,8.541,2.48,12.768,3.801
				c8.479,2.596,16.854,5.354,25.209,8.107l-5.352,16.145c-8.295-2.734-16.572-5.461-24.855-7.994
				c-4.141-1.295-8.291-2.486-12.434-3.701c-4.148-1.115-8.277-2.336-12.447-3.322l-4.148,16.494"/>
			
				<line style="clip-path:url(#SVGID_4_);fill:none;stroke:#FFFFFF;stroke-width:2;stroke-miterlimit:10;" x1="246.724" y1="372.203" x2="251.888" y2="355.998"/>
			
				<line style="clip-path:url(#SVGID_4_);fill:none;stroke:#FFFFFF;stroke-width:2;stroke-miterlimit:10;" x1="236.398" y1="404.613" x2="241.562" y2="388.408"/>
			
				<line style="clip-path:url(#SVGID_4_);fill:none;stroke:#FFFFFF;stroke-width:2;stroke-miterlimit:10;" x1="224.99" y1="383.328" x2="229.775" y2="367.007"/>
			
				<line style="clip-path:url(#SVGID_4_);fill:none;stroke:#FFFFFF;stroke-width:2;stroke-miterlimit:10;" x1="263.486" y1="377.667" x2="280.121" y2="383.201"/>
			
				<line style="clip-path:url(#SVGID_4_);fill:none;stroke:#FFFFFF;stroke-width:2;stroke-miterlimit:10;" x1="258.134" y1="393.812" x2="274.771" y2="399.343"/>
			<path style="clip-path:url(#SVGID_4_);fill:#921A20;" d="M340.707,435.748c-25.047-5.16-48.592-12.764-71.287-20.26
				l16.053-48.432c22.318,7.389,44.043,14.309,65.496,18.709L340.707,435.748z"/>
			<path style="clip-path:url(#SVGID_4_);fill:none;stroke:#FFFFFF;stroke-width:2;stroke-miterlimit:10;" d="M286.445,367.378
				l-5.346,16.146c16.59,5.494,33.107,10.783,49.76,15.041l-4.199,16.48c-17.322-4.43-34.219-9.852-50.908-15.377l-5.346,16.146"/>
			
				<line style="clip-path:url(#SVGID_4_);fill:none;stroke:#FFFFFF;stroke-width:2;stroke-miterlimit:10;" x1="314.244" y1="393.992" x2="319.017" y2="377.667"/>
			
				<line style="clip-path:url(#SVGID_4_);fill:none;stroke:#FFFFFF;stroke-width:2;stroke-miterlimit:10;" x1="304.699" y1="426.64" x2="309.472" y2="410.316"/>
			
				<line style="clip-path:url(#SVGID_4_);fill:none;stroke:#FFFFFF;stroke-width:2;stroke-miterlimit:10;" x1="292.519" y1="405.126" x2="297.671" y2="388.917"/>
			<polyline style="clip-path:url(#SVGID_4_);fill:none;stroke:#FFFFFF;stroke-width:2;stroke-miterlimit:10;" points="
				330.859,398.566 339.191,400.607 347.548,402.425 			"/>
			<polyline style="clip-path:url(#SVGID_4_);fill:none;stroke:#FFFFFF;stroke-width:2;stroke-miterlimit:10;" points="
				326.66,415.046 335.353,417.175 344.126,419.085 			"/>
			<path style="clip-path:url(#SVGID_4_);fill:#921A20;" d="M418.267,441.281c-12.938,0.824-26.006,0.824-39.072-0.123
				c-13.078-0.932-25.98-2.855-38.488-5.41l10.262-49.982c10.729,2.189,21.336,3.75,31.916,4.502
				c10.588,0.768,21.291,0.781,32.023,0.1L418.267,441.281z"/>
			<path style="clip-path:url(#SVGID_4_);fill:none;stroke:#FFFFFF;stroke-width:2;stroke-miterlimit:10;" d="M351.904,385.964
				l-3.371,16.672l6.285,1.172l3.143,0.578l3.15,0.479l6.299,0.949l6.313,0.719c1.053,0.115,2.104,0.254,3.156,0.352l3.164,0.229
				l6.328,0.465l6.348,0.201l3.174,0.104c1.059,0.012,2.119-0.014,3.18-0.016l-0.004,17.008c-1.133,0.004-2.264,0.027-3.396,0.014
				l-3.396-0.107l-6.793-0.219l-6.785-0.494l-3.395-0.25c-1.127-0.104-2.25-0.25-3.377-0.371l-6.75-0.773l-6.701-1.006l-3.35-0.512
				l-3.322-0.609l-6.641-1.24l-3.371,16.67"/>
			
				<line style="clip-path:url(#SVGID_4_);fill:none;stroke:#FFFFFF;stroke-width:2;stroke-miterlimit:10;" x1="382.152" y1="407.267" x2="383.345" y2="390.3"/>
			
				<line style="clip-path:url(#SVGID_4_);fill:none;stroke:#FFFFFF;stroke-width:2;stroke-miterlimit:10;" x1="379.765" y1="441.199" x2="380.958" y2="424.234"/>
			
				<line style="clip-path:url(#SVGID_4_);fill:none;stroke:#FFFFFF;stroke-width:2;stroke-miterlimit:10;" x1="362.941" y1="422.345" x2="365.31" y2="405.503"/>
			<path style="clip-path:url(#SVGID_4_);fill:none;stroke:#FFFFFF;stroke-width:2;stroke-miterlimit:10;" d="M399.072,407.867
				l4.238-0.033c1.412-0.012,2.826-0.006,4.238-0.094l8.48-0.402"/>
			<path style="clip-path:url(#SVGID_4_);fill:none;stroke:#FFFFFF;stroke-width:2;stroke-miterlimit:10;" d="M399.068,424.875
				l4.525-0.035c1.51-0.014,3.02-0.01,4.523-0.102l9.031-0.43"/>
			<path style="clip-path:url(#SVGID_4_);fill:#921A20;" d="M493.708,427.283c-24.299,7.213-49.566,12.242-75.441,13.996
				l-3.359-50.912c21.477-1.461,43.021-5.689,64.182-11.969L493.708,427.283z"/>
			<path style="clip-path:url(#SVGID_4_);fill:none;stroke:#FFFFFF;stroke-width:2;stroke-miterlimit:10;" d="M415.843,390.287
				l1.184,16.969c4.232-0.375,8.473-0.637,12.693-1.209c2.111-0.264,4.227-0.479,6.334-0.779l6.316-0.973
				c1.051-0.17,2.107-0.311,3.156-0.502l3.143-0.592l6.287-1.184l6.256-1.379l3.127-0.689l3.109-0.779l4.064,16.516l-3.268,0.818
				l-3.291,0.727l-6.586,1.449l-6.633,1.252l-3.318,0.621c-1.105,0.203-2.225,0.354-3.336,0.531l-6.68,1.027
				c-2.23,0.32-4.477,0.551-6.713,0.828c-4.471,0.604-8.982,0.891-13.48,1.281l1.182,16.967"/>
			
				<line style="clip-path:url(#SVGID_4_);fill:none;stroke:#FFFFFF;stroke-width:2;stroke-miterlimit:10;" x1="450.765" y1="402.808" x2="447.585" y2="386.101"/>
			
				<line style="clip-path:url(#SVGID_4_);fill:none;stroke:#FFFFFF;stroke-width:2;stroke-miterlimit:10;" x1="457.128" y1="436.224" x2="453.947" y2="419.515"/>
			
				<line style="clip-path:url(#SVGID_4_);fill:none;stroke:#FFFFFF;stroke-width:2;stroke-miterlimit:10;" x1="436.167" y1="422.406" x2="433.945" y2="405.542"/>
			<path style="clip-path:url(#SVGID_4_);fill:none;stroke:#FFFFFF;stroke-width:2;stroke-miterlimit:10;" d="M467.449,399.169
				c2.76-0.719,5.539-1.346,8.281-2.137l8.234-2.338"/>
			<path style="clip-path:url(#SVGID_4_);fill:none;stroke:#FFFFFF;stroke-width:2;stroke-miterlimit:10;" d="M471.513,415.685
				c2.896-0.754,5.82-1.418,8.693-2.246l8.629-2.451"/>
			<path style="clip-path:url(#SVGID_4_);fill:#921A20;" d="M563.671,399.558c-22.307,10.881-45.697,20.439-69.963,27.725
				l-14.619-48.885c21.182-6.369,41.857-14.773,62.178-24.682L563.671,399.558z"/>
			<path style="clip-path:url(#SVGID_4_);fill:none;stroke:#FFFFFF;stroke-width:2;stroke-miterlimit:10;" d="M480.009,378.111
				l4.916,16.281c4.084-1.297,8.193-2.506,12.236-3.947c2.025-0.701,4.061-1.373,6.08-2.098l6.035-2.24
				c2.02-0.727,4.018-1.512,6.01-2.32l5.984-2.387l5.932-2.527c1.98-0.834,3.957-1.682,5.912-2.586l6.938,15.527
				c-2.021,0.934-4.074,1.816-6.131,2.684l-6.164,2.625l-6.227,2.486c-2.072,0.838-4.152,1.654-6.258,2.414l-6.291,2.334
				c-2.105,0.756-4.232,1.459-6.348,2.191c-4.219,1.5-8.52,2.771-12.791,4.125l4.918,16.281"/>
			
				<line style="clip-path:url(#SVGID_4_);fill:none;stroke:#FFFFFF;stroke-width:2;stroke-miterlimit:10;" x1="517.281" y1="382.992" x2="510.957" y2="367.205"/>
			
				<line style="clip-path:url(#SVGID_4_);fill:none;stroke:#FFFFFF;stroke-width:2;stroke-miterlimit:10;" x1="529.931" y1="414.568" x2="523.605" y2="398.781"/>
			
				<line style="clip-path:url(#SVGID_4_);fill:none;stroke:#FFFFFF;stroke-width:2;stroke-miterlimit:10;" x1="506.871" y1="405.097" x2="501.218" y2="389.056"/>
			<path style="clip-path:url(#SVGID_4_);fill:none;stroke:#FFFFFF;stroke-width:2;stroke-miterlimit:10;" d="M533.115,376.287
				c2.611-1.197,5.244-2.338,7.838-3.578l7.783-3.711"/>
			<path style="clip-path:url(#SVGID_4_);fill:none;stroke:#FFFFFF;stroke-width:2;stroke-miterlimit:10;" d="M540.054,391.814
				c2.701-1.236,5.43-2.422,8.109-3.701l8.041-3.834"/>
			<path style="clip-path:url(#SVGID_4_);fill:#921A20;" d="M627.98,363.63c-20.668,12.768-42.006,24.996-64.309,35.928
				l-22.404-45.842c20.301-9.953,40.184-21.316,59.867-33.477L627.98,363.63z"/>
			<path style="clip-path:url(#SVGID_4_);fill:none;stroke:#FFFFFF;stroke-width:2;stroke-miterlimit:10;" d="M542.15,353.275
				l7.496,15.268c15.473-7.646,30.666-15.951,45.576-24.842l8.678,14.629c-15.205,9.063-30.799,17.594-46.758,25.48l7.496,15.266"/>
			
				<line style="clip-path:url(#SVGID_4_);fill:none;stroke:#FFFFFF;stroke-width:2;stroke-miterlimit:10;" x1="580.212" y1="352.382" x2="571.867" y2="337.562"/>
			
				<line style="clip-path:url(#SVGID_4_);fill:none;stroke:#FFFFFF;stroke-width:2;stroke-miterlimit:10;" x1="596.906" y1="382.019" x2="588.558" y2="367.201"/>
			
				<line style="clip-path:url(#SVGID_4_);fill:none;stroke:#FFFFFF;stroke-width:2;stroke-miterlimit:10;" x1="572.984" y1="375.722" x2="565.029" y2="360.689"/>
			<path style="clip-path:url(#SVGID_4_);fill:none;stroke:#FFFFFF;stroke-width:2;stroke-miterlimit:10;" d="M595.222,343.701
				c4.98-2.943,9.922-5.967,14.861-8.996"/>
			<path style="clip-path:url(#SVGID_4_);fill:none;stroke:#FFFFFF;stroke-width:2;stroke-miterlimit:10;" d="M603.9,358.33
				c5.082-3.004,10.109-6.08,15.131-9.162"/>
			<path style="clip-path:url(#SVGID_4_);fill:#921A20;" d="M688.375,324.31c-19.748,13.217-39.75,26.527-60.395,39.32
				l-26.846-43.391c19.682-12.193,39.184-25.162,58.855-38.33L688.375,324.31z"/>
			<path style="clip-path:url(#SVGID_4_);fill:none;stroke:#FFFFFF;stroke-width:2;stroke-miterlimit:10;" d="M601.99,319.705
				l8.963,14.455c14.773-9.18,29.381-18.705,43.939-28.4l9.418,14.164c-14.625,9.738-29.391,19.367-44.396,28.693l8.961,14.455"/>
			
				<line style="clip-path:url(#SVGID_4_);fill:none;stroke:#FFFFFF;stroke-width:2;stroke-miterlimit:10;" x1="640.312" y1="315.388" x2="630.992" y2="301.162"/>
			
				<line style="clip-path:url(#SVGID_4_);fill:none;stroke:#FFFFFF;stroke-width:2;stroke-miterlimit:10;" x1="658.951" y1="343.843" x2="649.63" y2="329.615"/>
			
				<line style="clip-path:url(#SVGID_4_);fill:none;stroke:#FFFFFF;stroke-width:2;stroke-miterlimit:10;" x1="634.845" y1="339.201" x2="625.677" y2="324.875"/>
			
				<line style="clip-path:url(#SVGID_4_);fill:none;stroke:#FFFFFF;stroke-width:2;stroke-miterlimit:10;" x1="654.892" y1="305.759" x2="669.451" y2="296.042"/>
			
				<line style="clip-path:url(#SVGID_4_);fill:none;stroke:#FFFFFF;stroke-width:2;stroke-miterlimit:10;" x1="664.31" y1="319.923" x2="678.912" y2="310.177"/>
			<path style="clip-path:url(#SVGID_4_);fill:#921A20;" d="M158.322,175.209c0.125-1.301,0.916-2.58,1.451-3.746
				c0.705-1.542,1.029-3.109,1.027-4.806c-0.006-2.459-1.564-4.449-2.951-6.361c-1.4-1.93-2.368-4.39-2.487-6.775
				c-0.098-1.974,0.826-3.806,1.798-5.441c1.031-1.737,1.758-3.652,2.791-5.392c0.973-1.638,3.002-3.107,4.594-4.095
				c1.74-1.079,4.004-1.818,6.047-1.872c1.355-0.036,2.707,0.119,4.055,0.229c0.873,0.07,1.652,0.08,2.457,0.422
				c1.434,0.609,3.143,1.414,4.316,2.444c1.07,0.939,1.561,2.414,2.115,3.672c0.496,1.125,1.143,2.15,1.615,3.286
				c0.574,1.375,1.613,2.67,2.01,4.099c0.436,1.574-0.463,3.008-0.547,4.536c-0.096,1.718,0.803,2.967,1.68,4.344
				c0.742,1.169,1.201,2.388,0.072,3.389c-0.447,0.396-0.832,0.684-0.92,1.308c-0.094,0.676,0.176,1.337-0.045,1.999
				c-0.191,0.572-0.379,0.882-0.377,1.539c0.002,0.686,0.141,1.402,0.061,2.082c-0.176,1.519-1.697,2.256-3.084,2.423
				c-2.047,0.246-4.137-0.422-6.055,0.539c-0.629,0.316-1.6,0.89-1.906,1.556c-0.295,0.636-0.338,1.714-0.377,2.413
				c-0.047,0.832,0.1,1.343,0.363,2.075c0.746,0.339,1.357,1.07,2.115,1.481c0.734,0.4,1.484,0.762,2.23,1.131
				c1.689,0.832,3.391,1.646,5.211,2.162c2.191,0.621,4.418,1.197,6.582,1.904c1.826,0.598,2.859,1.307,3.92,2.867
				c1.684,2.475,2.729,5.273,4.26,7.82c1.391,2.316,2.434,4.93,3.355,7.467c0.795,2.189,1.939,4.08,3.26,5.98
				c0.742,1.064,1.646,1.963,2.346,3.086c0.6,0.963,1.119,1.945,1.734,2.898c0.533,0.824,1.166,1.797,2.021,2.311
				c0.869,0.523,1.611,1.002,2.428,1.617c1.244,0.939,2.83,1.521,3.768,2.84c0.953,1.34,1.844,2.706,2.533,4.231
				c0.854,1.887,0.557,3.719-0.039,5.676c-0.537,1.762-1.691,2.416-3.307,3.098c-2.068,0.871-3.996,1.066-6.09,0.105
				c-1.736-0.797-2.9-1.732-3.914-3.355c-0.25-0.402-0.502-0.84-0.678-1.283c-0.18-0.459-0.119-0.615-0.523-0.807
				c-0.945-0.453-2.49-0.193-3.508-0.24c-0.877-0.041-1.236-0.15-1.572-0.996c-0.238-0.598-0.166-1.555-0.605-2.086
				c-0.404-0.488-0.885-0.594-1.236-1.203c-0.428-0.74-0.506-1.389-1.15-1.997c-0.555-0.521-0.658-0.971-0.783-1.689
				c-0.105-0.598-0.516-1.117-0.484-1.754c0.033-0.672,0.643-1.053,0.469-1.75c-0.193-0.787-1.035-1.613-1.553-2.189
				c-1.395-1.551-2.627-3.566-3.719-5.357c-0.762-1.244-1.48-2.578-2.598-3.539c-0.434-0.373-1.008-0.74-1.48-0.998
				c-0.455,0.34-0.707,0.783-1.168,1.166c-0.754,0.629-1.047,0.547-1.279,1.525c-0.178,0.742-0.137,1.545-0.387,2.289
				c-0.289,0.867-0.986,1.498-1.32,2.33c-0.678,1.686-0.602,3.594-1.371,5.322c-0.486,1.094-1.107,2.215-1.797,3.199
				c-0.402,0.576-0.881,1.104-1.021,1.814c-0.205,1.042-0.035,1.79-0.527,2.807c-0.4,0.826-0.971,1.545-1.549,2.262
				c-1.041,1.293-2.43,2.375-2.723,4.037c-0.668,3.775-1.895,7.354-3.354,10.947c-0.744,1.836-1.807,3.535-1.992,5.502
				c-0.131,1.389-0.293,2.834-0.273,4.26c2.439,0.375,4.949,1.775,7.1,2.941c3.404,1.846,6.912,3.482,10.313,5.332
				c2.658,1.443,4.898,3.598,7.416,5.254c2.705,1.777,5.314,3.688,7.934,5.596c4.422,3.219,8.309,7.068,13.234,9.52
				c1.172,0.582,2.457,0.865,3.488,1.699c1.234,0.998,2.137,2.59,2.789,4.027c1.938,4.27,3.547,8.85,4.371,13.484
				c0.299,1.682,2.104,3.361,2.926,4.9c1.184,2.211,2.414,4.477,3.6,6.697c2.484,4.648,3.619,9.811,5.406,14.744
				c2.555,7.045,5.35,14.723,10.574,20.305c1.113,1.191,2.588,1.77,3.832,2.771c1.879,1.516,3.43,3.762,5.416,5.053
				c2.705,1.76,6.684,0.883,9.721,2.143c2.119,0.879,4.994,3.281,2.152,5.465c-1.348,1.035-2.814,0.85-4.477,0.85h-6.154
				c-1.908,0-3.869,0.123-5.775,0.006c-2.611-0.16-5.172-1.043-7.736-1.484c-2.592-0.443-5.117-0.707-7.732-0.811
				c-1.6-0.064-4.438-0.125-5.838-0.941c-3.117-1.818-2.08-4.883-1.799-7.672c0.129-1.287,0.373-3.123,0.023-4.35
				c-0.531-1.861-2.043-3.654-2.906-5.42c-1.771-3.627-3.568-7.115-5.975-10.416c-2.123-2.912-4.594-5.191-7.105-7.834
				c-3.006-3.166-4.805-8.205-5.523-12.457c-0.729-4.301-1.943-8.238-4.016-12.057c-0.848-1.563-1.67-3.143-3.029-4.334
				c-1.633-1.428-3.496-1.621-5.545-2.102c-5.365-1.258-10.711-3.396-15.832-5.422c-3.232-1.279-6.461-2.406-9.426-4.215
				c-1.121-0.686-2.059-1.623-3.172-2.307c-2.031-1.242-4.5-2.117-6.742-2.895c-1.164-0.404-2.754-1.121-3.988-1.209
				c-3.538,6.2-5.97,13.249-9.909,19.243c-3.727,5.672-8.672,10.346-13.079,15.443c-3.172,3.67-6.279,7.211-9.035,11.189
				c-1.112,1.605-2.273,3.254-4.082,4.123c-2.805,1.348-6.309,1.23-9.352,1.43c-2.645,0.174-5.111,0.16-7.686,0.779
				c-2.528,0.609-5.071,1.027-7.538,1.867c-1.39,0.471-2.591,0.936-4.058,1.09c-1.492,0.154-2.97-0.125-4.461-0.188
				c-2.205-0.088-4.342,0.336-6.502,0.73c-5.619,1.029-11.43,1.344-16.794,3.441c-2.364,0.926-4.497,2.244-6.778,3.334
				c-2.373,1.133-4.852,2.223-7.159,3.479c-3.834,2.086-4.271,12.543-8.798,13.557c-1.793,0.402-2.469-0.232-3.137-1.871
				c-0.555-1.359-0.259-3.352,0.045-4.725c0.381-1.719,1.334-3.264,2.262-4.729c1.47-2.316,3.082-3.689,5.488-4.961
				c2.402-1.268,2.525-8.348,4.075-10.584c1.545-2.232,1.38-4.49,2.218-6.938c0.547-1.594,1.938-3.865,3.573-4.434
				c1.812-0.631,3.517,0.705,5.15,1.334c5.973,2.295,12.659-0.701,18.313-2.656c5.541-1.914,10.551-5.822,16.581-5.818
				c3.105,0.004,6.4,0.348,9.405-0.543c1.085-0.322,2.128-0.898,3.146-1.381c1.006-0.479,2.095-0.521,3.076-0.889
				c1.771-0.666,3.019-2.605,4.008-4.105c1.5-2.277,2.427-4.914,3.474-7.426c2.2-5.279,4.353-10.9,7.657-15.602
				c2.084-2.961,4.344-6.508,5.148-10.116c0.84-3.768,0.68-7.822,3.413-10.799c0.865-0.943,1.82-1.742,2.813-2.521
				c0-7.729,0.826-15.334,2.385-22.869c0.494-2.383,1.518-4.631,1.512-7.01c-0.004-1.883-0.283-2.822-1.139-4.521
				c-0.975-1.938-1.477-4.098-2.002-6.2c-0.588-2.346-1.211-4.783-1.563-7.158c-0.234-1.586-0.033-3.531-0.492-5.02
				c-2.023,2.645-5.621,4.932-8.244,7.008c-1.838,1.455-3.481,2.988-5.164,4.59c-1.637,1.561-3.121,3.229-4.547,5.012
				c-1.263,1.582-2.082,3.108-4.156,3.538c-3.501,0.725-7.484-0.406-10.03-2.918c-3.812-3.762-7.399-8.395-10.274-12.875
				c-3.058-4.766-5.627-9.955-7.344-15.357c-0.393-1.234-1.471-3.703-0.816-4.951c1.596-3.049,5.947-6.393,6.603-4.227
				c1.45,4.805,5.151,8.779,7.703,12.145c1.994,2.629,4.435,6.365,6.526,8.611c1.145,1.229,3.158,6.162,5.033,4.904
				c0.691-0.465,1.34-1.979,1.811-2.674c0.715-1.055,1.496-2.064,2.263-3.08c1.632-2.162,3.152-4.506,5.163-6.371
				c1.698-1.574,3.729-2.545,5.447-3.994c1.279-1.078,2.017-2.553,2.9-3.98c2.443-3.955,4.928-8.867,9.393-10.787
				c2.25-0.966,4.645-0.996,7.034-1.567c2.855-0.683,5.434-2.115,8.129-3.205C156.186,176.306,157.708,175.725,158.322,175.209"/>
			<path style="clip-path:url(#SVGID_4_);fill:#921A20;" d="M109.811,183.098l-34.569,15.273l-9.084-20.559l34.569-15.274
				L109.811,183.098z M72.849,177.912c-1.068,0.472-1.552,1.72-1.08,2.788s1.721,1.551,2.789,1.08c1.067-0.473,1.552-1.72,1.08-2.79
				C75.166,177.922,73.916,177.439,72.849,177.912 M75.406,183.7c-1.068,0.473-1.552,1.721-1.08,2.789
				c0.473,1.068,1.721,1.551,2.789,1.08c1.068-0.473,1.553-1.721,1.08-2.789C77.724,183.711,76.475,183.229,75.406,183.7
				 M77.965,189.489c-1.069,0.473-1.553,1.721-1.08,2.789c0.472,1.068,1.721,1.553,2.789,1.08c1.067-0.471,1.552-1.721,1.078-2.789
				C80.281,189.5,79.032,189.018,77.965,189.489 M79.916,178.248c-1.067,0.472-1.552,1.72-1.08,2.788
				c0.473,1.07,1.722,1.553,2.789,1.08c1.069-0.471,1.553-1.72,1.08-2.788C82.233,178.259,80.984,177.775,79.916,178.248
				 M82.475,184.036c-1.069,0.473-1.553,1.721-1.08,2.789c0.472,1.07,1.721,1.553,2.789,1.08c1.068-0.471,1.552-1.721,1.08-2.789
				C84.791,184.047,83.543,183.565,82.475,184.036 M84.467,172.497c-1.067,0.472-1.551,1.721-1.078,2.789
				c0.472,1.068,1.72,1.552,2.789,1.08c1.068-0.472,1.551-1.721,1.078-2.789C86.785,172.507,85.537,172.024,84.467,172.497
				 M87.025,178.286c-1.068,0.472-1.551,1.721-1.079,2.789c0.472,1.068,1.72,1.551,2.789,1.08c1.068-0.473,1.552-1.721,1.079-2.79
				C89.342,178.296,88.095,177.813,87.025,178.286 M89.584,184.075c-1.068,0.471-1.553,1.721-1.08,2.789
				c0.472,1.068,1.721,1.551,2.789,1.08c1.068-0.473,1.552-1.721,1.08-2.789C91.9,184.086,90.651,183.602,89.584,184.075
				 M91.537,172.833c-1.07,0.472-1.553,1.72-1.08,2.789c0.472,1.068,1.721,1.551,2.789,1.079c1.067-0.472,1.551-1.72,1.079-2.789
				C93.853,172.845,92.604,172.361,91.537,172.833 M94.094,178.623c-1.068,0.472-1.551,1.72-1.079,2.788
				c0.472,1.068,1.72,1.551,2.789,1.08c1.067-0.473,1.551-1.721,1.079-2.789C96.41,178.633,95.162,178.15,94.094,178.623
				 M96.467,167.476c-1.067,0.472-1.551,1.72-1.078,2.789c0.472,1.068,1.72,1.551,2.789,1.079c1.068-0.472,1.551-1.72,1.078-2.789
				C98.785,167.486,97.537,167.003,96.467,167.476 M99.025,173.265c-1.068,0.472-1.551,1.721-1.08,2.789
				c0.473,1.068,1.721,1.552,2.789,1.079c1.069-0.472,1.553-1.72,1.08-2.788C101.342,173.275,100.094,172.792,99.025,173.265
				 M101.584,179.054c-1.068,0.472-1.553,1.72-1.08,2.789c0.472,1.068,1.721,1.553,2.789,1.08s1.552-1.721,1.08-2.789
				C103.9,179.064,102.651,178.582,101.584,179.054"/>
			<path style="clip-path:url(#SVGID_4_);fill:#921A20;" d="M88.549,196.069c-0.205-0.57-2.822-4.975-3.322-5.439
				c-0.551-0.51-0.985-1.105-1.301-1.793c-0.384-0.834-0.968-2.598-0.111-3.203c0.867-0.611,1.871-0.488,2.447-1.52
				c0.472-0.848,1.047-1.91,1.723-2.629c0.869-0.924,2.566-0.23,3.736-0.158c1.5,0.092,2.176-0.34,4.123,0.109
				c0.881,0.861,0.668,2.82,0.621,3.914c-0.027,0.613,0.732,7.227,0.762,7.85c0.068,1.426-1.715,2.516-2.721,2.854
				c-1.109,0.373-2.045,0.414-2.936,1.209C91.229,197.567,88.783,196.243,88.549,196.069"/>
			<path style="clip-path:url(#SVGID_4_);fill:#921A20;" d="M96.752,192.678c0.193,0.012,0.493-0.17,0.644-0.289
				c0.487-0.385,0.616-0.59,0.942-0.973c0.852-0.998,1.375-1.963,1.721-3.131c0.154-0.523,0.537-2.109-0.06-2.428
				c-0.69-0.369-2.313,0.143-3.006,0.475c-0.907,0.436-1.28,1.57-1.356,2.504c-0.084,1.057,0.203,1.893,0.521,2.867
				c0.076,0.234,0.108,0.631,0.299,0.799C96.555,192.59,96.657,192.581,96.752,192.678"/>
		</g>
	</g>
</g>
</svg>
