<?xml version="1.0" encoding="iso-8859-1"?>
<!-- Generator: Adobe Illustrator 16.0.0, SVG Export Plug-In . SVG Version: 6.00 Build 0)  -->
<!DOCTYPE svg PUBLIC "-//W3C//DTD SVG 1.1//EN" "http://www.w3.org/Graphics/SVG/1.1/DTD/svg11.dtd">
<svg version="1.1" id="Layer_1" xmlns="http://www.w3.org/2000/svg" xmlns:xlink="http://www.w3.org/1999/xlink" x="0px" y="0px"
	 width="284.449px" height="456.144px" viewBox="0 0 284.449 456.144" style="enable-background:new 0 0 284.449 456.144;"
	 xml:space="preserve">
<g>
	<defs>
		<polygon id="SVGID_1_" points="0,213.138 0,456.144 284.449,456.144 284.449,213.138 213.422,0 73.126,0 		"/>
	</defs>
	<clipPath id="SVGID_2_">
		<use xlink:href="#SVGID_1_"  style="overflow:visible;"/>
	</clipPath>
	<g style="clip-path:url(#SVGID_2_);">
		<defs>
			<path id="SVGID_3_" d="M73.126,0L0,213.138v243.006h284.449V213.138L213.422,0H73.126z M429.691,0l-73.126,213.138v243.006
				h284.449V213.138L569.984,0H429.691z M785.357,0l-73.125,213.138v243.006h284.448V213.138L925.652,0H785.357z"/>
		</defs>
		<clipPath id="SVGID_4_">
			<use xlink:href="#SVGID_3_"  style="overflow:visible;"/>
		</clipPath>
		<rect x="-103.415" y="-56.533" style="clip-path:url(#SVGID_4_);fill:#8B8E6B;" width="1172.547" height="567.249"/>
		<polygon style="clip-path:url(#SVGID_4_);fill:#BABE8E;" points="444.593,180.259 1724.806,180.259 1724.806,-26.741 		"/>
		<polygon style="clip-path:url(#SVGID_4_);fill:#BABE8E;" points="444.593,180.259 1553.29,820.366 1656.79,641.099 		"/>
		<polygon style="clip-path:url(#SVGID_4_);fill:#BABE8E;" points="444.593,180.259 1084.7,1288.956 1263.967,1185.456 		"/>
		<polygon style="clip-path:url(#SVGID_4_);fill:#BABE8E;" points="444.593,180.259 444.593,1460.472 651.593,1460.472 		"/>
		<polygon style="clip-path:url(#SVGID_4_);fill:#BABE8E;" points="444.593,180.259 -195.514,1288.956 -16.246,1392.456 		"/>
		<polygon style="clip-path:url(#SVGID_4_);fill:#BABE8E;" points="444.593,180.259 -664.104,820.366 -560.604,999.634 		"/>
		<polygon style="clip-path:url(#SVGID_4_);fill:#BABE8E;" points="444.593,180.259 -835.62,180.259 -835.62,387.259 		"/>
		<polygon style="clip-path:url(#SVGID_4_);fill:#BABE8E;" points="444.593,180.259 -664.104,-459.848 -767.604,-280.58 		"/>
		<polygon style="clip-path:url(#SVGID_4_);fill:#BABE8E;" points="444.593,180.259 -195.514,-928.438 -374.781,-824.938 		"/>
		<polygon style="clip-path:url(#SVGID_4_);fill:#BABE8E;" points="444.593,180.259 444.593,-1099.954 237.593,-1099.954 		"/>
		<polygon style="clip-path:url(#SVGID_4_);fill:#BABE8E;" points="444.593,180.259 1084.7,-928.438 905.432,-1031.938 		"/>
		<polygon style="clip-path:url(#SVGID_4_);fill:#BABE8E;" points="444.593,180.259 1553.29,-459.848 1449.79,-639.115 		"/>
		<path style="clip-path:url(#SVGID_4_);fill:#BABE8E;" d="M473.335,180.22c0,15.875-12.868,28.742-28.742,28.742
			c-15.873,0-28.741-12.867-28.741-28.742c0-15.874,12.868-28.742,28.741-28.742C460.467,151.478,473.335,164.346,473.335,180.22"/>
		<path style="clip-path:url(#SVGID_4_);fill:#921A20;" d="M249.805,411.761c-18.188,5.449-37.309,6.738-56.189,8.725
			c-55.183,5.813-74.816,10.49-130.062,5.307c-11.37-1.066-12.386-7.934-23.755-9c-3.756-0.352-27.782-15.711-30.297-18.523
			c-1.703-18.973-26.427-0.545-25.505-19.572c0.308-6.346,0.773-12.75,2.641-18.822c-9.196-3.137-19.053-1.707-28.399-4.363
			c0.72-13.789,1.378-28.018-3.362-40.988c-1.815-4.967-4.395-9.652-5.844-14.738c-1.67-5.867-1.776-12.051-1.87-18.148
			c-0.545-35.34-1.089-70.68-1.634-106.018c-0.201-13.034-0.383-26.238,2.732-38.896c0.715-2.908,5.703-2.976,8.453-1.791
			c2.75,1.186,4.69,3.75,5.926,6.478c0.957,2.113,1.586,4.407,2.94,6.29c2.272,3.16,6.151,4.63,9.686,6.257
			c8.981,4.132,16.907,10.194,24.969,15.916c7.307,5.188,14.785,10.131,22.26,15.075c6.303,4.166,12.764,8.404,20.096,10.23
			c-0.607-2.172,0.14-4.422,1.801-5.949c-2.198-1.426-3.623-3.857-4.322-6.381c-0.863-3.123-1.229-6.439-0.565-9.61
			c0.664-3.17,2.442-6.184,5.18-7.914c0.329-9.342,2.387-18.938,6.745-27.208c3.989-7.571,9.483-14.227,14.983-20.782
			c2.614-3.114,5.305-6.277,8.797-8.359c-0.125-0.564-0.02-0.976,0.014-1.552c-1.826-1.69-1.642-4.779-1.124-7.213
			c1.502-7.059,3.817-13.946,6.885-20.479c4.176,7.127,6.751,14.986,7.403,23.221c0.133,1.688,0.067,3.661-1.277,4.691
			c-0.059,0.709-0.144,1.59-0.203,2.298c2.171,1.298,3.819,3.265,5.504,5.151c6.613,7.401,13.267,14.859,18.372,23.37
			c5.104,8.512,8.619,18.24,8.354,28.161c3.062,3.242,5.104,7.934,5.393,12.384c0.288,4.45-1.023,8.987-3.641,12.599
			c1.117,2.688,1.175,5.783,1.129,8.695l-0.388,24.773c8.842,3.574,16.381,9.652,23.883,15.541
			c4.878,3.828,9.756,7.658,14.635,11.486c15.496,12.165,28.488,28.006,42.193,42.157c0.637-2.322,1.846-4.598,3.156-6.619
			c0.818-1.26,1.746-2.561,3.129-3.15c0.809,0.166,1.175,0.957,1.691,1.602c0.512,0.637,1.067,1.24,1.557,1.895
			c1.279,1.703,2.098,3.699,2.9,5.672c0.422,1.033,0.848,2.092,0.912,3.205c0.465-0.145,1.135,0.396,1.43,0.785
			c0.269,0.354,0.545,0.725,0.625,1.16c0.107,0.592-0.176,1.199-0.596,1.629c-0.419,0.432-0.961,0.715-1.494,0.994
			c-0.045,0.727-0.064,1.754,0.047,2.475c0.371,2.408,0.742,4.816,1.114,7.227c1.121,1.021,1.892,3.133,1.916,4.65
			c0.003,0.219-0.01,0.451-0.127,0.637c-0.091,0.143-0.235,0.244-0.378,0.336c-0.52,0.336-1.068,0.623-1.639,0.859
			c-0.158,9.85-0.219,19.574,1.32,29.305c0.577,0.113,1.393,0.504,1.969,0.619c0.826,0.164,1.767,0.414,2.125,1.174
			c-0.734-3-0.866-6.557-0.184-9.568c0.119-0.523,0.266-1.057,0.576-1.496c0.742-1.049,2.313-1.277,3.471-0.723
			c1.158,0.557,1.922,1.732,2.278,2.967c0.356,1.236,0.36,2.541,0.36,3.824c0.002,2.457,0.005,4.912,0.006,7.369
			c0.001,0.807,0.045,1.719,0.646,2.258c0.282,0.254,0.655,0.389,0.945,0.635c0.609,0.518,0.73,1.395,0.809,2.189
			c-0.789,0.051-1.578,0.102-2.369,0.152c1.002,2.779,1.234,5.998,1.426,8.947c0.965,14.891,1.496,29.816,3.016,44.66
			C238.592,411.821,244.135,410.05,249.805,411.761"/>
		<polygon style="clip-path:url(#SVGID_4_);fill:#921A20;" points="724.296,236.268 830.765,217.021 847.901,177.375 
			859.581,92.798 911.847,130.909 960.87,175.926 981.588,195.45 1074.776,186.456 1122.735,191.442 988.505,356.124 
			662.718,419.341 662.718,354.204 702.97,350.794 704.665,350.112 706.711,351.134 712.851,350.196 714.641,352.157 
			718.137,352.669 722.484,349.854 729.562,349.515 737.831,350.538 738.599,348.063 741.497,346.104 746.187,347.298 
			749.683,345.167 751.388,343.972 754.115,343.972 756.076,344.825 758.721,343.29 761.022,343.632 760.937,341.585 
			761.704,340.05 760.937,339.112 760.254,335.362 760.767,333.144 762.897,332.036 763.494,329.647 767.16,329.905 
			768.865,330.417 771.509,329.819 771.423,326.239 757.441,323.851 757.355,321.634 754.884,321.464 754.798,310.806 
			755.65,310.806 755.906,306.288 757.952,306.032 758.208,304.157 759.062,303.474 766.138,302.11 771.423,302.024 
			771.509,289.663 725.298,282.245 		"/>
		<path style="clip-path:url(#SVGID_4_);fill:#921A20;" d="M8.413,405.616c-2.698-1.777-5.45-3.465-8.098-5.326l-7.942-5.588
			l-7.745-5.893c-1.301-0.967-2.559-1.996-3.807-3.039l-3.758-3.109c-9.961-8.367-19.409-17.424-28.207-27.135l37.945-34.109
			c7.138,7.861,14.846,15.254,23.041,22.143l3.094,2.561c1.024,0.863,2.058,1.715,3.142,2.512l6.409,4.883l6.609,4.645
			c2.199,1.555,4.516,2.955,6.765,4.445L8.413,405.616z"/>
		<path style="clip-path:url(#SVGID_4_);fill:none;stroke:#FFFFFF;stroke-width:2;stroke-miterlimit:10;" d="M-12.564,322.091
			l-12.601,11.422c11.412,12.492,24.116,23.836,37.818,33.875L2.628,381.126c-14.58-10.68-28.16-22.793-40.393-36.189
			l-12.601,11.424"/>
		
			<line style="clip-path:url(#SVGID_4_);fill:none;stroke:#FFFFFF;stroke-width:2;stroke-miterlimit:10;" x1="-0.7" y1="356.911" x2="10.202" y2="343.856"/>
		
			<line style="clip-path:url(#SVGID_4_);fill:none;stroke:#FFFFFF;stroke-width:2;stroke-miterlimit:10;" x1="-22.501" y1="383.022" x2="-11.6" y2="369.968"/>
		
			<line style="clip-path:url(#SVGID_4_);fill:none;stroke:#FFFFFF;stroke-width:2;stroke-miterlimit:10;" x1="-25.104" y1="357.909" x2="-13.34" y2="345.626"/>
		<path style="clip-path:url(#SVGID_4_);fill:none;stroke:#FFFFFF;stroke-width:2;stroke-miterlimit:10;" d="M12.653,367.388
			l6.951,4.887c2.319,1.627,4.742,3.105,7.107,4.666"/>
		<path style="clip-path:url(#SVGID_4_);fill:none;stroke:#FFFFFF;stroke-width:2;stroke-miterlimit:10;" d="M2.628,381.126
			l7.389,5.197c2.467,1.727,5.033,3.301,7.545,4.955"/>
		<path style="clip-path:url(#SVGID_4_);fill:#921A20;" d="M77.576,439.081c-12.038-4.258-23.888-9.123-35.457-14.672
			c-11.545-5.605-22.812-11.861-33.706-18.793l27.448-43.012c9.117,5.797,18.613,11.078,28.404,15.838
			c9.821,4.707,19.941,8.861,30.261,12.512L77.576,439.081z"/>
		<path style="clip-path:url(#SVGID_4_);fill:none;stroke:#FFFFFF;stroke-width:2;stroke-miterlimit:10;" d="M36.649,363.116
			l-9.097,14.371c1.764,1.186,3.614,2.24,5.437,3.338l5.484,3.266l5.599,3.076c1.862,1.033,3.727,2.061,5.644,2.994l5.707,2.879
			c1.894,0.977,3.86,1.811,5.786,2.723c1.943,0.879,3.855,1.824,5.821,2.652l5.897,2.488l-6.5,15.717l-6.216-2.625
			c-2.073-0.873-4.095-1.867-6.144-2.797c-2.035-0.963-4.105-1.848-6.109-2.875l-6.032-3.043c-2.023-0.988-3.998-2.074-5.969-3.166
			l-5.925-3.256l-5.813-3.459c-1.932-1.164-3.889-2.285-5.765-3.541l-9.097,14.369"/>
		
			<line style="clip-path:url(#SVGID_4_);fill:none;stroke:#FFFFFF;stroke-width:2;stroke-miterlimit:10;" x1="57.338" y1="393.976" x2="64.695" y2="378.642"/>
		
			<line style="clip-path:url(#SVGID_4_);fill:none;stroke:#FFFFFF;stroke-width:2;stroke-miterlimit:10;" x1="42.625" y1="424.644" x2="49.981" y2="409.31"/>
		
			<line style="clip-path:url(#SVGID_4_);fill:none;stroke:#FFFFFF;stroke-width:2;stroke-miterlimit:10;" x1="33.982" y1="401.028" x2="42.206" y2="386.142"/>
		<path style="clip-path:url(#SVGID_4_);fill:none;stroke:#FFFFFF;stroke-width:2;stroke-miterlimit:10;" d="M72.927,400.903
			c2.604,1.146,5.28,2.119,7.934,3.148l3.985,1.529c1.333,0.498,2.687,0.941,4.029,1.414"/>
		<path style="clip-path:url(#SVGID_4_);fill:none;stroke:#FFFFFF;stroke-width:2;stroke-miterlimit:10;" d="M66.428,416.62
			c2.748,1.205,5.564,2.234,8.359,3.316l4.199,1.609c1.403,0.525,2.827,0.994,4.24,1.492"/>
		<path style="clip-path:url(#SVGID_4_);fill:#921A20;" d="M151.489,456.968c-12.479-1.811-24.92-4.162-37.263-7.104
			c-3.08-0.775-6.169-1.465-9.24-2.316l-9.209-2.559l-9.135-2.838c-1.527-0.459-3.038-0.969-4.543-1.502l-4.524-1.57l16.95-48.125
			l3.879,1.348c1.289,0.461,2.586,0.898,3.901,1.289l7.852,2.443l7.931,2.201c2.643,0.736,5.345,1.33,8.014,2.008
			c10.729,2.553,21.615,4.615,32.608,6.215L151.489,456.968z"/>
		<path style="clip-path:url(#SVGID_4_);fill:none;stroke:#FFFFFF;stroke-width:2;stroke-miterlimit:10;" d="M95.426,391.267
			l-5.6,16.059c2.021,0.691,4.026,1.426,6.059,2.08l6.119,1.908l3.058,0.953l3.089,0.857l6.176,1.717
			c2.063,0.559,4.153,1.031,6.228,1.553c2.083,0.49,4.145,1.066,6.246,1.484c4.192,0.879,8.361,1.861,12.586,2.588l-3.154,16.711
			c-4.414-0.762-8.783-1.781-13.168-2.707c-2.198-0.439-4.363-1.041-6.545-1.555c-2.176-0.545-4.362-1.043-6.529-1.629l-6.492-1.801
			l-3.245-0.904l-3.218-1.002l-6.433-2.008c-2.139-0.689-4.251-1.459-6.377-2.186l-5.6,16.059"/>
		
			<line style="clip-path:url(#SVGID_4_);fill:none;stroke:#FFFFFF;stroke-width:2;stroke-miterlimit:10;" x1="122.633" y1="416.903" x2="126.568" y2="400.358"/>
		
			<line style="clip-path:url(#SVGID_4_);fill:none;stroke:#FFFFFF;stroke-width:2;stroke-miterlimit:10;" x1="114.764" y1="449.997" x2="118.698" y2="433.45"/>
		
			<line style="clip-path:url(#SVGID_4_);fill:none;stroke:#FFFFFF;stroke-width:2;stroke-miterlimit:10;" x1="101.335" y1="428.884" x2="106.091" y2="412.554"/>
		<path style="clip-path:url(#SVGID_4_);fill:none;stroke:#FFFFFF;stroke-width:2;stroke-miterlimit:10;" d="M139.389,420.466
			c5.605,1.102,11.263,1.957,16.915,2.83"/>
		<path style="clip-path:url(#SVGID_4_);fill:none;stroke:#FFFFFF;stroke-width:2;stroke-miterlimit:10;" d="M136.233,437.179
			c5.863,1.15,11.765,2.045,17.663,2.953"/>
		<path style="clip-path:url(#SVGID_4_);fill:#921A20;" d="M226.412,461.517c-12.438,0.205-24.928-0.064-37.428-0.82
			c-12.5-0.752-25.014-1.955-37.495-3.727l7.222-50.512c11.002,1.563,22.116,2.631,33.291,3.305
			c11.174,0.676,22.416,0.924,33.693,0.734L226.412,461.517z"/>
		<path style="clip-path:url(#SVGID_4_);fill:none;stroke:#FFFFFF;stroke-width:2;stroke-miterlimit:10;" d="M159.671,406.583
			l-2.365,16.844c17.004,2.348,34.175,3.674,51.396,4.037l-0.354,17.006c-17.832-0.377-35.677-1.752-53.405-4.201l-2.365,16.844"/>
		
			<line style="clip-path:url(#SVGID_4_);fill:none;stroke:#FFFFFF;stroke-width:2;stroke-miterlimit:10;" x1="191.502" y1="426.769" x2="192.488" y2="409.79"/>
		
			<line style="clip-path:url(#SVGID_4_);fill:none;stroke:#FFFFFF;stroke-width:2;stroke-miterlimit:10;" x1="189.528" y1="460.728" x2="190.516" y2="443.749"/>
		
			<line style="clip-path:url(#SVGID_4_);fill:none;stroke:#FFFFFF;stroke-width:2;stroke-miterlimit:10;" x1="172.703" y1="442.372" x2="174.359" y2="425.446"/>
		<path style="clip-path:url(#SVGID_4_);fill:none;stroke:#FFFFFF;stroke-width:2;stroke-miterlimit:10;" d="M208.7,427.466
			l8.614,0.098c2.871,0.02,5.746-0.043,8.619-0.059"/>
		<path style="clip-path:url(#SVGID_4_);fill:none;stroke:#FFFFFF;stroke-width:2;stroke-miterlimit:10;" d="M208.347,444.47
			l8.915,0.102c2.973,0.02,5.941-0.043,8.911-0.061"/>
		<path style="clip-path:url(#SVGID_4_);fill:#921A20;" d="M300.522,455.786c-6.205,0.869-12.363,1.643-18.496,2.273
			c-3.07,0.309-6.134,0.658-9.211,0.934l-9.234,0.799c-12.335,0.947-24.73,1.541-37.169,1.725l-0.717-51.02
			c11.276-0.168,22.582-0.705,33.897-1.572l8.486-0.734c2.83-0.254,5.66-0.578,8.488-0.863c5.666-0.58,11.276-1.285,16.815-2.063
			L300.522,455.786z"/>
		<path style="clip-path:url(#SVGID_4_);fill:none;stroke:#FFFFFF;stroke-width:2;stroke-miterlimit:10;" d="M226.677,410.489
			l0.272,17.006c17.244-0.244,34.495-1.457,51.691-3.283l1.826,16.91c-17.664,1.875-35.428,3.125-53.244,3.379l0.273,17.006"/>
		
			<line style="clip-path:url(#SVGID_4_);fill:none;stroke:#FFFFFF;stroke-width:2;stroke-miterlimit:10;" x1="261.429" y1="425.835" x2="260.085" y2="408.88"/>
		
			<line style="clip-path:url(#SVGID_4_);fill:none;stroke:#FFFFFF;stroke-width:2;stroke-miterlimit:10;" x1="264.116" y1="459.745" x2="262.772" y2="442.79"/>
		
			<line style="clip-path:url(#SVGID_4_);fill:none;stroke:#FFFFFF;stroke-width:2;stroke-miterlimit:10;" x1="245.019" y1="443.913" x2="244.193" y2="426.925"/>
		<path style="clip-path:url(#SVGID_4_);fill:none;stroke:#FFFFFF;stroke-width:2;stroke-miterlimit:10;" d="M278.641,424.212
			c5.735-0.594,11.444-1.309,17.122-2.107"/>
		<path style="clip-path:url(#SVGID_4_);fill:none;stroke:#FFFFFF;stroke-width:2;stroke-miterlimit:10;" d="M280.467,441.122
			c5.89-0.609,11.778-1.348,17.675-2.176"/>
		<path style="clip-path:url(#SVGID_4_);fill:#921A20;" d="M375.754,435.972c-1.543,0.707-3.103,1.328-4.659,1.955
			c-1.56,0.619-3.113,1.281-4.68,1.857c-3.133,1.146-6.266,2.33-9.414,3.332c-6.289,2.121-12.602,3.887-18.904,5.486
			c-6.308,1.607-12.595,2.91-18.867,4.133c-6.26,1.141-12.512,2.199-18.707,3.051l-7.141-50.521
			c22.156-3.088,43.275-7.947,62.023-16.084L375.754,435.972z"/>
		<path style="clip-path:url(#SVGID_4_);fill:none;stroke:#FFFFFF;stroke-width:2;stroke-miterlimit:10;" d="M294.345,405.126
			l2.42,16.834c17.011-2.445,33.768-5.877,49.754-11.205l5.377,16.135c-17.297,5.762-35.038,9.361-52.711,11.906l2.418,16.834"/>
		
			<line style="clip-path:url(#SVGID_4_);fill:none;stroke:#FFFFFF;stroke-width:2;stroke-miterlimit:10;" x1="330.297" y1="415.493" x2="326.123" y2="399.005"/>
		
			<line style="clip-path:url(#SVGID_4_);fill:none;stroke:#FFFFFF;stroke-width:2;stroke-miterlimit:10;" x1="338.646" y1="448.468" x2="334.471" y2="431.979"/>
		
			<line style="clip-path:url(#SVGID_4_);fill:none;stroke:#FFFFFF;stroke-width:2;stroke-miterlimit:10;" x1="316.861" y1="435.866" x2="313.673" y2="419.161"/>
		<path style="clip-path:url(#SVGID_4_);fill:none;stroke:#FFFFFF;stroke-width:2;stroke-miterlimit:10;" d="M346.518,410.755
			c2.681-0.846,5.289-1.855,7.923-2.807c1.311-0.49,2.592-1.037,3.892-1.553c1.295-0.52,2.594-1.033,3.856-1.617"/>
		<path style="clip-path:url(#SVGID_4_);fill:none;stroke:#FFFFFF;stroke-width:2;stroke-miterlimit:10;" d="M351.896,426.89
			c2.892-0.916,5.738-2.01,8.599-3.049c1.426-0.533,2.834-1.131,4.252-1.693c1.416-0.568,2.832-1.133,4.225-1.773"/>
		<path style="clip-path:url(#SVGID_4_);fill:#921A20;" d="M438.414,399.403c-8.508,4.254-17.481,10.426-27.763,17.219
			c-5.121,3.379-10.641,6.898-16.592,10.277c-6.004,3.299-12.096,6.432-18.305,9.072l-20.35-46.791
			c4.714-1.99,9.165-4.32,13.564-6.709c4.36-2.479,8.859-5.318,13.635-8.473c9.518-6.23,20.059-13.684,32.757-20.115
			L438.414,399.403z"/>
		<path style="clip-path:url(#SVGID_4_);fill:none;stroke:#FFFFFF;stroke-width:2;stroke-miterlimit:10;" d="M356.216,388.819
			l6.871,15.559l2.863-1.271c0.948-0.434,1.875-0.91,2.813-1.361l2.808-1.371l2.749-1.471c3.688-1.906,7.247-4.066,10.854-6.318
			c7.192-4.518,14.372-9.525,21.974-14.361l9.125,14.352c-7.193,4.572-14.398,9.598-22.05,14.41
			c-3.825,2.391-7.769,4.781-11.866,6.908l-3.05,1.625l-3.099,1.518c-1.034,0.498-2.061,1.023-3.104,1.502l-3.144,1.398
			l6.871,15.557"/>
		
			<line style="clip-path:url(#SVGID_4_);fill:none;stroke:#FFFFFF;stroke-width:2;stroke-miterlimit:10;" x1="392.379" y1="387.925" x2="383.021" y2="373.726"/>
		
			<line style="clip-path:url(#SVGID_4_);fill:none;stroke:#FFFFFF;stroke-width:2;stroke-miterlimit:10;" x1="411.099" y1="416.327" x2="401.739" y2="402.126"/>
		
			<line style="clip-path:url(#SVGID_4_);fill:none;stroke:#FFFFFF;stroke-width:2;stroke-miterlimit:10;" x1="386.399" y1="411.685" x2="377.97" y2="396.913"/>
		<path style="clip-path:url(#SVGID_4_);fill:none;stroke:#FFFFFF;stroke-width:2;stroke-miterlimit:10;" d="M407.147,378.224
			c5.073-3.211,10.327-6.377,15.898-9.166"/>
		<path style="clip-path:url(#SVGID_4_);fill:none;stroke:#FFFFFF;stroke-width:2;stroke-miterlimit:10;" d="M416.272,392.577
			c4.798-3.039,9.574-5.908,14.457-8.348"/>
		<path style="clip-path:url(#SVGID_4_);fill:#921A20;" d="M495.978,386.61c-20.753,0.244-40.537,4.145-57.564,12.793l-23.053-45.52
			c12.643-6.443,26.096-10.957,39.592-13.889c13.517-2.924,27.097-4.24,40.427-4.404L495.978,386.61z"/>
		<path style="clip-path:url(#SVGID_4_);fill:none;stroke:#FFFFFF;stroke-width:2;stroke-miterlimit:10;" d="M416.476,353.358
			l7.566,15.232l6.342-2.953l1.588-0.734l1.631-0.623l3.263-1.242l3.267-1.238c0.545-0.201,1.086-0.42,1.636-0.607l1.666-0.506
			l6.667-2.014c8.958-2.346,18.052-4.205,27.199-5.031l1.771,16.916c-8.322,0.74-16.462,2.434-24.447,4.512l-5.92,1.787l-1.48,0.445
			c-0.486,0.166-0.961,0.361-1.443,0.541l-2.881,1.098l-2.882,1.092l-1.442,0.543l-1.393,0.652l-5.576,2.596l7.566,15.234"/>
		
			<line style="clip-path:url(#SVGID_4_);fill:none;stroke:#FFFFFF;stroke-width:2;stroke-miterlimit:10;" x1="459.1" y1="356.493" x2="455.542" y2="339.862"/>
		
			<line style="clip-path:url(#SVGID_4_);fill:none;stroke:#FFFFFF;stroke-width:2;stroke-miterlimit:10;" x1="466.216" y1="389.755" x2="462.658" y2="373.124"/>
		
			<line style="clip-path:url(#SVGID_4_);fill:none;stroke:#FFFFFF;stroke-width:2;stroke-miterlimit:10;" x1="446.74" y1="377.476" x2="441.22" y2="361.39"/>
		<path style="clip-path:url(#SVGID_4_);fill:none;stroke:#FFFFFF;stroke-width:2;stroke-miterlimit:10;" d="M477.301,353.642
			l4.569-0.48l4.572-0.252l4.571-0.246c1.524-0.092,3.043-0.039,4.565-0.066"/>
		<path style="clip-path:url(#SVGID_4_);fill:none;stroke:#FFFFFF;stroke-width:2;stroke-miterlimit:10;" d="M479.071,370.558
			l4.146-0.443l4.182-0.223l4.18-0.229c1.393-0.088,2.801-0.035,4.199-0.059"/>
		<path style="clip-path:url(#SVGID_4_);fill:#921A20;" d="M559.878,395.054c-10.762-2.676-21.524-4.846-32.22-6.346
			c-10.691-1.488-21.302-2.219-31.681-2.098l-0.599-51.02c13.336-0.154,26.453,0.795,39.253,2.572
			c12.797,1.791,25.31,4.33,37.563,7.377L559.878,395.054z"/>
		<path style="clip-path:url(#SVGID_4_);fill:none;stroke:#FFFFFF;stroke-width:2;stroke-miterlimit:10;" d="M496.538,335.585
			l0.115,17.006c9.136-0.15,18.201,0.514,27.209,1.393c4.482,0.561,8.988,1.023,13.426,1.791c2.225,0.363,4.461,0.672,6.672,1.08
			l6.626,1.262l-3.305,16.684l-6.29-1.197c-2.097-0.389-4.204-0.676-6.306-1.021c-4.202-0.73-8.422-1.154-12.636-1.688
			c-8.431-0.816-16.882-1.441-25.281-1.295l0.115,17.008"/>
		
			<line style="clip-path:url(#SVGID_4_);fill:none;stroke:#FFFFFF;stroke-width:2;stroke-miterlimit:10;" x1="532.836" y1="355.075" x2="535.191" y2="338.231"/>
		
			<line style="clip-path:url(#SVGID_4_);fill:none;stroke:#FFFFFF;stroke-width:2;stroke-miterlimit:10;" x1="528.123" y1="388.763" x2="530.479" y2="371.919"/>
		
			<line style="clip-path:url(#SVGID_4_);fill:none;stroke:#FFFFFF;stroke-width:2;stroke-miterlimit:10;" x1="513.614" y1="370.151" x2="514.836" y2="353.188"/>
		<path style="clip-path:url(#SVGID_4_);fill:none;stroke:#FFFFFF;stroke-width:2;stroke-miterlimit:10;" d="M550.586,358.116
			c2.956,0.523,5.856,1.238,8.783,1.863c1.458,0.33,2.926,0.629,4.375,0.984l4.345,1.08"/>
		<path style="clip-path:url(#SVGID_4_);fill:none;stroke:#FFFFFF;stroke-width:2;stroke-miterlimit:10;" d="M547.282,374.8
			c2.801,0.492,5.576,1.182,8.364,1.775c1.393,0.314,2.788,0.598,4.177,0.938l4.16,1.037"/>
		<path style="clip-path:url(#SVGID_4_);fill:#921A20;" d="M625.984,415.487c-11.347-3.754-22.498-7.537-33.502-11.029
			c-5.499-1.732-10.982-3.439-16.426-5.02c-2.743-0.838-5.414-1.535-8.108-2.283l-4.034-1.098l-4.037-1.002l12.318-49.516
			l4.595,1.145l4.548,1.234c3.021,0.836,6.087,1.646,9.016,2.539c5.944,1.727,11.786,3.545,17.598,5.377
			c11.604,3.686,22.914,7.523,34.085,11.221L625.984,415.487z"/>
		<path style="clip-path:url(#SVGID_4_);fill:none;stroke:#FFFFFF;stroke-width:2;stroke-miterlimit:10;" d="M573.263,345.806
			l-4.148,16.494c4.36,1.035,8.643,2.297,12.96,3.459c4.266,1.252,8.542,2.48,12.768,3.801c8.479,2.596,16.854,5.354,25.21,8.107
			l-5.352,16.145c-8.295-2.734-16.572-5.461-24.856-7.994c-4.141-1.295-8.291-2.486-12.434-3.701
			c-4.147-1.115-8.276-2.336-12.446-3.322l-4.149,16.494"/>
		
			<line style="clip-path:url(#SVGID_4_);fill:none;stroke:#FFFFFF;stroke-width:2;stroke-miterlimit:10;" x1="603.29" y1="372.202" x2="608.454" y2="355.997"/>
		
			<line style="clip-path:url(#SVGID_4_);fill:none;stroke:#FFFFFF;stroke-width:2;stroke-miterlimit:10;" x1="592.963" y1="404.612" x2="598.127" y2="388.407"/>
		
			<line style="clip-path:url(#SVGID_4_);fill:none;stroke:#FFFFFF;stroke-width:2;stroke-miterlimit:10;" x1="581.555" y1="383.327" x2="586.341" y2="367.007"/>
		
			<line style="clip-path:url(#SVGID_4_);fill:none;stroke:#FFFFFF;stroke-width:2;stroke-miterlimit:10;" x1="620.052" y1="377.667" x2="636.687" y2="383.2"/>
		
			<line style="clip-path:url(#SVGID_4_);fill:none;stroke:#FFFFFF;stroke-width:2;stroke-miterlimit:10;" x1="614.699" y1="393.812" x2="631.336" y2="399.343"/>
		<path style="clip-path:url(#SVGID_4_);fill:#921A20;" d="M697.271,435.747c-25.046-5.16-48.591-12.764-71.287-20.26l16.053-48.432
			c22.318,7.389,44.043,14.309,65.497,18.709L697.271,435.747z"/>
		<path style="clip-path:url(#SVGID_4_);fill:none;stroke:#FFFFFF;stroke-width:2;stroke-miterlimit:10;" d="M643.011,367.378
			l-5.347,16.146c16.591,5.494,33.107,10.783,49.76,15.041l-4.199,16.48c-17.322-4.43-34.219-9.852-50.907-15.377l-5.347,16.146"/>
		
			<line style="clip-path:url(#SVGID_4_);fill:none;stroke:#FFFFFF;stroke-width:2;stroke-miterlimit:10;" x1="670.81" y1="393.991" x2="675.583" y2="377.667"/>
		
			<line style="clip-path:url(#SVGID_4_);fill:none;stroke:#FFFFFF;stroke-width:2;stroke-miterlimit:10;" x1="661.264" y1="426.64" x2="666.037" y2="410.315"/>
		
			<line style="clip-path:url(#SVGID_4_);fill:none;stroke:#FFFFFF;stroke-width:2;stroke-miterlimit:10;" x1="649.085" y1="405.126" x2="654.237" y2="388.917"/>
		<polyline style="clip-path:url(#SVGID_4_);fill:none;stroke:#FFFFFF;stroke-width:2;stroke-miterlimit:10;" points="
			687.424,398.565 695.757,400.606 704.113,402.425 		"/>
		<polyline style="clip-path:url(#SVGID_4_);fill:none;stroke:#FFFFFF;stroke-width:2;stroke-miterlimit:10;" points="
			683.225,415.046 691.919,417.175 700.692,419.085 		"/>
		<path style="clip-path:url(#SVGID_4_);fill:#921A20;" d="M774.833,441.28c-12.938,0.824-26.006,0.824-39.072-0.123
			c-13.078-0.932-25.981-2.855-38.489-5.41l10.263-49.982c10.729,2.189,21.336,3.75,31.916,4.502
			c10.588,0.768,21.29,0.781,32.023,0.1L774.833,441.28z"/>
		<path style="clip-path:url(#SVGID_4_);fill:none;stroke:#FFFFFF;stroke-width:2;stroke-miterlimit:10;" d="M708.469,385.964
			l-3.37,16.672l6.284,1.172l3.143,0.578l3.15,0.479l6.3,0.949l6.312,0.719c1.054,0.115,2.104,0.254,3.157,0.352l3.164,0.229
			l6.327,0.465l6.348,0.201l3.175,0.104c1.059,0.012,2.118-0.014,3.179-0.016l-0.004,17.008c-1.132,0.004-2.264,0.027-3.396,0.014
			l-3.396-0.107l-6.793-0.219l-6.786-0.494l-3.394-0.25c-1.128-0.104-2.251-0.25-3.377-0.371l-6.751-0.773l-6.7-1.006l-3.35-0.512
			l-3.323-0.609l-6.64-1.24l-3.371,16.67"/>
		
			<line style="clip-path:url(#SVGID_4_);fill:none;stroke:#FFFFFF;stroke-width:2;stroke-miterlimit:10;" x1="738.718" y1="407.267" x2="739.911" y2="390.3"/>
		
			<line style="clip-path:url(#SVGID_4_);fill:none;stroke:#FFFFFF;stroke-width:2;stroke-miterlimit:10;" x1="736.33" y1="441.198" x2="737.523" y2="424.233"/>
		
			<line style="clip-path:url(#SVGID_4_);fill:none;stroke:#FFFFFF;stroke-width:2;stroke-miterlimit:10;" x1="719.506" y1="422.345" x2="721.876" y2="405.503"/>
		<path style="clip-path:url(#SVGID_4_);fill:none;stroke:#FFFFFF;stroke-width:2;stroke-miterlimit:10;" d="M755.637,407.866
			l4.238-0.033c1.413-0.012,2.826-0.006,4.239-0.094l8.479-0.402"/>
		<path style="clip-path:url(#SVGID_4_);fill:none;stroke:#FFFFFF;stroke-width:2;stroke-miterlimit:10;" d="M755.633,424.874
			l4.525-0.035c1.51-0.014,3.02-0.01,4.523-0.102l9.032-0.43"/>
		<path style="clip-path:url(#SVGID_4_);fill:#921A20;" d="M850.274,427.282c-24.3,7.213-49.566,12.242-75.441,13.996l-3.359-50.912
			c21.476-1.461,43.021-5.689,64.182-11.969L850.274,427.282z"/>
		<path style="clip-path:url(#SVGID_4_);fill:none;stroke:#FFFFFF;stroke-width:2;stroke-miterlimit:10;" d="M772.408,390.286
			l1.184,16.969c4.232-0.375,8.474-0.637,12.693-1.209c2.111-0.264,4.228-0.479,6.335-0.779l6.315-0.973
			c1.052-0.17,2.107-0.311,3.156-0.502l3.144-0.592l6.287-1.184l6.255-1.379l3.128-0.689l3.109-0.779l4.063,16.516l-3.267,0.818
			l-3.292,0.727l-6.585,1.449l-6.633,1.252l-3.318,0.621c-1.106,0.203-2.225,0.354-3.336,0.531l-6.68,1.027
			c-2.23,0.32-4.477,0.551-6.714,0.828c-4.47,0.604-8.982,0.891-13.48,1.281l1.183,16.967"/>
		
			<line style="clip-path:url(#SVGID_4_);fill:none;stroke:#FFFFFF;stroke-width:2;stroke-miterlimit:10;" x1="807.331" y1="402.808" x2="804.15" y2="386.101"/>
		
			<line style="clip-path:url(#SVGID_4_);fill:none;stroke:#FFFFFF;stroke-width:2;stroke-miterlimit:10;" x1="813.694" y1="436.224" x2="810.513" y2="419.515"/>
		
			<line style="clip-path:url(#SVGID_4_);fill:none;stroke:#FFFFFF;stroke-width:2;stroke-miterlimit:10;" x1="792.732" y1="422.405" x2="790.511" y2="405.542"/>
		<path style="clip-path:url(#SVGID_4_);fill:none;stroke:#FFFFFF;stroke-width:2;stroke-miterlimit:10;" d="M824.015,399.169
			c2.759-0.719,5.538-1.346,8.28-2.137l8.234-2.338"/>
		<path style="clip-path:url(#SVGID_4_);fill:none;stroke:#FFFFFF;stroke-width:2;stroke-miterlimit:10;" d="M828.078,415.685
			c2.896-0.754,5.82-1.418,8.693-2.246l8.63-2.451"/>
		<path style="clip-path:url(#SVGID_4_);fill:#921A20;" d="M920.237,399.558c-22.307,10.881-45.698,20.439-69.963,27.725
			l-14.619-48.885c21.182-6.369,41.856-14.773,62.178-24.682L920.237,399.558z"/>
		<path style="clip-path:url(#SVGID_4_);fill:none;stroke:#FFFFFF;stroke-width:2;stroke-miterlimit:10;" d="M836.574,378.11
			l4.917,16.281c4.084-1.297,8.192-2.506,12.235-3.947c2.026-0.701,4.061-1.373,6.081-2.098l6.035-2.24
			c2.019-0.727,4.018-1.512,6.009-2.32l5.985-2.387l5.932-2.527c1.98-0.834,3.956-1.682,5.912-2.586l6.938,15.527
			c-2.022,0.934-4.074,1.816-6.132,2.684l-6.164,2.625l-6.227,2.486c-2.071,0.838-4.152,1.654-6.257,2.414l-6.291,2.334
			c-2.106,0.756-4.232,1.459-6.349,2.191c-4.218,1.5-8.519,2.771-12.79,4.125l4.917,16.281"/>
		
			<line style="clip-path:url(#SVGID_4_);fill:none;stroke:#FFFFFF;stroke-width:2;stroke-miterlimit:10;" x1="873.847" y1="382.991" x2="867.521" y2="367.204"/>
		
			<line style="clip-path:url(#SVGID_4_);fill:none;stroke:#FFFFFF;stroke-width:2;stroke-miterlimit:10;" x1="886.496" y1="414.567" x2="880.171" y2="398.78"/>
		
			<line style="clip-path:url(#SVGID_4_);fill:none;stroke:#FFFFFF;stroke-width:2;stroke-miterlimit:10;" x1="863.436" y1="405.097" x2="857.783" y2="389.056"/>
		<path style="clip-path:url(#SVGID_4_);fill:none;stroke:#FFFFFF;stroke-width:2;stroke-miterlimit:10;" d="M889.681,376.286
			c2.611-1.197,5.243-2.338,7.837-3.578l7.784-3.711"/>
		<path style="clip-path:url(#SVGID_4_);fill:none;stroke:#FFFFFF;stroke-width:2;stroke-miterlimit:10;" d="M896.619,391.813
			c2.701-1.236,5.431-2.422,8.109-3.701l8.041-3.834"/>
		<path style="clip-path:url(#SVGID_4_);fill:#921A20;" d="M984.545,363.63c-20.668,12.768-42.006,24.996-64.308,35.928
			l-22.404-45.842c20.301-9.953,40.183-21.316,59.867-33.477L984.545,363.63z"/>
		<path style="clip-path:url(#SVGID_4_);fill:none;stroke:#FFFFFF;stroke-width:2;stroke-miterlimit:10;" d="M898.715,353.274
			l7.496,15.268c15.474-7.646,30.667-15.951,45.577-24.842l8.677,14.629c-15.205,9.063-30.798,17.594-46.758,25.48l7.497,15.266"/>
		
			<line style="clip-path:url(#SVGID_4_);fill:none;stroke:#FFFFFF;stroke-width:2;stroke-miterlimit:10;" x1="936.778" y1="352.382" x2="928.432" y2="337.562"/>
		
			<line style="clip-path:url(#SVGID_4_);fill:none;stroke:#FFFFFF;stroke-width:2;stroke-miterlimit:10;" x1="953.471" y1="382.019" x2="945.124" y2="367.2"/>
		
			<line style="clip-path:url(#SVGID_4_);fill:none;stroke:#FFFFFF;stroke-width:2;stroke-miterlimit:10;" x1="929.549" y1="375.722" x2="921.595" y2="360.688"/>
		<path style="clip-path:url(#SVGID_4_);fill:none;stroke:#FFFFFF;stroke-width:2;stroke-miterlimit:10;" d="M951.788,343.7
			c4.98-2.943,9.922-5.967,14.86-8.996"/>
		<path style="clip-path:url(#SVGID_4_);fill:none;stroke:#FFFFFF;stroke-width:2;stroke-miterlimit:10;" d="M960.465,358.329
			c5.082-3.004,10.109-6.08,15.132-9.162"/>
		<path style="clip-path:url(#SVGID_4_);fill:#921A20;" d="M1044.939,324.31c-19.747,13.217-39.749,26.527-60.394,39.32
			L957.7,320.239c19.682-12.193,39.184-25.162,58.855-38.33L1044.939,324.31z"/>
		<path style="clip-path:url(#SVGID_4_);fill:none;stroke:#FFFFFF;stroke-width:2;stroke-miterlimit:10;" d="M958.556,319.704
			l8.963,14.455c14.773-9.18,29.381-18.705,43.939-28.4l9.417,14.164c-14.624,9.738-29.39,19.367-44.396,28.693l8.961,14.455"/>
		
			<line style="clip-path:url(#SVGID_4_);fill:none;stroke:#FFFFFF;stroke-width:2;stroke-miterlimit:10;" x1="996.878" y1="315.388" x2="987.558" y2="301.161"/>
		
			<line style="clip-path:url(#SVGID_4_);fill:none;stroke:#FFFFFF;stroke-width:2;stroke-miterlimit:10;" x1="1015.517" y1="343.843" x2="1006.196" y2="329.614"/>
		
			<line style="clip-path:url(#SVGID_4_);fill:none;stroke:#FFFFFF;stroke-width:2;stroke-miterlimit:10;" x1="991.411" y1="339.2" x2="982.242" y2="324.874"/>
		
			<line style="clip-path:url(#SVGID_4_);fill:none;stroke:#FFFFFF;stroke-width:2;stroke-miterlimit:10;" x1="1011.458" y1="305.759" x2="1026.017" y2="296.042"/>
		
			<line style="clip-path:url(#SVGID_4_);fill:none;stroke:#FFFFFF;stroke-width:2;stroke-miterlimit:10;" x1="1020.875" y1="319.923" x2="1035.478" y2="310.177"/>
		<path style="clip-path:url(#SVGID_4_);fill:#921A20;" d="M514.888,175.209c0.124-1.301,0.916-2.58,1.45-3.746
			c0.706-1.542,1.03-3.109,1.027-4.806c-0.005-2.459-1.564-4.449-2.951-6.361c-1.4-1.93-2.367-4.39-2.486-6.775
			c-0.099-1.974,0.826-3.806,1.797-5.441c1.032-1.737,1.759-3.652,2.791-5.392c0.973-1.638,3.003-3.107,4.595-4.095
			c1.74-1.079,4.004-1.818,6.046-1.872c1.356-0.036,2.707,0.119,4.056,0.229c0.872,0.07,1.652,0.08,2.456,0.422
			c1.434,0.609,3.144,1.414,4.317,2.444c1.069,0.939,1.561,2.414,2.114,3.672c0.496,1.125,1.143,2.15,1.616,3.286
			c0.574,1.375,1.613,2.67,2.009,4.099c0.437,1.574-0.462,3.008-0.547,4.536c-0.095,1.718,0.804,2.967,1.68,4.344
			c0.743,1.169,1.201,2.388,0.073,3.389c-0.447,0.396-0.832,0.684-0.92,1.308c-0.095,0.676,0.175,1.337-0.046,1.999
			c-0.19,0.572-0.379,0.882-0.377,1.539c0.002,0.686,0.141,1.402,0.062,2.082c-0.177,1.519-1.698,2.256-3.085,2.423
			c-2.046,0.246-4.137-0.422-6.054,0.539c-0.63,0.316-1.6,0.89-1.907,1.556c-0.294,0.636-0.337,1.714-0.377,2.413
			c-0.047,0.832,0.1,1.343,0.364,2.075c0.746,0.339,1.356,1.07,2.115,1.481c0.733,0.4,1.483,0.762,2.23,1.131
			c1.689,0.832,3.39,1.646,5.21,2.162c2.191,0.621,4.418,1.197,6.582,1.904c1.826,0.598,2.86,1.307,3.921,2.867
			c1.683,2.475,2.728,5.273,4.259,7.82c1.391,2.316,2.434,4.93,3.355,7.467c0.796,2.189,1.939,4.08,3.261,5.98
			c0.741,1.064,1.646,1.963,2.346,3.086c0.599,0.963,1.118,1.945,1.734,2.898c0.533,0.824,1.166,1.797,2.021,2.311
			c0.868,0.523,1.611,1.002,2.427,1.617c1.245,0.939,2.831,1.521,3.769,2.84c0.952,1.34,1.844,2.705,2.533,4.23
			c0.854,1.887,0.556,3.719-0.04,5.676c-0.536,1.761-1.691,2.416-3.307,3.097c-2.067,0.871-3.996,1.066-6.09,0.105
			c-1.736-0.797-2.899-1.732-3.913-3.355c-0.251-0.402-0.503-0.84-0.678-1.283c-0.181-0.459-0.12-0.615-0.523-0.807
			c-0.945-0.453-2.491-0.193-3.508-0.24c-0.878-0.041-1.236-0.15-1.573-0.996c-0.237-0.598-0.166-1.555-0.604-2.086
			c-0.405-0.488-0.885-0.594-1.236-1.203c-0.429-0.74-0.506-1.389-1.151-1.996c-0.554-0.521-0.658-0.971-0.783-1.689
			c-0.104-0.598-0.515-1.117-0.483-1.754c0.032-0.672,0.642-1.053,0.469-1.75c-0.193-0.787-1.035-1.613-1.554-2.189
			c-1.394-1.551-2.626-3.566-3.719-5.357c-0.761-1.244-1.48-2.578-2.598-3.539c-0.434-0.373-1.007-0.74-1.48-0.998
			c-0.454,0.34-0.707,0.783-1.167,1.166c-0.754,0.629-1.047,0.547-1.28,1.525c-0.178,0.742-0.136,1.545-0.386,2.289
			c-0.29,0.867-0.986,1.498-1.321,2.33c-0.677,1.686-0.601,3.594-1.37,5.322c-0.486,1.094-1.108,2.215-1.797,3.199
			c-0.402,0.576-0.881,1.104-1.021,1.814c-0.205,1.041-0.036,1.789-0.528,2.807c-0.4,0.826-0.97,1.545-1.548,2.262
			c-1.042,1.293-2.43,2.375-2.724,4.037c-0.668,3.775-1.894,7.353-3.353,10.947c-0.745,1.836-1.807,3.535-1.992,5.502
			c-0.131,1.389-0.293,2.834-0.273,4.26c2.438,0.375,4.949,1.775,7.099,2.941c3.405,1.846,6.912,3.482,10.313,5.333
			c2.657,1.443,4.898,3.598,7.415,5.254c2.706,1.777,5.315,3.688,7.935,5.596c4.422,3.219,8.309,7.068,13.233,9.52
			c1.173,0.582,2.458,0.865,3.489,1.699c1.234,0.998,2.137,2.59,2.789,4.027c1.937,4.27,3.547,8.85,4.37,13.484
			c0.299,1.682,2.104,3.361,2.927,4.9c1.183,2.211,2.413,4.477,3.6,6.697c2.483,4.648,3.619,9.811,5.406,14.744
			c2.554,7.045,5.35,14.723,10.574,20.305c1.113,1.191,2.588,1.77,3.831,2.771c1.88,1.516,3.431,3.762,5.416,5.053
			c2.706,1.76,6.685,0.883,9.722,2.143c2.119,0.879,4.994,3.281,2.151,5.465c-1.347,1.035-2.813,0.85-4.476,0.85h-6.155
			c-1.907,0-3.869,0.123-5.774,0.006c-2.611-0.16-5.173-1.043-7.736-1.484c-2.593-0.443-5.117-0.707-7.733-0.811
			c-1.599-0.064-4.438-0.125-5.837-0.941c-3.117-1.818-2.081-4.883-1.8-7.672c0.13-1.287,0.374-3.123,0.023-4.35
			c-0.53-1.861-2.042-3.654-2.905-5.42c-1.772-3.627-3.568-7.115-5.976-10.416c-2.123-2.912-4.594-5.191-7.104-7.834
			c-3.006-3.166-4.805-8.205-5.524-12.457c-0.729-4.301-1.942-8.238-4.015-12.057c-0.849-1.563-1.671-3.143-3.03-4.334
			c-1.632-1.428-3.495-1.621-5.544-2.102c-5.365-1.258-10.712-3.396-15.832-5.422c-3.232-1.279-6.461-2.406-9.426-4.215
			c-1.121-0.686-2.06-1.623-3.172-2.307c-2.032-1.242-4.501-2.117-6.743-2.895c-1.164-0.404-2.753-1.121-3.988-1.209
			c-3.538,6.199-5.97,13.248-9.909,19.242c-3.726,5.672-8.672,10.346-13.078,15.443c-3.172,3.67-6.279,7.211-9.035,11.189
			c-1.112,1.605-2.273,3.254-4.082,4.123c-2.805,1.348-6.309,1.23-9.352,1.43c-2.645,0.174-5.111,0.16-7.686,0.779
			c-2.528,0.609-5.071,1.027-7.538,1.867c-1.39,0.471-2.591,0.936-4.058,1.09c-1.492,0.154-2.97-0.125-4.461-0.188
			c-2.205-0.088-4.342,0.336-6.502,0.73c-5.619,1.029-11.43,1.344-16.794,3.441c-2.364,0.926-4.497,2.244-6.778,3.334
			c-2.373,1.133-4.852,2.223-7.159,3.479c-3.834,2.086-4.271,12.543-8.798,13.557c-1.793,0.402-2.469-0.232-3.137-1.871
			c-0.555-1.359-0.259-3.352,0.045-4.725c0.381-1.719,1.334-3.264,2.262-4.729c1.47-2.316,3.082-3.689,5.488-4.961
			c2.402-1.268,2.525-8.348,4.075-10.584c1.545-2.232,1.38-4.49,2.218-6.938c0.547-1.594,1.938-3.865,3.573-4.434
			c1.812-0.631,3.517,0.705,5.15,1.334c5.973,2.295,12.659-0.701,18.313-2.656c5.541-1.914,10.551-5.822,16.581-5.818
			c3.105,0.004,6.4,0.348,9.405-0.543c1.085-0.322,2.128-0.898,3.146-1.381c1.006-0.479,2.095-0.521,3.076-0.889
			c1.771-0.666,3.019-2.605,4.008-4.105c1.5-2.277,2.427-4.914,3.474-7.426c2.2-5.279,4.353-10.9,7.657-15.602
			c2.084-2.961,4.344-6.508,5.148-10.115c0.84-3.768,0.68-7.822,3.413-10.799c0.865-0.944,1.82-1.743,2.813-2.522
			c0-7.729,0.826-15.334,2.386-22.869c0.493-2.383,1.517-4.63,1.511-7.009c-0.004-1.883-0.282-2.822-1.138-4.521
			c-0.976-1.938-1.478-4.098-2.003-6.199c-0.588-2.346-1.211-4.783-1.563-7.158c-0.234-1.586-0.033-3.531-0.492-5.02
			c-2.023,2.645-5.621,4.932-8.244,7.008c-1.838,1.455-3.481,2.988-5.164,4.59c-1.637,1.561-3.121,3.229-4.547,5.012
			c-1.263,1.582-2.082,3.107-4.156,3.537c-3.501,0.725-7.484-0.406-10.03-2.918c-3.812-3.762-7.399-8.395-10.274-12.875
			c-3.058-4.766-5.627-9.955-7.344-15.357c-0.393-1.234-1.471-3.703-0.816-4.951c1.596-3.049,5.947-6.393,6.603-4.227
			c1.45,4.805,5.151,8.779,7.703,12.145c1.994,2.629,4.435,6.365,6.526,8.611c1.145,1.229,3.158,6.162,5.033,4.904
			c0.691-0.465,1.34-1.979,1.811-2.674c0.715-1.055,1.496-2.064,2.263-3.08c1.632-2.162,3.152-4.506,5.163-6.371
			c1.698-1.574,3.729-2.545,5.447-3.994c1.279-1.078,2.017-2.553,2.9-3.98c2.443-3.955,4.928-8.867,9.393-10.787
			c2.25-0.967,4.645-0.996,7.033-1.567c2.856-0.683,5.435-2.115,8.129-3.205C512.751,176.306,514.274,175.725,514.888,175.209"/>
		<path style="clip-path:url(#SVGID_4_);fill:#921A20;" d="M466.376,183.099l-34.569,15.273l-9.084-20.56l34.569-15.274
			L466.376,183.099z M429.414,177.912c-1.068,0.472-1.552,1.72-1.08,2.788c0.472,1.069,1.721,1.551,2.789,1.081
			c1.067-0.473,1.552-1.721,1.08-2.79C431.731,177.922,430.481,177.439,429.414,177.912 M431.972,183.7
			c-1.068,0.473-1.552,1.721-1.08,2.789c0.473,1.068,1.721,1.551,2.789,1.08c1.068-0.473,1.553-1.721,1.08-2.789
			C434.289,183.712,433.04,183.229,431.972,183.7 M434.53,189.489c-1.069,0.473-1.553,1.721-1.08,2.789
			c0.472,1.068,1.721,1.553,2.789,1.08c1.067-0.471,1.552-1.721,1.078-2.789C436.847,189.501,435.598,189.019,434.53,189.489
			 M436.481,178.248c-1.067,0.472-1.552,1.72-1.08,2.789c0.473,1.07,1.722,1.553,2.789,1.08c1.069-0.471,1.553-1.721,1.08-2.789
			C438.799,178.259,437.55,177.775,436.481,178.248 M439.04,184.036c-1.069,0.473-1.553,1.721-1.08,2.789
			c0.472,1.07,1.721,1.553,2.789,1.08c1.068-0.471,1.552-1.721,1.08-2.789C441.356,184.048,440.108,183.565,439.04,184.036
			 M441.032,172.497c-1.067,0.472-1.551,1.721-1.078,2.789c0.472,1.068,1.72,1.552,2.789,1.08c1.068-0.472,1.551-1.721,1.078-2.789
			C443.351,172.507,442.103,172.024,441.032,172.497 M443.591,178.286c-1.068,0.472-1.551,1.721-1.079,2.79s1.72,1.551,2.789,1.08
			c1.068-0.473,1.552-1.722,1.079-2.79C445.907,178.296,444.66,177.813,443.591,178.286 M446.149,184.075
			c-1.068,0.471-1.553,1.721-1.08,2.789c0.472,1.068,1.721,1.551,2.789,1.08c1.068-0.473,1.552-1.721,1.08-2.789
			C448.466,184.087,447.217,183.603,446.149,184.075 M448.103,172.833c-1.07,0.472-1.553,1.72-1.08,2.789
			c0.472,1.068,1.721,1.551,2.789,1.079c1.067-0.472,1.551-1.72,1.079-2.789C450.418,172.845,449.17,172.361,448.103,172.833
			 M450.659,178.623c-1.068,0.472-1.551,1.72-1.079,2.789s1.72,1.551,2.789,1.08c1.067-0.473,1.551-1.721,1.079-2.79
			C452.976,178.633,451.728,178.15,450.659,178.623 M453.032,167.476c-1.067,0.472-1.551,1.72-1.078,2.789
			c0.472,1.068,1.72,1.551,2.789,1.079c1.068-0.472,1.551-1.72,1.078-2.789C455.351,167.486,454.103,167.003,453.032,167.476
			 M455.591,173.265c-1.068,0.472-1.551,1.721-1.08,2.789c0.473,1.068,1.721,1.552,2.789,1.079c1.069-0.472,1.553-1.72,1.08-2.788
			C457.907,173.275,456.659,172.792,455.591,173.265 M458.149,179.054c-1.068,0.472-1.553,1.72-1.08,2.789
			c0.472,1.068,1.721,1.553,2.789,1.08s1.552-1.721,1.08-2.789C460.466,179.064,459.217,178.582,458.149,179.054"/>
		<path style="clip-path:url(#SVGID_4_);fill:#921A20;" d="M445.114,196.069c-0.205-0.57-2.822-4.975-3.322-5.439
			c-0.551-0.51-0.985-1.105-1.301-1.793c-0.384-0.834-0.968-2.598-0.111-3.203c0.867-0.611,1.871-0.488,2.447-1.52
			c0.472-0.848,1.047-1.91,1.723-2.629c0.869-0.924,2.566-0.23,3.736-0.158c1.5,0.092,2.176-0.34,4.123,0.109
			c0.881,0.861,0.668,2.82,0.621,3.914c-0.027,0.613,0.732,7.227,0.762,7.85c0.068,1.426-1.715,2.516-2.721,2.854
			c-1.109,0.373-2.045,0.414-2.936,1.209C447.794,197.567,445.349,196.243,445.114,196.069"/>
		<path style="clip-path:url(#SVGID_4_);fill:#921A20;" d="M453.317,192.679c0.193,0.012,0.493-0.17,0.644-0.289
			c0.487-0.385,0.616-0.59,0.942-0.973c0.852-0.998,1.375-1.963,1.721-3.131c0.154-0.523,0.537-2.109-0.06-2.428
			c-0.69-0.369-2.313,0.143-3.006,0.475c-0.907,0.436-1.28,1.57-1.356,2.504c-0.084,1.057,0.203,1.893,0.521,2.867
			c0.076,0.234,0.108,0.631,0.299,0.799C453.12,192.591,453.223,192.581,453.317,192.679"/>
	</g>
</g>
<path style="fill:none;" d="M413.45,168.634"/>
</svg>
