<svg width="328" height="337" viewBox="0 0 328 337" fill="none" xmlns="http://www.w3.org/2000/svg">
<path d="M288.849 184.831C289.522 179.444 290.027 174.057 290.027 168.334C290.027 162.611 289.522 157.224 288.849 151.837L324.367 124.062C327.565 121.537 328.407 116.992 326.387 113.289L292.72 55.0458C290.7 51.3425 286.155 49.9958 282.452 51.3425L240.537 68.1758C231.784 61.4425 222.357 55.8875 212.089 51.6791L205.692 7.07079C205.414 5.0902 204.422 3.27926 202.903 1.97763C201.385 0.675995 199.444 -0.0268952 197.444 0.000787614L130.11 0.000787614C125.902 0.000787614 122.367 3.03079 121.862 7.07079L115.465 51.6791C105.197 55.8875 95.7704 61.6108 87.0171 68.1758L45.1021 51.3425C41.2304 49.8275 36.8537 51.3425 34.8337 55.0458L1.16708 113.289C-1.02125 116.992 -0.0112498 121.537 3.18708 124.062L38.7054 151.837C38.0321 157.224 37.5271 162.779 37.5271 168.334C37.5271 173.889 38.0321 179.444 38.7054 184.831L3.18708 212.606C-0.0112498 215.131 -0.852919 219.676 1.16708 223.379L34.8337 281.622C36.8537 285.326 41.3987 286.672 45.1021 285.326L87.0171 268.492C95.7704 275.226 105.197 280.781 115.465 284.989L121.862 329.597C122.367 333.637 125.902 336.667 130.11 336.667H197.444C201.652 336.667 205.187 333.637 205.692 329.597L212.089 284.989C222.357 280.781 231.784 275.057 240.537 268.492L282.452 285.326C286.324 286.841 290.7 285.326 292.72 281.622L326.387 223.379C328.407 219.676 327.565 215.131 324.367 212.606L288.849 184.831V184.831ZM163.777 227.251C131.289 227.251 104.86 200.822 104.86 168.334C104.86 135.846 131.289 109.417 163.777 109.417C196.265 109.417 222.694 135.846 222.694 168.334C222.694 200.822 196.265 227.251 163.777 227.251Z" fill="#07090F"/>
</svg>
