<?xml version="1.0" encoding="utf-8"?>
<!-- Generator: Adobe Illustrator 26.0.3, SVG Export Plug-In . SVG Version: 6.00 Build 0)  -->
<svg version="1.1" id="Layer_1" xmlns="http://www.w3.org/2000/svg" xmlns:xlink="http://www.w3.org/1999/xlink" x="0px" y="0px"
	 viewBox="0 0 595.28 841.89" style="enable-background:new 0 0 595.28 841.89;" xml:space="preserve">
<style type="text/css">
	.st0{opacity:0.42;}
	.st1{fill:#FFFFFF;}
	.st2{fill-rule:evenodd;clip-rule:evenodd;}
</style>
<g class="st0" >
	<path class="st1" d="M624.54,1548.26c-9.29,15.89-17.68,30.69-26.5,45.22c-22.98,37.89-47.84,74.41-76.61,108.26
		c-18.21,21.43-39.63,38.57-64.01,52.23c-4.05,2.27-8.35,4.78-12.8,5.51c-18.24,3.01-28.16,16.71-38.36,29.59
		c-22.75,28.74-41.9,59.85-57.52,93.01c-7.01,14.89-14.92,29.72-13.75,47.22c0.21,3.13,0.41,4.84,3.1,6.86
		c10.69,8.05,22.46,14.86,30.85,25.69c9.55,12.33,4.77,31.27-9.98,35.97c-7.55,2.41-15.82-0.47-23.51-2.17
		c-28.84-6.37-54.55-19.19-77.15-38.31c-11.51-9.73-22.33-20.07-31.81-31.83c-7-8.69-1.94-16.88,0.81-24.88
		c2.36-6.85,8.25-8.92,15.53-9.27c16.54-0.79,30.12,6.59,43.55,14.54c3.54,2.1,5.62,1.49,9.5-0.17
		c31.25-13.4,44.36-42.9,60.79-68.86c17.22-27.2,29.38-57.05,37.54-88.37c1.27-4.87,1.22-9.56,0.31-14.42
		c-5.84-31.28,1.69-60.77,12.96-89.47c20.05-51.07,44.69-99.82,75.91-145.07c4.55-6.59,9.78-12.7,14.47-19.2
		c8.34-11.58,19.6-8.68,30.37-5.78c28.97,7.81,54.8,21.93,77.31,41.62c6.49,5.67,12.34,12.56,16.73,20.3
		c2.58,4.55,5.08,4.79,8.9,0.85c26.59-27.41,60.34-40.04,97.01-46.48c2.79-0.49,5.58-1.27,8.39-1.38
		c9.55-0.4,16.98,2.12,22.73,11.21c17.3,27.36,30.07,56.81,41.71,86.77c13.79,35.49,25.44,71.71,32.2,109.27
		c4.07,22.64,4.57,45.34-3.25,67.45c-3.89,11-0.05,21.6,1.94,31.91c9.15,47.35,28.13,90.81,53.58,131.69
		c6.34,10.19,16.59,14.23,25.39,20.66c1.51,1.1,2.97-0.2,4.34-0.81c10.87-4.89,21.95-8.9,33.89-10.6
		c10.98-1.56,22.95,2.29,25.55,9.97c5.12,15.11,3.97,23.71-6.85,32.49c-17.01,13.79-34.7,26.09-54.51,35.4
		c-24.13,11.35-49.54,16.13-76.11,15.47c-7.99-0.2-11.01-6.1-13.9-11.78c-4.3-8.46-4.73-16.83,2.45-24.41
		c7.64-8.06,17.24-13.21,26.84-18.29c12.97-6.87,15.09-11.72,13.17-26.31c-3.68-27.89-15.09-53.22-25.86-78.65
		c-9.59-22.65-20.85-44.59-35.16-64.81c-6.62-9.36-13.81-17.04-24.73-22.29c-26.45-12.72-46.82-33.09-63.86-56.69
		c-28.97-40.13-51.17-84.04-71.05-129.2C638.03,1581.91,630.53,1566.07,624.54,1548.26z"/>
	<path class="st1" d="M623.19,1587.3c1.84,17.77,3.68,35.53,5.65,54.5C620.47,1632.79,616.17,1597.14,623.19,1587.3z"/>
	<path class="st1" d="M602.54,1452.06c4.83,19.61,7.82,39.68,14.41,58.85C604.99,1493.1,601.93,1473.04,602.54,1452.06z"/>
	<path class="st1" d="M667.29,1466.01c-7.84,13.11-14.9,26.75-25.96,37.7c5.48-14.74,16.59-25.98,24.44-39.23
		C667.16,1464.11,667.92,1464.37,667.29,1466.01z"/>
	<path class="st1" d="M601.38,1625.29c1.26-8.31,5.18-15.92,5.78-24.44c0.13-1.89,1.11-5.34,4.09-4.52
		c2.58,0.72,0.96,3.37,0.73,5.31C610.94,1610.59,606.14,1617.87,601.38,1625.29z"/>
	<path class="st1" d="M681.69,1486.98c-7.07,8.22-15.8,13.81-25.78,17.44C662.67,1495.73,672.58,1491.98,681.69,1486.98z"/>
	<path class="st1" d="M628.93,1505.38c-3.96-8.85-1.05-18.13-2.23-27.34c0.74-0.03,1.48-0.06,2.23-0.09
		C628.93,1487.09,628.93,1496.23,628.93,1505.38z"/>
	<path class="st1" d="M641.98,1614.57c-7.46-4.64-9.27-10.94-11.05-17.26c-0.44-1.55,0.29-2.67,1.72-2.84
		c1.52-0.18,2.37,1.25,2.55,2.44C636.07,1602.77,639.63,1607.66,641.98,1614.57z"/>
	<path class="st1" d="M590.17,1490.49c5.32,3.68,9.42,8.27,12.57,15.8C594.57,1502.47,593.14,1495.91,590.17,1490.49z"/>
	<path class="st1" d="M667.29,1466.01c-0.51-0.51-1.01-1.02-1.52-1.53c0.72-1.62,1.72-2.99,3.89-3.9
		C670.28,1463.16,668.78,1464.58,667.29,1466.01z"/>
</g>
<path class="st2" d="M319.65,673.62c-20.79-22.66-29.96-48.57-27.25-77.01c0.73-7.64,1.43-14.73,2.08-21.31
	c5.55-55.99,7.62-76.94-8.61-97.5c-5.89-7.47-14.15-13.53-22.89-19.94c-12.04-8.84-24.36-17.88-31.91-31.37l16.94-7.31l-21.08-11.42
	c21.77-16.67,81.06-71.01,65.6-158.69c-13.34-75.62-85.92-120.65-146.67-104.04c-60.75,16.61-103.1,93.41-73.33,164.19
	c37.85,89.98,128.78,102.38,144.36,103.86l-5.86,22.06l12.66-5.46c8.38,15.41,22.04,25.45,34.56,34.64
	c8.29,6.09,16.12,11.84,21.35,18.45c14.23,18.03,12.39,36.61,6.93,91.76c-0.65,6.6-1.36,13.69-2.09,21.34
	c-2.9,30.45,7.31,59.28,29.51,83.38c16.66,18.08,33.98,27.05,34.71,27.42l3.65-7.12C352.13,699.45,335.34,690.73,319.65,673.62z
	 M101.6,290.12c-23.55-59.86,22.57-88.31,22.57-88.31C97.67,243.02,125.15,349.97,101.6,290.12z"/>
</svg>
