<?xml version="1.0" encoding="utf-8"?>
<!-- Generator: Adobe Illustrator 26.0.3, SVG Export Plug-In . SVG Version: 6.00 Build 0)  -->
<svg version="1.1" id="Layer_1" xmlns="http://www.w3.org/2000/svg" xmlns:xlink="http://www.w3.org/1999/xlink" x="0px" y="0px"
	 viewBox="0 0 595.28 841.89" style="enable-background:new 0 0 595.28 841.89;" xml:space="preserve">
<g>
	<g>
		<path d="M299.32,731.54c-1.43-0.92-2.33-1.49-3.72-2.38c0,1.9-0.13,3.29,0.03,4.65c0.48,4.13-0.34,8.02-1.84,11.83
			c-0.79,2.01-1.4,4.09-2.21,6.1c-0.69,1.7-2.08,2.41-3.82,1.8c-3.14-1.11-5.71,0.02-8.12,1.85c-1.48,1.13-2.95,2.31-4.26,3.63
			c-1.24,1.24-2.43,1.61-3.94,0.59c-0.43-0.29-0.97-0.41-1.4-0.7c-1.84-1.24-2.98-0.64-3.81,1.27c-0.55,1.26-1.29,2.44-1.95,3.65
			c-0.28,0.01-0.56,0.01-0.84,0.02c-0.76-2.46-1.52-4.92-2.34-7.57c-1.19,0.69-2.06,1.26-2.98,1.71c-1.28,0.61-2.42,0.65-2.49-1.2
			c-0.06-1.55-0.63-2.31-2.31-2.19c-0.5,0.04-1.06-0.48-1.56-0.79c-1.93-1.21-2.84-1.04-3.75,1.14c-0.77,1.83-1.21,3.8-1.67,5.27
			c-0.74-2.89-1.51-6.13-2.43-9.32c-0.46-1.63-1.31-2.76-2.93-0.65c-0.72-1.14-1.36-2.17-2.21-3.51c-0.67,0.72-1.21,1.18-1.6,1.74
			c-0.93,1.35-1.7,1.04-2.26-0.22c-0.49-1.08-0.77-2.26-1.2-3.37c-0.86-2.23-1.73-2.61-3.97-1.78c-4.83,1.8-4.83,1.8-4.18-3.26
			c0.27-2.16,0.24-4.34-1.81-5.64c-2.38-1.51-4.74-0.56-7.24,0.62c2.16-6.59,0.89-13.03,0.02-19.5c-0.53-3.92-0.93-7.88-0.97-11.83
			c-0.02-2.1,0.73-4.24,1.31-6.31c3.26-11.56,7.36-22.94,9.69-34.68c3.23-16.25,5.2-32.75,7.59-49.15
			c1.24-8.5,2.28-17.03,3.35-25.55c0.58-4.67,1.06-9.35,1.54-14.03c0.88-8.62,5.17-15.42,11.14-21.42c1.88-1.89,3.5-4.07,5.09-6.23
			c1.59-2.16,2.3-4.54,1.83-7.36c-0.51-3.02,0.56-5.69,2.68-8c0.72-0.79,1.25-2.06,1.28-3.12c0.57-26.4,0.7-52.79-0.38-79.18
			c-0.52-12.69-3.66-24.78-6.72-36.94c-4.08-16.21-7.88-32.5-12.27-48.63c-1.37-5.03-4.21-9.68-6.56-14.41
			c-0.41-0.82-1.66-1.41-2.65-1.72c-5.21-1.64-10.45-3.21-14.94-6.47c-6.03-4.38-11.34-9.49-15.31-15.87
			c-0.75-1.21-1.54-2.39-2.23-3.63c-1.1-1.97-2.53-3.21-4.86-3.85c-1.66-0.46-3.11-1.93-4.49-3.14c-2.8-2.45-5.36-5.19-8.26-7.5
			c-3.97-3.17-7.21-6.82-9.79-11.23c-4.37-7.48-9.05-14.79-13.61-22.15c-2.74-4.43-3.55-9.47-4.62-14.43
			c-0.17-0.81-0.03-1.87,0.37-2.6c5.37-10.03,8.09-21.44,15.55-30.38c4.83-5.78,8.55-12.17,11.59-19.05
			c1.44-3.25,3.73-6.11,5.58-9.19c3.42-5.69,7.53-10.77,12.67-15.01c0.63-0.52,1.21-1.13,1.74-1.75
			c9.48-11.14,21.19-19.45,33.72-26.78c7.94-4.65,15.84-9.36,24.83-11.71c2.86-0.75,5.9-0.82,8.81-1.39
			c1.55-0.3,3.17-0.76,4.49-1.59c2.01-1.27,3.97-2.74,5.62-4.44c6.69-6.86,15.05-9.68,24.34-10.41c1.49-0.12,3-0.61,4.45-0.44
			c5.63,0.65,10.92-0.81,16.31-2.08c5.29-1.25,10.75-1.82,16.09-2.86c3.14-0.61,6.18-1.7,9.32-2.35c3.13-0.64,6.32-1.05,9.5-1.47
			c4.5-0.6,9-1.21,13.51-1.63c1.96-0.18,3.97,0.12,5.96,0.19c1.9,0.06,3.85,0.39,5.68,0.06c2.18-0.39,3.82,0.03,5.18,1.71
			c0.52,0.64,1.1,1.26,1.45,1.98c3.72,7.72,7.53,15.41,11,23.24c1.22,2.75,2.03,5.84,2.25,8.84c0.35,4.77,3.16,8.16,6.48,10.52
			c5.73,4.09,6.93,9.46,6.21,15.71c-0.7,6.06-1.74,12.09-2.57,18.13c-0.08,0.59,0.05,1.36,0.38,1.85c4.53,6.79,8.8,13.7,11.67,21.4
			c0.26,0.71,0.99,1.28,1.59,1.82c3.71,3.36,7.62,6.53,11.15,10.06c6.13,6.14,11.19,13.16,13.88,21.46
			c4.07,12.55,3.49,24.93-2.02,37.11c-4.48,9.89-12.03,17.14-19.56,24.54c-11.67,11.46-25.98,17.99-41.05,23.57
			c-12.12,4.49-24.58,6.27-37.32,6.62c-14.36,0.39-28.73,0.35-42.99-1.76c-6.35-0.94-12.63-2.38-18.98-3.26
			c-2.44-0.34-5.03,0.13-7.52,0.47c-2.8,0.39-5.62,0.88-8.34,1.63c-4.65,1.29-9.22,2.91-13.86,4.24c-5.73,1.64-11.5,3.12-17.4,4.71
			c0.01-0.09-0.1,0.15-0.03,0.33c5.23,13.38,9.12,27.15,12.12,41.2c2.8,13.14,6.12,26.18,8.72,39.35
			c2.5,12.64,3.09,25.49,3.28,38.37c0.31,20.86,0.87,41.71,1.33,62.61c3.38,1.24,5.81,5.1,4.64,9.1c-0.44,1.51,0.14,2.14,1.83,2.15
			c1.19,0.01,2.53,0.36,3.54,0.99c8.1,5.03,12.85,12.01,12.89,21.88c0.08,20.88,2.3,41.63,3.83,62.43
			c1.34,18.18,1.59,36.45,2.48,54.67c0.35,7.15,0.34,14.48,1.98,21.37c1.62,6.81,1.29,13.26,0.2,19.9
			C300.48,725.45,299.91,728.33,299.32,731.54z"/>
	</g>
</g>
</svg>
