<?xml version="1.0" encoding="utf-8"?>
<!-- Generator: Adobe Illustrator 26.2.1, SVG Export Plug-In . SVG Version: 6.00 Build 0)  -->
<svg version="1.1" id="Layer_1" xmlns="http://www.w3.org/2000/svg" xmlns:xlink="http://www.w3.org/1999/xlink" x="0px" y="0px"
	 viewBox="0 0 841.89 595.28" style="enable-background:new 0 0 841.89 595.28;" xml:space="preserve">
<style type="text/css">
	.st0{opacity:0.73;fill:#001155;}
	.st1{fill:url(#SVGID_1_);}
	.st2{fill:#001155;}
	.st3{opacity:0.48;fill:url(#SVGID_00000075863009250428391460000000439208597120796591_);}
	.st4{opacity:0.48;fill:url(#SVGID_00000147200812069351299990000016898033847604234150_);}
	.st5{opacity:0.48;fill:url(#SVGID_00000061462293785633833300000002676638138161316226_);}
	.st6{opacity:0.48;fill:url(#SVGID_00000125560952035257927110000010994373957675569062_);}
	.st7{opacity:0.48;fill:url(#SVGID_00000026883028122136031280000017713381630658010767_);}
	.st8{opacity:0.48;fill:url(#SVGID_00000044167576662953104610000001443757227058832019_);}
	.st9{opacity:0.48;fill:url(#SVGID_00000065040335412280262180000015756322683950767522_);}
	.st10{opacity:0.48;fill:url(#SVGID_00000152239639586877143590000015252487976721247619_);}
	.st11{opacity:0.48;fill:url(#SVGID_00000109020076857207473210000001371890818207878588_);}
	.st12{opacity:0.48;fill:url(#SVGID_00000084519081347331582190000009140053128356887970_);}
	.st13{opacity:0.48;fill:url(#SVGID_00000022524683406465003440000007043046804953023159_);}
	.st14{opacity:0.48;fill:#001155;}
</style>
<polygon class="st0" points="841.89,19.22 0.72,224.68 -0.02,254.77 82.23,234.71 84.33,250.58 130.26,239.13 130.95,243.47 
	165.81,234.82 166.53,265.05 212.8,264.16 212.81,273.79 352.39,239.19 352.39,239.19 360.8,253.57 418.89,239.53 420.63,264.16 
	495.69,264.16 495.48,275.3 627.04,242.97 633.94,243.67 651.04,239.49 659.4,250.89 725.39,234.71 723.92,264.16 770.34,264.16 
	770.34,357.28 841.89,357.28 "/>
<linearGradient id="SVGID_1_" gradientUnits="userSpaceOnUse" x1="-145.0139" y1="567.8922" x2="893.9023" y2="60.2343">
	<stop  offset="0" style="stop-color:#FC7753;stop-opacity:0.15"/>
	<stop  offset="1" style="stop-color:#FC7753"/>
</linearGradient>
<polygon class="st1" points="842.26,19.22 1.1,224.68 0.35,254.77 82.61,234.71 84.7,250.58 130.63,239.13 131.32,243.47 
	166.18,234.82 166.91,265.05 213.17,264.16 213.19,273.79 352.76,239.19 352.76,239.19 361.17,253.57 419.26,239.53 421.01,264.16 
	496.07,264.16 495.86,275.3 627.42,242.97 634.32,243.67 651.41,239.49 659.77,250.89 725.76,234.71 724.3,264.16 770.71,264.16 
	770.71,357.28 842.26,357.28 "/>
<polygon class="st0" points="-0.02,361.74 770.34,357.28 770.34,264.16 723.92,264.16 725.39,234.71 656.78,251.6 651.04,239.49 
	633.94,243.67 627.04,242.97 495.48,275.3 424.86,267.55 418.89,239.53 353.13,255.44 352.39,239.19 206.66,275.21 163.87,274.89 
	165.81,234.82 135.23,242.37 129.13,239.34 84.33,250.58 82.23,234.71 0.28,254.48 "/>
<path class="st2" d="M770.34,357.28v-93.12h-30.81c0-3.13,0-5.86,0-7.52c0-6.26-6.6-6.76-6.6-6.76s2.9-2.18,2.1-9.12
	c-0.79-6.94-13.01-8.93-16.39-0.57c0,0-1.51,4.93,1.4,9.38c-7.01,0.25-7.36,7.06-7.36,7.06v7.53h-10.49
	c-1.77-1.13-3.7-1.28-3.7-1.28s2.9-2.18,2.1-9.12c-0.79-6.94-13.01-8.93-16.39-0.57c0,0-1.51,4.93,1.4,9.38
	c-2.07,0.07-3.54,0.73-4.62,1.6h-14.64c0-1.21,0-2.24,0-3.03c0-6.26-6.6-6.76-6.6-6.76s2.9-2.18,2.1-9.12
	c-0.79-6.94-13.01-8.93-16.39-0.57c0,0-1.51,4.93,1.4,9.38c-4.82,0.17-6.49,3.44-7.06,5.47c-1.92-1.56-4.37-1.76-4.37-1.76
	s2.9-2.18,2.1-9.12c-0.79-6.94-13.01-8.93-16.39-0.57c0,0-1.51,4.93,1.4,9.38c-6.06,0.22-7.14,5.33-7.32,6.71h-9.93v93.12H495.69
	v-93.12h-61.61c0-1.21,0-2.24,0-3.03c0-6.26-6.6-6.76-6.6-6.76s2.9-2.18,2.1-9.12c-0.79-6.94-13.01-8.93-16.39-0.57
	c0,0-1.51,4.93,1.4,9.38c-7.01,0.25-7.36,7.06-7.36,7.06v3.04h-40.38c0-1.21,0-2.24,0-3.03c0-6.26-6.6-6.76-6.6-6.76
	s2.9-2.18,2.1-9.12c-0.79-6.94-13.01-8.93-16.39-0.57c0,0-1.51,4.93,1.4,9.38c-7.01,0.25-7.36,7.06-7.36,7.06v3.04h-9.36v93.12
	H212.8v-93.12h-32.84c0-3.13,0-5.86,0-7.52c0-6.26-6.6-6.76-6.6-6.76s2.9-2.18,2.1-9.12c-0.79-6.94-13.01-8.93-16.39-0.57
	c0,0-1.51,4.93,1.4,9.38c-7.01,0.25-7.36,7.06-7.36,7.06v7.53h-9.44c0-1.21,0-2.24,0-3.03c0-6.26-6.6-6.76-6.6-6.76
	s2.9-2.18,2.1-9.12c-0.79-6.94-13.01-8.93-16.39-0.57c0,0-1.51,4.93,1.4,9.38c-7.01,0.25-7.36,7.06-7.36,7.06v3.04h-20.3
	c0-3.13,0-5.86,0-7.52c0-6.26-6.6-6.76-6.6-6.76s2.9-2.18,2.1-9.12c-0.79-6.94-13.01-8.93-16.39-0.57c0,0-1.51,4.93,1.4,9.38
	c-7.01,0.25-7.36,7.06-7.36,7.06v7.53H47.77v93.12h-47.8l0.75,237.77h841.17V357.28H770.34z"/>
<linearGradient id="SVGID_00000045612955242202520510000005188656210011205300_" gradientUnits="userSpaceOnUse" x1="407.5126" y1="251.6519" x2="434.3529" y2="251.6519">
	<stop  offset="0" style="stop-color:#02007F;stop-opacity:0"/>
	<stop  offset="0.8627" style="stop-color:#F94E4E"/>
</linearGradient>
<path style="opacity:0.48;fill:url(#SVGID_00000045612955242202520510000005188656210011205300_);" d="M407.51,264.16v-3.09
	c0,0,0.35-6.81,7.36-7.06c-2.91-4.44-1.4-9.38-1.4-9.38c3.38-8.35,15.59-6.37,16.39,0.57c0.79,6.94-2.1,9.12-2.1,9.12
	s6.6,0.5,6.6,6.76c0,0.8,0,3.08,0,3.08H407.51z"/>
<linearGradient id="SVGID_00000113342068118457414390000004165654781768771725_" gradientUnits="userSpaceOnUse" x1="340.919" y1="248.8222" x2="362.5412" y2="248.8222">
	<stop  offset="0" style="stop-color:#02007F;stop-opacity:0"/>
	<stop  offset="0.8627" style="stop-color:#F94E4E"/>
</linearGradient>
<path style="opacity:0.48;fill:url(#SVGID_00000113342068118457414390000004165654781768771725_);" d="M340.92,258.5
	c0,0,1-4.29,6.5-4.49c-2.91-4.44-1.4-9.38-1.4-9.38c3.38-8.35,15.59-6.37,16.39,0.57c0.79,6.94-2.1,9.12-2.1,9.12L340.92,258.5z"/>
<linearGradient id="SVGID_00000108310572359381686540000013688672467902528905_" gradientUnits="userSpaceOnUse" x1="153.0782" y1="249.4328" x2="179.9519" y2="249.4328">
	<stop  offset="0" style="stop-color:#02007F;stop-opacity:0"/>
	<stop  offset="0.8627" style="stop-color:#F94E4E"/>
</linearGradient>
<path style="opacity:0.48;fill:url(#SVGID_00000108310572359381686540000013688672467902528905_);" d="M153.08,259.72v-3.09
	c0,0,0.35-6.81,7.36-7.06c-2.91-4.44-1.4-9.38-1.4-9.38c3.38-8.35,15.59-6.37,16.39,0.57c0.79,6.94-2.1,9.12-2.1,9.12
	s6.6,0.5,6.6,6.76c0,0.8,0,3.08,0,3.08l0.03,4.44h-26.84L153.08,259.72z"/>
<linearGradient id="SVGID_00000182492467207084150860000009730029156964157360_" gradientUnits="userSpaceOnUse" x1="122.9247" y1="241.802" x2="137.7292" y2="241.802">
	<stop  offset="0" style="stop-color:#02007F;stop-opacity:0"/>
	<stop  offset="0.8627" style="stop-color:#F94E4E"/>
</linearGradient>
<path style="opacity:0.48;fill:url(#SVGID_00000182492467207084150860000009730029156964157360_);" d="M122.92,244.55
	c2.73-6.75,11.22-6.75,14.8-2.84L122.92,244.55z"/>
<linearGradient id="SVGID_00000148631227444763981410000007524674854697201330_" gradientUnits="userSpaceOnUse" x1="71.0961" y1="243.8696" x2="92.3037" y2="243.8696">
	<stop  offset="0" style="stop-color:#02007F;stop-opacity:0"/>
	<stop  offset="0.8627" style="stop-color:#F94E4E"/>
</linearGradient>
<path style="opacity:0.48;fill:url(#SVGID_00000148631227444763981410000007524674854697201330_);" d="M71.1,253.03
	c0,0,1.59-3.54,6.09-3.46c-2.91-4.44-1.4-9.38-1.4-9.38c3.38-8.35,15.59-6.37,16.39,0.57c0.48,4.25-0.41,6.71-1.18,7.98
	C90.5,249.56,71.1,253.03,71.1,253.03z"/>
<linearGradient id="SVGID_00000059292268361514578580000009754154991976275846_" gradientUnits="userSpaceOnUse" x1="712.5751" y1="249.4328" x2="739.4155" y2="249.4328">
	<stop  offset="0" style="stop-color:#02007F;stop-opacity:0"/>
	<stop  offset="0.8627" style="stop-color:#F94E4E"/>
</linearGradient>
<path style="opacity:0.48;fill:url(#SVGID_00000059292268361514578580000009754154991976275846_);" d="M712.58,264.16v-7.53
	c0,0,0.35-6.81,7.36-7.06c-2.91-4.44-1.4-9.38-1.4-9.38c3.38-8.35,15.59-6.37,16.39,0.57c0.79,6.94-2.1,9.12-2.1,9.12
	s6.6,0.5,6.6,6.76c0,0.8,0,7.52,0,7.52H712.58z"/>
<linearGradient id="SVGID_00000005247207618710044480000005608893949702238385_" gradientUnits="userSpaceOnUse" x1="645.1162" y1="246.5873" x2="661.9156" y2="246.5873">
	<stop  offset="0" style="stop-color:#02007F;stop-opacity:0"/>
	<stop  offset="0.8627" style="stop-color:#F94E4E"/>
</linearGradient>
<path style="opacity:0.48;fill:url(#SVGID_00000005247207618710044480000005608893949702238385_);" d="M646.87,254.05
	c-2.79-4.09-1.43-9.44-1.43-9.44c3.38-8.35,15.59-6.37,16.39,0.57c0.25,2.18-0.14,5.21-0.14,5.21L646.87,254.05z"/>
<linearGradient id="SVGID_00000108268179656038528140000003351082446922378893_" gradientUnits="userSpaceOnUse" x1="622.407" y1="244.3248" x2="633.9424" y2="244.3248">
	<stop  offset="0" style="stop-color:#02007F;stop-opacity:0"/>
	<stop  offset="0.8627" style="stop-color:#F94E4E"/>
</linearGradient>
<path style="opacity:0.48;fill:url(#SVGID_00000108268179656038528140000003351082446922378893_);" d="M622.41,246.03
	c2.82-3.76,8-4.2,11.54-2.36L622.41,246.03z"/>
<linearGradient id="SVGID_00000107559436697177556260000009830447022775072952_" gradientUnits="userSpaceOnUse" x1="93.404" y1="283.5732" x2="233.8892" y2="283.5732">
	<stop  offset="0" style="stop-color:#02007F;stop-opacity:0"/>
	<stop  offset="1" style="stop-color:#F94E4E"/>
</linearGradient>
<polygon style="opacity:0.48;fill:url(#SVGID_00000107559436697177556260000009830447022775072952_);" points="93.4,302.99 
	212.75,273.79 212.75,264.16 93.4,264.16 "/>
<linearGradient id="SVGID_00000021834628722732379090000006835283653156298126_" gradientUnits="userSpaceOnUse" x1="376.419" y1="284.3092" x2="516.9043" y2="284.3092">
	<stop  offset="0" style="stop-color:#02007F;stop-opacity:0"/>
	<stop  offset="1" style="stop-color:#F94E4E"/>
</linearGradient>
<polygon style="opacity:0.48;fill:url(#SVGID_00000021834628722732379090000006835283653156298126_);" points="376.42,304.46 
	495.77,275.26 495.77,264.16 376.42,264.31 "/>
<linearGradient id="SVGID_00000042017128092535501590000003516711081359081866_" gradientUnits="userSpaceOnUse" x1="650.9917" y1="310.9016" x2="791.4769" y2="310.9016">
	<stop  offset="0" style="stop-color:#02007F;stop-opacity:0"/>
	<stop  offset="1" style="stop-color:#F94E4E"/>
</linearGradient>
<polygon style="opacity:0.48;fill:url(#SVGID_00000042017128092535501590000003516711081359081866_);" points="650.99,357.64 
	770.34,357.28 770.34,264.16 650.99,264.31 "/>
<polygon class="st14" points="0.72,224.68 841.89,19.22 841.89,0.23 0.72,0.23 "/>
</svg>
