<?xml version="1.0" encoding="utf-8"?>
<!-- Generator: Adobe Illustrator 26.0.3, SVG Export Plug-In . SVG Version: 6.00 Build 0)  -->
<svg version="1.1" id="Layer_1" xmlns="http://www.w3.org/2000/svg" xmlns:xlink="http://www.w3.org/1999/xlink" x="0px" y="0px"
	 viewBox="0 0 595.28 841.89" style="enable-background:new 0 0 595.28 841.89;" xml:space="preserve">
<style type="text/css">
	.st0{opacity:0.42;}
	.st1{fill:#FFFFFF;}
</style>
<g>
	<path d="M338.29,289.36c-5.13,8.77-9.76,16.93-14.62,24.95c-12.67,20.9-26.39,41.05-42.26,59.72
		c-10.05,11.82-21.86,21.27-35.31,28.81c-2.23,1.25-4.6,2.64-7.06,3.04c-10.06,1.66-15.53,9.22-21.16,16.33
		c-12.55,15.85-23.11,33.02-31.73,51.3c-3.87,8.22-8.23,16.39-7.59,26.05c0.12,1.73,0.23,2.67,1.71,3.79
		c5.9,4.44,12.39,8.2,17.02,14.17c5.27,6.8,2.63,17.25-5.5,19.84c-4.17,1.33-8.73-0.26-12.97-1.2
		c-15.91-3.51-30.09-10.59-42.56-21.13c-6.35-5.37-12.32-11.07-17.55-17.56c-3.86-4.79-1.07-9.31,0.45-13.72
		c1.3-3.78,4.55-4.92,8.57-5.11c9.13-0.43,16.61,3.63,24.02,8.02c1.96,1.16,3.1,0.82,5.24-0.1c17.24-7.39,24.47-23.66,33.53-37.98
		c9.5-15,16.21-31.47,20.71-48.75c0.7-2.69,0.67-5.27,0.17-7.96c-3.22-17.26,0.93-33.52,7.15-49.36
		c11.06-28.17,24.65-55.06,41.87-80.03c2.51-3.64,5.4-7.01,7.98-10.59c4.6-6.39,10.81-4.79,16.75-3.19
		c15.98,4.31,30.23,12.1,42.65,22.96c3.58,3.13,6.81,6.93,9.23,11.2c1.42,2.51,2.8,2.64,4.91,0.47
		c14.67-15.12,33.28-22.09,53.51-25.64c1.54-0.27,3.08-0.7,4.63-0.76c5.27-0.22,9.37,1.17,12.54,6.19
		c9.54,15.09,16.59,31.34,23.01,47.87c7.61,19.58,14.03,39.56,17.76,60.28c2.25,12.49,2.52,25.01-1.79,37.21
		c-2.15,6.07-0.03,11.92,1.07,17.6c5.05,26.12,15.52,50.09,29.55,72.65c3.5,5.62,9.15,7.85,14.01,11.4c0.83,0.61,1.64-0.11,2.4-0.45
		c6-2.7,12.11-4.91,18.69-5.85c6.06-0.86,12.66,1.26,14.1,5.5c2.83,8.34,2.19,13.08-3.78,17.92c-9.39,7.61-19.14,14.39-30.07,19.53
		c-13.31,6.26-27.33,8.9-41.98,8.53c-4.4-0.11-6.08-3.36-7.67-6.5c-2.37-4.67-2.61-9.28,1.35-13.47c4.21-4.45,9.51-7.28,14.8-10.09
		c7.16-3.79,8.32-6.46,7.26-14.51c-2.03-15.39-8.33-29.36-14.27-43.39c-5.29-12.49-11.5-24.6-19.39-35.75
		c-3.65-5.17-7.62-9.4-13.64-12.3c-14.59-7.02-25.83-18.25-35.23-31.27c-15.98-22.14-28.23-46.36-39.19-71.27
		C345.73,307.92,341.59,299.19,338.29,289.36z"/>
	<path d="M337.55,310.9c1.02,9.8,2.03,19.6,3.11,30.06C336.05,335.99,333.67,316.33,337.55,310.9z"/>
	<path d="M326.15,236.3c2.67,10.82,4.31,21.89,7.95,32.46C327.5,258.93,325.82,247.87,326.15,236.3z"/>
	<path d="M361.87,243.99c-4.33,7.23-8.22,14.76-14.32,20.79c3.02-8.13,9.15-14.33,13.48-21.64
		C361.8,242.94,362.22,243.08,361.87,243.99z"/>
	<path d="M325.51,331.86c0.69-4.58,2.86-8.78,3.19-13.48c0.07-1.04,0.61-2.95,2.26-2.49c1.43,0.39,0.53,1.86,0.4,2.93
		C330.79,323.74,328.14,327.76,325.51,331.86z"/>
	<path d="M369.81,255.56c-3.9,4.53-8.72,7.62-14.22,9.62C359.32,260.38,364.79,258.32,369.81,255.56z"/>
	<path d="M340.71,265.71c-2.19-4.88-0.58-10-1.23-15.08c0.41-0.02,0.82-0.03,1.23-0.05C340.71,255.62,340.71,260.66,340.71,265.71z"
		/>
	<path d="M347.91,325.94c-4.11-2.56-5.11-6.03-6.1-9.52c-0.24-0.85,0.16-1.47,0.95-1.57c0.84-0.1,1.31,0.69,1.4,1.35
		C344.65,319.43,346.61,322.13,347.91,325.94z"/>
	<path d="M319.33,257.49c2.93,2.03,5.2,4.56,6.94,8.72C321.76,264.1,320.97,260.48,319.33,257.49z"/>
	<path d="M361.87,243.99c-0.28-0.28-0.56-0.56-0.84-0.84c0.4-0.9,0.95-1.65,2.15-2.15C363.52,242.42,362.69,243.2,361.87,243.99z"/>
</g>
</svg>
