<svg id="Layer_1" data-name="Layer 1" xmlns="http://www.w3.org/2000/svg" viewBox="0 0 450.3 300.74"><defs><style>.cls-1,.cls-2{fill:#fff;}.cls-2{font-size:64.86px;font-family:Kiona-Regular, Kiona;letter-spacing:-0.01em;}.cls-3{letter-spacing:-0.02em;}</style></defs><path class="cls-1" d="M519.23,568.76c-6.22-3.37-10.91-8.33-14.77-14.15a33.43,33.43,0,0,1-5.74-19.1q.21-75.79.16-151.58a98.55,98.55,0,0,0-1-15.54A64.34,64.34,0,0,0,489,343.66,42.94,42.94,0,0,0,476,330.26c-4.92-3.17-10.24-4.85-16.18-3.74-.56.11-1.14.11-2,.19.17-.85.25-1.41.4-2a34.47,34.47,0,0,0,1.11-3.81,13.44,13.44,0,0,0-2.52-9.94A31.72,31.72,0,0,0,446,301c-5.5-3-11.05-6-16.69-8.73-13.26-6.5-27.39-9.29-42.08-9.42a52.94,52.94,0,0,0-18.87,3c-16.77,6.16-31.84,15.1-44.68,27.62-14.73,14.36-25,31.52-31.73,50.9-.27.77-.45,1.57-.72,2.53.89.26,1.55.49,2.22.65a99.57,99.57,0,0,1,26.32,10q29.17,16.55,38.4,48.81c.93,3.24,1.41,6.6,2.13,9.9a6.23,6.23,0,0,0,.68,1.38l2.84-.18a11.6,11.6,0,0,0,.35-4.12q-.12-49.31-.27-98.63a126.7,126.7,0,0,1,1.95-23.81,40.18,40.18,0,0,1,6.83-16.62,19,19,0,0,1,11.26-7.38,33.56,33.56,0,0,1,8.65-.72,23.91,23.91,0,0,1,16.65,6.93,41.83,41.83,0,0,1,6.7,8.52c5.32,8.79,8.48,18.4,10.78,28.33a4.41,4.41,0,0,1-.66,3.79c-.42.59-.75,1.24-1.19,1.82-2.79,3.66-4.05,7.88-4.69,12.39a128.11,128.11,0,0,0-1.06,17.72c-.09,36-.24,72,.58,108,.13,5.44.24,10.88.55,16.31a87.69,87.69,0,0,0,4.52,23.41c3.48,10.25,8.83,19.36,17.08,26.51a173.46,173.46,0,0,0,26.74,19.24A102.07,102.07,0,0,0,490,568.82a55.67,55.67,0,0,0,27.56,1.75,23.11,23.11,0,0,0,2.75-.91A7.7,7.7,0,0,0,519.23,568.76ZM489.54,380.89a1.87,1.87,0,0,1,0,.32.75.75,0,0,1-.13.27,1.86,1.86,0,0,1,0-.33A.79.79,0,0,1,489.54,380.89Zm-34.22-51.05c1.24,0,2.36,0,3.41,0l.1,0a7.34,7.34,0,0,1,1.66.08,21,21,0,0,1,7.28,1.48c6.68,2.48,11.18,7.3,13.82,14.08a2.48,2.48,0,0,1,.12.91c.15.35.29.71.43,1.07a.7.7,0,0,1,.25.65,96.73,96.73,0,0,1,4.1,14.61,1.5,1.5,0,0,1,.15-.23c0,.11.1.22.08.32a.7.7,0,0,1-.15.26q.33,1.62.63,3.27v-.07h.23l.06,1-.13,0q.27,1.51.51,3l.33,0V372h-.07c.21,1.35.39,2.68.56,4v-.93h.16V377h0c.65,5.24,1.07,10.17,1.34,14.29.07.55.15,1.1.22,1.66,0,.84,0,1.6,0,2.32.41,8.57,0,11.11,0,0-.06-1.21-.14-2.55-.23-4-3.75-28.21-5.49-43.4-13.8-50.93a59.5,59.5,0,0,0-7.65-6.55l-1.46-1a18.89,18.89,0,0,0-6.76-2.92c-.57,0-1.15,0-1.76-.06a2.15,2.15,0,0,0-.79.33H458l-2.29,3.1h-.34l0,.06h-21C448.16,333.35,455.32,333.35,455.32,329.84Zm-6.12,13.3a2.25,2.25,0,0,1,1.47,2.26c.24,2.53.62,5.06.61,7.58q0,21.93-.27,43.86c-.08,7.25-.39,14.49-.6,21.74h-.27c-.06-4.34-.18-8.69-.19-13,0-15.83,0-31.66-.05-47.49C449.89,353.13,450.33,348.17,449.2,343.14ZM433.75,480.73A15.32,15.32,0,0,1,423,467.46a21.58,21.58,0,0,1-.19-2.89q0-11.42,0-22.82c0-.71.1-1.42.18-2.37l2.28-.12a7.07,7.07,0,0,1,.49,3.75c0,6.77,0,13.53,0,20.29,0,1.21,0,2.42.12,3.62a13,13,0,0,0,25.63,1.8,25.61,25.61,0,0,0,.52-5c.06-6.88,0-13.76,0-20.64,0-1.19.09-2.38.15-4l2.58.29c.08.76.18,1.35.19,1.93,0,8,0,15.94,0,23.91a15.82,15.82,0,0,1-4.85,11.72C445.41,481.45,439.87,482.85,433.75,480.73Zm25.89,51.92A51.6,51.6,0,0,1,453.69,518a73.47,73.47,0,0,1-2.33-17.13c0-1.15.1-2.3.15-3.45,1.78,12.58,4.61,24.81,9.68,36.54C460,534.06,459.94,533.14,459.64,532.65Zm32.09-54.91a12.49,12.49,0,0,1-2.67,1.85,18.77,18.77,0,0,1-18.07-.27,11,11,0,0,1-5.77-7.5l2.5-1.23c1.89,5.63,6.1,7.68,11.45,8.05a14.41,14.41,0,0,0,9-2c2.46-1.58,4.35-3.61,4.18-6.73s-2.23-5.33-5-6.55a28.19,28.19,0,0,0-5.57-1.47c-1.78-.36-3.59-.53-5.38-.82a15.17,15.17,0,0,1-7.53-3.33c-5-4.23-5.09-10.8-.22-15.15a15.43,15.43,0,0,1,7.06-3.53,18.68,18.68,0,0,1,13.68,1.79,11.64,11.64,0,0,1,5.17,5.41,5.93,5.93,0,0,1,.37,1.74.77.77,0,0,1-.29.62c-.48.33-1,.59-1.45.84-.34-.2-.66-.28-.72-.45-1.43-4.24-4.68-6.31-8.8-7.2a15.89,15.89,0,0,0-9.27.7,11.12,11.12,0,0,0-4.93,3.57,6,6,0,0,0-.33,7.41,10.48,10.48,0,0,0,7.48,4.62c1.9.31,3.83.51,5.74.82a40.51,40.51,0,0,1,4.25.87,12.82,12.82,0,0,1,5.3,3C496.59,467.16,496.53,473.53,491.73,477.74Z" transform="translate(-70 -270.83)"/><path d="M436.54,399.48" transform="translate(-70 -270.83)"/><text class="cls-2" transform="translate(44.84 210.33)">T<tspan class="cls-3" x="42.87" y="0">EE</tspan><tspan x="118.62" y="0">KKARI</tspan></text><path class="cls-1" d="M184.39,418.5a10,10,0,0,1-.6-2c-.26-3.37-.61-6.75-.64-10.13q-.19-27.37,1.5-54.72c1.26-20.76,1.73-41.54,1.74-62.33,0-1.43.05-2.87.08-4.47a14.65,14.65,0,0,1,2.56-.55,21.12,21.12,0,0,1,9.53,1.83,21.42,21.42,0,0,0,7.34,1.73c8.78.76,17.55,1.78,26.34,2.52,7.94.67,15.91,1.15,23.87,1.64,7.35.46,14.71.94,22.08,1.17,6,.2,12.08.07,18.12.05,2.05,0,4.11-.15,6.16-.19a23.18,23.18,0,0,0,16.87-7.14,52.26,52.26,0,0,0,8.08-11.55c.68-1.24,1.15-2.67,2.85-3.49a5.89,5.89,0,0,1,.46,1.66,71.56,71.56,0,0,1-13.29,40c-9.34,13.07-21.72,22.2-36.51,28.18a101,101,0,0,1-37.11,7.3,135.45,135.45,0,0,1-26.65-2.55,125,125,0,0,0-20.9-2c-3.32-.06-5.22,1.46-6.38,4.3A37.68,37.68,0,0,0,187.42,359c-.92,10.62-.7,21.26-.55,31.89a39.54,39.54,0,0,0,1.27,7.48,1.57,1.57,0,0,0,2.47,1.17,12.81,12.81,0,0,0,2.38-1.62c3.14-2.65,6.21-5.39,9.38-8q6-4.94,12.19-9.71A40,40,0,0,1,226.39,374a127.6,127.6,0,0,1,47.8-6.68A102.1,102.1,0,0,1,312,376.3c19.2,8.77,33.05,22.77,41.06,42.41a80.17,80.17,0,0,1,4.6,16.74,11.85,11.85,0,0,1,0,1.79c-1.29.82-2.65.47-3.93.47q-18.5,0-37,0H286.11c-1.07-1.39-.76-2.77-.83-4.05a121.89,121.89,0,0,0-4.45-26.76,57.09,57.09,0,0,0-11.28-21.7,24,24,0,0,0-12.33-7.86,36.84,36.84,0,0,0-7.13-1.17,53.14,53.14,0,0,0-30.23,7.15,157.91,157.91,0,0,0-15.12,10,26.94,26.94,0,0,0-6.25,6.49c-2,3-4,6.05-6,9.05q-2.64,3.9-5.39,7.73A3.68,3.68,0,0,1,184.39,418.5Z" transform="translate(-70 -270.83)"/><path class="cls-1" d="M159.43,280.87c8.27-1.45,18.49-1.95,22-1.08a18.89,18.89,0,0,1,.23,2q-.12,45.5-.27,91c-.06,11.12-.4,22.23-.52,33.35,0,3,.28,6,.42,9,.05,1.2.1,2.41.07,3.62q-.18,8.15-.41,16.31c0,.7-.15,1.41-.25,2.28a21.26,21.26,0,0,1-2.51.29q-29,0-58,0c-.83,0-1.65-.12-2.37-.17-1-1.19-.64-2.45-.65-3.62-.08-8.46,0-16.92-.2-25.37-.41-21.14-.93-42.28-1.35-63.42a5.5,5.5,0,0,0-1.49-3.93l-2.51-2.62a10.66,10.66,0,0,0-8.42-3.35c-9.3.18-18.6.06-27.91.05a13.89,13.89,0,0,1-5.18-.61,28,28,0,0,1-.1-2.86,1.72,1.72,0,0,1,1.64-1.65c.84-.11,1.68-.22,2.52-.27q13.56-.88,27-3A85.81,85.81,0,0,0,124,320.11a63.61,63.61,0,0,0,25.27-21.17,95.22,95.22,0,0,0,8.36-14.4C158.2,283.35,158.79,282.16,159.43,280.87Z" transform="translate(-70 -270.83)"/></svg>