<svg xmlns="http://www.w3.org/2000/svg" viewBox="0 0 987.46 657.57"><defs><style>.cls-1{fill:#fff;}</style></defs><g id="Layer_2" data-name="Layer 2"><path d="M298,110.25c4.9-.55,43.75-3.19,47.39-3.08,3.43.11,4.07,1.25,4.07,6.43-.49,127.79-1.64,339.62-1.64,340.7h-142s-3.11-184.06-3.66-204.59c.08-5.15-7.24-10.76-12.55-14.47-2.68-1.87-14-3-74.44-2.88-2.88,0-5.75-.3-8.62-.42a3,3,0,0,1-3.12-2.78,18.81,18.81,0,0,1,.16-8.28,4.31,4.31,0,0,1,4.1-3.41c59.13-2.33,99-14.78,113.61-21.52,41.27-17.81,65.27-60.56,75.17-82.59A25.69,25.69,0,0,1,298,110.25ZM1090.44,739c-.36.72-1,.56-1.45.67-5.43,1.22-10.84,2.55-16.3,3.58a102,102,0,0,1-27.53,1.16c-20.27-1.71-39.13-8.22-57.43-16.74-24.15-11.25-62.52-38.56-75.25-50.19C898.35,664.6,887,650,879,632.67a174.56,174.56,0,0,1-12.7-40.85,248.29,248.29,0,0,1-4.11-42.06q-.42-26.49-1-53c-.74-34.55-1.15-220.29,1.15-235.21,5-32.1,13.72-33.76,16.52-39.55A226.62,226.62,0,0,0,858,165.29c-3.67-7-11.76-20.19-22.76-29-14.15-11.36-35.12-11.57-46.47-9.56-17.95,3.19-33.28,19.52-38.79,45.58-2.1,8.79-5.66,46.78-5.1,73,.09,13.63.23,209,.23,209h-9.55c-3.92-48.82-43.55-132.6-152.9-154.68,15.3-44.63,31.22-73.34,57.11-103a260.37,260.37,0,0,1,77-60c11.16-5.81,36.86-19.41,64.21-21.51,41.86-3.21,73.86,6.12,110.26,22.81,12.4,5.69,33.77,14.15,55.59,39.89,4.18,4.93,5.46,11.41,5.29,18a39,39,0,0,1-3.28,13.6c1.87-.16,3.47-.23,5.06-.44,7.31-1,14.31.21,21.19,2.71a68.64,68.64,0,0,1,20.37,12.25,104.68,104.68,0,0,1,27,35.12,145.39,145.39,0,0,1,12,37.41,193.61,193.61,0,0,1,3.12,35.8c0,26-.14,275.71-.16,310.46,0,9.22-2.62,33.71,3.16,45.1,3.52,9.78,17.06,32.28,32.37,42.46a54.4,54.4,0,0,0,16.36,8.28A7.53,7.53,0,0,1,1090.44,739Zm-134.82-520c5.8,2.25,11.27,4,15.88,7.35,13,8.31,16.67,10.65,28.67,36.48,6.59,14.2,11.41,45.2,13.58,60.68.83,5.89,3,20.72,3.25,21.76-.33-10.06-1.37-15.86-2-21.68-1.45-13.07-5-43.26-13.32-65.43-2.41-6.39-8.71-17-13-22.37C986.13,232.68,975,225,972.5,223.68A41.62,41.62,0,0,0,955.62,219.06Zm-52.87,6.16c5.24.37,36.88,1.25,39,.87l5.86-7.21H942c-.52,2.94-2.57,4.24-5,5.07a16,16,0,0,1-2.78.73C930.71,225.21,907.84,225,902.75,225.22Zm26.66,38.41q-.09,80.21,0,160.4c0,1.14.22,2.67.22,3.81.21,0,.51-1.79.53-2.52.57-19.1,1.31-38.18,1.66-57.28q.74-38.43.94-76.87c0-10.46-.46-20.92-.8-31.37a39.65,39.65,0,0,0-3.37-15.65c-.19-.41-.44-.8-.65-1.19a32.87,32.87,0,0,0,.36,5.47A120.63,120.63,0,0,1,929.41,263.63ZM940.4,517c.13-18.32.05-57.49.05-57.49h-6.34s0,38,0,55.19a37.74,37.74,0,0,1-1,9.41A28.37,28.37,0,0,1,879,527.19a32,32,0,0,1-1.91-11.56c0-17.46,0-56.15,0-56.15h-6.39s0,30.3,0,43.54c0,4.89-.06,9.78,0,14.68A33.71,33.71,0,0,0,883.55,544c9.14,7.53,19.57,9.78,31,6.86A34.88,34.88,0,0,0,940.4,517Zm-3.09,108.49c3.64,14.82,9.35,28.73,18.58,41a3.85,3.85,0,0,0-.1-1.33c-.78-1.85-1.68-3.66-2.48-5.51-10.91-25.23-16.86-51.7-19.64-78.95-.27-2.66-.51-5.32-.76-8a13.49,13.49,0,0,0-.47,3.37A180.71,180.71,0,0,0,937.31,625.46Zm18.79,41.07-.2,0,0,0Zm67.43-152.21a26.7,26.7,0,0,0-14.27-9.7c-3.89-1-19.64-3.4-23.5-4.11a21.69,21.69,0,0,1-14.66-9.78,13.15,13.15,0,0,1-2.31-8.73,14.14,14.14,0,0,1,3.67-8,25.33,25.33,0,0,1,11.14-7.4,36,36,0,0,1,19.87-1,26.7,26.7,0,0,1,12.68,6.44A19.67,19.67,0,0,1,1022,483l5.73-3.16a21.21,21.21,0,0,0-5.21-10.52,27.08,27.08,0,0,0-7.65-6c-13.27-6.82-26.52-6.66-39.69.28a26.34,26.34,0,0,0-7.37,5.92c-7,7.85-7.39,18.35-1,26.65a27.7,27.7,0,0,0,15.65,10.14c4.27,1.06,21.14,3.75,25.13,4.72a19.92,19.92,0,0,1,10.66,7,13.64,13.64,0,0,1,0,18.18,22.49,22.49,0,0,1-2.85,2.84,27,27,0,0,1-10.09,5.36,37.31,37.31,0,0,1-16,.9,28.79,28.79,0,0,1-14.56-6.41c-3.07-2.54-5-5.91-6.47-11.25l-5.65,3.31c2.3,9.75,11.34,15.7,14.82,17.4a39.37,39.37,0,0,0,14.67,3.83c9.07.61,17.55-1.23,25.19-6.35a25.55,25.55,0,0,0,6.62-6.33A20.27,20.27,0,0,0,1023.53,514.32ZM368.38,255c5.24-10.35,47.16-2.65,57-.76,16.67,4.14,52.26,11.05,92.73,2.16,60.43-13.27,99-42.74,115.95-62.55,25.59-29.94,39.23-64.09,38.6-106.55-4.77,0-11.1,9.44-16.2,19.06-6.61,12.47-19.85,27.37-39,29.58-49.54,5.69-161.78-3.4-221.71-11a24.2,24.2,0,0,1-7.75-1.94,52.67,52.67,0,0,0-25.65-5.39,18.26,18.26,0,0,0-3.69.46c-2.19.55-2.9,1.62-3,3.92-.82,12.58-5.77,281.26-5.38,285.75.52,5.91,2.61,6.22,4.25,5.51a8.83,8.83,0,0,0,2.63-1.71,39.9,39.9,0,0,0,4.24-4.68c44.22-59.71,88.65-85.21,128.05-86.23,23.68-.61,39.13,9.62,47.35,19.31,13.82,16.46,30.57,54.21,34.17,114.37H732.06C727.75,400.64,679.52,304,540.5,297.39c-29.12-1.37-98.62.5-167.29,65.11-7,6.63-8.67,6.65-9.65,5.34C355.85,357.56,361,269.56,368.38,255ZM836.75,551.37h6.32V459.52h-6.32Zm-25,0-33-40.27a74.17,74.17,0,0,0,8.78-.5,28.87,28.87,0,0,0,8.5-2.47,26.81,26.81,0,0,0,11-8.83,22.89,22.89,0,0,0,2.46-23.53,26,26,0,0,0-6.25-8.33,29.6,29.6,0,0,0-9.83-5.87,34.94,34.94,0,0,0-12.08-2.05H749.38v91.85h6.32V465.88h25.57a27.15,27.15,0,0,1,12.64,2.83,21.82,21.82,0,0,1,8.43,7.27,16.78,16.78,0,0,1,2.94,9.4,16.26,16.26,0,0,1-3.51,10.1,22.6,22.6,0,0,1-8.28,6.86Q787,505,776.63,505H765.39l37.93,46.35Zm-98.19-23.32,10.26,23.32h6.88l-40.59-93-43,93h7L665,528.05Zm-2.8-6.35H667.92l21.91-47.63Zm-114.62-15,34.28-47.2h-8l-53.23,73.62V459.52h-6.32v93.41l29.49-40.7,32.73,39.14h8.43Zm-90,0,34.27-47.2h-8l-53.23,73.62V459.52h-6.32v93.41l29.5-40.7L535,551.37h8.43Zm-56.18,44.65v-6.64H397.11v-36h41.16v-6.5H397.11V466h52.82v-6.5H390.79v91.85Zm-82,0v-6.64H315.09v-36h41.15v-6.5H315.09V466H367.9v-6.5H308.77v91.85ZM205.75,459.52V466h36.46v85.35h6.51V466H285v-6.5Z" transform="translate(-102.98 -87.31)"/><path class="cls-1" d="M298,110.25c4.9-.55,43.75-3.19,47.39-3.08,3.43.11,4.07,1.25,4.07,6.43-.49,127.79-1.64,339.62-1.64,340.7h-142s-3.11-184.06-3.66-204.59c.08-5.15-7.24-10.76-12.55-14.47-2.68-1.87-14-3-74.44-2.88-2.88,0-5.75-.3-8.62-.42a3,3,0,0,1-3.12-2.78,18.81,18.81,0,0,1,.16-8.28,4.31,4.31,0,0,1,4.1-3.41c59.13-2.33,99-14.78,113.61-21.52,41.27-17.81,65.27-60.56,75.17-82.59A25.69,25.69,0,0,1,298,110.25ZM1090.44,739c-.36.72-1,.56-1.45.67-5.43,1.22-10.84,2.55-16.3,3.58a102,102,0,0,1-27.53,1.16c-20.27-1.71-39.13-8.22-57.43-16.74-24.15-11.25-62.52-38.56-75.25-50.19C898.35,664.6,887,650,879,632.67a174.56,174.56,0,0,1-12.7-40.85,248.29,248.29,0,0,1-4.11-42.06q-.42-26.49-1-53c-.74-34.55-1.15-220.29,1.15-235.21,5-32.1,13.72-33.76,16.52-39.55A226.62,226.62,0,0,0,858,165.29c-3.67-7-11.76-20.19-22.76-29-14.15-11.36-35.12-11.57-46.47-9.56-17.95,3.19-33.28,19.52-38.79,45.58-2.1,8.79-5.66,46.78-5.1,73,.09,13.63.23,209,.23,209h-9.55c-3.92-48.82-43.55-132.6-152.9-154.68,15.3-44.63,31.22-73.34,57.11-103a260.37,260.37,0,0,1,77-60c11.16-5.81,36.86-19.41,64.21-21.51,41.86-3.21,73.86,6.12,110.26,22.81,12.4,5.69,33.77,14.15,55.59,39.89,4.18,4.93,5.46,11.41,5.29,18a39,39,0,0,1-3.28,13.6c1.87-.16,3.47-.23,5.06-.44,7.31-1,14.31.21,21.19,2.71a68.64,68.64,0,0,1,20.37,12.25,104.68,104.68,0,0,1,27,35.12,145.39,145.39,0,0,1,12,37.41,193.61,193.61,0,0,1,3.12,35.8c0,26-.14,275.71-.16,310.46,0,9.22-2.62,33.71,3.16,45.1,3.52,9.78,17.06,32.28,32.37,42.46a54.4,54.4,0,0,0,16.36,8.28A7.53,7.53,0,0,1,1090.44,739Zm-134.82-520c5.8,2.25,11.27,4,15.88,7.35,13,8.31,16.67,10.65,28.67,36.48,6.59,14.2,11.41,45.2,13.58,60.68.83,5.89,3,20.72,3.25,21.76-.33-10.06-1.37-15.86-2-21.68-1.45-13.07-5-43.26-13.32-65.43-2.41-6.39-8.71-17-13-22.37C986.13,232.68,975,225,972.5,223.68A41.62,41.62,0,0,0,955.62,219.06Zm-52.87,6.16c5.24.37,36.88,1.25,39,.87l5.86-7.21H942c-.52,2.94-2.57,4.24-5,5.07a16,16,0,0,1-2.78.73C930.71,225.21,907.84,225,902.75,225.22Zm26.66,38.41q-.09,80.21,0,160.4c0,1.14.22,2.67.22,3.81.21,0,.51-1.79.53-2.52.57-19.1,1.31-38.18,1.66-57.28q.74-38.43.94-76.87c0-10.46-.46-20.92-.8-31.37a39.65,39.65,0,0,0-3.37-15.65c-.19-.41-.44-.8-.65-1.19a32.87,32.87,0,0,0,.36,5.47A120.63,120.63,0,0,1,929.41,263.63ZM940.4,517c.13-18.32.05-57.49.05-57.49h-6.34s0,38,0,55.19a37.74,37.74,0,0,1-1,9.41A28.37,28.37,0,0,1,879,527.19a32,32,0,0,1-1.91-11.56c0-17.46,0-56.15,0-56.15h-6.39s0,30.3,0,43.54c0,4.89-.06,9.78,0,14.68A33.71,33.71,0,0,0,883.55,544c9.14,7.53,19.57,9.78,31,6.86A34.88,34.88,0,0,0,940.4,517Zm-3.09,108.49c3.64,14.82,9.35,28.73,18.58,41a3.85,3.85,0,0,0-.1-1.33c-.78-1.85-1.68-3.66-2.48-5.51-10.91-25.23-16.86-51.7-19.64-78.95-.27-2.66-.51-5.32-.76-8a13.49,13.49,0,0,0-.47,3.37A180.71,180.71,0,0,0,937.31,625.46Zm18.79,41.07-.2,0,0,0Zm67.43-152.21a26.7,26.7,0,0,0-14.27-9.7c-3.89-1-19.64-3.4-23.5-4.11a21.69,21.69,0,0,1-14.66-9.78,13.15,13.15,0,0,1-2.31-8.73,14.14,14.14,0,0,1,3.67-8,25.33,25.33,0,0,1,11.14-7.4,36,36,0,0,1,19.87-1,26.7,26.7,0,0,1,12.68,6.44A19.67,19.67,0,0,1,1022,483l5.73-3.16a21.21,21.21,0,0,0-5.21-10.52,27.08,27.08,0,0,0-7.65-6c-13.27-6.82-26.52-6.66-39.69.28a26.34,26.34,0,0,0-7.37,5.92c-7,7.85-7.39,18.35-1,26.65a27.7,27.7,0,0,0,15.65,10.14c4.27,1.06,21.14,3.75,25.13,4.72a19.92,19.92,0,0,1,10.66,7,13.64,13.64,0,0,1,0,18.18,22.49,22.49,0,0,1-2.85,2.84,27,27,0,0,1-10.09,5.36,37.31,37.31,0,0,1-16,.9,28.79,28.79,0,0,1-14.56-6.41c-3.07-2.54-5-5.91-6.47-11.25l-5.65,3.31c2.3,9.75,11.34,15.7,14.82,17.4a39.37,39.37,0,0,0,14.67,3.83c9.07.61,17.55-1.23,25.19-6.35a25.55,25.55,0,0,0,6.62-6.33A20.27,20.27,0,0,0,1023.53,514.32ZM368.38,255c5.24-10.35,47.16-2.65,57-.76,16.67,4.14,52.26,11.05,92.73,2.16,60.43-13.27,99-42.74,115.95-62.55,25.59-29.94,39.23-64.09,38.6-106.55-4.77,0-11.1,9.44-16.2,19.06-6.61,12.47-19.85,27.37-39,29.58-49.54,5.69-161.78-3.4-221.71-11a24.2,24.2,0,0,1-7.75-1.94,52.67,52.67,0,0,0-25.65-5.39,18.26,18.26,0,0,0-3.69.46c-2.19.55-2.9,1.62-3,3.92-.82,12.58-5.77,281.26-5.38,285.75.52,5.91,2.61,6.22,4.25,5.51a8.83,8.83,0,0,0,2.63-1.71,39.9,39.9,0,0,0,4.24-4.68c44.22-59.71,88.65-85.21,128.05-86.23,23.68-.61,39.13,9.62,47.35,19.31,13.82,16.46,30.57,54.21,34.17,114.37H732.06C727.75,400.64,679.52,304,540.5,297.39c-29.12-1.37-98.62.5-167.29,65.11-7,6.63-8.67,6.65-9.65,5.34C355.85,357.56,361,269.56,368.38,255ZM836.75,551.37h6.32V459.52h-6.32Zm-25,0-33-40.27a74.17,74.17,0,0,0,8.78-.5,28.87,28.87,0,0,0,8.5-2.47,26.81,26.81,0,0,0,11-8.83,22.89,22.89,0,0,0,2.46-23.53,26,26,0,0,0-6.25-8.33,29.6,29.6,0,0,0-9.83-5.87,34.94,34.94,0,0,0-12.08-2.05H749.38v91.85h6.32V465.88h25.57a27.15,27.15,0,0,1,12.64,2.83,21.82,21.82,0,0,1,8.43,7.27,16.78,16.78,0,0,1,2.94,9.4,16.26,16.26,0,0,1-3.51,10.1,22.6,22.6,0,0,1-8.28,6.86Q787,505,776.63,505H765.39l37.93,46.35Zm-98.19-23.32,10.26,23.32h6.88l-40.59-93-43,93h7L665,528.05Zm-2.8-6.35H667.92l21.91-47.63Zm-114.62-15,34.28-47.2h-8l-53.23,73.62V459.52h-6.32v93.41l29.49-40.7,32.73,39.14h8.43Zm-90,0,34.27-47.2h-8l-53.23,73.62V459.52h-6.32v93.41l29.5-40.7L535,551.37h8.43Zm-56.18,44.65v-6.64H397.11v-36h41.16v-6.5H397.11V466h52.82v-6.5H390.79v91.85Zm-82,0v-6.64H315.09v-36h41.15v-6.5H315.09V466H367.9v-6.5H308.77v91.85ZM205.75,459.52V466h36.46v85.35h6.51V466H285v-6.5Z" transform="translate(-102.98 -87.31)"/></g></svg>