<?xml version="1.0" encoding="UTF-8" standalone="no"?>
<!DOCTYPE svg PUBLIC "-//W3C//DTD SVG 1.1//EN" "http://www.w3.org/Graphics/SVG/1.1/DTD/svg11.dtd">
<svg width="100%" height="100%" viewBox="0 0 451 301" version="1.1" xmlns="http://www.w3.org/2000/svg" xmlns:xlink="http://www.w3.org/1999/xlink" xml:space="preserve" xmlns:serif="http://www.serif.com/" style="fill-rule:evenodd;clip-rule:evenodd;stroke-linejoin:round;stroke-miterlimit:2;">
    <g transform="matrix(1,0,0,1,-69.9963,-270.826)">
        <g id="Layer-1" serif:id="Layer 1">
            <g transform="matrix(1,0,0,1,491.733,377.511)">
                <path d="M0,100.23C-0.811,100.942 -1.709,101.61 -2.673,102.081C-8.73,105.046 -14.796,105.018 -20.744,101.807C-23.602,100.264 -25.646,97.966 -26.517,94.308C-25.523,93.822 -24.8,93.469 -24.009,93.082C-22.126,98.709 -17.908,100.764 -12.558,101.125C-9.358,101.341 -6.283,100.88 -3.52,99.101C-1.062,97.518 0.827,95.491 0.662,92.365C0.489,89.118 -1.576,87.04 -4.37,85.823C-6.114,85.064 -8.063,84.736 -9.948,84.349C-11.72,83.985 -13.532,83.824 -15.319,83.528C-18.11,83.065 -20.674,82.054 -22.852,80.204C-27.843,75.966 -27.941,69.404 -23.072,65.048C-21.046,63.236 -18.659,62.105 -16.015,61.522C-11.242,60.47 -6.644,60.866 -2.33,63.305C-0.069,64.584 1.765,66.308 2.837,68.72C3.073,69.251 3.141,69.87 3.212,70.457C3.236,70.656 3.086,70.964 2.917,71.081C2.439,71.414 1.909,71.673 1.47,71.922C1.13,71.717 0.808,71.639 0.751,71.472C-0.686,67.23 -3.935,65.162 -8.055,64.266C-11.185,63.585 -14.315,63.798 -17.326,64.967C-19.272,65.722 -20.967,66.867 -22.255,68.542C-24.068,70.897 -24.189,73.474 -22.585,75.946C-20.825,78.659 -18.221,80.051 -15.107,80.566C-13.2,80.882 -11.274,81.077 -9.366,81.389C-7.938,81.622 -6.504,81.877 -5.111,82.263C-3.103,82.82 -1.344,83.877 0.186,85.3C4.861,89.649 4.798,96.017 0,100.23M-32.096,155.139C-34.87,150.582 -36.774,145.65 -38.048,140.485C-39.434,134.864 -40.328,129.163 -40.371,123.356C-40.379,122.208 -40.274,121.059 -40.221,119.911C-38.447,132.488 -35.614,144.722 -30.546,156.453C-31.693,156.546 -31.796,155.633 -32.096,155.139M-57.98,103.224C-64.193,101.073 -67.888,96.573 -68.772,89.949C-68.899,88.994 -68.958,88.024 -68.96,87.061C-68.976,79.454 -68.975,71.847 -68.964,64.239C-68.963,63.528 -68.86,62.817 -68.786,61.87C-67.948,61.825 -67.185,61.784 -66.507,61.748C-65.789,63.083 -66.016,64.314 -66.012,65.503C-65.991,72.265 -66.007,79.027 -65.996,85.789C-65.994,86.995 -65.992,88.208 -65.868,89.405C-65.21,95.74 -60.159,100.597 -53.994,101.078C-46.794,101.64 -41.356,96.602 -40.238,91.211C-39.898,89.571 -39.735,87.869 -39.721,86.193C-39.665,79.311 -39.704,72.428 -39.69,65.546C-39.688,64.358 -39.603,63.17 -39.54,61.581C-38.427,61.704 -37.756,61.778 -36.962,61.865C-36.886,62.631 -36.778,63.216 -36.777,63.8C-36.767,71.77 -36.734,79.739 -36.787,87.708C-36.818,92.24 -38.313,96.234 -41.63,99.429C-46.318,103.944 -51.865,105.342 -57.98,103.224M-42.529,-34.374C-41.267,-33.858 -41.147,-32.963 -41.065,-32.108C-40.821,-29.584 -40.443,-27.054 -40.448,-24.527C-40.48,-9.907 -40.555,4.713 -40.723,19.331C-40.806,26.578 -41.117,33.823 -41.325,41.068C-41.413,41.073 -41.502,41.078 -41.59,41.084C-41.657,36.736 -41.775,32.389 -41.783,28.042C-41.813,12.212 -41.779,-3.618 -41.831,-19.448C-41.847,-24.383 -41.406,-29.336 -42.529,-34.374M-36.41,-47.667C-35.175,-47.667 -34.053,-47.666 -33.004,-47.647C-32.971,-47.652 -32.938,-47.664 -32.904,-47.667C-32.397,-47.712 -31.84,-47.682 -31.243,-47.588C-28.584,-47.456 -26.366,-47.093 -23.96,-46.108C-17.279,-43.635 -12.782,-38.814 -10.146,-32.033C-10.037,-31.755 -10.021,-31.441 -10.023,-31.12C-9.876,-30.768 -9.73,-30.413 -9.588,-30.052C-9.374,-29.87 -9.318,-29.645 -9.339,-29.399C-7.656,-24.973 -6.31,-19.954 -5.238,-14.791C-5.21,-14.869 -5.143,-14.942 -5.094,-15.017C-5.062,-14.911 -4.997,-14.801 -5.009,-14.7C-5.02,-14.61 -5.107,-14.529 -5.165,-14.445C-4.942,-13.358 -4.732,-12.266 -4.533,-11.172L-4.533,-11.238C-4.457,-11.243 -4.382,-11.248 -4.307,-11.253C-4.286,-10.922 -4.265,-10.592 -4.244,-10.261C-4.287,-10.269 -4.329,-10.277 -4.372,-10.284C-4.193,-9.272 -4.024,-8.259 -3.864,-7.25C-3.754,-7.264 -3.643,-7.278 -3.533,-7.292L-3.533,-5.53C-3.555,-5.528 -3.576,-5.525 -3.598,-5.523C-3.397,-4.175 -3.211,-2.836 -3.04,-1.515L-3.04,-2.439C-2.987,-2.436 -2.933,-2.433 -2.88,-2.43L-2.88,-0.505C-2.891,-0.506 -2.902,-0.507 -2.913,-0.507C-2.262,4.731 -1.839,9.664 -1.572,13.782C-1.498,14.332 -1.426,14.878 -1.351,15.439C-1.351,16.279 -1.349,17.037 -1.346,17.759C-0.933,26.33 -1.3,28.865 -1.346,17.759C-1.404,16.546 -1.479,15.214 -1.572,13.782C-5.32,-14.43 -7.062,-29.618 -15.375,-37.149C-18.067,-39.841 -20.649,-42.027 -23.028,-43.698C-23.504,-44.025 -23.991,-44.347 -24.48,-44.668C-27.067,-46.312 -29.367,-47.292 -31.243,-47.588C-31.808,-47.616 -32.393,-47.636 -33.004,-47.647C-33.269,-47.604 -33.535,-47.491 -33.796,-47.325C-33.778,-47.325 -33.763,-47.323 -33.745,-47.323C-34.672,-46.068 -35.365,-45.131 -36.035,-44.224L-36.375,-44.224C-36.396,-44.187 -36.41,-44.161 -36.41,-44.161L-57.445,-44.161C-43.577,-44.161 -36.41,-44.161 -36.41,-47.667M-2.193,3.376C-2.178,3.486 -2.14,3.598 -2.154,3.704C-2.166,3.797 -2.237,3.882 -2.282,3.971C-2.297,3.862 -2.335,3.749 -2.321,3.643C-2.308,3.55 -2.238,3.465 -2.193,3.376M27.499,191.252C21.282,187.883 16.585,182.921 12.727,177.101C8.894,171.32 6.964,165.065 6.984,157.999C7.131,107.473 7.118,56.946 7.147,6.419C7.15,1.22 6.963,-3.968 6.144,-9.121C4.745,-17.925 2.1,-26.275 -2.706,-33.85C-6.117,-39.227 -10.388,-43.801 -15.759,-47.255C-20.683,-50.421 -26.002,-52.1 -31.943,-50.987C-32.504,-50.882 -33.084,-50.878 -33.937,-50.801C-33.765,-51.653 -33.687,-52.215 -33.534,-52.757C-33.175,-54.032 -32.633,-55.274 -32.426,-56.57C-31.844,-60.219 -32.893,-63.522 -34.944,-66.512C-37.79,-70.662 -41.383,-74.073 -45.784,-76.497C-51.283,-79.526 -56.837,-82.469 -62.474,-85.231C-75.73,-91.729 -89.865,-94.518 -104.548,-94.652C-110.986,-94.71 -117.352,-93.873 -123.425,-91.641C-140.188,-85.482 -155.264,-76.54 -168.099,-64.024C-182.831,-49.656 -193.124,-32.501 -199.836,-13.124C-200.102,-12.354 -200.281,-11.553 -200.55,-10.589C-199.663,-10.326 -199.005,-10.098 -198.33,-9.938C-189.117,-7.754 -180.271,-4.601 -172.013,0.08C-152.56,11.109 -139.744,27.391 -133.612,48.885C-132.688,52.126 -132.207,55.493 -131.485,58.794C-131.389,59.233 -131.082,59.626 -130.808,60.169C-129.825,60.107 -128.91,60.048 -127.964,59.988C-127.449,58.518 -127.61,57.182 -127.613,55.874C-127.697,22.996 -127.796,-9.882 -127.88,-42.76C-127.9,-50.75 -127.41,-58.703 -125.93,-66.571C-124.8,-72.579 -122.743,-78.208 -119.106,-83.191C-116.275,-87.07 -112.482,-89.44 -107.84,-90.575C-104.986,-91.272 -102.102,-91.344 -99.196,-91.286C-92.739,-91.158 -87.196,-88.836 -82.547,-84.363C-79.916,-81.832 -77.729,-78.951 -75.844,-75.836C-70.528,-67.051 -67.364,-57.445 -65.059,-47.512C-64.741,-46.143 -64.878,-44.885 -65.719,-43.721C-66.142,-43.134 -66.475,-42.48 -66.912,-41.905C-69.703,-38.236 -70.967,-34.019 -71.607,-29.515C-72.443,-23.631 -72.644,-17.709 -72.659,-11.794C-72.753,24.227 -72.908,60.249 -72.081,96.264C-71.956,101.701 -71.841,107.14 -71.536,112.568C-71.086,120.567 -69.593,128.396 -67.014,135.984C-63.531,146.23 -58.184,155.334 -49.935,162.49C-41.612,169.71 -32.74,176.197 -23.192,181.728C-16.378,185.675 -9.291,189.014 -1.738,191.308C7.309,194.055 16.479,194.94 25.817,193.06C26.682,192.886 27.507,192.505 28.565,192.148C28.032,191.694 27.798,191.414 27.499,191.252" style="fill:white;fill-rule:nonzero;"/>
            </g>
            <g>
                <g transform="matrix(1,0,0,1,114.84,481.151)">
                    <path d="M39.888,-42.158L39.888,-39.175L23.22,-39.175L23.22,0L20.236,0L20.236,-39.175L3.502,-39.175L3.502,-42.158L39.888,-42.158Z" style="fill:white;fill-rule:nonzero;"/>
                </g>
                <g transform="matrix(1,0,0,1,157.712,481.151)">
                    <path d="M33.208,0L33.208,-3.048L8.821,-3.048L8.821,-19.587L27.825,-19.587L27.825,-22.571L8.821,-22.571L8.821,-39.175L33.208,-39.175L33.208,-42.158L5.902,-42.158L5.902,0L33.208,0Z" style="fill:white;fill-rule:nonzero;"/>
                    <path d="M71.604,0L71.604,-3.048L47.217,-3.048L47.217,-19.587L66.221,-19.587L66.221,-22.571L47.217,-22.571L47.217,-39.175L71.604,-39.175L71.604,-42.158L44.299,-42.158L44.299,0L71.604,0Z" style="fill:white;fill-rule:nonzero;"/>
                    <path d="M115.319,0L111.428,0L96.316,-17.966L82.695,0.713L82.695,-42.158L85.614,-42.158L85.614,-8.367L110.195,-42.158L113.892,-42.158L98.067,-20.495L115.319,0Z" style="fill:white;fill-rule:nonzero;"/>
                    <path d="M157.413,0L153.521,0L138.409,-17.966L124.789,0.713L124.789,-42.158L127.707,-42.158L127.707,-8.367L152.289,-42.158L155.986,-42.158L140.16,-20.495L157.413,0Z" style="fill:white;fill-rule:nonzero;"/>
                    <path d="M172.46,-10.702L167.466,0L164.223,0L184.07,-42.677L202.814,0L199.636,0L194.901,-10.702L172.46,-10.702ZM183.94,-35.478L173.822,-13.62L193.604,-13.62L183.94,-35.478Z" style="fill:white;fill-rule:nonzero;"/>
                    <path d="M236.865,0L219.353,-21.274L224.542,-21.274C227.742,-21.274 230.336,-21.685 232.325,-22.506C233.795,-23.198 235.071,-24.246 236.152,-25.652C237.233,-27.057 237.773,-28.603 237.773,-30.289C237.773,-31.803 237.319,-33.24 236.411,-34.602C235.503,-35.964 234.206,-37.078 232.52,-37.943C230.833,-38.807 228.887,-39.24 226.682,-39.24L214.878,-39.24L214.878,0L211.959,0L211.959,-42.158L226.682,-42.158C228.671,-42.158 230.531,-41.845 232.26,-41.218C233.99,-40.591 235.503,-39.694 236.8,-38.526C238.054,-37.402 239.016,-36.126 239.686,-34.7C240.357,-33.273 240.692,-31.803 240.692,-30.289C240.692,-27.911 239.978,-25.781 238.551,-23.901C237.125,-22.02 235.438,-20.668 233.492,-19.847C232.152,-19.242 230.844,-18.863 229.568,-18.712C228.293,-18.56 226.942,-18.485 225.515,-18.485L240.757,0L236.865,0Z" style="fill:white;fill-rule:nonzero;"/>
                    <rect x="252.82" y="-42.158" width="2.919" height="42.158" style="fill:white;fill-rule:nonzero;"/>
                </g>
            </g>
            <g transform="matrix(1,0,0,1,184.392,290.392)">
                <path d="M0,128.104C-0.219,127.394 -0.554,126.741 -0.606,126.066C-0.867,122.695 -1.214,119.319 -1.238,115.943C-1.369,97.686 -0.845,79.44 0.26,61.22C1.518,40.458 1.991,19.682 1.995,-1.111C1.995,-2.546 2.047,-3.981 2.078,-5.582C3.06,-5.803 3.846,-6.113 4.639,-6.134C7.94,-6.222 11.147,-5.69 14.164,-4.3C16.502,-3.222 18.938,-2.789 21.504,-2.569C30.291,-1.814 39.055,-0.792 47.843,-0.049C55.79,0.623 63.753,1.103 71.714,1.593C79.072,2.047 86.432,2.526 93.799,2.763C99.833,2.958 105.878,2.831 111.918,2.809C113.971,2.802 116.024,2.664 118.077,2.617C124.648,2.468 130.315,0.267 134.949,-4.524C138.266,-7.953 140.754,-11.924 143.029,-16.067C143.711,-17.308 144.174,-18.746 145.876,-19.566C146.064,-18.922 146.359,-18.407 146.341,-17.903C145.816,-3.281 141.595,10.111 133.045,22.078C123.706,35.15 111.324,44.282 96.536,50.255C84.647,55.058 72.264,57.428 59.43,57.56C50.447,57.652 41.589,56.674 32.777,55.012C25.877,53.711 18.905,53.144 11.876,53.02C8.558,52.961 6.658,54.481 5.493,57.315C4.007,60.928 3.36,64.742 3.026,68.602C2.106,79.217 2.326,89.86 2.473,100.492C2.508,102.991 3.231,105.492 3.752,107.968C4.03,109.285 5.024,109.732 6.22,109.136C7.072,108.711 7.867,108.132 8.598,107.516C11.74,104.868 14.804,102.126 17.981,99.52C21.998,96.226 26.064,92.99 30.168,89.805C33.729,87.042 37.721,85.094 41.996,83.636C57.508,78.348 73.43,76.165 89.794,76.963C102.974,77.606 115.635,80.415 127.64,85.905C146.834,94.681 160.693,108.682 168.697,128.318C170.896,133.713 172.31,139.327 173.293,145.056C173.392,145.632 173.306,146.239 173.306,146.85C172.02,147.67 170.656,147.315 169.374,147.318C157.045,147.35 144.716,147.337 132.386,147.337L101.714,147.337C100.648,145.948 100.96,144.565 100.883,143.285C100.335,134.209 98.974,125.269 96.438,116.528C94.124,108.549 90.609,101.188 85.156,94.83C81.833,90.955 77.752,88.247 72.823,86.965C70.502,86.362 68.09,85.935 65.698,85.803C54.935,85.209 44.838,87.504 35.467,92.952C30.234,95.993 25.199,99.307 20.35,102.924C17.896,104.756 15.803,106.899 14.097,109.421C12.066,112.423 10.105,115.472 8.071,118.472C6.309,121.071 4.516,123.651 2.676,126.195C2.065,127.039 1.415,127.957 0,128.104" style="fill:white;fill-rule:nonzero;"/>
            </g>
            <g transform="matrix(1,0,0,1,159.426,435.779)">
                <path d="M0,-154.912C8.273,-156.362 18.497,-156.863 22.003,-155.986C22.077,-155.34 22.231,-154.64 22.229,-153.94C22.155,-123.612 22.108,-93.283 21.96,-62.955C21.906,-51.841 21.565,-40.728 21.446,-29.614C21.414,-26.602 21.725,-23.587 21.86,-20.572C21.913,-19.366 21.961,-18.157 21.935,-16.951C21.817,-11.515 21.679,-6.079 21.528,-0.644C21.508,0.063 21.374,0.767 21.274,1.64C20.384,1.749 19.575,1.934 18.765,1.935C-0.569,1.951 -19.902,1.95 -39.236,1.94C-40.062,1.94 -40.887,1.825 -41.609,1.771C-42.582,0.579 -42.243,-0.68 -42.255,-1.847C-42.341,-10.305 -42.291,-18.765 -42.456,-27.221C-42.868,-48.362 -43.384,-69.5 -43.81,-90.64C-43.841,-92.193 -44.24,-93.469 -45.3,-94.567C-46.139,-95.435 -46.965,-96.316 -47.803,-97.185C-50.104,-99.571 -52.796,-100.611 -56.221,-100.543C-65.522,-100.358 -74.829,-100.478 -84.133,-100.489C-85.806,-100.491 -87.497,-100.421 -89.315,-101.099C-89.356,-102.094 -89.475,-103.033 -89.412,-103.958C-89.347,-104.903 -88.744,-105.484 -87.779,-105.607C-86.94,-105.714 -86.101,-105.828 -85.258,-105.882C-76.212,-106.467 -67.215,-107.481 -58.261,-108.884C-50.347,-110.124 -42.699,-112.306 -35.425,-115.67C-25.104,-120.443 -16.764,-127.623 -10.154,-136.841C-6.906,-141.37 -4.202,-146.218 -1.797,-151.238C-1.225,-152.433 -0.633,-153.619 0,-154.912" style="fill:white;fill-rule:nonzero;"/>
            </g>
        </g>
    </g>
</svg>
