<svg xmlns="http://www.w3.org/2000/svg" viewBox="0 0 1211 1930" fill-rule="evenodd" stroke-miterlimit="10" xmlns:v="https://vecta.io/nano"><style><![CDATA[.B{fill:#a5c0e4}.C{fill-rule:nonzero}]]></style><g transform="matrix(4.16667 0 0 4.16667 -622.55 -559.859)"><path d="M228.534 139.392l-36.132 104.529-36.888 108.557v239.981h278.253v-242.05l-71.373-211.017h-133.86z" fill="#030405" class="C"/><g transform="translate(155.514 149.735)"><clipPath id="A"><path d="M73.193-10.842L-.5 202.351v240.873h279.254l-.5-242.55-71.373-211.516H73.193z"/></clipPath><g clip-path="url(#A)"><path d="M0 442.724V202.743L72.408-10.344H206.88l71.373 211.017v242.051H0z" fill="none" stroke="#99b7e0"/></g></g><g transform="translate(164.487 163.686)"><clipPath id="B"><path d="M59.516-11.184L-1.501 165.337v250.598h263.475V165.068L202.5-11.184H59.516z"/></clipPath><g clip-path="url(#B)"><path d="M0 414.436V189.787L67.781-9.684h125.881l66.812 197.534v226.586H0z" fill="none" stroke="#99b7e0" stroke-width="3"/></g></g><g class="B C"><path d="M388.072 406.502l.123-.199-.199-.024.076.223zm-172.609 32.676l-.115.195.18.022-.065-.217zm29.45 19.961l.122-.203-.194-.024.072.227zm23.019-1.573l.2.137.025-.226-.225.089zm-30.582-8.375l-.179-.128-.026.207.205-.079zm-22.373-11.392l-.252-.59c-.076.076-.231.174-.218.23.046.198.149.381.23.569l.24-.209m154.427-34.76l-.225-.254c-.089.188-.203.367-.255.565-.016.059.134.165.209.25l.271-.561m-154.447-73.36l-.204-.566c-.08.074-.233.159-.225.217.031.194.123.38.189.568l.24-.219m11.165 165.188c.068-.414.163-.732.148-1.047-.006-.14-.235-.271-.363-.408-.085.313-.217.621-.235.936-.007.133.231.277.45.519m-9.21-53.572l-.756-.627c-.068.084-.212.211-.192.248a4.09 4.09 0 0 0 .48.69c.014.015.264-.174.468-.311m175.955-2.277c-.363.599-.65.933-.752 1.316-.041.148.334.408.519.619.233-.316.534-.609.663-.963.062-.174-.194-.465-.43-.972m.201-9.811c-.408.471-.769.754-.928 1.121-.086.197.182.545.289.824.289-.263.67-.484.83-.812.112-.225-.085-.6-.191-1.133m-37.662 7.18c-.16.148-.465.355-.436.418l2.057 4.59c.162-.092.477-.233.465-.268l-1.541-4.49c-.053-.141-.377-.178-.545-.25m12.68-.645c-.368.865-.727 1.301-.625 1.543l1.968 4.252c.022.043.211.008.321.008l-.934-4.135c-.094-.39-.32-.748-.73-1.668m-41.965.35c-.387.404-.785.646-.76.83.094.658.242 1.338.531 1.934.461.951 1.051 1.841 1.588 2.757 1.51-1.185-.209-2.22-.221-3.345-.005-.67-.669-1.332-1.138-2.176m23.601-.035c-.191.496-.476.865-.386 1.052l2.607 5.112c.012.019.283-.074.283-.076l-1.367-5.184c-.103-.338-.654-.537-1.137-.904m5.375 4.908l-1.789-4.736c-.093-.233-.547-.489-.775-.444-.217.041-.566.551-.502.709l2.166 4.975c.057.123.436.185.621.131.119-.035.158-.34.279-.635m4.272-54.246l-2.19-3.819c-.226-.335-.935-.345-1.421-.505-.075.434-.334.944-.192 1.287.537 1.277 1.176 2.516 1.846 3.73.189.346.615.56.933.832l1.024-1.525m-48.318 55.179c-.094-.335-.09-.675-.223-.746-1.602-.834-1.779-2.574-2.596-3.91-.254-.416-.877-.607-1.334-.902.016.582-.062 1.183.063 1.738.228 1.006.564 1.987.881 2.969.39 1.225 1.322 1.537 2.47 1.336.28-.049.516-.332.739-.485m-71.966-18.279l5.405-1.892c.159-.059.302-.366.307-.561.004-.127-.24-.351-.398-.379-1.467-.234-2.967-.693-4.393-.523-.592.07-1.08 1.474-1.484 2.334-.094.199.347.648.563 1.021m19.081-34.265c-.332.387-.652.608-.751.902-.6 1.774 1.769 8.739 3.253 9.603.139.081.467.067.544-.033.125-.158.203-.45.146-.64l-2.726-8.957c-.083-.269-.266-.507-.466-.875m102.541-10.56l4.207-1.2-1.561-3.786c-.218-.493-.556-.94-.886-1.372s-.715-.809-1.077-1.21c-.029.542-.107 1.085-.078 1.623.067 1.249.391 2.533.158 3.716-.072.37-1.597.422-2.425.713-.112.039-.151.847-.008.93.474.275 1.047.384 1.67.586m-45.539 57.378l-1.739 1.383c.342.332.752.619 1.01 1.008.377.566.651 1.203.961 1.814.527 1.037 2.914 2.314 3.078 1.795a4.47 4.47 0 0 0-.117-2.82c-.521-1.295-.727-3.045-3.193-3.18M280.8 405.229c-1.175-.243-1.911-.539-2.017-.389-.488.687-.882 1.478-1.11 2.289-.049.176.833.92 1.111.836 3.068-.951 6.109-1.99 9.129-3.084.31-.111.435-.733.646-1.117-.49 0-1-.086-1.47.015l-6.289 1.45m58.069 36.507c-.791-1.806-1.221-3.302-2.07-4.502-.44-.621-1.61-.923-2.479-.992-1.631-.129-2.387 1.088-1.383 2.426 1.059 1.41 2.487 2.576 3.901 3.658.308.237 1.24-.342 2.031-.59m32.873-52.753c.494-.228.639-.248.695-.329l5.338-7.679c-.375-.222-.844-.714-1.109-.622-2.871 1.006-3.811 3.932-5.631 5.978-.328.369.43 1.702.707 2.652m1.148 46.263c-.88.885-1.783 1.481-2.201 2.317-.271.544-.103 1.828.317 2.111 1.582 1.058 3.341 1.855 5.066 2.683.062.03.758-.791.668-.99a53.99 53.99 0 0 0-2.356-4.496c-.316-.543-.861-.951-1.494-1.625m-91.54.94c-.263.211-1.324.634-1.488 1.287-.258 1.029-.307 2.871.248 3.197 1.519.896 3.379 1.289 5.154 1.621.327.061 1.217-1.059 1.269-1.682.142-1.693-2.8-4.421-5.183-4.423m79.267-.86c-.766.526-1.742.883-2.154 1.574-.338.569-.323 1.93.084 2.252 1.308 1.043 2.793 1.983 4.355 2.557 1.641.604 1.947-1.285 2.733-2.113 1.371-1.444 1.248-1.463-.866-2.254-1.381-.52-2.668-1.283-4.152-2.016m45.853-42.549l-.494-.215c0-.695.137-1.424-.029-2.077-.279-1.085-.75-2.12-1.141-3.176-.554.892-1.257 1.727-1.632 2.692-.579 1.488-1.178 3.044-1.309 4.609-.131 1.556.279 3.163.543 4.732.023.135 1.043.296 1.084.207 1.035-2.238 2.002-4.507 2.978-6.772m-144.577-2.978c-.011.021-.1.511-.276.545-2.753.522-1.189 2.18-.847 3.393.402 1.432.922 2.853 1.592 4.176.392.777.918 3.592 2.018.25.067-.203.804-.39 1.117-.277 1.715.623 1.488-.186 1.031-1.28-1.016-2.436-2.149-4.838-2.944-7.346-.347-1.098-.728-1.813-1.792-1.444-1.479.514.15 1.097.101 1.983m36.681 50.566c-.296-3.215-1.806-4.244-5.075-4.031-.897.057-1.774.488-2.672.527-1.061.045-2.133-.146-3.202-.236l1.256 3.172c.223.533.379 1.232.797 1.518.666.458 1.778 1.103 2.256.843 1.496-.808 2.678-.717 4.183.018 1.448.707 2.434-.178 2.457-1.811m-74.351 63.01h-.031c0-1.51-.057-3.021.015-4.527.077-1.594-1.183-2.336-2.146-2.047-1.248.373-2.951.965-2.746 2.978.246 2.405.537 4.807.685 7.215.104 1.676.992 2.131 2.499 2.162 1.754.037 1.761-1.058 1.73-2.299-.03-1.16-.006-2.322-.006-3.482m3.84-20.391c-1.471.071-2.408.418-3.278 1.737-1.117 1.689-2.771 3.019-4.083 4.595-.231.28.117 1.469.138 1.467 2.301-.176 1.928 1.436 1.969 2.817.01.379.263.752.404 1.127.309-.307.838-.584.889-.928.344-2.367 1.818-3.631 3.926-4.438.627-.24 1.139-.795 1.693-1.22 1.514-1.168.875-2.793.618-4.162-.085-.457-1.479-.67-2.276-.995m94.027-81.185v-.017c.701 0 1.406.035 2.101-.023.174-.016.49-.444.455-.5-1.703-2.706-.449-5.657-.679-8.477-.1-1.232.841-3.007.289-3.633-.719-.814-2.465-.701-3.75-1.051-.555-.153-1.067-.467-1.598-.707-.885-.4-1.34-.063-1.361.854-.047 2.028.101 3.932 2.132 5.178.733.449 1.258 1.308 1.754 2.06 1.438 2.175 1.227 2.812-1.05 4.279-.499.321-.793.956-1.182 1.446.496.196.976.461 1.49.57.447.098.932.021 1.399.021m39.818-14.769c3.019.058 4.725-1.139 5.182-3.691.345-1.936 1.826-3.939.082-5.926l-1.002-1.105-.035 1.319-.047 1.501c-2.409-.126-4.602 2.401-7.174.573-.262-.185-1.026-.123-1.156.08-.202.313-.207.928-.028 1.275.854 1.643 1.729 3.282 2.74 4.828.391.596 1.166.939 1.438 1.146m24.758-40.262c7.201.296 10.873 4.475 13.732 9.55 1.387 2.457 1.76 5.126.947 8.055-.541 1.958-.263 4.161-.218 6.251.009.435.609.857.937 1.284.137-.395.319-.782.401-1.188.222-1.126.255-2.314.632-3.383 1.356-3.852.815-7.664-.757-11.168-2.95-6.57-7.063-11.125-15.674-9.401m-47.664 54.787l.033.233 3.139.008c1.156.034 2.119-.108 2.076-1.611-.041-1.373.273-2.943-1.713-3.257-1.817-.289-3.643-.706-5.465-.707-1.963-.002-3.684-.193-4.914-1.919-.18-.25-.563-.356-.85-.528-.129.378-.349.752-.371 1.136-.072 1.41.291 2.385 1.975 2.715 1.437.28 2.791 1.033 4.15 1.646.25.113.354.551.524.84-.323.098-.715.365-.957.265-1.151-.477-2.235-1.113-3.393-1.566-.592-.233-1.537-.494-1.871-.209-.404.342-.473 1.258-.43 1.91.114 1.665 1.049 2.189 2.977 1.858l5.09-.814m13.935-3.92h.584c1.217-.019 2.588.04 2.307 1.679-.088.505.094 3.727-2.283 1.327-.032-.032-.854.566-1.127.987-.2.308-.102.808-.135 1.222.426-.034.855-.12 1.279-.09 1.354.094 2.703.228 4.057.353.947.088 2.084.279 1.896-1.194-.259-2.053-.748-4.075-1.093-6.117-.248-1.452-.791-1.916-2.381-1.404-3.067.99-6.231 1.672-9.34 2.535-.352.096-.834.497-.871.803-.174 1.435-.258 2.884-.268 4.329-.002.362.338.98.621 1.045 2.053.483 2.811.032 3.557-2.562.531-1.855 1.029-3.414 3.197-2.913m31.393-47.465l-2.856 2.759c.827.844 1.532 2.21 2.504 2.441 4.69 1.112 8.237 3.024 8.026 8.643-.053 1.408.98 1.479 1.916.915 1.013-.613 1.841-1.443 1.369-2.866-.58-1.745-1.162-3.492-1.635-5.266-1.244-4.675-6.025-4.123-9.324-6.626m-85.216 188.275c-.268-.199-.717-.492-1.115-.841-1.645-1.448-3.725-2.649-4.785-4.448-1.098-1.867-2.475-2.529-4.311-2.933-1.014-.225-2.025-.483-3.012-.803-2.72-.891-3.734-.623-5.232 1.68-.409.629-.506 1.461-.747 2.201.778.021 1.569.139 2.323.023.359-.052.627-.767.978-.808 1.383-.155 2.95-.752 3.559 1.388.187.662.97 1.157 1.481 1.727.881-1.32 1.166-.192 1.843.305 1.859 1.365 3.834 2.587 5.838 3.738 1.359.779 3.149.183 3.18-1.229m-81.088-231.412c4.617.028 5.182-.921 3.101-4.859-.966-1.828-1.929-3.683-3.13-5.358-.827-1.15-2.059-2.01-3.11-3-.859 1.338-1.902 2.602-2.492 4.05-.281.689.187 1.777.519 2.603.565 1.399 1.676 2.682 1.86 4.105.309 2.407 1.545 2.825 3.252 2.459m137.148 189.231l.033.265 1.752.002c5.773.012 6.158-.453 5.513-6.174-.164-1.468-.709-1.777-2.054-1.265-1.178.445-2.524 1.133-3.629.906-1.389-.285-2.03-.168-2.848 1.024-.601.876-1.732 1.584-2.769 1.916-1.522.484-3.188.494-4.754.859-.547.129-1.393.725-1.383 1.092.014.699.367 1.664.906 2.006.598.378 1.568.3 2.358.22 2.296-.23 4.584-.56 6.875-.851m-9.51-37.188l.123-.011-.817-12.807c-.062-1.158-.484-1.721-1.669-1.668a36.82 36.82 0 0 1-2.442.004c-1.287-.039-1.576.715-1.461 1.797l1.352 12.369c.234 2.176.568 4.347.658 6.529.07 1.803.855 2.449 2.594 2.44 1.806-.01 1.672-1.18 1.666-2.372l-.004-6.281m-107.107 99.17c1.42.246 2.066-.519 1.808-1.984-.157-.895-.49-1.787-.91-2.594-1.198-2.299-2.099-4.631-1.929-7.305.046-.742-.158-1.681-.607-2.242-1.356-1.691-2.862-3.269-4.385-4.814-.195-.2-1.071-.119-1.244.117-1.286 1.756-2.456 3.598-3.699 5.387-.995 1.435-.644 2.636.595 3.662.619.511 1.371.857 1.994 1.365 1.068.871 1.633.75 1.727-.709.021-.322.199-.635.305-.951.263.328.675.621.761.988.391 1.678.703 3.373 1.019 5.066.561 3.01 1.514 3.885 4.565 4.014m-20.429-113.592c-1.051 0-2.112-.091-3.145.047-.391.053-1.025.647-1.012.971.098 2.43.282 4.859.527 7.279l2.016 19.326.784 8.657c.204 2.187.396 4.379.692 6.554.048.358.866.944.892.92 1.806-1.564 4.29-2.74 4.351-5.515.027-1.299-.836-2.592-1.112-3.924-1.666-8.063-3.025-16.156-2.823-24.446.05-2.042.429-3.861 1.367-5.671 2.172-4.186 2.121-4.211-2.537-4.198m59.855-42.254c-.578-.169-1.018-.345-1.475-.422-1.908-.325-3.009-1.63-3.925-3.168-.66-1.107-1.278-1.238-2.526-.522-2.582 1.483-5.027 3.388-8.207 3.547-1.39.068-.74.901-.705 1.712.213 4.748-.178 6.748-4.48 7.418-.791.123-1.61.371-2.296.771-.541.317-1.179.899-1.283 1.455-.465 2.506 1.36 5.127 3.727 6.182 2.203.984 3.981.703 5.773-.826.959-.818 2.073-1.498 3.207-2.059 2.393-1.181 4.874-2.189 7.26-3.386.867-.434 2.118-1.11 2.245-1.84.489-2.797-.534-5.908 2.685-8.862m92.954 97.198l.205-.02-.888-11.799-.719-17.765-.699-19.52c-.201-6.402-.174-6.346-6.596-5.912-1.594.108-2.008.756-1.891 2.164.317 3.813.254 7.694.983 11.422 1.006 5.141 1.213 10.359 2.261 15.529 1.647 8.118 1.684 16.559 2.401 24.864l.73 8.654c.141 1.756 1.299 1.947 2.719 1.922 1.598-.03 1.496-1.114 1.494-2.186v-7.353M269.889 394.729c1.682 1.371 3.526 2.585 5.014 4.143 3.643 3.815 7.752 4.734 12.55 2.547.637-.291 1.233-.707 1.895-.899 1.375-.401 2.09-.054 2.262 1.62.576 5.637 1.402 11.249 1.992 16.883.148 1.418.611 3.038-.852 4.245-3.863 3.185-7.691 6.355-12.777 7.529-1.912.441-3.697 1.434-5.539 2.176.699.449 1.275.449 1.851.449l97.197-.072 1.754-.016c.865-.033 1.436-.447.932-1.307-2.828-4.812-3.5-11.396-10.479-12.845-.549-.114-1.021-.561-1.558-.782-1.373-.566-2.049-1.537-2.649-2.959-1.349-3.195-1.392-6.546-1.801-9.863-.121-.971-.181-1.258-1.4-1.125-3.92.43-7.869.612-11.813.764-.849.033-2.181-.199-2.492-.754-.834-1.493-2.052-1.394-3.31-1.309-2.539.171-5.073.431-7.608.668-2.418.227-4.836.647-7.254.66-2.304.014-4.613-.394-6.921-.593-1.25-.11-1.891-.785-1.997-2.008l-1.419-16.28c-.163-1.732.794-2.526 2.193-3.141 3.494-1.537 7.15-2.014 10.922-1.716 1.992.156 2.894 1.099 2.969 3.118.068 1.869-.059 3.746.021 5.614.092 2.165 2.205 5.038 3.893 5.248 2.529.315 5.082.432 7.613.741 4.609.561 8.558-1.796 12.81-2.812 1.387-.331.686-1.155.356-1.866l-5.281-11.412c-.709-1.603-1.702-2.203-3.487-2.222l-37.802-.578-72.635-.083c-.818-.001-1.665-.118-2.448.051-.618.135-1.432.485-1.69.982-1.577 3.053-3.162 6.114-4.478 9.283l-7.198 18.126-10.738 26.47c-.783 1.944-.352 2.612 1.677 2.635 4.795.053 9.592.078 14.384-.053.88-.025 1.986-.638 2.558-1.336 2.203-2.677 4.328-5.433 6.287-8.296 1.158-1.692 1.586-3.233-1.24-4.325-3.709-1.433-5.988-4.232-6.93-8.119-.383-1.576-.865-3.129-1.287-4.695-1.291-4.798.465-9.492 4.25-10.99 2.254-.895 4.592-1.597 6.928-2.262 1.086-.31 2.332-.647 3.375-.409 3.031.689 5.958 1.853 9 2.462 2.058.412 3.32 1.34 4.184 3.193.746 1.6 3.126 2.45 4.73 1.832.213-.082.435-.738.322-.966-.408-.829-.838-1.708-1.479-2.351-1.882-1.894-2.191-4.199-2.15-6.701.032-1.855.826-3.136 2.488-3.819 1.824-.748 3.69-1.404 5.559-2.037 3.554-1.203 7.047-2.003 9.736 1.764.118.166 1.118-.006 1.131-.102.315-2.275 2.039-1.685 3.497-1.899 2.832-.415 6.062.682 8.165-2.633.983-1.548 2.479-1.109 3.027.771.872 2.991 1.668 6.035 2.102 9.112.564 4-.979 5.009-4.679 3.358-.464-.206-.875-.53-1.309-.801.465-.223.912-.581 1.398-.648 2.876-.4 2.832-.364 2.096-3.146-.414-1.559-.608-3.176-.963-4.753-.138-.607-.451-1.172-.684-1.756-.546.386-1.427.678-1.57 1.18-.263.926-.262 2.009-.064 2.964.338 1.639.597 3.161-1.159 4.591 0-1.296.047-2.34-.009-3.377-.114-2.112-.373-2.284-2.256-1.583-1.199.446-2.348 1.109-3.582 1.355-2.533.501-5.125.837-7.183-1.347-2.129-2.261-2.464-2.253-5.325-1.255-1.199.419-1.561.91-1.043 1.982 1.111 2.312 2.236 4.619 3.45 6.876.222.412.888.586 1.347.87l.517-1.868.106-.093zm-31.641 8.468c-.107-.587.049-1.723-1.013-.69-.535.518-.772 1.343-1.143 2.03-1.085-.012-1.693-.443-.8-1.41 1.326-1.433 2.726-2.824 4.254-4.03.972-.768 2.019-1.371 1.228-2.721-.932-1.591-2.201-.798-3.275-.143-.969.592-1.827 1.368-2.733 2.062l-.039-.039.013-1.392c.106-.041.229-.062.313-.131.049-.04.038-.154.055-.235l-.351.384c-3.172.654-6.207 1.787-6.806 5.366-.666 3.971.334 7.756 2.721 11.088.202.281.395.643.682.781 3.357 1.612 7.069 2.287 10.629 2.823 2.207.332 4.453-.096 6.595 1.193 1.8 1.082 2.94.34 2.961-1.709.008-.766-.207-1.631-.599-2.283-1.322-2.198-1.381-2.192 1.006-3.393 1.349-.68 2.719-1.74 4.119-1.807 2.555-.121 2.541-2.054 3.076-3.58.168-.476-.242-1.531-.678-1.753-.621-.315-1.558-.275-2.263-.064-.452.136-.66.946-1.109 1.274-.253.186-.772.002-1.171-.013.249-1.833-1.906-2.305-2.176-3.65-.334-1.668-.716-2.839-2.634-3.091-1.592-.209-3.141-.847-4.73-.942-.545-.031-1.272.937-1.671 1.597-.144.241.428.913.672 1.388.504-.324.967-.762 1.518-.944.783-.258 1.984-.719 2.361-.379.524.475.451 1.611.635 2.462-1.43.302-.724 2.902-2.719 2.543-.426-.076-.802-.428-1.201-.652.012.566-.211 1.334.073 1.668 1.265 1.488 1.619 3.011.835 4.84-.414.968.069 1.324.994.937.803-.336 1.572-.267 1.454.676-.252 2.019-2.243 2.211-3.645 2.83-1.428.631-2.238-.697-2.498-1.75-.221-.893.008-2.141.513-2.924 1.411-2.187 1.497-2.109-.509-3.476-.299-.204-.685-.754-.598-.969.397-.983 1.969-1.899.65-2.909-.446-.342-1.966.717-2.996 1.137m117.929 49.096l1.596.561c-.029-.487.084-1.047-.125-1.438-.375-.703-.472-1.09-.191-2.037.41-1.387-.315-3.107-.555-4.686-1.932.147-4.1-.203-5.734.571-1.834.867-2.381 3.004-1.909 5.177.69 3.153 1.893 6.329 1.84 9.477-.134 8.16 1.192 16.191 1.534 24.297.08 1.918.552 2.848 2.521 3.465 1.981.621 4.059.42 4.615-1.067.696-1.859.291-4.222.028-6.326-.243-1.947-1.002-3.826-1.385-5.764-.209-1.054-.11-2.169-.149-3.259l-.002.002 1.405.701.486.271-.484-.271c.759-3.244.175-6.09-2.344-8.453-.352-.328-.398-1.065-.416-1.617-.008-.209.637-.661.689-.62 1.549 1.198 1.536-.023 1.313-.947-.402-1.65-1.002-3.256-1.563-4.867-.367-1.055-.806-2.084-1.214-3.125l.044-.045zm-87.028-84.909c-.27 1.45-.28 3.018-.873 4.321-.748 1.644-.105 2.006 1.279 2.21.668.098 1.338.443 1.977.378.378-.04 1.047-.904.99-.988-1.293-1.876-.582-4.925-3.398-5.899-.01-1.832.167-3.694-.1-5.487-.168-1.129-1.006-2.158-1.543-3.232-.631.548-1.246 1.116-1.902 1.63-.149.119-.442.056-.669.075.919-2.356 1.71-4.629.792-7.299-.544-1.582.156-1.836 1.882-1.199 4.544 1.676 5.163 6.108 6.971 9.712l-1.886.849-.535-.276.486.324c2.549 3.137 2.601 3.852 1.869 9.262-.102.759.988 2.181 1.805 2.45 1.34.443 1.283-.945 1.243-1.839-.172-3.815-.279-7.641-.636-11.44-.346-3.672-.969-7.318-1.473-10.976-.267-1.944-.388-3.926-.875-5.813-.236-.918-1.162-1.657-1.775-2.478-.535.681-1.17 1.306-1.579 2.055a18.88 18.88 0 0 0-1.367 3.182c-.671 2.057-2.343 1.596-3.782 1.518-1.464-.078-1.866-1.147-1.846-2.466l.01-5.247c.444.485 1.128.908 1.277 1.471.228.86-.051 1.849.144 2.725.165.742.719 2.01 1.061 1.996 1.501-.059.896-1.137.689-2.011-.154-.655-.462-1.489-.205-1.983.906-1.741.34-3.32-.197-4.946l.088-.088c.453.421 1.193.784 1.297 1.279.211 1.005.051 2.082.101 3.128.014.284.227.561.348.841.258-.21.592-.375.755-.643a1.83 1.83 0 0 0 .239-.998l-.738-10.346c-.012-.154-.659-.428-.936-.358-3.963 1.016-5.799 3.343-5.992 7.511-.016.348-.01.697-.015 1.046-.309.805-.471 1.716-.957 2.395-2.008 2.806-1.323 5.69-.42 8.604l2.834 8.874c.167.482.888.773 1.353 1.153.269 1.581 1.207 3.46.664 4.683-1.067 2.407-.513 4.724-.592 7.073-.022.655.43 1.325.663 1.989.207-.584.534-1.156.601-1.756.229-2.096.693-4.015 2.873-4.966M387 408.768c-.707.754-1.602 1.404-2.082 2.281-.92 1.676-1.438.271-2.106-.131.483-1.768.906-3.555 1.475-5.293.232-.713.574-2.867 1.467-.217.007.026.867-.06.986-.279.437-.809.65-1.742 1.102-2.542.572-1.012.679-3.138 2.236-2.433 1.189.54.055 1.862-.639 2.854-.254.364.738 1.601 1.162 2.439.465-.31 1.106-.519 1.362-.953.463-.785.609-1.755 1.054-2.554.5-.901 1.1-1.785 1.826-2.5.301-.296 1.096-.287 1.571-.127.242.081.457.849.359 1.223-.584 2.236-1.396 4.417-1.871 6.673-.531 2.527-2.084 4.102-4.217 5.244-2.238 1.199-4.492 2.381-6.777 3.488a240 240 0 0 1-8.227 3.805c-1.498.658-2.283 1.32-1.32 3.133 1.418 2.662 2.211 5.713 3.904 8.158 2.313 3.338 1.743 6.893 1.612 10.412-.104 2.772-.705 3.088-3.434 3.129-.934.014-1.871.053-2.801-.008-1.429-.089-2.207.373-2.111 1.963.092 1.516-.02 3.039.053 4.555.107 2.228.531 2.764 2.748 2.553a50.37 50.37 0 0 0 7.828-1.369c1.754-.454 3.408-1.338 5.047-2.151 1.019-.506 1.258-1.275 1.035-2.584-.766-4.453-.654-4.472.277-7.082l.227-.562-.369.422c-1.084.033-1.676-.588-1.178-1.5.648-1.186 1.625-2.2 2.498-3.258.568-.694 1.26-1.293 1.781-2.018.223-.307.151-.826.211-1.248-.412.02-.928-.113-1.215.084-1.134.785-2.175 1.705-3.302 2.506-.311.221-.795.197-1.202.287.032-.416-.099-.971.12-1.225 1.197-1.39 2.353-2.865 3.767-4.011 2.076-1.688 3.447-3.522 3.611-6.36.184-3.211.565-6.463 1.338-9.578 1.026-4.125 2.59-8.111 3.776-12.201.865-2.979.732-3.225-1.967-4.664-2.086-1.112-3.928-2.685-3.818-4.999.154-3.277-.969-5.526-3.608-7.231-.115-.074-.043-.44-.058-.67 3.41.636 4.578 2.156 5.025 5.791.182 1.478 1.018 2.876 1.555 4.31l.646-3.471c.022-.111.096-.211.135-.318.877-2.495.434-4.71-1.268-6.754-.547-.658-.793-1.566-1.175-2.36 1.296-.008 1.304-.845 1.41-1.87.445-4.367 1.013-8.722 1.535-13.081l.746.07-.658 6.778c-.299 4.227-1.35 8.621 2.467 12.027.189.169.091.66.128 1.002-.396.179-1.101.306-1.142.547-.375 2.138-.91 4.311-.815 6.446.051 1.167 1.206 2.299 1.93 3.399.08.121.699.036.922-.139.156-.125.195-.744.068-.833-1.558-1.099-.593-2.367-.49-3.706.149-1.885-.301-3.819-.492-5.732 1.975.127 2.475-.821 1.857-2.566l-1.158-3.248c-.06-.187.08-.44.129-.663.223.125.514.2.654.388.278.37.381.938.727 1.167.273.181 1.164.003 1.168-.057.178-2.664.398-5.579-1.807-7.405-1.775-1.47-2.217-3.056-2.308-5.109-.127-2.887-.369-5.773-.657-8.649-.447-4.443-2.892-7.752-6.203-10.517-1.55-1.296-3.422-1.324-5.302-1.159-.284.025-.698.257-.766.482-.065.209.184.682.408.78.733.324 1.508.709 2.279.744 2.038.09 3.485 1.143 4.793 2.539 2.264 2.418 2.789 5.534 3.385 8.595.303 1.56-.158 2.92-1.377 4.108-.685.668-1.162 1.687-1.42 2.633-1.181 4.332-1.084 8.691-.002 13.039-1.785-.05-1.818-1.507-2.08-2.699-.148-.669-.064-1.395-.039-2.094.061-1.621-.984-1.652-2.097-1.4-1.305.296-1.459 1.308-1.338 2.456l.646 6.549c-1.748.034-2.086-1.084-2.113-2.522-.031-1.621.228-3.369-.291-4.829-.682-1.92.16-2.537 1.611-3.072 2.153-.795 3.447-2.819 2.846-4.88-.272-.926-1.045-1.733-1.684-2.518-.625-.774 1.393-1.396-.099-2.437-.948-.661-1.157-2.382-1.696-3.626l1.094-.321c-.064-.083-.176-.242-.187-.236-.301.184-.592.383-.883.582-.319-.103-.92-.27-.914-.298.42-1.819-.532-2.374-2.131-2.722-1.074-.234-2.34-.748-2.985-1.56-1.402-1.773-1.673.002-1.613.55.395 3.561-.838 6.63-2.486 9.641-.205.372-.08 1.157.197 1.517.936 1.218 2.041 2.308 3.006 3.507.195.247.221 1.002.055 1.111-1.33.869-.631 1.746.172 2.158 2.156 1.107 1.896 2.99 1.802 4.833-.07 1.433.625 3.691-2.381 2.411-.289-.124-1.205.851-1.619 1.46-1.828 2.681-3.674 5.359-5.312 8.156-.67 1.145-1.242 2.617-1.145 3.884.221 2.847.887 5.657 1.479 9.11.631-2.331.773-4.151 1.584-5.593 1.857-3.305 5.73-4.884 7.535-8.32.072-.139.611-.097.904-.025.11.026.25.507.178.582-1.775 1.791-1.885 4.821-4.52 5.984-2.095.925-3.226 2.426-3.146 4.906.055 1.708-.365 3.441-.658 5.15-.244 1.406-.559 2.752-2.518 2.75-.515-.002-1.433.705-1.482 1.16-.303 2.844-1.809.455-2.594.531-1.686.166-.348-1.009-.475-1.587-.213-.975-.502-1.997-1.029-2.827-1.184-1.857-1.396-4.343-.307-6.077l1.852-2.912c.867 1.19-.617 2.945 1.225 3.644.031-1.321.171-2.651.052-3.957-.093-1.039-.507-2.049-.781-3.073-.601.958-1.135 1.973-1.836 2.852-.428.534-.488 2.389-1.771.981-.735-.806-3.508-.727-1.598-3.105 1.373-1.711 2.463-3.655 3.643-5.519.502-.795.316-1.408-.727-1.23-2.045.348-4.057.877-6.103 1.21-1.551.252-1.811 1.057-1.557 2.464.512 2.836.916 5.691 1.31 8.547.508 3.666.483 7.494 1.594 10.959.867 2.705 1.838 5.865 5.754 6.603 2.236.424 4.149 1 6.197-.344.758-.496 1.717-.677 2.578-1.021 2.12-.846 3.989-1.883 4.364-4.494.078-.549.847-.998 1.299-1.494-.106.662-.229 1.322-.307 1.988-.049.402-.025.814-.035 1.223.398-.088.849-.086 1.189-.28 1.946-1.099 3.561-2.451 3.377-4.998.188-.312.379-.625.551-.945.008-.018-.152-.127-.234-.193l-.381 1.08m-111.511 7.005l-.766-.564-.291.408.965.266 1.584 1.883.443-.444-1.935-1.549m115.106 27.467l1.166-.853-.408-.422-.849 1.185-1.19.834.43.422.851-1.166M197.571 307.723l-.688-.711c-.453-2.009-2.251-3.72-3.871-3.364-1.518.333-1.713 1.958-1.484 3.035.718 3.399 1.906 6.658 4.602 9.09 1.46 1.317 2.556 1.125 3.599-.567 1.095-1.779.597-3.846-1.463-6.071l-.695-1.412m49.809 177.58l.692 1.416.5.293-.476-.319-.027-1.406c2.197 1.121 2.904 2.313 1.707 3.11-2.385 1.591-.954 3.246-.49 4.832l4.175 13.58c.303 1.058.35 2.435-.076 3.41-1.021 2.33-2.123 4.717-3.674 6.707-4.211 5.4-8.75 10.545-13.005 15.914-2.965 3.74-4.21 3.842.161 8.32a26.11 26.11 0 0 0 .752.737c2.372 2.251 2.431 2.308 4.733-.051l20.569-21.342c2.982-3.213 5.484-6.873 8.151-10.371.272-.36.172-1 .247-1.512-.397.213-.829.377-1.18.647l-6.623 5.095c-.227.172-.627.116-.949.162.033-.402-.039-.851.123-1.193.34-.725 2.091-.785 1.185-2.062-1.597-2.248-.433-3.209 1.524-4.147 1.236-.594 2.256-1.629 3.465-2.299 1.953-1.08 2.658-2.554 2.472-4.83-.508-6.226 1.326-12.164 2.615-18.156.082-.379.382-.709.581-1.063.287.344.826.692.822 1.034-.024 3.185 1.789 5.381 3.729 7.632 2.558 2.967 4.857 6.155 7.32 9.206 1.539 1.904 1.548 4.429.865 6.152-.72 1.807-.435 3.014.125 4.506.488 1.299.987 2.597 1.375 3.927.094.321-.235.762-.369 1.149-.258-.211-.61-.375-.752-.649-.211-.4-.183-.939-.426-1.308-.223-.338-.67-.527-1.019-.783-.08.33-.208.654-.231.988-.053.697.006 1.406-.08 2.098-.412 3.32-.998 6.627-1.24 9.957-.155 2.148 1.193 3.115 3.461 3.482 2.197.356 2.033-1.394 2.585-2.529.147-.303.114-.688.208-1.022 1.884-6.67 2.593-13.629 5.316-20.115.815-1.941 1.633-4.758.075-6.603-1.347-1.596-.871-2.588-.241-3.971.48-1.055.764-2.203 1.289-3.233.706-1.38.428-2.408-.232-3.851-1.647-3.6-4.704-5.975-7.012-8.977-2.957-3.842-6.24-7.433-9.236-11.248-2.369-3.011-4.482-6.222-6.781-9.291-.807-1.076-2.011-1.879-2.719-3.002-1.374-2.177-2.525-4.494-3.768-6.754-.763 5.239-.947 5.493 2.297 7.84 2.111 1.528 2.68 3.053 2.035 5.34l.027-.027c-.716-.584-1.396-1.227-2.172-1.717-.267-.17-1.116.017-1.118.068-.057 1.317-.038 2.635-.032 3.953.614-.222 1.217-.511 1.85-.638.269-.055.676.158.902.375 1.01.968 1.997 1.963 2.937 2.998.171.187.081.611.112.928-.309.007-.727.148-.908 0-.812-.663-1.532-1.436-2.34-2.1-.221-.18-.733-.262-.94-.125-.196.127-.282.623-.222.916l1.9 9.123c.176.959 1.651 2.4-.144 2.889-1.69.457-1.497-1.631-1.719-2.479-1.761-6.697-3.658-13.394-4.779-20.211-.707-4.305-.188-8.818-.133-13.238.017-1.371.314-2.74.49-4.109.137-1.071-2.008-1.979-.225-3.165-1.019-.88-2.062-1.736-3.041-2.66-.206-.195-.17-.646-.246-.98l-.013.015 1.392.014c.311.192.621.387.941.563.014.007.124-.155.188-.237l-1.089-.371-4.626-4.115c-.471-.441-.767-1.07-1.142-1.613.752-.053 1.615-.369 2.234-.106 1.918.819 3.778 1.797 5.59 2.842.676.391 1.75 1.365 1.629 1.672-1.047 2.641.91 1.998 2.113 1.998 1.146-.002 2.36-.035 3.426-.4 3.385-1.161 6.82-2.262 10.033-3.809 2.672-1.287 5.102-3.106 7.535-4.834.577-.408 1.094-1.422 1.041-2.111-.316-4.147-.777-8.282-1.254-12.412-.175-1.514-1.021-1.403-2.232-.913-2.459.998-4.961 1.928-7.514 2.643-2.88.805-2.843.689-2.869 3.4-.013 1.391.348 2.444 1.412 3.377 1.137.994 2.385 2.022 3.081 3.307.529.975 2.575 1.287 1.538 3.029l-2.898-2.002c-.43-.304-.828-.652-1.242-.98l-.446 1.933.011-.011-5.094-3.604c-.753-.508-1.565-.998-2.424-1.256-.369-.111-.922.383-1.391.602.312.262.596.574.944.777 1.199.701 2.461 1.299 3.62 2.061 1.188.777 2.766 1.306 2.614 3.203l-3.246-1.584c-1.963-.996-3.893-2.064-5.895-2.973-.378-.172-1.027.256-1.552.409.363.335.681.746 1.097.996 1.483.896 3.03 1.691 4.484 2.63.387.25.526.885.78 1.344-.536-.066-1.123-.015-1.596-.222-2.22-.973-4.388-2.065-6.623-2.995-.418-.171-1.065.204-1.605.327.29.418.509.92.882 1.24 1.495 1.289 3.061 2.494 4.54 3.797.263.23.234.787.34 1.195-.403-.053-.895.025-1.194-.18-1.149-.789-2.158-1.804-3.362-2.478-1.509-.846-3.136-1.498-4.755-2.125-1.514-.586-3.083-1.031-4.627-1.539-.947 3.093-2.578-.268-3.803.396-.609.33-1.269.59-1.931.801-3.639 1.148-7.246 2.461-10.957 3.307-1.282.291-2.045.703-2.706 1.703l-4.883 7.22c-.845 1.209-1.984 2.239-2.685 3.514-1.395 2.539-2.73 5.133-3.806 7.815-1.147 2.859-3.192 5.421-2.72 8.859.41 2.98.323 6.027.688 9.018.576 4.699 1.474 9.361 1.983 14.066.265 2.447 1.755 3.08 3.711 3.348.919.125 1.869.074 2.802.031 2.244-.102 3.588-1.301 3.338-3.51-.183-1.6-.578-3.115.059-4.682.064-.158-.076-.501-.227-.607-.106-.074-.476.047-.582.189-.346.461-.529 1.081-.947 1.442-.832.719-2.401 1.998-2.578 1.838-1.484-1.34 1.007-1.627.913-2.727-.009-.113.022-.232.034-.347l.242-.582-.363.46-1.672-.287c.5-.886 1.381-1.773 1.381-2.662.002-.775-2.49-.484-1.543-2.33.106-.207.214-.416.344-.607l4.803-7.166c.271-.424.127-1.114.175-1.68-.455.119-.959.154-1.357.377-.809.451-1.504 1.178-2.356 1.463-.676.225-1.514-.041-2.279-.09.457-.555.832-1.215 1.386-1.646 1.993-1.555 4.155-2.914 6.02-4.602.69-.625.738-1.961 1.079-2.973-.827.543-1.683 1.045-2.474 1.635l-6.317 4.762c-.235.17-.764-.063-1.155-.108.11-.312.135-.716.35-.914.423-.386.99-.611 1.429-.982 4.749-4.004 9.971-7.547 12.977-13.274.223-.425.877-.625 1.332-.929-.032.59.09 1.244-.121 1.762-.922 2.257-2.024 4.445-2.883 6.722-.33.877-.373 2.748-.231 2.781 1.567.36 1.324-1.154 1.692-1.978.832-1.875 1.549-3.803 2.312-5.707.405 1.262.26 2.365-.015 3.435-.521 2.014-1.213 3.989-1.635 6.022a5.84 5.84 0 0 0 .196 2.961c.228.66 1.048 1.113 1.603 1.662l.949-1.445c.252-.387.438-.836.76-1.149.209-.203.611-.209.925-.303.084.305.258.616.239.913-.145 2.195-.172 4.339-1.577 6.324-.728 1.029-.736 2.64-.83 4.006-.023.359.842.779 1.299 1.172l-.031-.028c-.023.461.084.979-.09 1.371-1.992 4.52-2.25 8.821 1.364 12.748.249.272.115.893.158 1.352l-1.2-.33c.114.392.153.834.364 1.166.162.254.541.369.824.547l.7.705m112.989-7.02l.473.283-.473-.285-.492-.302.492.304M253.024 330.868l-.705-.69-.372-1.085c-.083.065-.244.175-.236.19.178.318.373.626.565.936l.69.707.703.701.043 1.395-6.905-.488c-.139-.007-.57.965-.433 1.135 1.966 2.463 1.82 5.026.67 7.77-.481 1.146-1.034 2.515-.802 3.623.17.807 1.591 1.336 2.42 2.031.135.114.095.438.135.663-4.248-.14-4.853-.879-4.107-5.046.041-.223.326-.491.261-.626-.232-.487-.494-1.005-.884-1.356-.28-.251-.782-.255-1.185-.37.302-.326.565-.704.914-.965.368-.275.999-.337 1.193-.677.408-.712.605-1.544.888-2.326-.711-.061-1.46-.288-2.122-.138-.641.147-1.216.651-1.778 1.056-1.66 1.192-2.674.914-3.515-.935-.389-.857-.899-2.373-1.33-2.366-1.417.03-1.692-.401-1.661-1.701.037-1.623-.984-1.649-2.096-.982-1.089.654-2.023 1.81-3.176 2.069-3.355.755-6.771 1.307-10.193 1.656-1.439.147-2.482.362-2.982 1.817-.15.438-.325.915-.631 1.24-.529.562-1.168 1.019-1.763 1.52-.071-.786-.384-1.644-.171-2.341.633-2.073.815-4.054-.437-6.136-.379.718-.674 1.471-1.143 2.094-.312.416-.871.647-1.32.96-.006-.574-.18-1.21.01-1.709 2.193-5.778 2.248-5.78 1.24-11.317-.242-1.326-.98-2.316-2.682-1.867-1.314.346-2.724.856-4.005.674-1.664-.233-1.401.181-1.108 1.406l3.797 16.914c.6 2.791 1.942 5.096 4.633 6.119 4.537 1.726 9.172 3.197 13.781 4.731.981.327 2.014.523 3.037.688 2.45.395 4.5-.652 6.603-1.737 1.745-.9.788.469.698 1.048l-.272.468.258-.48 1.889.567c-.404.49-.723 1.113-1.233 1.439-.671.428-1.515.577-2.232.943-.181.093-.213.564-.209.861.002.085.393.259.571.222.331-.067.632-.271.953-.397 1.884-.739 1.538-.559 2.469 1.253.691 1.345-.085 1.322-.681 1.683-.795.482-1.644.872-2.444 1.345-.149.089-.295.509-.235.568.207.206.529.477.765.44.989-.148 1.735-1.572 2.956-.545-.958.541-1.986.992-2.846 1.66-.445.346-.592 1.076-.873 1.634.576.119 1.156.224 1.728.362.404.097.797.239 1.195.361-.24.245-.456.673-.722.706-1.74.217-1.83 1.343-1.775 2.755.089 2.219.07 4.444-.01 6.665-.053 1.468.431 2.093 1.99 2.085l22.805.002c1.223.002 2.087-.102 1.443-1.773-1.576-4.103.086-8.946-2.856-12.767-.122-.158-.165-.49-.085-.673.916-2.149-.481-4.009-.676-6.004-.242-2.481-2.063-4.724-1.008-7.423.221-.569-.298-1.429-.475-2.155-.838.232-1.957.204-2.459.747-1.359 1.466-2.213 3.212-1.886 5.393.093.623-.346 1.761-.803 1.924-.606.213-1.621-.109-2.177-.556-.565-.452-.784-1.336-1.155-2.03.523.204 1.088.339 1.557.628.641.394 1.119.874 1.289-.397.697-5.207 1.76-10.378 1.363-15.68.465.844 1.149 1.64 1.342 2.541.236 1.106.182 2.314.045 3.454-.367 3.005 3.701-.941 3.234 2.106.215.018.481.121.629.028.164-.099.254-.367.311-.58.473-1.767.986-3.527 1.351-5.315.084-.42-.42-1.375-.535-1.357-2.557.412-4.189-1.653-6.334-2.291l-.701-.702m154.364 66.003l-3.472 7.106c-.184.371-.467.689-.705 1.031-.243-.33-.522-.641-.711-.998-.104-.19.019-.502-.088-.684-.506-.855-1.061-1.683-1.596-2.522-.16.834-.267 1.68-.488 2.498-.693 2.563-1.17 5.225-2.209 7.643-1.266 2.946-2.043 5.891-2.022 9.094l-.017 18.246c-.014 1.477.23 2.531 1.609 3.516 1.371.974 2.391 2.523 3.36 3.959.476.709.886 1.859.648 2.584-1.035 3.131-.484 6.416.234 9.211 2.346 9.117.618 18.295 1.209 27.412.067 1.006.75 2.724-.902 2.939-1.787.233-1.959-1.629-2.461-2.879-.08-.205-.027-.462-.035-.697l-.768-19.896c-.132-2.893-.394-5.784-.713-8.661-.179-1.626-.923-1.552-2.423-.904-3.067 1.328-4.356 4.319-6.549 6.438-.697.674-.883 2.154-.86 3.254l.7 21.656c1.968 2.457 1.004 5.533 1.738 8.252.119.445.344.91.301 1.346-.102 1.027.718 2.537-1.147 2.777-1.527.195-2.443-.795-2.871-2.072-.4-1.192-.594-2.481-.699-3.743l-1.529-19.441c-.071-.932.175-1.949-.116-2.791-1.228-3.541-.244-6.9.782-10.211.439-1.42.47-1.883-1.172-1.666-2.178.283-4.375.596-6.561.57-1.846-.021-2.277.793-2.041 2.332l1.778 11.303c.593 4.119 1.156 8.246 1.584 12.387.06.594-.715 1.273-1.104 1.916-.502-.535-1.367-1.02-1.447-1.611-.578-4.245-1.004-8.512-1.465-12.772l-1.522-13.812c-.07-.569-.734-1.063-1.125-1.592-.302.633-.896 1.281-.865 1.894l1.252 21.215c.178 3.619.068 7.25.078 10.877l.067 17.545c.033 1.834-.582 2.603-2.401 2.361-.115-.013-.234.002-.351 0-1.633-.041-3.684.491-4.772-.3-.908-.659-.742-2.862-.957-4.395-.273-1.945-.605-3.904-.623-5.859-.015-1.741-.701-2.168-2.32-2.133-4.444.097-8.889.047-13.332.053-.819.001-1.645.054-2.455-.026-2.428-.236-2.989-.875-3.012-3.295-.027-2.844.412-3.49 2.975-3.642 1.986-.119 3.923-.067 5.728-1.2 1.067-.668 1.426-1.234.381-2.07-1.26-1.004-1.27-2.318-1.387-3.76-.275-3.455-.806-6.888-1.15-10.339-.162-1.622-.127-3.262-.184-4.893l-.508-14.531-.925.011-.004 11.002c-.014 3.239-.026 3.256-3.213 3.258-1.518 0-3.449.453-4.426-.297-.859-.662-.715-2.705-.9-4.15l-1.256-10.684c-.285-2.65-.42-5.322-.799-7.959-.078-.549-.863-1.174-1.465-1.42s-1.381-.064-2.082-.064c-20.351.004-40.702-.002-61.052.035-1.095.004-2.68-.008-3.175.645-.919 1.207.39 2.246 1.146 3.297l10.465 14.796c2.537 3.428 5.275 6.717 8.072 9.942 3.265 3.763 7.445 6.965 9.832 11.197 2.288 4.057 4.466 8.545 2.08 14.082-2.394 5.557-4.908 11.256-5.387 17.555-.216 2.832-1.488 5.578-2.219 8.379-1.153 4.433.2 7.896 4.039 10.535.959.656 1.946 1.281 2.86 1.998 1.46 1.142 1.517 2.094.293 3.428-1.377 1.498-3.16 1.91-5.035 1.117-.75-.317-1.577-.586-2.18-1.1-3.246-2.754-6.923-3.455-10.732-1.756-2.567 1.145-3.656-.371-4.963-1.841-1.437-1.618-.775-3.268.089-4.852.444-.814.872-1.75 1.569-2.293 2.434-1.893 2.588-4.4 2.523-7.191-.079-3.42.413-6.733 1.815-10.01.918-2.145.457-4.834.996-7.192.855-3.736-.028-6.39-3.058-9.025-2.637-2.293-4.352-5.646-6.694-8.828-1.129 5.35-2.129 10.471-1.291 15.639.59 3.646.558 6.802-2.074 9.742-3.563 3.976-6.782 8.261-10.352 12.228-4.195 4.664-8.508 9.237-12.972 13.643-2.465 2.435-5.25 4.588-8.079 6.601-1.568 1.12-1.32 2.377-.857 3.645.599 1.633 1.471 3.174 2.307 4.709 1.078 1.98 1.312 3.947.193 5.98h-7.719l-2.748-5.121c-.376-.672-.837-1.312-1.355-1.881-.383-.416-.957-.652-1.389-1.033-4.255-3.746-4.551-5.078-1.387-9.66 5.796-8.394 11.672-16.719 18.768-24.142 2.166-2.266 3.916-5.325 4.761-8.329.628-2.236-.149-5.087-.929-7.457-2.066-6.269-4.531-12.408-6.709-18.642-.641-1.832-1.104-3.797-1.211-5.727-.188-3.381.045-6.783-.052-10.172-.126-4.445-1.231-8.703-2.864-12.826-.113-.287-.369-.517-.559-.775-.281.295-.74.551-.812.888-.526 2.481-1.278 4.965-1.383 7.471-.213 5.022-.023 10.059-.072 15.086-.024 2.42.125 4.961-2.903 6.045-.364.129-.576 1.205-.546 1.828.126 2.611-.84 4.469-2.662 6.477-1.604 1.769-3.084 4.17-3.038 6.965l.079 10.527c.035 1.463-.416 2.219-1.985 2.074-.695-.064-1.402-.01-2.104-.008-5.263.006-5.269.006-5.677-5.23l-1.488-19.088-2.801-27.672-1.308-12.08c-.12-1.525-.663-1.914-2.106-2.025-3.07-.239-3.402-.788-3.549-3.93-.168-3.625.342-6.971 1.887-10.4 3.379-7.508 6.222-15.26 9.307-22.903l11.654-28.719c.641-1.564 1.496-3.048 2.35-4.513.25-.43.868-.972 1.269-.935 2.328.217 2.313-1.197 2.289-2.865l-.045-12.279c-.043-1.722-.356-3.463-.795-5.13-.164-.619-1.041-1.497-1.593-1.497-4.907-.001-9.112-2.681-13.782-3.468-3.468-.583-6.252-2.262-8.91-4.448-1.894-1.557-2.449-3.64-2.859-5.769-.854-4.428-1.436-8.908-2.278-13.337-.226-1.183-.93-2.297-1.517-3.386-1.16-2.154-.608-3.2 1.824-3.295.701-.028 1.426.097 2.1-.043 1.527-.317 2.847-.537 2.075-2.919-.584-1.806-.036-3.95-.208-5.924-.106-1.234-.553-2.454-.983-3.632-.123-.34-.716-.509-1.093-.756.068.426.285.901.169 1.271-.182.583-.47 1.332-.937 1.568-.418.212-1.178-.082-1.715-.317-.654-.287-1.232-.747-1.842-1.132-.215.729-.628 1.467-.598 2.185.047 1.139.45 2.258.587 3.399.099.805.142 1.664-.026 2.448-.412 1.935-1.466 3.832-3.433 3.957-1.495.094-3.585-.69-4.512-1.821-2.359-2.873-4.094-6.249-4.525-10.038-.36-3.172 1.857-5.136 4.958-4.23 1.574.459 2.449.283 3.743-.66 1.216-.889 2.92-1.175 4.454-1.539 1.116-.263 2.308-.188 3.459-.318 3.342-.378 4.704-2.996 6.247-5.466.627-1.008 1.609-2.625 2.326-2.572 1.477.113 3.24.823 4.254 1.888 2.668 2.801 4.555 6.199 5.462 9.993.84 3.517-.204 4.64-3.86 4.772-2.987.107-5.97.311-8.948.472 1.731-2.474 1.553-5.447-.334-8.112-.933-1.318-1.779-.55-2.697-.14-2.659 1.187-2.787 1.354-.805 3.172 2.186 2.007 2.653 4.509 2.728 7.217.059 2.158.145 3.947 1.872 5.934 1.761 2.029 2.097 5.316 2.992 8.073.572 1.761.935 3.593 1.553 5.336 1.037 2.925 3.48 3.825 6.39 2.631 1.479-.608 3.153-.762 4.588-1.444 2.911-1.382 5.709-3.003 8.577-4.482.652-.336 1.528-.86 2.077-.666 2.446.866 2.274-.718 2.169-2.17-.293-4.045.519-7.757 2.299-11.471 2.648-5.524 7.306-7.8 12.78-9.239 2.705-.711 5.276-.911 7.612.882.707.543 1.234 1.332 1.798 2.044.103.133.052.594-.046.639-.225.101-.641.155-.774.024-3.93-3.892-8.216-2.113-12.402-.708-4.133 1.388-6.812 4.331-8.192 8.44-1.185 3.533-2.388 7.055-.98 10.852.567 1.527 5.119 5.579 6.488 5.448.214-.02.604-.705.52-.951a69.85 69.85 0 0 0-1.92-5.068c-.314-.739-1.049-1.344-1.207-2.091-.205-.961-.023-2.004-.008-3.012.869.024 1.809-.157 2.594.113 1.867.642 1.91-.434 1.998-1.749.03-.441.473-.855.727-1.28.207.477.564.943.599 1.432.189 2.585-.345 3.223-3.017 3.992-.364.105-.945.526-.913.716.065.388.405.839.757 1.052 1.853 1.118 3.802 2.086 5.603 3.278.916.608 1.8 1.459 2.34 2.406 1.248 2.188 2 2.65 4.348 1.973.89-.258 1.73-.677 2.611-.967 2.812-.922 4.225-2.65 3.771-5.782-.232-1.604.016-3.272-.068-4.906-.031-.602-.396-1.186-.608-1.777-.462.463-1.118.847-1.344 1.405-.417 1.034-.464 2.22-.904 3.241-.222.518-.959.815-1.463 1.212l-.119-1.46c-.128-1.812-.292-3.623-.355-5.438-.022-.618-.676-1.808.873-1.536.888.158 1.783.282 1.768-.908-.012-1.21.103-2.853-.593-3.544-2.257-2.241-4.153-1.952-6.908-.302-1.191.712-2.963.457-4.47.642.003-.273-.094-.722.027-.792.773-.45 1.653-.731 2.381-1.237.594-.413 1.027-1.063 1.533-1.608-.593-.17-1.272-.616-1.762-.46-1.511.48-2.941 1.216-4.423 1.796-.397.157-.871.118-1.309.167.211-.441.306-1.019.648-1.302 3.092-2.566 7.225-2.176 10.936-.831 5.098 1.847 6.58 5.817 7.539 10.202.812 3.707.965 7.56 1.368 11.352.503 4.711.738 9.488 4.562 13.062.535.5.877 1.372 1 2.122l2.975 19.192c.332 2.54.222 5.169.025 7.736-.164 2.134-.122 2.483 2.074 2.507l15.088.034 51.833.633c1.736.017 2.877.447 3.529 2.143.497 1.291 1.237 2.49 1.963 3.915 1.422-2.686 2.071-5.619 5.043-7.118 1.362-.684.358-5.442-1.463-6.526-2.166-1.289-2.789-3.174-3.32-5.412-.318-1.343-.125-1.974 1.086-2.397 3.32-1.151 6.639-1.034 9.906.145.426.155.662.834.987 1.27-.352.232-.678.617-1.057.674l-7.797 1.073c-.474.065-.943.188-1.416.285.104.438.065 1.017.332 1.289 1.465 1.479 2.998 2.887 4.541 4.284.061.056.498-.219.688-.411.453-.463.859-.967 1.285-1.453l.763 2.026c.368.929.637 1.919 1.149 2.766 1.434 2.378 3.105 4.625 4.393 7.076.443.846.166 2.167-.026 3.226-.252 1.402-1.34 2.749-.035 4.155.867-.868 1.951-1.608 2.566-2.63 1.629-2.707 3.684-4.466 7.049-4.246.52.033 1.098-.331 1.598-.606 1.084-.595 1.271-1.601.109-2.005-2.049-.711-2.316-2.237-2.752-4.004-.304-1.236-1.168-2.439-2.054-3.403-1.129-1.23-1.565-2.286-1.082-4.05.662-2.426.65-5.029 1.144-7.513.75-3.752 1.379-7.644 5.693-9.266.631-.238 1.127-.815 1.706-1.207 6.486-4.397 13.826-1.015 17.347 3.472 2.768 3.523 4.549 7.622 5.151 12.047.273 1.994-.438 4.115-.659 6.183s-.654 4.157-.511 6.204c.267 3.801.82 7.588 1.408 11.356.146.942.885 1.793 1.351 2.685v8.422zm-145.21-78.564c-.574.885-.922 1.848-1.605 2.375-1.091.841-1.161-.57-1.69-1.015-.322-.272-.803-.558-1.182-.519-.715.074-1.693.956-1.8-.45-.037-.484.894-1.175 1.517-1.55 1.295-.779 2.685-1.661 3.991.03.272.35.5.732.769 1.129m-13.604-6.722c.041.365.228.796.097 1.084l-2.095 4.327c-1.041 2.454-2.052 4.932-.754 7.653.11.232-.306.716-.476 1.082-.229-.209-.64-.404-.66-.631-.369-4.451-.211-8.804 2.578-12.617.277-.379.465-.822.694-1.235l.616.337z"/><path d="M269.784 394.822c-1.034-.063-1.637-.681-1.161-1.582.302-.573 1.218-.823 1.858-1.218.194.335.629.774.537.988-.263.621-.738 1.151-1.13 1.718l-.104.094zm-18.909 97.513c2.1.397 3.25 1.823 3.974 3.697.007.02-.492.301-.529.262l-3.419-3.982-.026.023zm-5.584-24.564c.004-.227-.059-.48.023-.676l1.67-3.867c.073.072.219.156.209.213-.287 1.594-.151 3.383-1.933 4.303l.031.027z"/><path d="M250.903 492.31c-.198-.105-.493-.16-.574-.324-.225-.447-.364-.938-.516-1.418-.01-.028.252-.168.254-.164.285.41.588.814.811 1.258.089.177.004.445-.001.669l.026-.021zm-3.521-7.009l-.704-.701-.014-1.419c1.539-.001 1.406 1.122 1.434 2.137l-.716-.016m15.969-51.47l-.266.669c-.254-.116-.524-.208-.745-.37-.04-.028.136-.505.207-.503.267.006.53.125.805.204"/></g><path d="M262.127 430.551l-1.418-.686 1.418.686z" class="B"/><g class="C B"><path d="M260.723 429.849l-.982-.187.252-.399.716.602.014-.016m-8.417 60.35l-.628-.707.411-.251.191.985.027-.027zm-20.372-12.624l-.186.968-.398-.246.598-.709-.014-.014zm40.699-16.12l.354.322c-.07-.019-.169-.017-.205-.064-.061-.078-.084-.19-.123-.285l-.026.027z"/><path d="M231.948 477.588l.272-.486-.286.472.014.014zm20.33 12.638l.372.33c-.076-.018-.185-.01-.223-.06-.064-.081-.084-.197-.123-.297l-.026.027zm26.678-68.785l.477.258-.467-.27-.01.012zm-20.672 7.244l.061.178-.172-.028.111-.15z"/></g><path d="M271.928 460.75l.705.704.026-.026-.705-.704z" class="B"/><g class="C B"><path d="M250.174 356.882c1.644-.521 2.82-.526 3.632 1.533.819 2.08 2.36 3.866 3.442 5.857.32.586.16 1.432.219 2.159l-1.717-.602-3.465-1.252.018.021-.719-2.128.016.024-.719-2.131.019.027-.72-1.43.016.024.004-2.125-.026.023zm6.624-.199c.815.664 1.526.973 1.784 1.503.893 1.848 1.653 3.763 2.4 5.677.128.326-.056.774-.096 1.166-.32-.257-.74-.453-.945-.783l-3.747-6.278c-.104-.184.294-.652.604-1.285"/><path d="M251.6 364.578c-.469-.255-1.165-.395-1.367-.788-.686-1.332-1.301-2.722-1.742-4.153-.373-1.207-.466-2.501-.682-3.756l1.777 2.809c.109.162.403.2.611.295l-.018-.024.721 1.429-.019-.026.719 2.13-.016-.023-.002 2.127.018-.02zm-9.465-22.798c-.178.069-.353.157-.537.19-.051.01-.131-.141-.198-.22.177-.069.354-.157.539-.192.049-.009.129.143.196.222m8.066 15.08l-.564-.674.355-.224.183.92.026-.022z"/></g><path d="M252.287 364.578h-.705v.02h.705z" class="B"/><path d="M248.766 347.726l.739.739-.739-.739m-12.555 56.913l2.058-1.465c-.115.676-.089 1.42-.377 2.012-.332.681-.941 1.224-1.428 1.829l-.252-2.376m-2.148-5.648l-.735.586-.274-.404.975-.215.033.033z" class="C B"/><path d="M234.031 398.957l.735-.664-.735.664z" class="B"/><g class="C B"><path d="M356.133 452.338l-.475-.314.52.269-.045.045zm2.131 18.926l-.492-.275.49.277.002-.002zM262.1 339.308l2.139 1.428-2.139-1.428zm-10.199.609l-1.547 4.979c-.083.234-.746.264-1.141.388-.022-.313-.173-.695-.048-.929 1.638-3.079 1.314-6.263.61-9.487-.058-.262.168-.585.261-.879.271.167.731.29.781.508l1.084 5.42m95.733 61.011l-.273.556c-.077-.084-.229-.187-.213-.245.055-.198.169-.376.257-.562l.229.251m.37-2.302c.119.102.252.179.33.295a.32.32 0 0 1-.044.263c-.139.021-.283-.003-.428-.012l.141-.546"/><path d="M266.285 337.267c-.345-.021-.698.004-1.029-.071-1.556-.353-.837-1.622-.976-2.536-.023-.164.176-.361.271-.543l1.171 1.854.651 1.208-.088.088z"/><path d="M266.371 337.179l.697.696c.001-.001-.087.089-.089.089l-.693-.7c-.002.002.086-.085.086-.085m-69.538-30.122l.705.697.709 1.397.685 4.43c.075.853-.552 1.437-1.31.814-1.807-1.483-3.517-3.084-3.6-5.709-.078-2.456.145-2.604 2.811-1.629m70.092 60.195l-.271.55c-.074-.082-.225-.186-.208-.243.053-.195.168-.372.256-.556l.223.249"/></g></g></svg>