<svg xmlns="http://www.w3.org/2000/svg" viewBox="0 0 1211 1930" fill-rule="evenodd" stroke-miterlimit="10" xmlns:v="https://vecta.io/nano"><g transform="matrix(4.16667 0 0 4.16667 -699.041 -801.993)"><clipPath id="A"><path d="M245.329 197.503l-72.908 210.194V651.07h281.322V409.697L382.28 197.503H245.329z"/></clipPath><g clip-path="url(#A)"><g opacity=".95"><clipPath id="B"><path d="M172.421 197.003h281.322V651.07H172.421z"/></clipPath><g clip-path="url(#B)"><clipPath id="C"><path d="M172.421 197.003h281.322V651.07H172.421z"/></clipPath><g clip-path="url(#C)"><path d="M245.329 197.503L172.92 408.52v242.05h280.322V410.59l-71.373-213.087h-136.54z" fill="#030405" fill-rule="nonzero"/><path d="M172.921 650.57V408.519l72.408-211.016h136.54l71.373 213.087v239.98H172.921z" fill="none" stroke="#99b7e0"/></g></g></g></g><path d="M250.626 211.978l-67.781 199.471v224.647h260.474V409.512l-66.813-197.534h-125.88z" fill="#030405" fill-rule="nonzero"/><g transform="translate(182.845 221.661)"><clipPath id="D"><path d="M57.984-11.183L-1.5 160.31v255.625h263.475V161.54l-58.17-172.723H57.984z"/></clipPath><g clip-path="url(#D)"><path d="M0 414.435V189.788L67.781-9.684h125.88l66.813 197.535v226.584H0z" fill="none" stroke="#99b7e0" stroke-width="3"/></g></g><g fill-rule="nonzero" fill="#a7c1e5"><path d="M287.505 409.676l-.154.648c.17.012.342.041.509.022.03-.004.089-.245.042-.314-.094-.137-.252-.233-.397-.356m-3.675 6.093l-.155.015.58 6.315 4.811-4.343c.42-.416.627-1.233.599-1.851-.017-.393-.777-1.143-.986-1.073-2.07.68-2.388-.404-2.386-2.078.001-.643-.18-1.391-.544-1.902-.353-.495-1.047-.747-1.592-1.106-.109.496-.298.991-.312 1.49l-.015 4.533m2.509-20.8l-5.652 3.563c-.098.067.397 1.298.465 1.284 2.41-.513 1.67 1.258 1.898 2.438.284 1.476.704 2.938 1.226 4.347.136.37.864.524 1.319.778.238-.432.651-.848.687-1.295l.647-9.874c.015-.302-.285-.62-.59-1.241m39.429-10.449l.798.085.725-4.638c.479-2.88-1.243-6.086 1.283-8.677.116-.117.038-.666-.07-.708-.326-.129-.777-.249-1.061-.117l-4.061 2.093c-.496.305-1.092 1.025-1.058 1.514.155 2.186.519 4.356.807 6.533.266-.053.576-.033.785-.17.39-.256.719-.6 1.073-.907.205.466.536.92.588 1.405.131 1.187.135 2.389.191 3.587m-22.283 12.57l-.044-.23-2.9-.159c-.487-.02-1.388-.057-1.401.028-.133.801-.114 1.626-.138 2.445.634-.168 1.7-.643 1.836-.453 1.652 2.311 3.513 4.572 4.62 7.146 1.09 2.536.909 2.817 3.334 1.284a4.79 4.79 0 0 0 1.874-2.38 40.51 40.51 0 0 0 1.481-6.39c.325-2.183-.373-2.684-2.595-2.29l-6.067.999m15.364 6.35c2.053-.113 3.498-2.016 2.61-3.242-1.391-1.918.065-2.575 1.049-2.446 3.018.399 4.298-2.216 6.441-3.264 1.277-.625 2.138-1.857.872-3.408-.251-.309-.388-.739-.488-1.136l-1.081-4.581c-2.034 1.267-.476 3.231-.935 4.805l-.356 1.09c-.333-.202-.755-.335-.974-.624-.235-.309-.19-.834-.433-1.132-.266-.326-.72-.498-1.092-.738-.061.371-.296.832-.156 1.1 1.258 2.424.125 3.425-2.138 4.082-1.704.494-3.345 1.256-4.943 2.042-1.217.599-2.966 4.237-2.272 4.887 1.244 1.168 2.877 1.922 3.896 2.565m-56.799-15.323c.029-1.659-3.089-7.261-3.845-6.861-1.45.768-2.436 2.368-3.704 3.524-4.206 3.837-4.506 9.201-5.613 14.241-.102.458.254 1.016.397 1.53.366-.438.801-.836 1.084-1.321.741-1.273 1.114-3.003 2.189-3.777 1.481-1.061 3.455-1.47 5.252-2.052 2.771-.897 4.191-2.607 4.24-5.284m29.961 27.751c.31.564.607 2.009 1.416 2.401 2.442 1.186 5.067 2.017 7.662 2.858.553.18 1.793-.063 1.853-.316.741-3.137 3.696-3.453 5.856-4.768 1.028-.627 2.511-1.021 2.975-1.933.6-1.182 3.068-1.639 1.639-3.563-.073-.099-1.822 1.086-2.824 1.612-.323.169-.751.142-1.131.205.031-.45-.004-.917.11-1.344.118-.443.38-.846.581-1.268-.496.025-1.053-.093-1.475.094l-10.164 4.617c-1.76.861-2.576.318-2.979-1.412-.28-1.201-.55-2.408-.911-3.586-.091-.297-.518-.49-.79-.731-.243.283-.638.535-.703.854-.379 1.879-.68 3.773-1.115 6.28m23.53-2.51c-.04 5.001-2.09 7.611-7.774 9.508-1.102.369-3.225.173-3.006 2.207.361 3.372-1.008 5.58-3.924 7.07-.262.135-.484 1.027-.334 1.181 1.51 1.532 6.77 1.154 8.365-.551 3.399-3.628 5.011-8.197 6.601-12.749 1.18-3.376 2.052-6.86 3.273-10.217 1.32-3.627 1.003-4.497-2.792-5.526-.642-.173-1.929-.081-2.021.19-.31.923-.57 2.701-.223 2.869 2.385 1.162 1.816 3.19 1.835 6.018m-47.602-29.874l.855.19c0-1.772.104-3.551-.018-5.314-.394-5.598 2.313-9.741 6.231-13.257 2.422-2.177 6.016-2.385 8.467-.867.787.486 1.746.695 2.627 1.032-.586-.881-.989-2.04-1.803-2.57-.963-.625-2.265-.872-3.447-.984-2.199-.209-4.461.045-6.618-.336-4.835-.857-8.112.282-10.401 4.582-1.61 3.025-2.741 6.317-3.92 9.549-.36.991-.217 2.184-.194 3.281.008.322.393.636.605.953.323-.338.83-.627.936-1.022.629-2.383 1.108-4.807 1.769-7.182.19-.679.811-1.239 1.235-1.853-.002.644.073 1.299-.02 1.928-.418 2.842-.98 5.666-1.267 8.52-.073.73.543 2.094 1.063 2.215 1.548.358 2.23-.801 2.273-2.213.067-2.216-.168-4.459.084-6.649.215-1.861.889-3.681 1.473-5.481.134-.416.73-.683 1.111-1.018.063.468.318 1.015.16 1.39-2.073 4.937-.955 10.064-1.201 15.106m-9.148 24.106c.047.125.071.269.152.367.046.06.18.047.277.068l-.457-.409-.026-4.114c.022-4.949 2.323-7.25 7.575-7.594-.754.785-1.409 1.706-2.278 2.329-4.109 2.937-4.386 3.654-2.75 8.275.276.779.586 1.56.987 2.281.656 1.184 1.172 2.486-.254 3.272-1.479.816-2.789.031-3.17-1.512-.805-3.258-3.709-3.055-5.953-3.579-2.305-.538-6.737 3.587-6.571 5.825.184 2.469.414 4.953.888 7.379l4.804 23.441c.467 2.203 1.361 4.325 1.727 6.538.547 3.302-.561 6.313-1.719 9.429-1.916 5.159-3.448 10.429-1.676 16.151 1.746 5.629 2.949 11.426 4.389 17.151 1.078 4.277 1.779 8.403-2.533 11.599-1.038.769-1.545 2.265-2.266 3.447l-3.616 6.036c-1.22 2.138-2.681 4.208-3.48 6.501-2.453 7.036-4.649 14.162-6.927 21.258-.588 1.832-.673 4.012-1.758 5.457-1.917 2.551-2.943 4.631.087 6.971.257.2.055.992.065 1.508-.48.01-.982.111-1.437.006-.826-.186-1.832-.934-2.393-.669-1.449.684-2.541 4.404-1.549 5.579 1.278 1.513 2.832 3.282 4.6 3.793 4.027 1.164 7.353 2.902 9.734 6.479 1.095 1.642 2.914 2.411 5.285 1.755-.504-.402-.785-.683-1.117-.882-6.041-3.609-4.867-10.337-6.787-15.723-.105-.292.261-.761.428-1.138 1.062-2.403 2.057-4.838 3.207-7.199 3.26-6.689 6.74-13.201 11.383-19.135 2.765-3.533 4.554-7.865 6.544-11.954 2.52-5.179 5.755-10.08 5.945-16.193.097-3.132.714-6.288 1.452-9.349.949-3.933 2.23-7.791 3.434-11.66.162-.52.708-.922 1.076-1.378.355.652 1.166 1.487.99 1.925-1.45 3.608.595 6.134 2.514 8.683 1.826 2.426 3.658 4.866 5.679 7.126 2.557 2.857 5.318 5.534 7.975 8.303.562.588 1.054 1.245 1.58 1.87-2.125 1.701.438 3.262.168 4.978-.285 1.813.017 3.711-.131 5.557-.037.451-.905 1.247-1.256 1.179-.83-.16-1.664-.643-2.311-1.209-.222-.193.223-1.036.134-1.543-.052-.297-.553-.516-.852-.771-.186.282-.541.572-.531.847.076 1.791-.102 3.683.425 5.346 1.563 4.93 3.37 9.784 5.171 14.634.81 2.182 1.8 4.299 2.769 6.416a66.26 66.26 0 0 0 2.248 4.463c.693 1.262 1.211 2.902 2.303 3.608 2.995 1.934-2.505 2.062-.614 3.565.21.167.406.418.485.669.113.36.109.758.156 1.138-.481-.019-.972.012-1.441-.075-.462-.086-.903-.293-1.352-.446-.051.539-.248 1.114-.127 1.61.619 2.505 5.985 5.035 8.558 3.848 2.969-1.371 5.987-1.851 9.24-1.983 2.103-.087 4.258-1.095 6.186-2.088.643-.331 1.142-2.116.818-2.832-.354-.778-1.722-1.456-2.688-1.516-1.718-.105-.975 1.097-.739 2.009.07.269-.255.903-.481.947-2.013.391-4.039.794-6.078.926-.437.028-1.244-.963-1.359-1.582-.226-1.211.056-2.513-.136-3.736-.18-1.156-.356-2.837-1.122-3.285-3.494-2.041-3.349-5.555-3.805-8.714-1.045-7.221-1.523-14.533-2.775-21.713-1.21-6.946-2.527-13.815-2.498-20.923.012-2.666-1.145-5.35-1.875-7.995-.109-.398-.81-.631-1.236-.942-.131.53-.467 1.105-.36 1.579.544 2.411 1.219 4.792 1.807 7.196.09.371-.041.796-.07 1.197-.44-.177-.99-.239-1.299-.544-3.129-3.099-3.119-7.02-2.264-10.84.381-1.7.225-2.986-.566-4.287-1.361-2.245-2.467-4.869-4.391-6.493-2.371-2.003-3.201-4.489-3.724-7.145-.581-2.956-.659-6.01-.943-9.024-.102-1.074.648-3.272-1.715-1.187-.27.241-1.504-.02-1.532-.18-.304-1.754-1.221-3.998-.486-5.206 1.346-2.21 2.498-5.099 5.777-5.538.338-.046.578-.809.864-1.237-.393-.093-.784-.252-1.178-.262-1.113-.029-2.236-.081-3.338.032-2.879.294-3.549 1.127-4.246 4.042-.575 2.403-1.416 4.752-2.288 7.068-.252.672-1.011 1.152-1.539 1.719-.101-.792-.445-1.649-.256-2.364.56-2.124 1.312-4.199 2.024-6.28.875-2.56.644-2.858-2.065-3.451-2.798-.613-5.87-.855-8.273-2.223-4.505-2.564-7.314-7.033-10.427-11.074-.227-.296-.01-.934 0-1.414.382.076.9.023 1.124.252 1.452 1.485 2.874 2.998 4.239 4.562 3.012 3.454 5.976 6.434 11.185 6.922 3.38.315 6.563-.258 9.811-.161 4.293.132 7.257-1.784 9.304-5.096 1.922-3.106 3.991-5.84 7.05-7.992 2.825-1.987 2.423-4.617-.703-6.173-2.091-1.041-4.358-1.756-6.597-2.465-3.058-.968-4.39 1.596-6.261 3.153-1.75 1.457-.707 2.5.045 3.887.355.654.082 1.855-.27 2.65-1.285 2.906-4.746 4.651-4.509 8.414.015.23-.645.758-.823.694-.465-.173-1.152-.563-1.193-.928-.201-1.78-.469-3.611-.26-5.37.745-6.291-3.561-10.485-8.548-12.757-1.502-.684-2.927-1.584-4.262-2.557-.363-.263-.272-1.15-.391-1.752.486.016 1.064-.137 1.445.071 3.852 2.101 8.057 3.598 10.936 7.279 1.389 1.775 2.675 1.377 2.935-.883.363-3.156.235-6.373.285-9.563.018-1.109.077-2.249-.155-3.316-.118-.548-.838-.965-1.284-1.441-.352.34-.889.619-1.022 1.029-.562 1.739-2.054 1.465-3.112 1.178-2.239-.609-4.42-1.49-6.538-2.452-.943-.429-1.677-1.322-2.505-2.003 1.108.109 2.228.158 3.322.348.668.117 1.287.595 1.949.648.779.063 1.582-.158 2.373-.258l-.508-1.922c-.508-1.918-2.465-3.598-.291-5.884.928-.975-2.233-4.436-3.685-4.045-.391.105-.755.682-.942 1.122l-3.453 8.264c-.135.317-.625.482-.95.717-.201-.485-.704-1.119-.55-1.43.793-1.611 1.765-3.13 2.65-4.697.768-1.357.833-2.418-1.173-2.486 1.472-5.473 1.476-5.482 6.484-2.608.838.48 1.588 1.111 2.42 1.598 2.873 1.677 10.26-.532 11.699-3.514.229-.474.303-1.069.293-1.607-.027-1.374-.141-2.745-.22-4.118-1.097.232-2.188.59-3.295.646-.595.03-1.217-.459-1.827-.714.354-.306.687-.645 1.066-.915 1.743-1.232 2.082-2.57 1.04-4.609-.917-1.794-1.319-3.882-1.751-5.883-.285-1.323.005-2.491 1.829-2.511 1.461-.015 1.27-.804.977-1.96-.593-2.339-1.739-4.08-4.147-4.637-2.2-.511-5.481 1.091-6.647 3.299-2.158 4.09-4.498 8.129-3.728 13.11.272 1.76.011 3.6.014 5.403.003 2.141-1.813 2.042-3.13 2.671-1.763.842-1.748-.433-2.108-1.462-.116-.337-.54-.567-.823-.844-.217.397-.566.775-.627 1.197-.586 3.977-1.906 7.125-6.658 7.67-1.267.145-2.558 1.485-3.523 2.561-2.487 2.77-2.024 5.123 1.173 6.846 1.315.709 2.662 1.359 3.995 2.037m61.8-34.189c-.041-.124-.057-.267-.133-.363-.047-.059-.186-.046-.284-.063l.437.405v4.48l1.008-.119-1.028-4.34m-96.065 184.416c1.819-3.07 4.05-5.97 5.37-9.24 3.332-8.248 6.481-16.586 9.255-25.035 1.844-5.62 4.67-10.585 7.966-15.396 5.745-8.388 5.578-8.385 3.437-18.331-1.388-6.447-2.899-12.957-3.264-19.5-.245-4.396 1.26-8.933 2.285-13.337.669-2.87.981-5.5.285-8.511-1.513-6.559-2.002-13.367-3.718-19.861-1.412-5.344-1.465-10.643-1.617-16.028-.068-2.333.51-4.093 2.777-5.033 1.849-.765 2.614-1.51 1.002-3.563-2.244-2.855-1.611-6.521-1.065-9.685.768-4.456 2.368-8.792 6.192-11.809 2.637-2.082 3.857-4.936 4.557-8.145 1.081-4.959 3.39-9.324 6.775-13.124 1.775-1.992 3.912-2.959 6.627-2.83 2.639.127 5.291-.025 7.934.053 4.988.146 6.896 1.634 8.763 6.51.282.737.799 1.522 1.434 1.961 4.442 3.076 4.676 7.314 3.679 12.069-.517 2.469-.582 5.034-.909 7.547-.284 2.186-.676 4.307-2.473 5.928-.547.493-1.088 1.667-.866 2.229 1.076 2.728-.37 5.081-.691 7.607-.211 1.654.428 3.465.924 5.135.188.632 1.047 1.064 1.598 1.588.445-.68 1.2-1.326 1.273-2.043.209-2.063.162-4.152.178-6.233.012-1.691.383-3.127 2.443-3.144 1.613-.012 1.709-.993 1.719-2.209.013-1.89-.684-4.126 1.396-5.315 2.234-1.277 4.592-2.465 7.043-3.184 1.668-.487 3.6-.209 5.401-.083 3.753.264 5.083 1.997 4.85 5.99-.024.422.308.864.474 1.297.455-.269 1.141-.436 1.313-.828.252-.576.229-1.322.166-1.983l-1.391-14.394c-.172-2.12-.081-4.268.011-6.398.009-.213 1.029-.688 1.294-.539 3.353 1.885 6.072.608 8.641-1.587l1.158-.229-.303-.465-.824.73c-1.811-.252-3.935.917-5.353-1.188-.118-.175-.493-.259-.74-.245-.904.047-1.804.154-2.708.24.84-.645 1.587-1.579 2.536-1.879 2.476-.781 5.019-1.656 7.576-1.805 3.221-.187 4.437 1.317 4.501 4.524.043 2.225.095 4.452.026 6.673-.086 2.811.326 5.389 1.652 7.999 2.37 4.67-.1 12.375-4.625 15.599-1.234.879-2.667 1.564-3.682 2.644-1.281 1.361-2.832 2.901-3.216 4.6-2.103 9.324-4.693 18.439-9.271 26.906-2.296 4.25-3.278 4.787-7.896 3.774-5.486-1.202-9.233.587-11.578 6.134a93.85 93.85 0 0 0-4.44 13.087c-1.103 4.282.012 8.475 2.186 12.265l10.295 17.428c2.104 3.667 2.578 7.8 3.006 11.944.593 5.751 1.317 11.491 2.06 17.225l2.113 15.127c.637 4.691 1.144 9.409 2.808 13.884 1.335 3.595 4.353 4.853 7.817 5.278 2.368.29 4.624.633 6.437 2.421 1.29 1.273 1.725 2.676.52 4.028-1.232 1.381-2.614 2.957-4.257 3.568-2.536.943-5.361 1.104-8.048 1.664-1.743.364-3.489.77-5.185 1.308-1.685.534-3.267 1.432-4.972 1.852-2.092.517-4.01-.312-5.002-2.145-1.768-3.27-3.483-6.55-2.129-10.628.504-1.518.185-3.642-.502-5.152-1.523-3.35-3.608-6.442-5.275-9.734-.731-1.445-.975-3.133-1.481-4.696-1.963-6.055-3.51-12.083-3.4-18.621.115-6.927-.989-13.739-6.698-18.902-1.875-1.695-2.992-4.227-4.871-6.986-.652 4.368-.879 8.115-1.824 11.672-1.39 5.228-2.753 10.583-5.098 15.414-3.922 8.081-8.619 15.785-12.974 23.657l-8.914 16.252c-1.75 3.292-1.201 5.407 1.918 7.762 1.871 1.412 3.925 2.577 5.826 3.952 3.144 2.274 3.545 7.627.781 10.209-.361.337-1.031.654-1.463.558-4.187-.937-8.896-.331-11.894-4.662-1.557-2.249-3.633-3.811-6.947-3.804-3.772.008-6.246-3.033-8.714-5.611v-4.172z"/><path d="M381.063 546.555l-.161.649c.176.012.355.04.526.018.034-.004.096-.251.049-.316-.101-.139-.265-.231-.414-.351m-25.48-16.989l-.302-.623c-.098.079-.274.154-.278.237-.01.216.056.435.091.652l.489-.266m5.21-58.488l1.127-.454c-.361-.146-.73-.425-1.081-.403-.406.025-.796.315-1.192.491l1.146.366m-.31-15.642l.532-.16-1.66-3.196-2.624 1.69c-.336.231-.565.615-.895.862l-4.104 3.014 3.956 3.756c1.063 1.058 4.521.287 4.743-1.218.232-1.551.052-3.163.052-4.748m27.56-67.424l-1.834-1.427c-.887-.629-2.042-1.06-2.625-1.895-1.1-1.58-2.041-.655-2.532.165-1.106 1.848-1.887 3.886-2.851 5.823-.325.651-.677 1.559-1.234 1.767-1.026.383-2.532.345-1.8 1.882.265.561 1.888.649 2.886.628.578-.012 1.162-.643 1.712-1.038l5.63-4.087 2.648-1.818m-20.57 82.773l.242-.597c.416 0 .843.06 1.246-.012.77-.139 1.526-.351 2.288-.533-.359-.681-.636-1.424-1.09-2.034l-5.965-7.817c-.303-.39-.745-.673-1.122-1.005-.236.436-.659.862-.677 1.305-.084 2.222-.398 4.05-3.219 4.463-.816.12-1.571 1.439-2.09 2.359-.167.295.442 1.487.816 1.548 1.489.246 3.082-.023 4.528.335 1.739.431 3.367 1.306 5.043 1.988m31.68 89.12c-.32-.167-1.017-.859-1.564-.757l-8.758 1.965c-.653.153-1.698.152-1.879.54-1.109 2.373-3.616 2.278-5.418 3.393-1.29.798-2.402 2.09-3.194 3.402-.443.735-.143 2.131 1.429 1.514 4.021-1.58 8.18-2.086 12.482-2.345 3.787-.225 6.942-3.85 6.902-7.712m-64.261 10.421c1.575-.838 3.907-1.976 6.131-3.292 2.126-1.258 4.453-3.088 6.722-1.927 1.47.753 1.946.769 2.99-.167.904-.811 1.987-1.421 2.978-2.138.307-.224.57-.506.854-.762-.4-.284-.771-.749-1.206-.819-1.897-.309-3.852-.337-5.713-.775-2.489-.585-7.893.081-10.071 1.424-.942.581-2.015.951-2.953 1.535-.53.33-1.152.837-1.302 1.381-.339 1.234-.239 2.598-.638 3.804-.473 1.43.075 1.758 2.208 1.736m29.976-197.542l-.572.192c.736 2.251 1.902 4.462 2.111 6.761.332 3.664 1.772 5.287 5.584 5.7 4.295.466 6.623-.516 8.07-4.763l1.858-5.435c.431-1.157.543-3.369 2.344-.665.436.654 2.532 1.012 3.191.549 1.507-1.058.51-2.29-.438-3.475-1.316-1.644-3.256-2.942-3.067-5.557.052-.706-.895-1.746-1.645-2.204-2.973-1.81-6.085-.672-9.06.054-1.281.312-3.772 10.192-3.149 11.496.115.242.351.424.493.657.407.672.794 1.356 1.189 2.036-1.014-.169-2.244-.034-2.997-.569-1.443-1.026-2.945-2.283-1.472-4.46.446-.658.967-1.734.718-2.293-.498-1.121-1.502-2.018-2.298-3.007-.286.828-.679 1.637-.829 2.489-.142.808-.031 1.661-.031 2.494m-8.357 132.469c.15-.801.096-1.719.482-2.383 2.42-4.159 4.897-8.288 7.47-12.355.349-.551 1.336-.7 2.027-1.034.304.68.91 1.384.864 2.041-.34 4.835.14 9.806-2.236 14.341-.198.377-.01 1.087.216 1.532.856 1.688 2.029 3.249 2.667 5.008 1.535 4.227 3.629 7.966 6.979 11.11 2.187 2.053 3.842 4.682 5.661 7.108.342.456.611 1.596.44 1.708-1.566 1.04-.789 1.844-.11 3.031.642 1.121.934 2.592.899 3.897-.024.866-.453 2.451-2.14 1.197-.641-.476-1.445-.734-2.175-1.091.339 1.01.545 2.095 1.065 3.001.305.531 1.13.749 1.685 1.153 1.779 1.292 3.754 2.409 5.224 3.992.752.811.591 2.468.843 3.743l-2.506-.853c-.603-.217-1.192-.47-1.787-.706.043.618-.028 1.272.152 1.848.369 1.181.641 2.505 1.376 3.435 1.071 1.352 2.424 3.263 3.821 3.414 2.798.301 5.729-.308 8.562-.789 1.343-.227 1.43-1.272.955-2.595-1.07-2.978-2.062-6.003-2.808-9.076l-5.958-25.268c-1.165-4.544-2.839-8.924-2.408-13.76.416-4.668.5-9.366.906-14.035.176-2.026.359-4.257 1.312-5.963 1.464-2.621 1.095-5.001.297-7.548l-.032.033c.562-.718 1.631-1.48 1.575-2.146-.104-1.235-1.599-2.973-1.197-3.502.804-1.057 2.287-1.794 2.103-3.295-.159-1.3-.693-2.75-1.559-3.667-.327-.348-2.128.454-3.105 1.003-1.677.943-3.226 2.112-4.846 3.161-1.905 1.233-3.757 2.062-6.112.735-1.103-.622-2.679-.727-3.991-.592-3.543.364-7.055 1.013-10.589 1.472-.633.082-1.559.026-1.931-.365-1.371-1.443-2.686-2.971-3.798-4.62-1.394-2.07-3.704-2.178-4.844.064-.536 1.052-.676 2.34-.827 3.541-.146 1.166.166 2.429-.154 3.523-.635 2.176-1.86 4.205-2.322 6.403-1.836 8.731-4.586 17.461-4.936 26.272-.603 15.204.332 30.468.621 45.706.003.139-.009.279.005.417.349 3.194 3.242 5.115 7.825 5.198 3.309.06 3.289.058 3.923-4.329.177-1.221.608-2.41.73-3.633.059-.595-.315-1.772-.509-1.775-4.045-.07-1.18-1.79-.706-2.877.937-2.144 2.922-4.427 2.621-6.365-.383-2.455.381-4.2 1.067-6.225.38-1.123.456-2.348.669-3.527l-2.37 2.88c-.345.431-.596.943-.971 1.342-.798.846-1.649 1.644-2.478 2.462.314-1.083.403-2.314.996-3.214.901-1.366 1.238-2.198-.796-2.558-.074-.013-.166-1.414.153-1.912 2.155-3.372 4.049-7.02 6.746-9.91 3.108-3.331 2.258-7.664 3.857-11.314.213-.486-.827-1.519-1.286-2.298-.559.33-1.226.557-1.655 1.008-1.595 1.678-3.074 3.465-4.68 5.128-.418.433-1.143.569-1.726.841.098-.738.018-1.563.329-2.196.706-1.438 1.603-2.781 2.422-4.163l1.159-.252-1.156-.557m16.743 19.156l-.594-.311.543.364c-.608 3.686 2.15 5.307 4.465 7.173.201.162.866.082 1.015-.113.177-.232.184-.847-.004-1.063-1.775-2.044-3.608-4.039-5.425-6.05m-14.219-20.829l.839-.832.838-1.668c3.164-.446 3.038-3.377 4.069-5.422.085-.169-.13-.489-.206-.739-.324.146-.811.204-.945.451-1.019 1.876-1.967 3.789-2.939 5.692l-.837 1.668-.831.838-.314.601.326-.589m21.727-64.281c-3.48.632-4.423 2.544-2.548 5.326.73 1.083 2.285 1.803 1.165 3.562-.055.088 1.707 1.241 2.525 2.004.502.468.817 1.135 1.216 1.715-.728.127-1.59.565-2.159.322-1.515-.65-2.882-1.638-4.362-2.384-.379-.191-1.217-.16-1.386.084-.247.356-.3 1.269-.05 1.474 1.05.861 2.29 1.489 3.364 2.325.485.378.746 1.043 1.108 1.578-.722.085-1.579.456-2.14.194-1.104-.514-2.22-1.226-3.013-2.134-1.457-1.667-2.827-1.779-4.728-.704-4.867 2.759-5.007 3.051-2.17 7.94.277.476.754.849.98 1.342 2.16 4.705 6.288 5.999 10.959 6.377.138.01.396.023.4.002.471-2.911 3.394-1.982 4.931-3.203.02-.014-.292-.659-.549-.762-.958-.386-1.957-.668-2.941-.99 1.086-.208 2.174-.593 3.26-.585 2.107.017 3.681-.59 4.892-2.47 1.11-1.721 2.488-3.308 3.942-4.762 4.287-4.29 5.722-9.575 5.667-15.427-.041-4.434.153-8.836 1.479-13.123.135-.435-.193-1.013-.306-1.525-.392.402-.816.781-1.167 1.217-.376.467-.682.99-1.019 1.489-.14-.603-.551-1.31-.367-1.789.472-1.237.986-2.26-.513-3.233-.412-.267-.651-1.321-.482-1.862.499-1.597 1.263-3.086-.646-4.353-.156-.104.361-1.219.566-1.864.411.276.863.506 1.223.836 1.443 1.323 1.487 2.816.659 4.532-.216.446.148 1.173.245 1.772.386-.522.87-.999 1.143-1.575 1.665-3.522.284-7.067-.148-10.547-.538-4.325-1.576-8.588-2.382-12.881-.403-2.144-5.436-6.951-7.606-7.055-.761-.036-1.621.323-2.304.723-1.43.834-2.837 1.732-4.134 2.756-2.782 2.198-5.63 3.894-9.449 3.145-.9-.176-2.305.345-2.935 1.037-1.625 1.788-2.53.804-4.11-.187-3.628-2.276-5.131-5.95-7.069-9.373-.197-.348-.011-.911-.004-1.374.366.164.835.236 1.077.51.912 1.033 1.694 2.181 2.625 3.194 1.484 1.614 2.979 3.231 4.621 4.677.459.406 1.444.22 2.188.305.019-.638.322-1.526.014-1.875-2.644-2.995-2.707-7.457-6.189-10.132-1.283-.986-1.34-3.747-1.655-5.746-.258-1.629-.048-3.329-.082-4.998-.036-1.717.542-3.812-2.41-3.766-.31.005-.917-1.015-.898-1.541.044-1.211.223-2.474.645-3.604 1.111-2.973 2.175-5.996 3.666-8.781.857-1.602 2.45-2.841 3.821-4.127.775-.727 1.772-1.219 2.668-1.817h13.367c1.377.979 2.838 1.861 4.105 2.966 1.161 1.011 1.085 1.885-.717 1.984l-2.617-1.497c-.015-.008-.232.353-.354.542l2.851 1.093c-.065 1.069.158 2.67-1.493 2.311-2.923-.635-5.871-1.434-8.573-2.674-1.178-.539.05-1.111.861-1.372.543-.175.991-.642 1.481-.979-.576-.244-1.143-.673-1.73-.704-6.678-.346-10.609 2.246-12.979 8.488-.146.386-.224.797-.363 1.186l-.916 2.47c1.118-.277 2.648-.19 3.274-.9 1.679-1.902 3.136-1.906 5.413-.981 1.8.732 4.11.72 6.088.398 4.651-.757 7.592.734 9.105 5.068.165.473.593.855.9 1.28.229-.515.556-1.011.662-1.551.133-.672.001-1.399.156-2.063.06-.259.6-.594.903-.577 1.168.066 3.381-2.026 2.984-3.058-.688-1.789-1.592-3.493-2.383-5.243-.211-.463-.341-.961-.508-1.443.612.057 1.316-.064 1.821.198 4.721 2.446 7.743 8.676 5.766 14.945-1.804 5.722-4.138 11.26-10.045 14.157-1.366.67-.605 1.155.093 1.679l8.516 6.406c2.521 1.925 4.191 4.31 4.387 7.633.114 1.912.449 3.835.907 5.698 2.795 11.361 1.86 22.802.818 34.246-.237 2.604-.806 5.203-.784 7.801.036 4.123-2.448 6.937-4.602 9.959-.56.785-1.33 1.418-1.944 2.169-2.063 2.525-4.056 5.044-.77 8.137.378.356.391 1.307.287 1.935l-3.133 18.279c-.535 3.116-1.182 6.222-1.534 9.36-.445 3.976-.88 7.981-.861 11.972.014 2.844.593 5.731 1.255 8.519l6.21 24.808c1.611 5.954 3.713 11.776 5.363 17.721 1.162 4.188 1.344 7.936-4.747 9.558-.663.177-1.346.298-2.026.406-6.1.961-12.414.96-18.04 4.045-.222.121-.57.131-.822.06-1.573-.447-3.807 1.175-4.702-1.291-.641-1.767 1.12-5.576 2.901-6.304 3.451-1.41 6.975-2.641 10.458-3.973.472-.18.887-.512 1.328-.774-.352-.328-.717-.64-1.051-.984-.828-.848-1.996-1.569-2.4-2.589l-8.72-22.813c-2.348-6.481-4.426-13.059-6.675-19.576-.25-.726-.806-1.357-1.274-1.993-.233-.317-.587-.547-.886-.816-.165.43-.396.848-.483 1.293l-3.905 20.239c-.839 4.877-1.282 9.82-2.01 14.718-.301 2.032-.96 4.009-1.311 6.036-.356 2.046-1.166 3.844.177 6.211 1.662 2.93-3.076 9.493-6.678 9.207-7.409-.587-14.186 1.532-21.052 3.677-3.132.977-4.706-.393-4.466-3.667.206-2.812.71-5.324 4.171-6.29 2.498-.696 4.792-2.179 7.114-3.428 3.678-1.979 4.486-3.783 3.836-7.973-.106-.681-.069-1.388-.06-2.082.112-8.724-.801-17.376-1.495-26.06-.738-9.233-.439-18.564 1.677-27.671 1.65-7.102 3.584-14.137 5.47-21.181l3.809-13.655c.197-.79-.364-2.248-1.04-2.696-4.438-2.942-3.822-4.597.119-8.133 2.279-2.047 4.674-3.313 7.578-3.953 1.817-.401 3.305-.468 3.932 1.747.11.392.654.662.997.988.2-.321.605-.67.566-.96-.475-3.583 1.349-7.414-1.15-10.793-.183-.248-.201-.875-.018-1.095 2.548-3.082.503-7.065 2.045-10.356.235-.502-.165-1.319-.322-1.978-.145-.606-.359-1.196-.543-1.791.734.347 1.856.52 2.115 1.086.431.942.431 2.141.398 3.225l-.761 21.986c-.029.833.006 1.669-.007 2.503-.023 1.55.58 2.032 2.037 1.284 3.438-1.764 6.945-3.402 10.289-5.327.623-.357 1.111-2.03.808-2.724-1.277-2.931-1.533-5.431 1.175-7.792 1.558-1.359.513-3.101-.053-4.64-1.751-4.764-.987-9.256 1.459-13.553.229-.401.756-.633 1.144-.944.206.463.656.978.571 1.379a13.69 13.69 0 0 1-1.064 3.108c-1.542 3.178-1.554 6.31-.387 9.652.805 2.307 1.052 4.811 1.549 7.227l.03-.035zm-27.634-24.977c-1.387 2.086-1.786 4.361-1.605 6.854l1.289 19.697c.103 1.311.266 1.736-1.332 1.371-5.682-1.301-11.035-3.285-15.798-6.727-.866-.625-2.045-.825-2.885-1.472-1.034-.795-2.529-1.78-2.648-2.816-.263-2.332-1.005-4.09-2.862-5.538-.534-.417-.569-1.473-.833-2.236l-.01.01c1.937.943 3.685 2.17 6.14.992 1.336-.642 2.468.115 1.565 1.989-.197.408.065 1.035.115 1.562.45-.243.982-.399 1.336-.741 1.276-1.232 2.19-1.754 2.66.655.276 1.418 1.301 2.723 1.432 4.131.357 3.802.59 4.299 4.128 5.617 6.016 2.238 5.994 2.238 6.066-3.996.029-2.535-.031-4.354-3.116-5.834-3.078-1.476-5.259-4.826-7.802-7.385-.2-.203-.153-.65-.219-.983.398-.019.955-.22 1.17-.031 1.769 1.547 3.423 3.227 5.222 4.735.77.644 2.368 1.576 2.616 1.343.911-.857 2.15-2.298 1.954-3.251-1.311-6.374 1.359-12.469 1.035-18.739-.014-.275.015-.555.006-.832-.15-4.615 2.458-7.705 5.793-10.372.283-.227.755-.271 1.141-.278.105-.002.375.512.303.671-1.88 4.224 1.62 7.268 2.394 10.903.14.658.724 1.225.846 1.881.107.578-.146 1.221-.241 1.836l-1.907-.617-2.683-8.959c-.14-.426-.976-.622-1.491-.925-.28.544-.944 1.296-.779 1.599 1.538 2.833 3.219 5.59 4.858 8.369-.133 1.785-1.045 2.029-1.966.664-1.286-1.903-2.24-4.029-4.09-5.842.48 1.695.852 3.432 1.48 5.072.385 1.006 1.166 1.86 1.756 2.791s1.564 1.859 1.6 2.817c.024.641-1.395 1.259-1.974 2.033-.275.367-.097 1.074-.122 1.627l.036-.038-2.462-1.707-.342-1.95c-.177.121-.524.304-.506.353.211.578.479 1.135.732 1.697m-20.814 2.444c-4.216-.303-5.73 2.479-6.711 5.867l.018-.018c-2.71-.344-3.507-2.578-3.118-4.5.403-1.986.165-3.691-.134-5.562-.274-1.705.226-3.375 2.041-4.024 2.088-.748 4.518.035 5.343 1.772.995 2.092 1.698 4.323 2.527 6.494l.034-.029zm36.611-10.5c-1.236 5.109-1.878 10.137-4.819 14.355-.261.375-.791.561-1.196.834-.142-.368-.5-.813-.397-1.091l5.383-14.369c.076-.2.435-.291.664-.433l.365.704"/><path d="M355.669 415.967l1.355 1.046-.291.294-1.027-1.377-.037.037zm-.159 3.638c-.34.07-.66.204-.959.164-.118-.016-.187-.412-.276-.636.3-.111.597-.263.908-.302.062-.007.179.412.327.774m42.538-6.54c-.238-.272-.494-.435-.487-.583.017-.351.159-.694.251-1.042.138.154.385.302.394.462.018.348-.088.7-.159 1.163m-65.766 3.73l.684.799-.439.278-.213-1.106-.032.029zm48.451 22.539l1.117.206-.267.444-.821-.685-.029.035z"/></g><path d="M326.455 423.456l-.852-.822.852.822z" fill="#a7c1e5"/><g fill-rule="nonzero"><path d="M252.12 474.362c0-.686-.066-1.381.027-2.053.047-.337.329-.795.612-.894.222-.078.673.249.912.501l3.891 4.227c1.823 1.907.554 4.204.788 6.308.007.068-1.167.534-1.517.335-2.414-1.37-4.742-5.652-4.713-8.424m18.299-39.917c-1.541-.357-2.94-.504-4.188-1.02-1.271-.527-2.389-1.414-3.574-2.144l3.534.546 4.441.817c.447.103.816.543 1.222.828l-1.435.973m9.163-54.622c-.368.263-.879.857-1.501 1.018-1.171.304-2.402.412-3.617.486-.433.026-1.172-.186-1.265-.46-.145-.435-.047-1.225.267-1.49.823-.699 1.779-1.276 2.756-1.756 1.935-.952 3.18-.262 3.36 2.202m-13.697-12.664c-.205.077-.404.178-.616.217-.06.01-.152-.165-.227-.254.204-.077.404-.178.615-.217.059-.01.152.164.228.254m39.595 47.88c.171-.504.201-1.176.549-1.469.421-.351 1.112-.383 1.686-.554-.185.557-.235 1.236-.595 1.634-.313.346-.977.374-1.489.539l-.151-.15m-.705.952l-.895.706-.349-.489 1.148-.314.096.097z" fill="#a7c1e5"/><path d="M304.679 415.895l.805-.854a7.56 7.56 0 0 0 .148.148l-.86.8c.002.003-.093-.094-.093-.094m83.608 63.461l-1.417-.898.488-.49.897 1.419.032-.031zm-3.11 64.501c-.145.209-.291.499-.347.483-.456-.132-.902-.313-1.328-.524-.023-.013.146-.415.226-.637l1.449.678m-31.584-4.009c.204-.078.403-.18.614-.218.059-.01.151.164.227.255-.204.077-.404.178-.615.218-.057.009-.15-.165-.226-.255" fill="#a7c1e5"/><path d="M356.536 505.227l.002.869-.002-.869m19.943-138.835l2.33 1.013c-.564.43-1.218.783-1.669 1.309-.499.579-.798 1.866-1.212 1.878-1.003.029-2.022-.503-3.035-.809.262-.724.32-1.691.833-2.115.762-.631 1.842-.88 2.753-1.276" fill="#a7c1e5"/></g></g></svg>