{
    "asset" : {
        "generator" : "Khronos glTF Blender I/O v1.7.33",
        "version" : "2.0"
    },
    "extensionsUsed" : [
        "KHR_materials_clearcoat",
        "KHR_materials_transmission"
    ],
    "scene" : 0,
    "scenes" : [
        {
            "name" : "Scene",
            "nodes" : [
                6
            ]
        }
    ],
    "nodes" : [
        {
            "mesh" : 0,
            "name" : "kortti_etu",
            "rotation" : [
                0.7071068286895752,
                0,
                0,
                0.7071067094802856
            ],
            "translation" : [
                -0.383932501077652,
                0,
                0.23045997321605682
            ]
        },
        {
            "name" : "Bone.004",
            "rotation" : [
                -0.5638272762298584,
                -0.021607093513011932,
                0.7464835047721863,
                0.3526960015296936
            ],
            "scale" : [
                1,
                0.9999999403953552,
                1
            ],
            "translation" : [
                -2.95794535531968e-08,
                0.5846474170684814,
                -3.6378997592123596e-09
            ]
        },
        {
            "children" : [
                1
            ],
            "name" : "Bone.003",
            "rotation" : [
                0.5386742949485779,
                0.029510831460356712,
                -0.724337100982666,
                0.4292958080768585
            ],
            "scale" : [
                1.000000238418579,
                1.0000001192092896,
                1.0000001192092896
            ],
            "translation" : [
                2.9521984856728523e-08,
                0.5850329399108887,
                -4.078096083048877e-09
            ]
        },
        {
            "children" : [
                2
            ],
            "name" : "Bone.002",
            "rotation" : [
                -0.29325300455093384,
                0.09798984229564667,
                0.865938663482666,
                0.3931296169757843
            ],
            "scale" : [
                0.9999998211860657,
                0.9999999403953552,
                1
            ],
            "translation" : [
                -1.3987766500633825e-08,
                0.6201909184455872,
                -2.6315790435660347e-08
            ]
        },
        {
            "children" : [
                3
            ],
            "name" : "Bone.001",
            "rotation" : [
                0.07567453384399414,
                -0.05928447097539902,
                -0.4976218342781067,
                0.8620506525039673
            ],
            "scale" : [
                1,
                1,
                1.0000001192092896
            ],
            "translation" : [
                0,
                0.683427631855011,
                0
            ]
        },
        {
            "children" : [
                4
            ],
            "name" : "Bone",
            "rotation" : [
                -0.44220495223999023,
                -0.44220495223999023,
                -0.551774263381958,
                0.5517742037773132
            ],
            "translation" : [
                -1.5791869163513184,
                0,
                0
            ]
        },
        {
            "children" : [
                0,
                5
            ],
            "name" : "Armature",
            "translation" : [
                0.3898316025733948,
                0,
                -0.21427622437477112
            ]
        }
    ],
    "materials" : [
        {
            "doubleSided" : true,
            "extensions" : {
                "KHR_materials_clearcoat" : {
                    "clearcoatFactor" : 0.24045789241790771,
                    "clearcoatRoughnessFactor" : 0.12366411089897156
                },
                "KHR_materials_transmission" : {
                    "transmissionFactor" : 0.13740457594394684
                }
            },
            "name" : "Material",
            "pbrMetallicRoughness" : {
                "baseColorTexture" : {
                    "index" : 0
                },
                "metallicFactor" : 0.15267175436019897
            }
        }
    ],
    "meshes" : [
        {
            "name" : "kortti_etu",
            "primitives" : [
                {
                    "attributes" : {
                        "POSITION" : 0,
                        "NORMAL" : 1,
                        "TEXCOORD_0" : 2
                    },
                    "indices" : 3,
                    "material" : 0
                }
            ]
        }
    ],
    "textures" : [
        {
            "sampler" : 0,
            "source" : 0
        }
    ],
    "images" : [
        {
            "bufferView" : 4,
            "mimeType" : "image/png",
            "name" : "uv_pistekortti"
        }
    ],
    "accessors" : [
        {
            "bufferView" : 0,
            "componentType" : 5126,
            "count" : 252,
            "max" : [
                0.38672545552253723,
                0.3087529242038727,
                0.5000000596046448
            ],
            "min" : [
                -0.5116744041442871,
                -0.3689891993999481,
                -0.5
            ],
            "type" : "VEC3"
        },
        {
            "bufferView" : 1,
            "componentType" : 5126,
            "count" : 252,
            "type" : "VEC3"
        },
        {
            "bufferView" : 2,
            "componentType" : 5126,
            "count" : 252,
            "type" : "VEC2"
        },
        {
            "bufferView" : 3,
            "componentType" : 5123,
            "count" : 348,
            "type" : "SCALAR"
        }
    ],
    "bufferViews" : [
        {
            "buffer" : 0,
            "byteLength" : 3024,
            "byteOffset" : 0
        },
        {
            "buffer" : 0,
            "byteLength" : 3024,
            "byteOffset" : 3024
        },
        {
            "buffer" : 0,
            "byteLength" : 2016,
            "byteOffset" : 6048
        },
        {
            "buffer" : 0,
            "byteLength" : 696,
            "byteOffset" : 8064
        },
        {
            "buffer" : 0,
            "byteLength" : 585127,
            "byteOffset" : 8760
        }
    ],
    "samplers" : [
        {
            "magFilter" : 9729,
            "minFilter" : 9987
        }
    ],
    "buffers" : [
        {
            "byteLength" : 593888,
            "uri" : "data:application/octet-stream;base64,"
        }
    ]
}
