<?xml version="1.0" encoding="utf-8"?>
<!-- Generator: Adobe Illustrator 16.0.0, SVG Export Plug-In . SVG Version: 6.00 Build 0)  -->
<!DOCTYPE svg PUBLIC "-//W3C//DTD SVG 1.1//EN" "http://www.w3.org/Graphics/SVG/1.1/DTD/svg11.dtd">
<svg version="1.1" id="Layer_1" xmlns="http://www.w3.org/2000/svg" xmlns:xlink="http://www.w3.org/1999/xlink" x="0px" y="0px"
	 width="285.147px" height="456.432px" viewBox="0 0 285.147 456.432" enable-background="new 0 0 285.147 456.432"
	 xml:space="preserve">
<polygon fill="#7FA29A" points="73.125,0.29 0,213.428 0,456.432 284.449,456.432 284.449,213.428 213.42,0.29 "/>
<g>
	<defs>
		<polygon id="SVGID_1_" points="73.125,0.29 0,213.427 0,456.432 284.449,456.432 284.449,213.427 213.42,0.29 		"/>
	</defs>
	<clipPath id="SVGID_2_">
		<use xlink:href="#SVGID_1_"  overflow="visible"/>
	</clipPath>
	<path clip-path="url(#SVGID_2_)" fill="#627A73" d="M119.766,546.856c19.766-41.159,23.334-87.068,12.181-131.085
		c-5.846-25.435-15.716-53.081-21.948-78.453c-9.141-35.871-12.068-73.068,0.891-108.479c12.11-34.593,34.945-64.448,60.525-90.264
		c35.157-35.468,77.18-63.195,112.938-97.907c42.388-41.334,79.409-89.784,99.357-146.031c0.001,0,1.06-3.192,1.06-3.192
		l2.136-6.381l1.076-3.191l0.535-1.597l0.444-1.623c1.564-6.061,3.902-13.37,5.101-19.563c0.943-4.396,1.972-8.783,2.852-13.2
		l2.183-13.345l0.563-3.339c0.644-5.552,1.479-12.965,2.091-18.52c0.428-6.701,0.788-12.672,1.206-18.639l0.878,0.001l0.162,13.636
		c0.035,1.506,0.001,3.765,0.027,5.122c-0.009,0.569-0.048,1.137-0.071,1.705l-0.32,6.821
		c-2.328,64.972-26.853,126.193-66.793,177.146c-33.284,43.848-76.816,78.143-120.354,111.06
		c-33.824,26.013-67.39,54.148-88.962,91.555c-20.612,35.24-25.388,70.466-16.892,110.209
		c7.339,35.457,20.978,69.299,28.598,104.843c10.552,44.687,5.063,93.906-18.688,133.124
		C120.54,547.27,119.766,546.856,119.766,546.856"/>
	<path clip-path="url(#SVGID_2_)" fill="#627A73" d="M166.271,599.187c14.907-32.703,20.814-68.977,16.025-104.519
		c-7.309-53.918-34.207-104.038-34.379-159.306c-0.148-18.409,2.881-36.966,9.166-54.271c3.326-9.623,7.814-19.244,12.648-28.183
		c3.75-6.87,8.22-13.976,12.649-20.399c18.141-26.433,41.029-49.22,65.179-70.142c25.709-22.203,52.941-42.443,77.561-65.731
		c33.59-32.464,64.593-68.779,86.417-110.279c0-0.001,3.133-5.911,3.133-5.911c0.544-0.974,1.005-1.989,1.468-3.002l1.399-3.036
		l2.833-6.06c0.923-2.03,1.967-4.012,2.744-6.103l5.005-12.424c0.441-1.028,0.803-2.084,1.151-3.145
		c1.193-3.547,3.115-9.154,4.341-12.691c9.251-29.029,13.874-59.077,15.83-89.537l1.171,0.002
		c1.462,30.723-1.263,61.951-8.979,91.842c-8.931,34.502-24.537,67.445-44.697,96.814c-1.999,2.847-5.98,8.458-7.989,11.286
		c-4.005,5.072-8.688,11.374-12.854,16.244c-5.307,6.296-12.729,14.77-18.362,20.567l-4.73,5.007l-4.911,4.819
		c-12.866,12.942-26.872,25.155-41.126,36.497c-35.981,29.233-75.301,54.421-106.496,88.934
		c-10.406,11.667-20.003,24.494-27.589,38.187c-4.857,8.687-9.177,18.175-12.221,27.661c-18.36,52.979,5.65,106.246,19.75,157.282
		c16.679,54.79,17.595,110.355-13.107,160.149C167.303,599.74,166.271,599.187,166.271,599.187"/>
	<path clip-path="url(#SVGID_2_)" fill="#627A73" d="M108.259,492.774c0.578-2.645,1.604-7.307,2.135-9.736
		c0.337-1.919,1.39-7.762,1.754-9.793c0.353-2.589,1.017-7.448,1.358-9.842c0.179-1.865,0.764-7.879,0.956-9.877
		c0-0.001,0.37-6.601,0.37-6.601l0.194-3.296c0.039-1.907,0.125-7.869,0.163-9.901l-0.171-6.595l-0.074-3.295
		c-0.11-1.879-0.495-7.858-0.618-9.866c-0.248-2.565-0.797-7.445-1.032-9.825c-0.284-1.831-1.135-7.798-1.43-9.767l-1.2-6.468
		c-0.571-3.517-2.021-9.296-2.811-12.842c-0.667-2.324-1.993-7.31-2.618-9.5c-0.551-1.816-2.387-7.454-2.978-9.389
		c-0.852-2.219-2.575-7.148-3.374-9.249c-0.696-1.792-3.02-7.194-3.777-9.088c-7.183-16.2-16.081-31.729-22.176-48.561
		c-9.507-25.488-9.499-53.764-3.229-79.988c18.902-79.847,84.9-134.657,134.615-195.789c16.946-20.452,30.659-42.92,42.911-66.335
		c12.209-23.097,23.673-47.353,28.629-72.984l0.606-3.187l0.442-3.203l0.437-3.205c1.504-14.226,2.298-28.545,2.467-42.854
		c-0.018-34.979-1.968-71.42-17.734-103.306l0.637-0.361c13.774,23.154,18.816,50.375,21.4,76.878
		c2.199,25.626,2.231,51.548-0.71,77.118c-4.278,27.971-16.082,54.045-29.293,78.779c-12.441,23.8-27.129,46.596-44.467,67.02
		c-31.809,38.587-70.066,71.274-99.65,111.659c-27.844,37.638-46.624,85.344-38.431,132.604
		c4.304,26.448,18.833,48.539,29.485,73.125c6.992,16.582,12.325,33.897,15.198,51.642l1.087,6.647l0.788,6.687l0.381,3.344
		c0.25,3.611,0.505,6.802,0.73,10.066c0-0.001,0.206,6.721,0.206,6.721l0.099,3.359c-0.058,4.045-0.098,6.503-0.164,10.078
		l-0.399,6.704c-0.206,4.383-0.825,9.129-1.247,13.355l-1.003,6.628l-0.503,3.312l-0.643,3.287l-1.312,6.562l-1.604,6.494
		l-0.808,3.241l-0.963,3.201l-1.925,6.39L108.259,492.774z"/>
	<path clip-path="url(#SVGID_2_)" fill="#627A73" d="M84.441,518.768c8.529-33.328,8.797-68.197,2.848-101.912
		c-2.847-16.779-7.291-33.44-12.743-49.547c-4.125-12.133-8.897-24.046-14.053-35.777c-8.763-19.804-18.763-39.066-24.386-60.367
		c-11.626-46.691-4.071-96.736,15.321-140.311c12.013-28.162,31.029-52.381,49.337-76.507c20.384-27.348,39.15-56.276,51.955-87.987
		c30.932-74.697,18.603-150.895-7.646-224.875l0.815-0.328c3.325,7.397,7.158,16.622,9.982,23.979
		c5.413,14.097,10.228,28.725,13.891,43.402c16.146,63.418,12.177,123.726-17.957,182.301
		c-12.545,24.299-28.117,46.764-44.867,68.233C91.095,79.4,73.832,98.72,61.289,121.321
		c-23.315,40.686-34.162,89.916-23.798,136.164c4.404,21.054,14.734,40.01,24.269,59.15c9.807,19.327,18.12,39.77,23.996,60.738
		c4.271,14.572,7.228,29.852,9.187,44.909c0.595,5.972,1.324,13.577,1.471,19.61c0.301,5.253,0.2,8.236,0.173,13.104
		c-0.36,21.738-3.883,43.654-11.306,64.032L84.441,518.768"/>
	<path clip-path="url(#SVGID_2_)" fill="#627A73" d="M75.492,492.024c1.428-30.756-1.504-62.05-14.427-90.177
		c-1.949-4.197-4.275-8.578-6.551-12.509C41.3,366.96,25.804,344.284,14.66,320.685c-13.636-28.556-20.83-59.801-26.154-90.796
		c-1.489-8.106-2.788-18.174-3.863-26.225c-0.474-4.203-0.894-10.441-1.329-14.68c-0.685-9.071-0.925-20.338-0.913-29.514
		c0.205-6.894,0.663-16.895,1.407-23.664c5.866-67.014,41.16-116.751,76.647-170.965c6.043-9.604,11.877-19.602,16.488-29.981
		c2.309-5.066,4.228-10.419,5.881-15.709c1.353-5.06,2.727-11.323,3.528-16.567c3.233-18.891,4.283-38.235,3.247-57.389
		c-0.931-19.376-4.205-38.566-9.154-57.346l1.109-0.376c5.957,14.581,10.358,29.815,13.155,45.35
		c3.887,21.42,4.689,43.58,2.641,65.316c-1.018,9.934-2.49,20.239-5.468,29.812C79.71-34.038,52.92-3.318,32.601,30.221
		C14.258,59.508-0.314,91.451-7.64,125.302c-0.384,1.869-1.388,6.687-1.758,8.497c-1.413,8.498-2.569,17.302-3.239,25.882
		l-0.504,11.615c-0.115,5.591,0.077,11.869,0.23,17.458c2.538,44.46,15.231,88.404,36.296,127.547
		c13.654,25.693,30.501,50.214,43.656,76.341c14.183,31.049,16.05,66.514,9.613,99.526L75.492,492.024"/>
	<path clip-path="url(#SVGID_2_)" fill="#627A73" d="M146.499,120.318c0,0-7.384-2.11-16.947-2.813
		c-9.563-0.703-18.353,1.969-18.353,1.969s0.02,0.941-0.108,4.082c-6.647-0.136-12.901,2.246-12.901,2.246s-0.282,3.938,2.812,7.876
		c3.094,3.938,4.252,6.019,9.44,8.987l0.012-0.005c1.019,10.843,6.511,17.599,6.511,17.599l-3.868,32.769l-1.265-0.141
		l-1.196,11.603l-2.32,1.758l-0.375,2.813l20.064,2.25c1.476,0.515,3.465,0.92,5.063,0c3.3-1.9,2.636-8.127,1.688-19.502
		l-1.547-27.612c0,0,7.875-10.548,9.704-18.846C144.741,137.054,146.499,120.318,146.499,120.318 M104.306,133.888
		c-3.094-3.318-2.813-6.636-2.813-6.636s4.277-1.369,9.513-1.78c-0.123,2.617-0.324,6.283-0.651,11.371
		c-0.059,0.918-0.08,1.813-0.073,2.689C107.788,137.885,106.555,136.3,104.306,133.888"/>
	<path clip-path="url(#SVGID_2_)" fill="#627A73" d="M159.931,147.32c-2.27,0.008-3.733,0.012-5.556-0.281
		c-2.713-0.437-4.536-0.731-5.695-2.18c-1.243-1.552-1.136-3.694-1.056-5.274c0.139-2.734,1.121-3.612,0.422-5.274
		c-0.347-0.826-0.63-0.704-1.688-2.532c-0.912-1.575-1.258-1.54-1.336-1.898c-0.186-0.851-0.592-1.944-0.032-2.761
		c0.514-0.749,1.437-1.269,1.861-1.88c0.903-1.303-1.308-3.494-0.353-4.923c0.171-0.256,0.56-0.545,1.336-1.125
		c0.448-0.334,0.786-0.586,1.267-0.844c1.095-0.587,1.72-0.556,1.758-0.843c0.04-0.305-0.645-0.461-1.547-1.125
		c-0.512-0.377-1.899-1.398-1.899-2.602c0-0.361-0.313-1.414,0.703-2.251c1.583-1.3,2.558-1.691,2.778-1.828
		c2.953-1.828,2.422-1.618,5.098-4.008c0.755-0.674,1.272-1.145,1.688-1.969c0.757-1.501,0.335-2.503,0.702-4.219
		c0.291-1.359,0.87-2.201,1.97-3.797c2.331-3.389,3.639-3.065,4.5-5.063c1.225-2.844-1.003-4.477,0-6.751
		c0.915-2.075,3.7-2.824,9.563-3.657c7.668-1.089,11.502-1.633,15.751-1.406c9.356,0.5,15.731,0.841,21.659,5.344
		c8.362,6.353,9.917,16.494,10.407,19.69c0.381,2.482,1.53,11.841-3.094,21.377c-3.582,7.385-9.859,13.293-7.876,16.314
		c0.507,0.772,1.188,0.8,2.813,2.531c1.91,2.036,2.829,3.98,3.094,4.501c2.473,4.852,14.024,15.314,17.439,18.845
		c7.449,7.703,9.476,16.858,12.095,28.691c1.884,8.511,5.063,22.87-0.281,38.252c-3.792,10.915-7.965,11.089-12.376,23.347
		c-2.291,6.364-3.754,13.51-3.938,27.847c-0.363,28.265,4.865,36.317,5.344,60.756c0.382,19.516,0.574,29.273-3.657,36.848
		c-18.948,33.927-95.876,30.305-98.541,20.157c-0.335-1.277,0.684-1.993,2.251-5.063c5.993-11.743,2.752-24.162,1.687-30.19
		c-1.606-9.1,1.038-7.664,9.938-62.818c0,0,7.2-44.613,1.688-45.755c-0.565-0.116-1.446,0.515-3.751,0.563
		c0,0-2.151,0.046-4.125-0.563c-3.803-1.171-5.418-8.446-7.689-15.002c-3.009-8.686-3.954-6.819-7.313-16.125
		c-2.511-6.958-4.167-11.546-4.688-18.002c-0.101-1.26-1.435-18.404-3.563-21.002c-0.595-0.728-1.359-1.125-1.359-1.125
		c-0.434-0.226-1.586-0.726-2.883-0.422c-1.093,0.256-1.257,0.841-2.11,0.773c-0.762-0.06-1.283-0.58-1.476-0.773
		c-0.706-0.704-1.162-1.905-0.774-2.813c0.253-0.593,0.659-0.575,0.844-1.125c0.26-0.775-0.343-1.416-0.703-2.25
		c-0.933-2.157-0.164-5.421,1.476-6.47c0.59-0.376,1.241-0.435,1.337-0.914c0.089-0.45-0.405-0.803-0.915-1.406
		c-0.343-0.406-1.523-1.91-1.476-3.446c0.037-1.251,0.893-2.647,2.039-3.164c0.689-0.311,2.103-0.583,3.094-0.774
		c0.166-0.031,0.509-0.096,0.844-0.351c0.434-0.331,0.861-0.988,0.703-1.547c-0.148-0.524-0.745-0.73-1.688-1.055
		c-1.128-0.39-2.116-0.418-2.32-0.422c-1.076-0.022-1.238,0.198-1.547,0c-0.805-0.514-0.794-2.695,0.281-4.078
		c0.82-1.055,2.009-1.326,2.391-1.407c0.539-0.114,1.375-0.185,3.375,0.492c1.257,0.426,2.651,0.898,4.29,2.04
		c2.058,1.433,1.967,2.155,4.5,4.078c0.201,0.153,2.891,2.18,3.305,1.758c0.198-0.201-0.365-0.713-0.492-1.617
		c-0.315-2.236,2.334-4.701,3.938-4.712c0.211-0.001,0.764-0.005,1.055,0.352c0.28,0.344,0.129,0.797,0.281,0.844
		c0.207,0.064,0.46-0.79,1.266-1.547c0.346-0.326,0.815-0.754,1.476-0.774c0.05-0.001,0.871-0.015,1.196,0.493
		c0.344,0.538-0.071,1.346-0.282,1.828c-0.921,2.112-0.813,4.622-0.351,6.047c0.356,1.101,1.058,1.859,2.461,3.376
		c1.249,1.35,2.034,1.787,2.461,3.023c0.34,0.984,0.176,1.669,0.141,2.532c-0.13,3.216,1.75,3.634,2.531,7.594
		c0.587,2.975-0.272,3.758,0.773,6.048c0.663,1.452,1.45,2.101,2.25,3.024c4.067,4.685,3.486,10.639,4.501,10.618
		c0.7-0.015,1.038-2.851,1.828-6.751c1.061-5.235,1.85-9.129,3.517-12.728c0.675-1.457,3.314-7.159,9.07-11.18
		c1.517-1.059,4.107-2.602,7.876-5.626c1.614-1.295,4.148-3.426,3.656-4.922c-0.205-0.625-0.808-0.745-1.687-2.18
		c-0.619-1.01-0.451-1.164-0.914-1.758c-0.816-1.045-1.511-0.795-2.954-1.829c-0.416-0.298-1.583-1.151-2.32-2.601
		c-0.654-1.286-0.287-1.699-0.844-2.672c-0.858-1.5-2.586-2.02-3.587-2.321C164.088,147.026,163.395,147.308,159.931,147.32"/>
	<path clip-path="url(#SVGID_2_)" fill="#D88B6C" d="M221.057,295.059c1.045,2.718,2.366,4.876,3.214,7.285
		c0.342,2.039,0.37,4.431,1.603,6.341c-0.001,0-0.943-0.439-0.943-0.439l0.66-0.458l-0.469,1.086
		c-1.355-2.185-1.768-4.815-2.241-7.205c-0.289-2.005-0.722-3.897-1.55-5.729C221.31,295.791,221.345,295.412,221.057,295.059
		 M220.897,294.813c2.648,0.695,4.417,3.689,5.026,6.205c0.577,2.553,0.595,5.668,0.898,8.237c-0.649,0.135-1.571,0.318-2.223,0.453
		c-0.061-3.046-1.624-5.408-2.688-8.229C221.251,299.259,221.077,296.79,220.897,294.813"/>
	<path clip-path="url(#SVGID_2_)" fill="#D88B6C" d="M150.879,120.57c-11.449-2.263-23.552-3.336-34.839,0.193l0.828-1.144
		l-0.052,4.158l-0.015,1.155l-1.235,0.02c-4.198-0.001-8.468,0.837-12.407,2.251l0.845-1.136c-0.124,3.29,1.899,6.378,3.909,8.851
		c2.082,2.944,4.424,5.229,7.537,7.03l-0.855-0.074c0.006-0.01,1.256-0.414,1.265-0.423c0.393,6.553,2.201,13.236,6.037,18.627
		l0.15,0.201l-0.029,0.216c-1.461,10.719-2.702,22.005-3.747,32.782l-0.067,0.656c-0.442-0.015-1.499-0.154-1.949-0.176l0.777-0.627
		l-0.934,11.629l-0.031,0.396c-0.751,0.619-1.97,1.552-2.625,2.089l0.401-0.689l-0.311,2.821l-0.968-1.238
		c6.699,0.652,13.402,1.267,20.095,1.978c3.056,0.981,5.227,0.779,5.699-2.873c0.557-5.359-0.457-10.826-0.72-16.231
		c-0.509-8.852-0.942-17.709-1.286-26.569l-0.019-0.507l0.287-0.383c4.425-6.095,8.716-12.667,10.291-20.153
		C148.519,136.019,149.587,128.014,150.879,120.57 M151.121,120.406c0.046,0.418-0.06,1.119-0.069,1.553
		c-0.521,7.156-1.188,14.705-2.341,21.788c-1.18,7.901-5.492,14.913-9.912,21.434l0.268-0.89c0.647,8.83,1.205,17.665,1.687,26.505
		c0.285,4.378,0.799,8.794,0.766,13.375c-0.104,2.516-0.11,5.01-1.756,7.264c-1.84,2.4-5.273,2.309-7.711,1.343l0.299,0.068
		c-6.683-0.789-13.356-1.674-20.033-2.522l-1.139-0.145c0.146-0.95,0.529-3.369,0.68-4.348l0.331-0.239l2.362-1.702l-0.378,0.671
		l1.457-11.576l0.091-0.718c0.418,0.066,1.516,0.193,1.95,0.258l-0.748,0.594c1.101-7.851,2.225-16.673,3.115-24.552
		c0.319-2.731,0.595-5.467,0.873-8.203l0.121,0.416c-3.957-5.172-6.288-11.421-7.097-17.854c-0.01,0.006,1.409,0.869,1.353,0.87
		l-0.419,0.164c-3.457-1.706-6.705-4.394-8.94-7.514c0,0.001-1.695-2.146-1.695-2.146c-1.99-2.637-3.094-5.936-2.823-9.269
		c4.571-1.665,9.325-2.622,14.204-2.529l-1.249,1.175l0.162-4.008l0.038-0.931c9.061-2.602,18.616-2.58,27.774-0.607
		C145.295,118.756,148.301,119.382,151.121,120.406"/>
	<path clip-path="url(#SVGID_2_)" fill="#D88B6C" d="M108.7,134.158c-1.935-2.103-4.345-4.439-3.997-7.646l0.896-0.326
		c3.356-1.21,6.952-0.37,10.394-1.1l-0.002,0.579c0.442,5.547,0.805,11.23-0.028,16.763l-1.999-1.486
		C111.504,139.284,110.644,136.258,108.7,134.158 M108.914,133.958c1.786,1.997,4.446,3.219,6.687,4.503l-2.304,1.253
		c-0.14-3.598,0.355-7.098,1.065-10.608c0.253-1.159,0.532-2.319,0.661-3.487l0.522,0.506c-0.798,0.027-1.599,0.079-2.383,0.252
		c-2.221,0.475-4.556,1.815-6.772,2.279c0,0.001,0.897-1.125,0.897-1.125C107.053,129.664,107.276,132.32,108.914,133.958"/>
	<path clip-path="url(#SVGID_2_)" fill="#D88B6C" d="M91.432,299.68c-1.734-1.554-3.593-2.516-3.723-4.86
		c-0.093-0.627-0.409-1.216-0.841-1.706l0.691,0.149c-0.318,0.284-0.589,0.637-0.862,0.989l0.237-1.164
		c2.231,1.674,3.867,4.019,4.337,6.801l-0.97-0.208C90.533,299.711,90.9,299.786,91.432,299.68 M91.717,299.746
		c-0.049,0.33-0.511,1.02-0.892,1.396c-2.717-1.521-4.585-4.111-5.294-7.126l-0.251-1.034c0.571-0.157,1.211-0.296,1.734-0.54
		l0.519-0.246c0.51,1.747,2.249,2.456,3.189,3.869C91.354,297.183,91.933,298.575,91.717,299.746"/>
	<path clip-path="url(#SVGID_2_)" fill="#D88B6C" d="M170.207,412.595c-5.111,0-9.971-0.299-14.368-0.857
		c-7.535-0.958-16.779-3.098-18.027-7.852c-0.458-1.742,0.306-2.992,1.112-4.316c0.359-0.589,0.807-1.321,1.307-2.302
		c5.082-9.958,3.052-20.562,1.838-26.898c-0.132-0.691-0.254-1.331-0.357-1.912c-0.945-5.35-0.481-7.596,1.469-17.047
		c1.646-7.971,4.398-21.312,8.464-46.503c2.897-17.951,4.82-38.819,3.146-43.051c-0.66,0.168-1.634,0.374-2.995,0.403
		c-0.104-0.001-2.53,0.045-4.818-0.66c-4.225-1.3-6.046-6.95-7.976-12.932c-0.37-1.147-0.744-2.309-1.14-3.448
		c-1.433-4.138-2.363-5.744-3.347-7.442c-1.086-1.876-2.208-3.814-3.956-8.658c-2.569-7.116-4.266-11.817-4.812-18.569
		c-0.921-11.494-2.246-18.637-3.083-19.801c-0.231-0.28-0.576-0.507-0.689-0.569c-0.146-0.076-0.757-0.359-1.346-0.219
		c-0.157,0.037-0.231,0.082-0.429,0.202c-0.443,0.267-1.183,0.725-2.353,0.622c-1.038-0.082-1.997-0.554-2.851-1.403
		c-1.176-1.178-2.065-3.312-1.245-5.232c0.157-0.368,0.349-0.653,0.53-0.872c-0.135-0.246-0.269-0.502-0.386-0.774
		c-1.272-2.942-0.407-6.94,1.796-8.808c-0.686-0.946-1.607-2.564-1.553-4.362c0.063-2.041,1.371-4.11,3.14-5.007
		c-0.307-0.053-0.65-0.165-1.001-0.389c-0.785-0.502-1.319-1.374-1.505-2.456c-0.278-1.606,0.206-3.497,1.233-4.82
		c0.608-0.781,1.737-1.798,3.67-2.207c0.876-0.188,2.099-0.264,4.535,0.561c1.31,0.443,2.944,0.996,4.839,2.315
		c1.219,0.85,1.83,1.515,2.42,2.158c0.462,0.502,0.901,0.98,1.744,1.656c0.28-0.786,0.736-1.557,1.358-2.277
		c1.003-1.162,2.702-2.41,4.46-2.422c0.483,0.019,0.847,0.05,1.212,0.151c0.491-0.453,1.413-1.233,2.815-1.275
		c0.527-0.006,2.193,0.07,3.109,1.502c0.956,1.492,0.237,3.097-0.069,3.781l-0.049,0.111c-0.724,1.658-0.552,3.635-0.274,4.491
		c0.198,0.611,0.664,1.135,1.984,2.561c0.329,0.356,0.623,0.642,0.884,0.896c0.806,0.787,1.566,1.529,2.04,2.901
		c0.417,1.206,0.346,2.136,0.289,2.885c-0.011,0.147-0.022,0.297-0.03,0.454c-0.044,1.111,0.23,1.605,0.777,2.589
		c0.573,1.034,1.288,2.32,1.716,4.492c0.301,1.527,0.279,2.573,0.261,3.413c-0.019,0.899-0.026,1.31,0.355,2.147
		c0.374,0.818,0.783,1.262,1.351,1.876c0.186,0.201,0.373,0.404,0.561,0.621c1.198,1.38,2.04,2.836,2.648,4.235
		c1.004-4.943,1.845-8.902,3.547-12.578c2.948-6.365,6.961-10.071,9.806-12.059c0.386-0.268,0.837-0.568,1.357-0.913
		c1.535-1.016,3.637-2.407,6.403-4.625c1.737-1.395,2.445-2.182,2.731-2.602c-0.325-0.337-0.773-0.845-1.262-1.641
		c-0.408-0.669-0.575-1.097-0.686-1.379c-0.019-0.046-0.033-0.09-0.054-0.134c-0.139-0.178-0.142-0.181-0.574-0.364
		c-0.478-0.202-1.13-0.478-1.96-1.071c-1.331-0.955-2.339-2.096-2.999-3.393c-0.495-0.974-0.604-1.679-0.676-2.146
		c-0.046-0.3-0.051-0.315-0.116-0.43c-0.424-0.742-1.562-1.083-2.313-1.308c-0.777-0.234-1.145-0.229-2.576-0.179
		c-0.675,0.025-1.509,0.056-2.62,0.06c-2.36,0.006-3.912,0.014-5.914-0.31c-2.998-0.483-5.369-0.864-7.059-2.974
		c-1.764-2.202-1.626-4.944-1.534-6.758c0.067-1.327,0.308-2.304,0.481-3.017c0.226-0.922,0.225-1.022,0.11-1.295
		c-0.037-0.087-0.037-0.087-0.198-0.283c-0.282-0.344-0.709-0.863-1.366-2c-0.419-0.722-0.645-0.965-0.795-1.126
		c-0.219-0.234-0.627-0.67-0.787-1.406l-0.082-0.343c-0.242-0.98-0.646-2.62,0.386-4.125c0.432-0.63,0.969-1.092,1.399-1.463
		c0.069-0.059,0.153-0.132,0.232-0.202c-0.059-0.189-0.142-0.421-0.205-0.598c-0.388-1.073-1.034-2.869,0.066-4.517
		c0.383-0.573,0.904-0.961,1.85-1.665c0.111-0.084,0.222-0.166,0.334-0.249c-0.794-0.78-1.64-1.94-1.64-3.407
		c-0.068-0.607-0.267-2.49,1.505-3.945c1.481-1.218,2.531-1.755,2.98-1.985l0.093-0.048c2.015-1.249,2.154-1.379,3.251-2.393
		c0.371-0.344,0.835-0.774,1.483-1.352c0.719-0.643,0.97-0.887,1.188-1.32c0.233-0.462,0.254-0.785,0.282-1.535
		c0.023-0.574,0.05-1.289,0.235-2.156c0.384-1.786,1.148-2.898,2.308-4.582c1.384-2.011,2.49-2.912,3.297-3.57
		c0.641-0.522,0.8-0.662,0.995-1.116c0.328-0.762,0.211-1.291-0.063-2.317c-0.303-1.125-0.716-2.667,0.07-4.451
		c1.466-3.321,5.412-4.114,11.266-4.945c7.798-1.108,11.707-1.659,16.177-1.425c9.523,0.51,16.403,0.878,22.868,5.788
		c9.064,6.887,10.709,17.584,11.249,21.099c0.557,3.636,1.349,13.113-3.288,22.674c-1.383,2.852-3.119,5.449-4.651,7.741
		c-1.24,1.855-3.82,5.716-3.365,6.411c0.037,0.038,0.209,0.164,0.349,0.265c0.483,0.353,1.215,0.886,2.23,1.968
		c2.014,2.147,3.059,4.227,3.4,4.911l0.049,0.097c1.736,3.406,9.139,10.581,13.563,14.869c1.441,1.398,2.687,2.606,3.499,3.446
		c7.878,8.145,9.987,17.673,12.658,29.735c1.946,8.791,5.197,23.486-0.35,39.455c-1.959,5.638-4.068,8.635-6.109,11.534
		c-2.026,2.881-4.125,5.859-6.274,11.835c-2.154,5.984-3.626,12.889-3.809,27.131c-0.195,15.215,1.27,24.638,2.688,33.752
		c1.197,7.699,2.435,15.66,2.656,26.932c0.391,19.888,0.586,29.868-3.935,37.962C228.892,404.832,196.271,412.595,170.207,412.595
		 M142.094,402.859c0.387,0.739,3.507,3.152,14.299,4.524c25.607,3.25,67.407-2.44,80.167-25.283
		c3.941-7.055,3.753-16.639,3.377-35.733c-0.214-10.977-1.375-18.441-2.604-26.345c-1.445-9.292-2.939-18.898-2.739-34.482
		c0.19-14.853,1.763-22.159,4.068-28.561c2.35-6.532,4.62-9.757,6.815-12.876c1.951-2.772,3.795-5.392,5.553-10.448
		c5.138-14.793,2.055-28.729,0.212-37.055c-2.622-11.84-4.516-20.388-11.53-27.643c-0.764-0.789-1.985-1.974-3.4-3.345
		c-6.508-6.308-12.509-12.281-14.418-16.03l-0.061-0.119c-0.3-0.6-1.102-2.194-2.68-3.877c-0.732-0.781-1.2-1.123-1.614-1.424
		c-0.459-0.335-0.979-0.714-1.433-1.404c-2.05-3.125,0.47-6.894,3.387-11.259c1.452-2.174,3.1-4.637,4.351-7.217
		c4.099-8.452,3.395-16.864,2.9-20.087c-0.475-3.085-1.915-12.461-9.567-18.275c-5.39-4.094-11.38-4.414-20.447-4.899
		c-4.047-0.219-7.81,0.32-15.322,1.387c-4.369,0.62-7.379,1.26-7.867,2.37c-0.144,0.324-0.096,0.62,0.151,1.544
		c0.319,1.191,0.803,2.992-0.145,5.189c-0.628,1.459-1.491,2.163-2.253,2.783c-0.669,0.545-1.426,1.162-2.454,2.656
		c-1.087,1.579-1.44,2.122-1.63,3.013c-0.106,0.494-0.122,0.916-0.143,1.404c-0.033,0.896-0.075,2.011-0.75,3.344
		c-0.61,1.213-1.375,1.895-2.184,2.617c-0.623,0.557-1.068,0.969-1.425,1.299c-1.278,1.183-1.631,1.483-3.98,2.938
		c-0.07,0.044-0.186,0.108-0.347,0.19c-0.344,0.176-1.053,0.539-2.137,1.423c0.004,0.051,0.01,0.109,0.015,0.155
		c0.013,0.127,0.022,0.24,0.026,0.335c0.066,0.125,0.286,0.414,1.006,0.944c0.263,0.192,0.505,0.328,0.739,0.46
		c0.521,0.291,1.902,1.067,1.683,2.721c-0.2,1.504-1.513,1.95-2.007,2.118c-0.25,0.085-0.534,0.181-0.888,0.371
		c-0.325,0.175-0.552,0.34-0.99,0.669c-0.223,0.165-0.461,0.344-0.646,0.486c0.062,0.212,0.159,0.485,0.233,0.688
		c0.4,1.114,1.007,2.794-0.083,4.366c-0.36,0.518-0.812,0.908-1.21,1.25c-0.19,0.165-0.401,0.345-0.538,0.493
		c0.021,0.194,0.101,0.511,0.15,0.715c0.002,0.005,0.003,0.01,0.004,0.015c0.292,0.33,0.686,0.831,1.197,1.715
		c0.479,0.826,0.745,1.152,0.959,1.413c0.267,0.324,0.568,0.69,0.854,1.368c0.692,1.651,0.381,2.92,0.106,4.04
		c-0.153,0.631-0.314,1.284-0.36,2.195c-0.065,1.288-0.146,2.89,0.577,3.791c0.604,0.756,1.831,0.983,4.329,1.386
		c1.648,0.265,2.989,0.257,5.199,0.253h0.001c1.049-0.003,1.837-0.033,2.475-0.057c1.505-0.056,2.498-0.092,4.003,0.362
		c1.154,0.346,3.563,1.069,4.856,3.331c0.475,0.827,0.573,1.472,0.646,1.943c0.049,0.317,0.073,0.476,0.25,0.823
		c0.509,1.002,1.361,1.613,1.642,1.815c0.434,0.308,0.748,0.442,1.114,0.597c0.625,0.265,1.481,0.627,2.292,1.663
		c0.432,0.555,0.596,0.976,0.716,1.284c0.075,0.193,0.135,0.346,0.34,0.68c0.333,0.546,0.588,0.8,0.835,1.047
		c0.342,0.341,0.808,0.807,1.066,1.595c0.991,3.016-2.495,5.815-4.368,7.318c-2.924,2.344-5.122,3.799-6.727,4.862
		c-0.485,0.321-0.907,0.601-1.267,0.851c-2.403,1.678-5.799,4.828-8.336,10.302c-1.559,3.367-2.313,7.09-3.356,12.243
		c-0.173,0.848-0.322,1.646-0.459,2.372c-0.716,3.799-1.148,6.09-3.477,6.138c-2.149,0.038-2.646-2.154-2.97-3.76
		c-0.409-2.02-1.025-5.071-3.233-7.614c-0.157-0.182-0.314-0.352-0.47-0.521c-0.681-0.737-1.453-1.573-2.119-3.029
		c-0.799-1.751-0.773-2.98-0.751-4.065c0.015-0.725,0.03-1.41-0.179-2.47c-0.295-1.495-0.758-2.328-1.248-3.21
		c-0.664-1.198-1.418-2.555-1.323-4.898c0.008-0.212,0.023-0.414,0.038-0.61c0.043-0.574,0.053-0.79-0.061-1.117
		c-0.123-0.357-0.28-0.533-0.956-1.193c-0.309-0.301-0.654-0.639-1.041-1.058c-1.518-1.639-2.435-2.628-2.938-4.189
		c-0.394-1.213-0.579-2.919-0.357-4.68c-0.55,0.233-1.079,0.185-1.505,0.055c-0.278-0.087-0.784-0.305-1.161-0.824
		c-0.638,0.459-1.374,1.371-1.294,1.935c0.015,0.111,0.086,0.254,0.168,0.421c0.75,1.513,0.258,2.49-0.286,3.044
		c-1.646,1.675-3.965,0.153-6.201-1.555c-1.429-1.085-2.149-1.868-2.726-2.498c-0.508-0.552-0.874-0.951-1.696-1.524
		c-1.384-0.963-2.529-1.35-3.74-1.76c-1.077-0.366-1.824-0.508-2.214-0.425c-0.513,0.109-0.887,0.313-1.115,0.606
		c-0.126,0.162-0.216,0.353-0.277,0.542c0.6,0.023,1.658,0.128,2.845,0.537c1.172,0.404,2.624,0.906,3.085,2.532
		c0.444,1.569-0.426,3.085-1.487,3.891c-0.745,0.569-1.485,0.709-1.763,0.762c-0.692,0.133-2.145,0.412-2.602,0.618
		c-0.316,0.143-0.732,0.751-0.747,1.231c-0.014,0.46,0.39,1.285,0.961,1.962c0.101,0.119,0.201,0.225,0.293,0.323
		c0.483,0.52,1.384,1.486,1.096,2.928c-0.287,1.437-1.491,1.965-2.005,2.19c-0.095,0.043-0.202,0.081-0.301,0.145
		c-0.621,0.397-1.194,2.478-0.645,3.748c0.072,0.166,0.158,0.318,0.238,0.465c0.383,0.704,1.026,1.882,0.532,3.354
		c-0.218,0.65-0.572,1.065-0.832,1.318c0.045,0.119,0.128,0.266,0.232,0.371c0.007,0.006,0.014,0.013,0.022,0.021
		c0.333-0.192,0.822-0.444,1.511-0.607c1.929-0.45,3.583,0.189,4.395,0.61c0.199,0.104,1.209,0.661,2.047,1.683
		c1.672,2.042,3.033,9.485,4.045,22.122c0.506,6.262,2.124,10.744,4.573,17.529c1.615,4.474,2.637,6.239,3.626,7.948
		c1.045,1.803,2.125,3.669,3.696,8.204c0.406,1.169,0.79,2.361,1.17,3.538c1.43,4.433,3.05,9.455,5.091,10.083
		c1.591,0.49,3.425,0.468,3.438,0.466c1.098-0.021,1.765-0.202,2.302-0.348c0.559-0.149,1.194-0.323,1.932-0.169
		c2.726,0.563,5.195,3.009,2.968,25.67c-1.105,11.234-2.911,22.472-2.93,22.584c-4.081,25.285-6.846,38.686-8.499,46.691
		c-1.944,9.425-2.243,10.873-1.444,15.395c0.099,0.563,0.218,1.183,0.346,1.852c1.232,6.438,3.527,18.419-2.24,29.721
		c-0.576,1.127-1.092,1.974-1.469,2.592C142.445,402.227,142.194,402.639,142.094,402.859 M153.846,129.408
		c0,0.002,0.001,0.003,0.001,0.005C153.847,129.411,153.846,129.41,153.846,129.408"/>
	<path clip-path="url(#SVGID_2_)" fill="#F2E0D1" d="M87.287,292.852c1.429,2.287,2.859,4.574,4.288,6.86
		c-0.298,0.189-0.596,0.379-0.894,0.567c-1.483-2.242-2.965-4.485-4.448-6.729C86.584,293.318,86.936,293.085,87.287,292.852"/>
	<path clip-path="url(#SVGID_2_)" fill="#F2E0D1" d="M42.82,424.605c-0.743-0.746-0.912-2.063-1.315-3.149
		c0.206-0.07,0.411-0.14,0.617-0.21c1.048,0.67,2.097,1.34,3.801,2.43C44.645,424.088,43.146,424.93,42.82,424.605"/>
	<path clip-path="url(#SVGID_2_)" fill="#F2E0D1" d="M51.718,417.242c-1.741,1.291-3.558,2.492-5.411,3.618
		c-0.689,0.419-1.973,0.941-2.298,0.65c-0.645-0.577-0.027-7.836-1.305-10.291c2.195,0.622,3.563-1.26,2.613-2.52
		c0.159-0.147,0.318-0.297,0.476-0.444c0.908,0.405,5.441-6.403,4.425-7.278c0.634-0.209-0.554-3.211-0.743-4.289
		c-0.244-1.4,1.017-1.68,2.159-2.305c4.529-2.479,7.032-0.753,9.387,3.268c1.765,3.014,4.396,5.521,6.318,7.86
		C62.053,409.487,56.907,413.393,51.718,417.242"/>
	<path clip-path="url(#SVGID_2_)" fill="#627A73" d="M285.631,277.996c-1.079,1.009-2.244,1.988-2.961,3.492
		c-2.688,5.635-5.574,11.174-8.44,16.721c-0.281,0.546-0.957,1.249-1.463,1.261c-4.543,0.098-9.089,0.057-13.468,0.057
		c0.342-2.524,0.908-5.095,0.958-7.676c0.029-1.498-0.769-3.011-1.196-4.519c-1.272,0.509-2.545,1.019-3.821,1.519
		c-0.155,0.061-0.333,0.061-0.722,0.126c-0.322-1.677-0.636-3.36-0.972-5.038c-0.394-1.971-1.467-2.428-3.199-1.416
		c-0.423,0.247-0.877,0.438-1.264,0.628c-3.028-3.012-2.978-2.977-5.336,0.403c-0.483,0.692-1.501,1.013-2.273,1.505
		c-0.433-0.86-0.95-1.692-1.262-2.594c-0.156-0.448,0.098-1.026,0.108-1.548c0.102-5.204,0.341-10.415,0.203-15.614
		c-0.047-1.764-0.385-4.521-2.676-4.444c-2.399,0.08-2.498,2.848-2.652,4.753c-0.338,4.157-0.395,8.336-0.559,12.506
		c-0.25,6.366-1.543,12.508-3.909,19.001c-1.526-2.009-2.796-3.628-4.011-5.287c-2.362-3.227-4.995-5.852-9.531-5.015
		c-0.474,0.088-1.322-0.423-1.595-0.891c-5.767-9.903-11.492-19.831-17.19-29.773c-2.341-4.081-2.422-8.077-0.079-12.351
		c2.805-5.119,2.596-10.896,2.461-16.521c-0.059-2.419-0.855-4.82-1.318-7.237c-3.402,0.86-4.772,3.307-3.604,6.551
		c0.813,2.259,0.034,4.384-1.616,5.193c-1.914,0.938-3.509-0.736-4.367-2.647c-0.463-1.029-1.007-2.04-1.316-3.116
		c-1.195-4.159-2.26-8.355-3.479-12.506c-0.636-2.167-1.089-4.578-4.565-5.585c0.187,2.492,0.156,4.531,0.525,6.495
		c0.704,3.741,1.706,7.426,2.411,11.167c0.133,0.708-0.538,1.567-0.838,2.356c-1.642-2.606-2.483-4.983-3.611-7.215
		c-1.14-2.255-2.362-2.332-3.83-0.728c-0.902-0.66-1.781-1.302-2.661-1.945c-0.491,1.15-1.426,2.317-1.383,3.446
		c0.099,2.569,0.646,5.125,1.075,7.675c0.301,1.785,0.708,3.552,1.214,6.051c-4.969-2.905-7.137-8.261-12.771-8.628
		c0.326,1.342,0.714,2.678,1.598,3.434c8.363,7.158,13.18,17.214,20.633,25.104c0.467,0.495,0.832,1.132,1.098,1.765
		c3.913,9.289,7.88,18.557,11.677,27.894c4.507,11.085,8.828,22.247,16.407,31.738c0.318,0.398,0.553,0.891,0.724,1.373
		c2.807,7.936,5.565,15.889,8.41,23.81c0.968,2.696,2.044,5.361,3.241,7.963c1.634,3.546,1.246,6.432-1.967,8.854
		c-3.67,2.767-7.634,5.14-11.417,7.761c-2.913,2.018-6.014,3.875-8.545,6.309c-3.135,3.015-4.679,6.947-5.028,11.414
		c-0.231,2.974-1.185,3.607-4.015,4.004c0.943-6.285,1.911-12.541,2.805-18.807c0.223-1.559,0.911-2.329,2.477-2.82
		c1.31-0.41,3.251-1.356,3.441-2.35c0.811-4.197,1.49-8.512,1.394-12.764c-0.071-3.09-1.762-11.373-1.68-11.472
		c0.862,0.399,2.579-6.526,1.716-7.153c0.049-0.091,0.099-0.181,0.147-0.271c0.999,0.335-8.383-8.776-9.948-11.754
		c-2.047,0.7-4.59-0.972-6.338,1.368c-0.258,0.346-1.049,0.294-1.594,0.426c-0.085-0.198-0.134-3.761-2.598-2.399
		c-0.087-0.083-0.173-0.167-0.259-0.251c1.138-1.602-18.368,4.144-15.896,5.316c-0.052,0.148-0.103,0.298-0.155,0.445
		c-1.889-0.113-9.547,11.903-8.064,11.515c-1.28,1.198-0.8,1.946,0.401,1.283c-1.069,2.146-1.188,5.641-0.536,5.349
		c-0.74,3.035-1.447,5.935-2.137,8.759c-1.165-0.75-4.131-0.417-4.389,0.622c-2.058-1.461-3.902-1.771-5.846-0.054
		c-0.554,0.488-1.705,0.335-2.588,0.403c-1.827,0.142-4.806,3.182-6.588,3.452c-0.817,0.125-2.086-0.103-2.542-0.665
		c-2.355-2.897-4.418-6.029-6.761-8.938c-3.528-4.381-7.221-8.63-10.797-12.974c-0.504-0.612-1.13-1.492-1.043-2.162
		c0.434-3.342,0.336-7.041,1.811-9.899c3.954-7.666,5.87-15.973,8.53-24.041c0.799-2.421,1.046-5.121,1.032-7.69
		c-0.019-3.517-1.129-3.963-4.055-2.09c-0.472,0.304-1.03,0.471-1.69,0.764c-0.359-1.906-0.577-3.616-1.023-5.264
		c-0.432-1.596-1.323-2.309-3.122-1.393c-0.644,0.327-2.084,0.169-2.5-0.324c-1.567-1.855-2.56-1.538-3.797,0.323
		c-0.703,1.057-1.85,1.819-2.798,2.715c-0.502-1.404-1.293-2.781-1.429-4.22c-0.153-1.609,0.327-3.272,0.463-4.917
		c0.237-2.857,0.607-5.723,0.558-8.578c-0.03-1.773-0.563-3.598-1.21-5.27c-0.268-0.69-1.409-1.385-2.183-1.42
		c-0.525-0.023-1.409,1.014-1.599,1.72c-0.515,1.917-0.885,3.898-1.061,5.877c-0.432,4.85-0.52,9.738-1.128,14.563
		c-0.579,4.594-1.641,9.126-2.49,13.686c-0.328,0.07-0.655,0.142-0.983,0.212c-1.426-1.9-2.887-3.774-4.268-5.706
		c-1.671-2.337-3.574-4.724-6.672-4.279c-3.572,0.512-5.022-1.301-6.052-4.091c-0.51-1.38-0.834-2.836-1.422-4.179
		c-0.472-1.08-0.983-2.378-1.879-2.994c-3.122-2.148-3.704-4.967-3.022-8.448c1.254-6.396,2.379-12.816,3.534-19.231
		c0.168-0.937,0.302-1.899,0.284-2.848c-0.039-2.079-1.229-2.971-2.797-1.716c-1.489,1.192-2.891,3.099-3.294,4.921
		c-0.967,4.371-1.071,4.733-5.986,4.963c-0.826-2.311-1.789-4.646-2.493-7.055c-0.999-3.418-1.722-6.917-2.731-10.332
		c-0.629-2.13-1.442-4.299-5.14-4.502c0.674,4.028,1.29,7.71,1.906,11.39c-1.23-3.282-1.979-6.662-2.901-9.995
		c-0.438-1.583-0.638-4.021-2.899-3.617c-2.176,0.39-1.463,2.747-1.248,4.22c0.714,4.896,1.646,9.761,2.568,14.624
		c0.412,2.172,0.902,4.282-0.794,5.186c-3.749-3.338-7.153-6.438-10.642-9.438c-1.283-1.104-2.652-2.264-4.189-2.87
		c-1.57-0.619-2.423,0.432-1.653,1.971c0.681,1.36,1.771,2.516,2.709,3.8c-1.583,1.795-0.805,3.489,0.329,5.137
		c1.427,2.069,2.914,4.1,4.322,6.183c4.304,6.368,7.105,13.822,13.519,18.668c0.154,0.116,0.159,0.431,0.33,0.94
		c-4.382-1.133-7.05,1.081-8.938,4.389c-3.035,5.317-7.702,6.286-13.206,5.382c-2.279-0.374-4.053-1.431-5.172-3.534
		c-0.855-1.607-1.748-3.206-2.757-4.72c-2.931-4.396-5.929-8.744-8.9-13.112c-1.318-1.938-2.396-4.12-4.041-5.721
		c-0.923-0.899-2.781-0.838-4.218-1.209c0.182,1.266,0.362,2.532,0.551,3.796c0.012,0.079,0.093,0.146,0.133,0.222
		c2.989,5.645,5.981,11.288,8.957,16.939c0.143,0.271,0.151,0.615,0.223,0.925c-1.984-1.891-3.419-4.111-5.039-6.187
		c-2.293-2.938-4.563-5.924-7.151-8.59c-1.69-1.739-3.997-2.639-7.068-1.583c0.698,1.227,1.2,2.277,1.853,3.225
		c3.207,4.642,6.463,9.251,9.676,13.888c0.388,0.56,0.627,1.221,0.934,1.835c-1.842-1.729-3.188-3.753-4.738-5.605
		c-1.671-1.996-3.865-2.847-7.007-2.222c3.363,5.968,6.621,11.747,10.128,17.972c-3.296-0.676-5.735-1.321-8.214-1.6
		c-0.806-0.09-1.72,0.783-2.584,1.215c0.472,0.819,0.773,1.849,1.458,2.405c0.846,0.688,1.969,1.16,3.045,1.416
		c4.183,0.997,6.841,3.799,9.301,7.107c2.741,3.685,5.866,7.082,8.763,10.654c1.14,1.407,2.756,2.844,3.023,4.453
		c0.473,2.852,1.923,4.942,3.531,7.115c0.761,1.027,1.323,2.247,1.768,3.456c5.791,15.74,11.453,31.529,17.388,47.215
		c1.169,3.089,3.384,5.777,5.064,8.681c1.177,2.034,2.265,4.12,3.393,6.183c-0.237,0.146-0.475,0.294-0.713,0.44
		c-0.669-0.697-1.292-1.446-2.017-2.081c-1.326-1.159-3.167-1.996-3.975-3.429c-1.432-2.538-2.22-5.434-3.336-8.157
		c-1.311-3.199-1.435-6.975-4.793-9.208c-0.696-0.463-0.914-1.959-0.974-3.001c-0.135-2.368-1.024-4.399-3.101-5.374
		c-1.882-0.882-4.072-1.107-6.127-1.623c0.248-0.148,0.495-0.298,0.742-0.446c-1.345-1.152-2.69-2.304-4.035-3.455
		c-0.17,0.228-0.341,0.456-0.511,0.684c-0.555,0.334-1.11,0.669-1.707,1.028c-1.547-2.915-2.838-5.882-6.436-7
		c-0.236,0.979-0.428,1.78-0.618,2.569c-2.059-0.326-4.182-2.515-6.096,0.272c0.873,0.542,1.716,1.067,2.559,1.591
		c-3.098-0.64-5.938-2.509-9.085-0.828c0.977,0.362,2.008,0.744,3.598,1.333c-2.775,0.826-5.062,1.056-6.83,2.136
		c-2.974,1.816-5.697,4.081-8.375,6.336c-1.928,1.624-1.96,3.798-0.6,4.982c-0.529,0.748-1.059,1.485-1.589,2.225v89.595h292.662
		V277.996z M93.245,351.314c-1.008,3.051-2.084,6.079-3.145,9.112c-2.543,7.267-3.529,14.629-1.98,22.304
		c0.848,4.2,0.612,8.366-3.174,11.541c-5.345-3.269-9.821-7.021-11.459-13.657c-2.676-10.847-8.627-20.234-14.253-29.738
		c-6.512-11-12.828-22.091-16.839-34.337c-1.423-4.343-1.85-8.186,0.979-12.319c2.071-3.028,3.112-6.763,4.597-10.188
		c3.056-7.047,3.157-7.172,9.719-11.448c0.689,1.152,1.426,2.275,2.05,3.459c0.638,1.21,1.566,2.447,1.67,3.729
		c0.52,6.412,3.874,11.655,6.822,17.04c4.379,7.996,8.915,15.907,13.492,23.791c0.899,1.548,2.127,3.001,3.488,4.167
		c4.457,3.821,5.717,9.448,8.302,14.317C93.804,349.633,93.48,350.604,93.245,351.314"/>
	<path clip-path="url(#SVGID_2_)" fill="#627A73" d="M120.15,422.397c-6.353-5.639-12.706-11.276-19.339-17.162
		c4.745-3.666,6.052-9.27,6.892-15.139c0.313-2.186,1.078-4.307,1.636-6.457c0.256-0.026,0.512-0.054,0.768-0.081
		c1.015,3.479,1.996,6.968,3.062,10.431c0.408,1.325,0.673,2.949,1.591,3.809c2.043,1.911,0.709,3.22-0.506,4.786
		c0.853-0.142,1.518-0.253,2.167-0.361c1.589,4.01,1.583,4.021-3.395,5.875c1.321,0,1.957,0.014,2.592-0.004
		c0.689-0.018,1.376-0.063,2.37-0.112c0.887,4.723,1.769,9.417,2.651,14.109C120.476,422.193,120.313,422.294,120.15,422.397"/>
	<path clip-path="url(#SVGID_2_)" fill="#627A73" d="M225.204,308.887c-1.409-4.65-2.818-9.301-4.227-13.952
		c4.255,3.697,3.286,9.102,4.95,13.644C225.688,308.681,225.445,308.785,225.204,308.887"/>
	<path clip-path="url(#SVGID_2_)" fill="#D88B6C" d="M-8.997,367.327c1.302-7.896,7.983-14.089,15.349-16.616
		c2.575-0.798,5.435-1.256,8.02-0.072l-0.637,1.021c-0.768-0.603-1.518-1.086-2.255-2.007l-0.137-0.228
		c-0.046-0.081-0.091-0.244-0.115-0.368c-0.094-0.32,0.223-0.838,0.507-0.924c1.676-0.528,3.482,0.238,5.098-0.102
		c0.809-0.193,0.935-0.261,0.731-1.072c-0.001,0-0.627-2.042-0.627-2.042c3.485,2.392,6.832,5.19,10.267,7.507
		c2.864,1.934,6.073,3.209,9.412,4.234l0.238,0.073l0.179,0.197c8.21,9.02,7.812,23.646,18.192,30.874l-1.744,1.643
		c-14.644-24.369-18.014-54.026-34.125-77.519c-5.223-7.565-12.007-14.075-20.21-18.263c0-0.001-0.384-0.198-0.384-0.198
		l-0.229-0.325c-0.574-0.769-1.249-1.876-1.349-2.997c-0.114-0.895,0.353-1.947,1.075-2.482c1.131-0.777,1.924-0.742,2.628-0.813
		c3.043-0.069,6.081,0.826,8.833,1.45l-1.869,2.859c-2.857-3.814-9.852-14.93-7.719-19.375c0.689-1.285,2.388-1.598,3.612-1.057
		c3.611,1.757,6.089,5.148,8.636,7.975l-3.006,2.33c-3.826-5.554-8.066-10.911-10.589-17.279c-0.378-1.095-0.716-3.212,0.663-4.156
		c3.297-2.492,9.798,4.748,12.111,6.897c2.69,2.751,5.189,5.66,7.501,8.743l-3.434,1.784c-1.579-3.716-4.182-7.328-6.094-10.982
		c-1.284-2.55-3.013-5.212-3.207-8.393c0.001-0.22-0.009-0.418,0.051-0.71l0.083-0.403c0.954-3.156,4.376-2.5,6.72-1.524l0.312,0.35
		c6.406,6.172,16.27,33.579,27.212,25.851c1.51-1.003,2.866-2.405,4.128-3.898l-0.329,0.681c0.713-3.458,4.377-5.05,7.436-5.555
		c0.556-0.141,1.169-0.251,1.609-0.461c-0.047,0.019-0.083,0.061-0.094,0.11l0.099,2.029c-6.924-8.055-13.71-16.374-18.1-26.155
		c-1.407-3.445-2.73-7.566-1.128-11.237l0.712-1.578c4.368,3.505,8.457,7.609,13.303,10.391c0.543,0.295,1.169,0.36,1.112,0.336
		c-0.044,0.021,0.011,0.007,0.089-0.176c0.546-2.245-0.084-4.735-0.365-7.048c-0.485-2.936-1.073-5.88-1.672-8.82
		c0.197-1.523,0.213-3.17,1.136-4.543c1.094-1.403,2.642-0.499,3.32,0.619c2.401,4.036,3.545,8.556,4.585,13.105l-1.791,0.458
		c-0.881-2.911-1.256-5.798-1.163-8.836c0.059-0.771,0.103-1.529,0.502-2.438c2.122-3.264,4.688,2.119,5.519,3.717
		c0.698,2.574,1.234,5.197,1.924,7.751c0.643,2.021,2.1,9.186,4.791,8.643c0.904-0.276,1.817-1.238,2.559-2.204
		c1.662-2.204,2.961-4.796,4.191-7.334c3.998,1.95,3.982,5.949,3.309,9.726c-1.089,6.204-3.719,12.278-3.216,18.578
		c0.242,3.171,1.96,6.003,4.732,7.575c0.146,7.224,4.971,6.747,10.271,9.191c1.228,0.588,2.372,1.491,3.227,2.577
		c0.836,0.995,3.316,4.933,4.781,4.023c0.754-0.659,1.038-2.04,1.279-3.064c0.491-2.454,0.657-5.036,0.823-7.601l0.419-7.747
		c0.272-3.906,0.481-7.882,1.602-11.692c0.418-1.376,1.075-2.903,2.389-3.974c3.11,0.354,4.306,3.785,4.399,6.443
		c0.323,4.771-0.75,9.501-0.849,14.166c-0.042,0.639,0.076,2.117,0.462,2.381c0.581,0.113,1.681-0.734,2.258-1.16l-0.255,0.309
		c0.665-1.438,2.051-2.595,3.672-1.702c1.053,0.501,1.985,1.592,3.062,1.233c0.401-0.121,0.789-0.335,1.232-0.365
		c4.087-0.448,3.48,5.048,4.255,7.583l-1.22-0.659c2.205-0.706,5.658-0.673,6.712,1.936c0.956,2.313,0.504,4.535,0.098,6.795
		c-0.916,4.192-2.4,8.104-3.87,12.002c-1.487,3.89-3.055,7.729-4.459,11.597c-1.176,3.626-2.927,7.537-2.56,11.342l-0.377-0.685
		c4.792,4.907,7.598,10.897,11.666,16.172c3.68,4.928,8.745,9.819,14.516,4.556c2.949-0.362,5.904-0.616,8.776-1.17
		c1.304-0.258,2.773-0.531,3.678-1.466c0.839-0.9,0.973-3.322,1.099-5.518c0.116-2.258,0.266-4.567,0.465-6.863l1.634,1.883
		c-1.017-0.007-1.946-1.035-1.845-2.1c0.082-0.814,0.374-1.438,0.692-2.063c2.089-3.725,4.544-7.16,7.484-10.257
		c0.478-0.46,0.598-0.595,1.448-0.965l-1.263,1.812c-0.001-0.462,0.112-0.98,0.385-1.366c1.288-1.719,3.442-2.425,5.289-3.258
		c3.676-1.419,7.246-2.528,11.275-2.749c1.178-0.025,2.459,0.054,3.57,0.6c0.679,0.266,1.575,1.103,1.855,2.088
		c0.3,0.896,0.151,1.656-0.05,2.474l-3.146-1.866c0.831-0.849,1.885-1.635,3.165-2.063c7.534-2.11,13.341,7.086,17.425,11.891
		l0.882,0.861l-0.343,1.151c-2.628,9.513,2.013,19.731-1.467,29.381c-1.226,3.469-3.743,6.512-6.739,8.581l0.859-1.34
		c-0.737,4.604-2.106,11.193-2.231,15.791c-0.003,0.162,0.07,0.465-0.009,0.186c-0.238-0.655-1.236-1.198-1.993-0.981
		c-0.086,0.011-0.172,0.033-0.253,0.067c-0.212,0.104-0.176,0.085-0.223,0.113c-0.068,0.054,0.113-0.104,0.249-0.278
		c7.62-10.746,14.419-23.846,28.028-28.083l-1.561,1.579c4.421-18.46-10.612-37.885-18.763-53.765
		c-3.23-6.025-6.34-12.288-8.257-19.123c0.125-2.752-1.278-5.914-2.47-8.551c-1.322-2.822-2.869-5.604-4.491-8.35
		c-6.596-11.098-14.25-21.466-21.402-32.3c-1.128-1.786-2.361-3.602-3.231-5.668c-0.408-1.204-0.793-2.33,0.483-3.68
		c1.563-1.398,3.609-0.279,4.966,0.676c2.884,2.026,5.264,4.164,7.747,6.323l-3.662,2.286c-1.122-4.919-4.899-17.114,1.874-19.167
		c2.914-0.646,5.38,1.112,7.613,2.573c0.852,1.724,1.674,3.511,2.734,5.082c0.094,0.144,0.241,0.286,0.142,0.198
		c-0.719-0.559-1.993-0.399-2.568,0.329c-0.165,0.207-0.281,0.385-0.344,0.611c-0.042,0.211,0.005-0.026-0.005-0.185
		c0-0.377-0.039-0.867-0.092-1.351c-0.789-6.195-2.422-12.974-2.269-19.341l3.088,1.453c7.821,3.564,6.229,12.985,9.115,19.452
		c0.06,0.991,0.334,1.981,0.916,2.777c0.612,0.79,1.522,1.595,2.357,1.475c0.029-0.014,0.053,0.015,0.153-0.206
		c0.209-0.433,0.214-1.475,0.006-2.487c-0.396-2.193-0.616-5.093,1.339-7.026c0.807-0.844,2.336-1.257,3.477-0.911
		c1.167,0.299,1.951,1.011,2.52,1.721c1.49,1.925,1.654,4.542,1.345,6.723l-0.044-0.745c1.759,6.813-1.688,13.241-3.337,19.373
		c-0.705,2.874-0.928,5.713,0.236,8.176c0.208,0.507,0.71,1.503,0.983,1.982c0.769,1.349,2.592,4.899,3.367,6.293
		c5.798,10.874,12.357,22.049,23.552,27.89l0.272,0.147c0.774,0.925,1.567,1.885,2.546,2.481c0.239,0.133,0.434,0.175,0.47,0.172
		c0.028-0.006,0.005,0.035,0.139-0.086c0.544-0.717,0.839-1.796,1.027-2.809c1.709-7.028-0.459-26.797,5.386-30.575l0.477-0.296
		l0.433,0.168c7.8,2.522,1.115,17.54,3.313,22.89c0.393,0.62,1.341,0.218,1.915,0.042l-0.503,0.47
		c0.738-1.454,2.149-3.876,4.171-2.657c1.311,0.78,1.648,1.537,3.043,1.205l-0.188,0.082c0.918-0.499,2.106-0.894,3.16-0.229
		c2.141,1.739,1.471,4.9,2.209,7.184l-1.072-0.459c3.841-1.801,6.875-1.745,6.772,3.73c-0.652,1.578-1.192,3.38-0.715,4.86
		c1.908,4.455,10.249,2.279,13.786,0.915l-0.229,0.196c2.049-3.24,3.565-6.823,5.269-10.323c1.696-3.49,3.601-6.995,6.395-9.784
		l0.313,0.307c-2.664,2.795-4.45,6.276-6.051,9.786c-1.606,3.521-3.035,7.16-5.084,10.537l-0.08,0.132l-0.15,0.064
		c-4.121,1.688-13.13,4.078-15.411-1.411c-0.644-1.931-0.076-3.885,0.588-5.674l-0.052,0.278c-0.07-4.111-1.619-3.513-4.706-2.157
		l-0.8,0.358c-0.75-1.832-0.725-3.759-1.175-5.563c-0.16-0.692-0.475-1.354-0.748-1.519c-0.193-0.146-0.731-0.026-1.324,0.313
		c-0.048,0.031-0.135,0.069-0.188,0.082c-0.816,0.258-1.843,0.24-2.652-0.142c-0.951-0.399-1.418-1.009-2.001-1.223
		c-0.007,0.032,0.006-0.013-0.018,0.025c-0.035-0.001-0.225,0.154-0.381,0.366c-0.17,0.176-0.322,0.49-0.487,0.726l-0.447,0.857
		l-0.188,0.36l-0.315,0.109l-0.932,0.32c-1.148,0.329-2.653,0.096-3.343-0.981c-3.115-4.402,3.085-19.65-2.299-21.799l0.908-0.128
		c-2.222,2.008-2.163,5.681-2.6,8.528c-0.301,3.335-0.372,6.731-0.48,10.145c-0.368,3.619,0.532,15.331-4.576,15.652
		c-2.335-0.041-3.833-1.901-5.211-3.425l0.456,0.368c-13.401-6.697-20.7-20.483-27.478-33.051c-0.391-0.711-1.331-2.428-1.705-3.112
		c-1.062-1.984-1.729-4.25-1.728-6.509c-0.145-7.794,5.745-15.07,3.831-22.706l-0.093-0.361c0.16-1.08,0.206-2.319-0.084-3.227
		c-0.123-0.404-0.298-0.759-0.492-1.002c-0.189-0.236-0.402-0.358-0.436-0.348c-0.023-0.011,0.014,0.006,0.049-0.003
		c0.035-0.01,0.058-0.035,0.036-0.005c-0.047,0.024-0.199,0.281-0.273,0.645c-0.173,0.743-0.091,1.786,0.119,2.84
		c2,10.912-10.447,8.72-11.229-0.094l0.186,0.679c-2.912-5.434-1.098-14.011-7.127-17.047l3.005-1.929
		c0.077,3.259,1.289,8.884,1.819,12.273c0.275,1.86,0.673,3.689,0.597,5.647c-0.025,0.593-0.234,1.371-0.693,1.882
		c-0.661,0.841-2.027,1.071-2.947,0.568c-0.653-0.328-1.204-0.99-1.479-1.376c-1.153-1.649-2.013-3.435-2.895-5.199l0.727,0.847
		c-1.101-0.727-2.32-1.563-3.557-1.585c-0.063,0.056-0.18,0.24-0.271,0.564c-0.81,4.227,0.656,8.915,1.668,13.114l1.957,7.156
		l-5.62-4.87c-2.753-2.314-5.408-4.872-8.334-6.535c0.461,0.156,1.179-0.044,1.65-0.465c0.619-0.565,0.639-1.227,0.647-1.325
		c0.005-0.217-0.015-0.243-0.013-0.259c0.672,1.72,1.853,3.362,2.905,5.046c7.153,10.755,14.986,21.207,21.603,32.41
		c1.669,2.831,3.276,5.715,4.699,8.759c1.457,3.354,2.906,6.379,2.914,10.328l-0.086-0.719c5.796,19.103,19.806,34.729,25.69,54.004
		c2.195,7.097,2.894,14.929,0.692,22.176c-9.431,2.207-15.997,10.715-21.408,18.439c-1.944,2.749-3.653,5.765-5.801,8.457
		c-1.021,1.322-2.989,2.311-4.453,0.72c-0.668-0.73-0.768-1.86-0.785-2.431c0.017-3.25,0.644-6.367,1.114-9.463
		c0.051-0.487,1.382-7.77,1.409-8.063l0.711-0.492c11.831-8.331,2.911-23.939,6.788-35.693c0-0.001,0.539,2.013,0.539,2.013
		c-0.565-0.57-0.809-0.923-1.137-1.332l-0.893-1.163c-2.575-3.147-8.774-11.972-13.146-7.601l-4.511,4.433l1.364-6.3
		c0.043-0.202,0.062-0.377,0.063-0.229c0.011,0.122,0.229,0.213,0.056,0.131c-0.021-0.036-0.187-0.057-0.27-0.104
		c-2.154-0.373-4.328,0.15-6.558,0.663c-2.942,0.822-6.132,1.711-8.645,3.453l-0.039,0.027c0.179-0.205,0.258-0.546,0.218-0.818
		l-1.263,1.811c0.308-0.103,0.241-0.118,0.192-0.065c-2.882,2.933-5.509,6.445-7.39,10.098c-0.022,0.059-0.043,0.156-0.025,0.039
		c0.002-0.117,0.008-0.24-0.025-0.355c-0.163-0.699-0.797-1.176-1.414-1.181l1.634,1.883c-1.163,15.797,0.059,16.206-16.639,17.77
		l0.816-0.337c-2.814,2.438-7.4,3.539-10.819,1.632c-8.961-5.099-11.985-16.171-18.805-23.208
		c-3.646-6.188,13.955-34.461,11.085-42.069c-0.898-1.901-3.549-1.021-5.224-0.61l-0.284-0.903c-0.634-1.97-0.324-4.183-1.217-5.941
		c-0.344-0.641-1.069-0.343-1.626-0.141c-1.277,0.57-2.951-0.153-3.822-0.838c-0.394-0.257-0.855-0.607-1.2-0.629
		c-0.1-0.037-0.706,0.698-0.891,1.176c-0.562,0.425-1.11,0.828-1.785,1.175c-6.12,2.729-3.407-7.945-3.306-10.859
		c0.288-3.35,0.86-6.937-0.369-10.064c-0.42-0.934-1.108-1.562-2.037-1.767l0.688-0.17c-1.61,1.574-2.044,4.403-2.451,6.643
		c-0.391,2.511-0.595,5.075-0.763,7.646l-0.452,7.745c-0.382,2.854-0.15,11.996-4.044,12.177c-3.912-0.598-4.706-5.56-8.195-6.964
		c-5.436-2.43-10.573-2.293-10.944-10.023l0.311,0.531c-2.909-1.749-4.811-5.018-5.061-8.377c-0.322-3.327,0.296-6.563,1-9.687
		c0.72-4.505,5.101-14.313,0.191-17.11l0.979-0.316c-1.588,2.902-5.36,12.058-9.77,9.186c-2.656-2.352-3.251-6.11-4.247-9.207
		c-0.687-2.533-1.289-5.069-1.932-7.586l0.064,0.172c-0.637-1.231-1.34-2.519-2.162-3.414c-0.188-0.226-0.44-0.352-0.44-0.352
		c-0.012-0.011,0.149,0.006,0.174-0.05c-0.254,0.422-0.327,1.166-0.37,1.878c-0.074,2.691,0.361,5.595,1.183,8.156l-1.791,0.458
		c-0.659-3.07-1.691-6.247-2.865-9.18c-0.574-1.207-1.091-2.724-2.009-3.557c0.034,0.033,0.101,0.036,0.179,0.031
		c0.101,0.023,0.21-0.076,0.227-0.061c0.042-0.019,0.055-0.069,0.031-0.012c-0.444,0.939-0.537,2.184-0.636,3.305l-0.019-0.307
		c0.922,4.376,1.966,8.715,2.399,13.206c0.622,5.762-2.338,6.906-6.788,3.786c-3.727-2.526-7.088-5.447-10.561-8.251l2.042-0.458
		c-2.511,7.324,8.092,20.455,12.497,26.228c2.446,3.061,5.034,6.039,7.677,8.935l-0.839,0.992c-1.4,1.656-3.965,1.527-5.752,2.289
		c-1.464,0.514-2.357,1.396-2.619,2.872c-1.469,1.797-3.019,3.53-5.058,4.932c-15.133,9.59-24.106-17.831-31.981-26.122
		c0-0.001,0.736,0.5,0.736,0.5c-0.59-0.201-1.11-0.379-1.648-0.411c-0.015,0.014-0.028,0.016-0.045,0.008
		c-0.048-0.013,0.099,0,0.126-0.045c0.018-0.043,0.176-0.082,0.232-0.181c0.056-0.116,0.126-0.122,0.144-0.217
		c0.012-0.115,0.033-0.031,0.027-0.063c0.234,2.2,1.604,4.41,2.735,6.605c2.119,3.969,4.642,7.393,6.403,11.644l4.41,12.212
		l-7.845-10.429c-4.066-5.276-9.6-11.545-14.705-14.611c0.125-0.019,0.385-0.076,0.636-0.274c0.209-0.187,0.467-0.492,0.49-0.759
		c0.686,2.3,2.378,5.302,3.884,7.638c1.96,3.126,4.08,6.195,6.242,9.234l-3.006,2.331c-1.658-1.982-3.378-3.953-5.191-5.581
		c-0.664-0.53-1.272-1.107-1.908-1.357c0.066,0.012,0.192,0.022,0.461-0.077c0.257-0.092,0.476-0.334,0.542-0.465
		c0.072-0.112,0.066-0.173,0.065-0.139c-0.012,0.046-0.021,0.257,0.001,0.48c1.022,5.359,4.168,10.516,7.323,14.969l3.017,4.044
		l-4.886-1.184c-2.782-0.6-5.557-1.59-8.36-1.346c-0.102,0.026-0.188,0.074-0.068-0.003c0.128-0.068,0.308-0.398,0.294-0.54
		c0.006-0.025,0.005-0.051-0.003-0.075c0.001-0.006,0.007,0.009,0.007,0.009c0.063,0.314,0.354,0.714,0.644,1.148l-0.612-0.523
		c37.605,20.523,36.08,70.152,57.738,102.617c-0.001,0-4.698-3.309-4.698-3.309c-2.656-1.871-4.818-4.368-6.456-7.08
		c-3.241-5.331-4.766-11.377-7.217-16.978c-1.188-2.741-2.606-5.367-4.527-7.567l0.417,0.27c-5.188-1.554-9.932-4.402-14.043-7.884
		c-1.387-1.097-2.772-2.183-4.176-3.247l1.12-0.794c0.07,0.287,0.142,0.57,0.137,0.915c-0.377,3.223-4.782,1.591-6.762,1.828
		c0.01,0.028,0.238-0.25,0.175-0.372c0.014-0.013-0.017-0.055-0.006-0.033c0.017,0.023,0.032,0.048,0.045,0.074
		c0.912,1.184,5.202,4.231,6.446,5.31l-5.149-2.535c-2.17-1.067-4.878-0.673-7.166-0.008c-7.133,2.292-13.773,8.094-15.228,15.686
		L-8.997,367.327"/>
</g>
</svg>
