<?xml version="1.0" encoding="utf-8"?>
<!-- Generator: Adobe Illustrator 16.0.0, SVG Export Plug-In . SVG Version: 6.00 Build 0)  -->
<!DOCTYPE svg PUBLIC "-//W3C//DTD SVG 1.1//EN" "http://www.w3.org/Graphics/SVG/1.1/DTD/svg11.dtd">
<svg version="1.1" id="Layer_1" xmlns="http://www.w3.org/2000/svg" xmlns:xlink="http://www.w3.org/1999/xlink" x="0px" y="0px"
	 width="284.449px" height="456.432px" viewBox="0 0 284.449 456.432" enable-background="new 0 0 284.449 456.432"
	 xml:space="preserve">
<polygon fill="#7FA29A" points="73.125,0.29 0,213.428 0,456.432 284.449,456.432 284.449,213.428 213.42,0.29 "/>
<g>
	<defs>
		<polygon id="SVGID_1_" points="73.125,0.29 0,213.427 0,456.432 284.449,456.432 284.449,213.427 213.42,0.29 		"/>
	</defs>
	<clipPath id="SVGID_2_">
		<use xlink:href="#SVGID_1_"  overflow="visible"/>
	</clipPath>
	<path clip-path="url(#SVGID_2_)" fill="#627A73" d="M216.704,373.75c-25.015-39.946-12.302-76.056,0.472-117.196
		c3.131-10.545,5.835-21.283,6.299-32.304c1.109-18.527-6.089-36.668-17.088-51.349c-17.848-24.248-44.112-39.719-67.217-58.467
		C103.342,86.452,72.791,48.291,63.661,2.877c-3.241-14.809-3.989-30.19-3.03-45.228l0.88-0.001
		c1.619,19.81,5.316,39.235,12.499,57.738c12.409,32.053,34.557,59.411,59.361,82.818c14.563,13.56,30.758,25.342,45.384,38.962
		c16.657,15.362,31.879,32.992,41.233,53.807c10.056,22.37,9.861,43.993,4.28,67.446c-4.775,20.611-13.051,40.041-15.211,61.104
		c-1.005,8.438-0.743,16.983,0.412,25.415c1.386,9.673,4.095,19.212,8.009,28.396L216.704,373.75z"/>
	<path clip-path="url(#SVGID_2_)" fill="#627A73" d="M223.331,359.962c-3.158-9.257-5.215-19.125-5.912-28.905
		c-0.618-7.345-0.454-14.94,0.293-22.288c1.24-12.389,4.463-24.557,9.324-36.032c3.915-9.18,8.877-17.603,12.377-26.448
		c12.299-29.288,1.065-63.628-17.923-87.817c-16.297-21.481-37.004-38.908-54.193-59.693c-9.598-11.247-17.813-23.844-24.688-37.002
		c-7.034-13.16-13.32-26.997-15.839-41.844c-1.484-9.837-1.519-19.832-1.346-29.75c0.394-13.532,1.825-27.248,5.792-40.236
		c0.799-2.82,1.543-4.445,2.431-7.003l1.509-3.387l0.762-1.685c0.283-0.548,0.605-1.079,0.905-1.617l1.827-3.21l0.51,0.29
		c-11.19,23.634-10.298,58.19-7.136,83.866c3.568,19.455,13.517,37.173,23.133,54.365c19.629,33.788,51.322,58.743,72.231,91.735
		c14.618,22.522,25.071,50.437,18.734,77.451c-3.235,13.883-11.29,25.937-16.405,39.027l-0.62,1.687l-1.238,3.372l-1.094,3.424
		l-0.551,1.711l-0.485,1.73l-0.974,3.465l-0.825,3.504l-0.411,1.753l-0.338,1.769c-3.857,18.849-3.439,38.535,0.715,57.609
		L223.331,359.962z"/>
	<path clip-path="url(#SVGID_2_)" fill="#627A73" d="M236.252,365.4c-7.199-19.163-7.937-40.435-4.63-60.526
		c1.397-8.323,3.467-16.556,6.099-24.563c5.408-18.35,16.616-34.435,22.833-52.285c8.691-27.133,2.791-57.346-11.285-81.581
		c-6.926-12.346-16.525-22.988-25.259-34.147c-14.785-18.942-28.335-39.611-34.94-62.973
		c-11.015-37.456-2.297-77.905,13.799-112.442c-0.001,0,0.543,0.218,0.543,0.218l-2.239,6.775
		c-23.618,73.283-11.282,117.469,35.512,176.686c23.386,30.138,36.043,70.59,26.976,108.369
		c-5.041,18.603-15.197,34.8-21.015,53.026c-5.261,15.509-8.767,31.78-9.304,48.178c-0.472,11.781,0.678,23.544,3.471,35.092
		L236.252,365.4"/>
	<path clip-path="url(#SVGID_2_)" fill="#627A73" d="M240.937,350.604c-3.785-17.148-3.3-35.536,3.257-52.126
		c1.58-4.063,3.84-8.167,5.958-11.938c6.276-11.173,13.272-22.146,19.37-33.265c12.262-22.263,20.022-47.502,20.549-73.043
		c0.743-25.493-7.161-50.438-19.302-72.599c-12.173-22.865-31.166-42.366-39.186-67.488c-6.617-24.721-3.507-54.636,6.659-77.769
		l0.833,0.282c-5.767,23.865-6.389,48.432-0.346,72c2.748,8.761,7.215,16.774,12.311,24.797
		c13.765,21.317,29.688,43.69,36.939,68.832c7.493,25.253,6.393,52.204,2.001,77.897c-2.346,13.906-5.13,27.946-10.082,41.25
		c-5.939,16.222-16.106,31.009-24.972,45.629c-6.116,9.68-9.768,20.653-11.587,31.955c-1.307,8.324-1.709,16.86-1.53,25.478
		L240.937,350.604z"/>
	<path clip-path="url(#SVGID_2_)" fill="#627A73" d="M295.548,422.334h-1.784c-3.686-8.934-14.376-13.3-43.272-27.958
		c5.764-17.119,11.325-34.297,16.599-51.574c0.342-9.279-23.707-4.339-30.899-7.063c-2.628-0.225-2.113-0.566-3.062,1.848
		c-5.999,15.275-11.893,30.521-17.866,45.814c-3.206-5.011-5.607-8.188-11.578-8.211c-11.6-12.944-19.102-12.427-35.29-10.091
		c-17.512,6.174-32.87,18.389-51.378,23.245c-5.628-7.777-6.332-16.642-9.329-25.657c-3.927-7.795,5.398-10.032,11.504-11.813
		c7.03,0.443,18.786,11.723,22.031-0.234c-0.113-2.758,3.588-1.073,3.583-3.539c1.379-2.74,2.989,0.033,3.144-5.534
		c0.663-2.854,6.713,1.618,6.629-2.59c-1.269-7.313,7.453-10.003,7.597-18.106c13.925-13.717,2.715-35.292-10.773-44.816
		c-11.567-7.869-50.536-3.75-55.082,11.253c-3.728,32.956,2.113,27.846-31.079,33.535c-26.113,6.027-45.623,26.331-63.617,44.965
		c-16.763,4.818-6.984,95.635-9.423,106.95c3.842-2.736,110.12,4.526,135.16-2.866h16.399c0.224,0.972,0.495,1.929,0.834,2.865
		c3.285,0.089,5.521-1.013,7.08-2.865h12.134c-0.042,1.13-0.041,2.108,0.031,2.865c13.173,0.199,16.346,0.987,17.368-2.865h45.818
		c0.278,0.439,0.643,0.785,1.114,1.015c2.044-0.72,4.102-0.631,6.205-0.398c0.352-0.117,0.644-0.331,0.893-0.616h46.889
		c0.075,0.947,0.136,1.899,0.164,2.865c0.001,0,12.613,0,12.613,0c-0.016-0.974-0.026-1.928-0.034-2.865h0.679V422.334z
		 M76.348,427.181c2.478-7.796,3.236-12.688,7.961-3.087C81.714,425.101,79.23,426.064,76.348,427.181 M188.445,376.307
		c-0.086-0.68-0.152-1.199-0.219-1.718C190.776,374.698,191.084,375.188,188.445,376.307 M163.633,379.247
		c3.511-2.841,7.782,3.104,11.555,4.224c-0.448,0.27-0.772,0.476-1.107,0.661c-8.689,4.784-16.464,10.611-26.898,9.767
		C152.341,388.726,158.188,384.163,163.633,379.247 M141.409,398.997c0.292,0.919,0.537,1.689,0.829,2.61
		c-1.646,0.423-3.122,0.802-4.599,1.182C138.161,401.509,140.236,400.348,141.409,398.997"/>
	<path clip-path="url(#SVGID_2_)" fill="#D88B6C" d="M294.087,419.053c-0.626,0.051-1.195,0.094-1.792,0.097l-0.068-0.157
		c-3.758-8.021-12.648-11.602-20.013-15.651c-7.765-3.931-15.65-7.664-23.477-11.521l-0.747-0.368l0.259-0.827l16.137-51.686
		l-0.063,0.373c-0.015-4.552-9.294-4.166-12.653-4.378c-5.408-0.212-12.183,0.567-17.382-1.056l0.452,0.103
		c-0.561-0.043-1.255-0.133-1.556-0.145c-0.02,0.001-0.003,0.004-0.006-0.001c0.09-0.004,0.086-0.013,0.245-0.059
		c0.124-0.053,0.25-0.124,0.355-0.224c0.082-0.072,0.135-0.148,0.15-0.173c0.036-0.071-0.09,0.207-0.173,0.45l-1.204,3.148
		c-4.886,12.838-13.211,34.089-18.171,47.069c-1.882-2.707-3.903-6.543-6.269-8.498c-1.828-1.608-4.191-1.943-6.584-1.883
		l-0.58-0.634c-10.691-12.128-18.595-11.694-33.58-9.433c-15.658,5.572-33.419,18.499-51.235,22.921l-1.117,0.283
		c-3.153-4.137-5.158-9.067-6.464-13.892c-1.252-4.489-2.15-8.951-3.529-13.21c-4.052-8.572,5.341-11.668,12.51-13.473
		c6.793-0.392,18.47,11.704,21.393,0.705l-0.035,0.311c-0.013-0.7,0.167-1.536,0.751-2.056c0.877-0.861,1.979-0.73,2.729-1.138
		c0.109-0.087,0.115-0.085,0.153-0.386l0.04-0.318l0.064-0.122c0.329-0.846,1.438-1.79,2.337-2.05
		c0.496-0.274,0.482-0.765,0.635-1.455c0.086-0.577,0.087-1.195,0.153-1.797c0.454-2.179,3.166-1.758,4.703-1.437
		c1.141,0.146,2.033,0.35,1.961-0.93c-1.479-6.804,7.77-11.215,7.708-18.138l0.01-0.315l0.211-0.202
		c12.873-12.348,3.487-32.567-8.436-42.021c-9.953-8.894-35.556-5.558-46.71,0.08c-3.929,1.968-7.941,4.894-9.296,9.178
		c-0.426,4.719-1.015,11.168-1.431,16.561c-0.31,2.805-0.492,5.66-1.658,8.551c-2.489,5.975-10.131,6.115-15.51,7.268l-8.286,1.371
		c-28.204,4.382-48.751,26.438-67.685,46.14c-1.882,0.388-3.17,2.162-4.03,3.92c-2.743,5.947-3.425,12.748-4.112,19.31
		c-1.494,18.1-0.766,36.406-0.182,54.584c0.109,8.209,1.155,19.83,0.1,27.955l-3.531-2.324c0.538-0.373,1.35-0.6,1.955-0.683
		c2.584-0.366,5.176-0.357,7.748-0.406c8.501-0.069,16.985,0.151,25.468,0.34c22.534,0.5,45.094,1.115,67.61,0.692
		c11.015-0.399,22.37-0.415,33.07-3.073l0.323-0.092l0.301,0.002c0.8,0,17.708,0.099,17.994,0.098
		c0.348,1.287,0.874,3.035,1.209,4.256l-1.913-1.382c2.531,0.14,4.632-0.793,6.086-2.827l0.938,0.005
		c1.316,0.033,13.151,0.056,14.107,0.079c0.009,1.217,0.006,3.445,0.014,4.65l-1.928-1.78c2.931-0.008,10.938,0.512,13.701,0.082
		c0.609-0.107,1.091-0.278,1.29-0.448c0.408-0.167,0.79-1.906,0.958-2.402l1.389,0.009l45.818,0.284l0.876,0.005l0.454,0.725
		c0.146,0.232,0.281,0.356,0.467,0.454l-1.201-0.068c2.231-0.775,4.649-0.702,6.89-0.419l-0.642,0.068
		c0.06-0.018,0.124-0.047,0.24-0.171l0.483-0.519l0.645,0.006l46.889,0.428l1.019,0.009l0.047,0.976l0.141,2.919l-1.156-1.006
		l12.728,0.134l-0.902,0.916l0.002-2.871l0.001-0.885l0.865,0.011l0.68,0.008l-0.857,0.858L294.087,419.053z M294.397,418.742
		l0.702,47.714l0.013,0.847c-0.459-0.009-1.117,0.023-1.55,0.019l0.866-0.873l0.07,2.859l0.021,0.905l-0.924,0.01
		c-0.539-0.049-13.513,0.185-13.587,0.146l-0.067-1.017l-0.188-2.812l1.064,0.983l-46.889,0.428l1.128-0.512
		c-0.362,0.427-0.904,0.852-1.543,1.063l-0.312,0.103c-2.081-0.247-4.146-0.297-5.852,0.34l-0.586,0.219
		c-0.955-0.388-1.875-1.006-2.379-1.859l1.331,0.729l-45.818,0.283l1.799-1.384c-0.147,0.492-0.296,0.98-0.588,1.512
		c-1.812,3.295-6.206,2.923-9.223,2.985l-9.385-0.144l-1.898-0.028l-0.029-1.75l-0.056-3.125l1.981,2.055l-12.133,0.068l1.567-0.73
		c-2,2.555-5.585,3.798-8.705,3.64l-1.511-0.026c-0.233-0.754-1.072-3.632-1.325-4.46l2.059,1.638l-16.399,0.09l0.623-0.09
		c-5.711,1.6-11.375,2.09-17.179,2.592c-33.768,2.256-67.96,0.41-101.764-0.114c-5.25,0.006-10.574-0.349-15.765,0.286
		c-0.015,0.004-0.08,0.018-0.056,0.008c0.109-0.031,0.213-0.091,0.296-0.169l-3.531-2.324c0.166-0.826,0.251-1.955,0.302-3.032
		c0.329-6.151-0.236-17.499-0.33-23.83c0.059-14.515-4.427-77.347,11.147-81.42c0,0.001-0.834,0.502-0.834,0.502
		c19.316-19.791,40.836-41.855,69.641-45.757l8.311-1.234c10.921-1.882,14.476-1.326,15.464-13.582
		c0.564-5.569,1.031-11.217,1.72-16.819c1.588-4.912,5.982-8.054,10.367-10.194c11.976-5.583,29.41-7.417,42.07-3.378
		c8.308,3.191,15.597,12.815,19.005,20.844c3.945,8.927,3.246,20.047-4.151,27.022c0.001,0,0.222-0.518,0.222-0.518
		c0.011,3.601-2.027,6.837-4.183,9.498c-1.965,2.478-3.985,5.191-3.317,8.45c0.113,0.984-0.306,2.311-1.373,2.703
		c-1.881,0.68-3.425-0.394-5.07,0.003c-0.065,0.05-0.086,0.048-0.137,0.236l0.024-0.182c-0.085,1.381,0.004,2.487-0.739,3.839
		c-0.629,1.129-1.984,0.882-2.445,2.107l0.104-0.438c0.025,0.729-0.353,1.626-1.008,2.031c-0.862,0.542-1.839,0.544-2.416,0.95
		c-0.089,0.018-0.124,0.484-0.112,0.707c-3.539,13.052-15.334,2.329-23.134,1.34l0.431-0.048c-1.579,0.474-3.129,0.919-4.623,1.448
		c-4.052,1.425-8.688,3.7-5.909,8.607c1.535,4.458,2.53,9.014,3.824,13.35c1.269,4.306,2.95,8.401,5.533,11.88l-1.775-0.636
		c8.89-2.418,17.213-6.663,25.474-11.09c8.374-4.452,16.782-9.368,26.048-12.479c16.315-2.585,25.455-2.475,36.998,10.75
		l-1.421-0.638c4.349-0.188,8.626,2.328,10.97,5.902c0.795,1.072,1.493,2.153,2.173,3.221l-3.311,0.327l9.804-24.89
		c2.18-5.587,6.412-16.218,8.559-21.755c0.114-0.277,0.17-0.531,0.492-1.08c0.199-0.353,0.697-0.802,1.12-0.938
		c0.923-0.364,2.065-0.027,2.834-0.001c7.809,2.717,27.362-1.826,31.661,6.038c0.499,0.945,0.557,1.965,0.559,2.936l-0.065,0.195
		l-17.06,51.461l-0.489-1.195c7.714,4.056,15.493,7.99,23.184,12.139c7.398,4.289,16.326,8.237,19.874,16.604l-0.231-0.155
		C293.112,418.655,293.775,418.697,294.397,418.742"/>
	<path clip-path="url(#SVGID_2_)" fill="#D88B6C" d="M74.892,423.905c-0.169-0.131-0.382-0.791-0.347-1.123
		c-0.107-0.464-0.187-0.953-0.213-1.406c-0.04-1.459,0.067-2.897,0.881-4.163c0.768-0.99,1.83-2.061,3.188-2.502
		c0.615-0.146,1.187,0.088,1.561,0.304c1.963,1.323,3.81,2.646,5.023,4.669l1.236,1.729l-2.419,1.305
		C81.245,424.186,77.631,424.655,74.892,423.905 M75.192,423.584c1.677-1.059,2.99-2.193,4.222-3.396
		c0.9-0.871,1.576-1.426,2.791-1.589l-1.183,3.033c-0.444-1.282-0.774-2.558-0.974-3.902c-0.124-0.66-0.403-1.287-0.799-1.586
		c-0.894-0.622-0.451,1.919-0.58,2.409c-0.045,0.645-0.311,1.241-0.598,1.85c-0.486,1.024-1.19,2.047-2.069,2.834
		C75.725,423.217,75.439,423.249,75.192,423.584"/>
	<path clip-path="url(#SVGID_2_)" fill="#D88B6C" d="M187.029,373.061c-0.747,0.75-1.721,0.021-1.919-0.811
		c-0.076-0.29,0.047-0.625,0.245-0.899l1.476-2.04c0.229,0.343,0.472,0.956,0.704,1.146c0.612,0.397,1.115-0.855,1.908-0.733
		c1.001,0.1,1.666,1.087,1.662,2.09c-0.039,0.859-0.28,1.205-0.591,1.684c-0.585,0.889-1.437,0.936-2.268,0.436
		C188.008,373.82,187.027,373.801,187.029,373.061 M187.248,372.68c0.267-0.401,0.245-0.827-0.058-1.113
		c-0.085-0.076-0.183-0.117-0.139-0.212c0.015-0.345,0.077-0.601,0.104-0.81c0.046-0.202,0.077-0.35,0.085-0.354
		c-0.017,0.013,0.027,0.007-0.076,0.167c-0.032,0.068-0.021,0.088-0.153,0.335c-0.246,0.437-0.217,1.597,0.242,2.033
		c0.176,0.2,0.386,0.388,0.648,0.398c0.373-0.125,0.131-0.774,0.009-1.023c-0.433-0.656-0.786,0.179-1.057,0.627l1.632-1.773
		c0.235,0.012,0.395-0.036,0.355-0.04C188.064,371.092,187.646,371.806,187.248,372.68"/>
	<path clip-path="url(#SVGID_2_)" fill="#D88B6C" d="M162.184,375.643c3.628-2.714,8.737,1.535,12.261,2.494l4.29,1.152
		l-3.837,2.441c-2.262,1.424-4.56,2.189-7.016,3.117c-5.026,1.69-9.104,4.779-14.093,6.688c-2.554,0.912-5.339,1.217-8.093,1.142
		l-4.69-0.127c2.176-2.362,4.861-5.586,7.284-7.624C152.431,380.872,157.914,379.329,162.184,375.643 M162.47,375.977
		c-2.772,2.432-4.77,5.784-7.172,8.553c-2.443,2.71-5.146,5.093-7.849,7.502l-1.394-3.785c7.172,0.839,15.081-0.407,20.65-5.441
		c1.889-1.61,4.027-3.292,6.161-4.469l0.452,3.593c-2.563-0.875-3.906-2.662-5.579-4.41
		C166.432,376.06,164.299,374.456,162.47,375.977"/>
	<path clip-path="url(#SVGID_2_)" fill="#D88B6C" d="M140.147,395.344c0.433-0.313,1.003,0.008,1.432,0.342
		c1.117,0.786,1.481,2.767,1.88,3.988l-2.036,0.413c-0.763,0.182-1.86-0.92-2.627-0.687c-0.846,0.156-1.354,1.303-1.994,1.783
		l-3.412,2.625l1.19-5.173c0.2-0.872,0.561-1.479,0.89-1.978c1.082-1.622,2.784-1.199,4.387-1.405
		C139.999,395.261,140.096,395.305,140.147,395.344 M140.059,395.775c-0.053,0.211,0.076,0.437,0.272,0.479
		c0.014,0.159,0.011,0.344,0.007,0.515c-0.161,1.312-0.832,3.226-2.252,3.298l-2.223-2.548c1.369,0.327,2.627,1.42,3.598-0.308
		c0.295-0.442,0.601-0.841,0.979-0.958l-1.394,2.516c-0.06-0.163,0.131-0.298,0.41-0.725
		C139.856,397.409,140.022,396.679,140.059,395.775"/>
	<path clip-path="url(#SVGID_2_)" fill="#627A73" d="M259.735,246.209c-9.599,5.22-21.916-2.421-32.257,1.111
		c-3.681,1.258-6.736,3.824-9.975,5.98s-7.016,3.991-10.871,3.469l-0.53-0.671c-3.599,3.814-8.45,6.429-13.616,7.334l-1.162,0.448
		c7.532,3.987,16.623,3.015,25.062,1.819c5.705-0.809,12.244-1.438,16.531,2.412l0.705-0.907c1.094-3.556,5.007-5.424,8.658-6.137
		c3.65-0.712,7.532-0.726,10.839-2.431c4.765-2.456,7.209-7.811,8.866-12.909"/>
	<path clip-path="url(#SVGID_2_)" fill="#D88B6C" d="M255.271,241.577c-7.943,5.937-18.625,1.662-27.587,2.549
		c-4.379,0.317-7.735,2.483-11.56,4.77c-4.234,2.586-9.544,5.066-14.711,3.958l-0.222-0.313l-0.494-0.698l1.542,0.066
		c-1.978,1.882-4.152,3.524-6.53,4.859c-2.073,1.213-5.907,2.628-7.394,2.901l-1.135,0.521l0.139-2.336
		c6.376,2.702,13.315,1.764,20.036,0.819c7.555-1.199,16.595-3.561,23.054,2.213l-4.574,0.407l0.721-0.893l-0.519,0.997
		c1.386-4.295,5.438-6.652,9.37-7.57c5.215-1.242,9.187-0.222,13.432-2.528c3.928-2.309,6.122-6.443,8.263-10.552l0.558,0.182
		c-0.789,4.844-2.532,10.184-6.604,13.505c-4.879,4.359-12.456,2.881-17.438,6.543c-1.067,0.873-1.506,1.68-1.763,2.749
		l-0.377,0.503c-0.463,0.627-2.175,2.896-2.667,3.559l-2.596-2.23c-2.114-1.816-4.984-2.257-7.866-2.327
		c-3.394-0.036-6.89,0.522-10.372,0.791c-7.323,0.696-15.412,0.109-21.859-3.895l-2.477-1.514l2.616-0.823l1.191-0.375l0.187-0.059
		c3.764-0.386,7.416-1.904,10.4-4.231c1.287-0.989,2.435-2.213,3.439-3.483c0.001,0,0.823,0.935,0.823,0.935l0.565,0.644
		l-0.692-0.396c8.54,0.199,12.939-9.643,21.194-11.264c1.249-0.345,2.647-0.529,3.928-0.598c4.979-0.278,9.633,0.951,14.377,1.933
		c4.465,0.914,8.852,1.603,13.32,0.166L255.271,241.577z"/>
	<path clip-path="url(#SVGID_2_)" fill="#627A73" d="M177.13,61.982c-15.352-2.529-22.51-21.887-37.218-26.96
		c-5.236-1.806-10.915-1.594-16.439-2.003c-5.524-0.409-11.373-1.652-15.249-5.609l-0.009-1.218
		c-7.38,1.139-15.116-0.167-21.713-3.666l-1.699-0.514c4.978,11.068,16.042,17.925,26.571,23.962
		c7.117,4.08,15.015,9.092,16.466,17.166l1.585-0.402c4.339-3.038,10.37-1.716,15.095,0.676c4.726,2.393,9.099,5.772,14.305,6.748
		c7.502,1.406,14.932-2.473,21.253-6.752"/>
	<path clip-path="url(#SVGID_2_)" fill="#D88B6C" d="M176.479,57.691c-13.896-0.862-22.095-15.386-32.641-22.053
		c-2.512-1.646-5.267-2.837-8.215-3.496c-9.481-1.969-21.438-0.719-28.763-8.567l-0.316-0.34l0.011-0.398l0.037-1.218l1.175,1.001
		c-3.815,0.439-7.666,0.387-11.457-0.205c-3.479-0.504-8.432-2.098-10.761-3.313l-1.722-0.44l1.545-1.758
		c4.641,8.85,13.261,14.266,21.702,19.194c9.142,5.241,21.052,10.242,23.252,21.907l-3.861-2.487l1.59-0.382l-1.022,0.468
		c4.686-3.284,11.122-2.499,15.943-0.288c6.75,2.997,10.802,7.763,17.715,8.61c6.578,0.664,12.737-2.304,18.619-5.339l0.329,0.486
		c-10.864,9.112-20.207,11.803-32.973,4.251c-4.947-2.676-11.527-5.976-16.493-2.3c-0.4,0.124-1.745,0.454-2.165,0.578l-3.201,0.855
		l-0.66-3.342c-2.252-9.369-12.495-13.413-19.867-18.416c-4.395-2.802-8.669-5.899-12.383-9.616
		c-4.497-4.378-7.854-9.894-9.94-15.802l2.615,0.92l1.677,0.589l0.163,0.057c6.243,3.704,13.9,5.129,21.044,3.757l1.121-0.224
		c0.036,0.617,0.075,1.827,0.109,2.442l-0.304-0.738c2.244,2.133,5.25,3.276,8.334,3.818c6.575,1.158,13.165-0.189,19.961,1.132
		c3.557,0.643,7.052,2.232,10.023,4.291c11.06,7.343,16.697,21.56,29.874,25.788L176.479,57.691"/>
	<path clip-path="url(#SVGID_2_)" fill="#627A73" d="M193.607,217.013c-2.22,3.104-0.192,10.764-0.192,10.764
		s-7.242-1.942-10.22-6.35c-1.537-2.277-2.557-4.928-4.463-6.905c-3.092-3.202-7.818-3.999-12.077-5.29s-8.846-3.885-9.565-8.277
		c-1.96-4.419,0.161-9.486,2.257-13.842c2.592-5.388,8.315-16.632,8.315-16.632c0.032,2.986,0.355,7.038,2.491,9.88
		c3.23,4.298,7.495,7.682,11.389,11.39c3.895,3.708,7.552,7.962,9.026,13.134c0.833,2.924,1.212,6.463,3.847,7.98"/>
	<path clip-path="url(#SVGID_2_)" fill="#D88B6C" d="M195.467,210.762c-0.684,1.622-0.442,3.427-0.195,5.126
		c0.416,2.55,1.336,5.247,2.26,7.645l-2.876-0.629c-5.272-1.101-10.62-3.892-13.082-8.891c-1.324-2.295-2.528-4.511-4.734-5.915
		c-1.372-0.937-3.044-1.687-4.828-2.388c-3.671-1.4-7.813-2.778-10.829-5.57c-1.465-1.135-3.15-4.077-3.154-5.27
		c-2.38-5.498,0.369-11.638,2.384-16.725c2.043-5.147,4.354-10.174,6.68-15.196l4.213-9.184c0.333,3.898,0.168,12.406,1.38,15.948
		c0.43,1.304,1.02,2.289,1.864,3.282c2.911,3.602,6.388,6.567,9.861,10.15c4.744,4.657,9.015,10.861,9.495,17.634
		c0.317,2.063,0.658,4.127,2.289,5.463l-0.256,0.446c-2.21-0.886-3.334-3.304-4.089-5.375c-3.3-11.577-15.218-16.301-22.146-25.572
		c-2.508-3.272-2.975-7.832-2.884-11.634l4.717,1.105c-2.61,4.851-5.231,9.685-8.113,14.39c-2.587,4.395-6,9.531-3.97,14.636
		c2.244,8.897,12.729,6.345,19.618,10.119c3.91,1.763,5.878,6.575,7.823,9.707c1.755,2.485,5.269,4.451,8.582,5.785l-1.939,1.932
		c-0.444-3.736-1.023-8.195,1.513-11.318L195.467,210.762"/>
	<path clip-path="url(#SVGID_2_)" fill="#627A73" d="M186.702,115.203c2.531,3.54,0.22,12.277,0.22,12.277s8.26-2.216,11.655-7.243
		c1.754-2.597,2.915-5.621,5.092-7.875c3.524-3.652,8.916-4.561,13.773-6.034c4.857-1.473,10.09-4.431,10.909-9.44
		c2.235-5.04-0.184-10.818-2.574-15.787c-2.956-6.145-9.483-18.97-9.483-18.97c-0.036,3.406-0.404,8.027-2.842,11.269
		c-3.684,4.902-8.548,8.762-12.988,12.991c-4.441,4.229-8.614,9.081-10.294,14.979c-0.951,3.336-1.384,7.372-4.39,9.102"/>
	<path clip-path="url(#SVGID_2_)" fill="#D88B6C" d="M185.059,107.733c2.892,3.566,2.236,8.64,1.725,12.908
		c0,0.001-2.211-2.203-2.211-2.203c3.516-1.388,7.634-3.577,9.802-6.593c2.365-3.902,4.409-8.962,8.907-11.076
		c4.639-2.418,9.343-2.511,13.437-3.619c3.86-1.05,8.215-3.463,8.866-7.707c1.171-2.734,0.935-5.868-0.189-8.739
		c-2.244-5.657-6.099-10.892-8.971-16.328c0,0.001-4.548-8.254-4.548-8.254l5.38-1.26c0.104,4.336-0.428,9.537-3.29,13.269
		c-7.901,10.585-21.453,15.905-25.257,29.166c-0.861,2.361-2.146,5.121-4.664,6.13l-0.293-0.508c1.861-1.524,2.25-3.878,2.611-6.231
		c0.552-7.726,5.418-14.799,10.83-20.113c15.554-15.52,13.879-11.444,14.939-33.342c4.019,8.811,8.976,18.655,12.45,27.62
		c2.325,5.522,5.334,13.759,2.772,18.881c-2.212,9.948-14.417,10.705-21.528,15.301c-2.517,1.602-3.891,4.129-5.4,6.748
		c-3.431,6.975-11.099,9.579-18.198,10.85c0.629-1.741,1.512-3.972,1.935-5.765c0.636-2.84,1.506-5.972,0.419-8.794L185.059,107.733
		"/>
	<path clip-path="url(#SVGID_2_)" fill="#627A73" d="M183.445,174.208c-4.667-5.239-0.671-9.833,5.595-8.205
		c4.851,1.107,7.669,6.036,4.54,10.443c-3.413,5.563-11.354,4.565-15.235,0.139c-2.169-2.219-3.521-5.897-1.967-8.825
		c1.027-2.117,2.976-3.317,4.839-4.394c1.705-1.073,3.264-2.372,4.689-3.795c3.559-3.714,6.787-8.368,7.854-13.413
		c0.09-0.534,0.078-1.09-0.016-1.257c-0.045-0.082-0.054-0.012,0.03,0.093c0.195,0.16,0.092,0.071-0.091,0.118
		c0.122,0.013,0.081-0.019-0.049,0.159c-1.474,2.447-1.669,5.681-2.144,8.767c-0.323,2.663-0.552,5.374-0.83,8.092
		c-0.554,5.439-1.196,10.926-2.31,16.427c-1.143,4.986-3.146,15.001-10.349,11.972c-0.494-0.244-1.046-0.736-1.478-1.588
		c-0.688-1.438-0.617-3.091-0.351-4.57l0.439,0.028c0.119,1.585,0.522,3.761,1.958,4.483c0.001-0.001,0.163,0.131,0.163,0.131
		c-0.118-0.124-0.231-0.166-0.154-0.135c0.854,0.303,2.247,0.084,2.887-0.404c2.307-2.557,2.445-7.072,2.997-10.552
		c0.627-5.341,0.911-10.801,1.493-16.276c0.453-4.141,0.988-8.328,1.953-12.431c0.612-2.262,1.128-4.632,2.85-6.572
		c1.293-1.454,3.779-1.846,5.407-0.429c4.468,4.742-5.777,15.239-9.26,18.408c-1.558,1.41-3.205,2.722-4.966,3.873
		c-1.636,0.984-3.336,2.195-3.946,3.968c-1.71,5.565,7.369,10.192,11.334,6.893c1.305-1.153,2.52-2.961,1.307-4.572
		c-1.152-1.839-7.056-4.104-7.588-0.55c-0.118,1.136,0.293,2.478,0.773,3.747L183.445,174.208z"/>
	<path clip-path="url(#SVGID_2_)" fill="#D88B6C" d="M182.438,171.505c-4.667-5.239-0.671-9.833,5.595-8.205
		c4.852,1.107,7.669,6.036,4.54,10.443c-3.413,5.563-11.354,4.565-15.234,0.139c-2.169-2.219-3.521-5.897-1.967-8.825
		c1.026-2.117,2.976-3.317,4.839-4.395c1.705-1.072,3.263-2.371,4.688-3.794c3.56-3.715,6.787-8.368,7.854-13.413
		c0.09-0.534,0.078-1.09-0.017-1.257c-0.045-0.082-0.054-0.012,0.03,0.093c0.196,0.16,0.092,0.071-0.09,0.117
		c0.122,0.014,0.081-0.018-0.049,0.16c-1.475,2.447-1.669,5.681-2.145,8.767c-0.323,2.663-0.552,5.374-0.83,8.092
		c-0.554,5.439-1.195,10.926-2.309,16.427c-1.144,4.986-3.147,15.001-10.349,11.972c-0.494-0.244-1.047-0.736-1.479-1.588
		c-0.687-1.438-0.617-3.091-0.35-4.57l0.438,0.028c0.119,1.585,0.523,3.761,1.958,4.482c0.001,0,0.163,0.132,0.163,0.132
		c-0.118-0.124-0.23-0.166-0.154-0.135c0.854,0.303,2.247,0.084,2.888-0.404c2.306-2.557,2.444-7.072,2.997-10.552
		c0.627-5.341,0.91-10.801,1.492-16.276c0.453-4.141,0.988-8.328,1.953-12.431c0.612-2.262,1.128-4.632,2.851-6.572
		c1.293-1.454,3.778-1.846,5.406-0.429c4.469,4.741-5.776,15.239-9.26,18.408c-1.557,1.41-3.205,2.722-4.966,3.873
		c-1.635,0.984-3.336,2.195-3.946,3.968c-1.71,5.565,7.369,10.192,11.334,6.893c1.306-1.153,2.521-2.961,1.308-4.572
		c-1.153-1.839-7.057-4.104-7.588-0.55c-0.118,1.136,0.293,2.478,0.772,3.747L182.438,171.505z"/>
	<path clip-path="url(#SVGID_2_)" fill="#627A73" d="M228.181,142.816c-2.944,2.288-7.625,0.465-7.062-3.673
		c0.825-4.252,7.001-3.947,9.128-0.924l-2.045,0.389c1.034-3.794,1.45-7.739,1.231-11.659l-0.127-2.21
		c3.242,1.175,6.703,2.733,9.946,3.737c0.771,0.167,1.396,0.128,1.849-0.11l2.39-1.263c-0.561,4.712-1.251,10.889-1.926,15.56
		c-0.115,0.523,0.038,0.674-0.392,1.35c-0.339,0.445-0.893,0.556-1.172,0.537c-1.666-0.106-4.084-2.209-4.897,0.195
		c-0.25,0.904,0.086,1.939,1.007,2.476c0.895,0.538,2.123,0.641,3.215,0.248c-1.497,0.967-4.011,0.824-5.01-0.93
		c-0.683-1.266-0.541-2.96,0.665-3.933c1.54-1.195,3.431-0.236,5-0.01c0.007-0.018-0.24,0.002-0.402,0.208
		c-0.141,0.204-0.094,0.228-0.099,0.096c0.056-0.776,0.119-2.245,0.171-3.036c0.125-2.344,0.534-7.983,0.724-10.396l2.079,1.371
		c-2.31,1.231-4.709,0.266-6.747-0.51c-1.801-0.672-3.575-1.414-5.363-2.118l1.95-1.405c0.092,2.123-0.001,4.255-0.329,6.35
		c-0.386,2.809-1.26,5.642-2.279,8.284l-1.276-1.739c-0.8-1.089-1.73-1.734-3.049-1.763c-1.33-0.095-2.484,0.321-2.781,1.509
		C221.744,142.625,225.611,144.138,228.181,142.816"/>
	<path clip-path="url(#SVGID_2_)" fill="#D88B6C" d="M226.724,140.271c-3.049,2.878-8.288,0.746-7.793-3.825
		c0.796-5.109,8.155-5.087,10.786-1.519l-4.109,0.78c1.282-5.056,1.085-10.563,0.571-15.712c2.97,1.178,6.735,2.528,9.661,3.713
		c1.13,0.434,2.327,0.971,3.126,0.87c-0.001,0,4.527-0.12,4.527-0.12c-0.536,4.377-1.124,8.85-1.885,13.188
		c-0.161,0.785-0.382,2.228-0.542,3c-0.28,2.275-2.39,2.873-4.344,1.808c-0.768-0.308-1.349-0.667-1.966-0.642
		c-0.154-0.003-0.391,0.179-0.525,0.495c-0.765,2.027,1.812,3.113,3.638,2.617c-2.372,1.912-6.318,0.368-5.973-3.043
		c0.038-1.922,2.037-3.418,3.878-3.216c1.148,0.037,1.869,0.322,2.802,0.439c0.155,0.03,0.094-0.022-0.062-0.033
		c-0.092-0.006-0.252-0.006-0.483,0.074c-0.23,0.077-0.523,0.268-0.708,0.51c-0.367,0.525-0.291,0.725-0.316,0.602
		c0.014-0.267,0.002-1.028,0.013-1.307c0.043-4.049,0.217-8.126,0.488-12.162l4.168,2.749c-4.479,2.296-9.165-1.179-13.321-2.509
		l3.942-2.841c0.063,2.212-0.065,4.426-0.437,6.596c-0.481,3.505-2.173,7.511-3.461,10.8c-0.588-0.807-2.52-4.212-3.302-4.734
		c-0.755-0.592-2.798-0.877-3.245,0.205C220.847,139.774,224.31,141.206,226.724,140.271"/>
	<path clip-path="url(#SVGID_2_)" fill="#627A73" d="M139.198,131.97c-1.835,3.22-6.927,3.279-7.924-0.754
		c-0.831-4.251,5.007-6.286,8.113-4.282l-1.749,1.128c-0.465-3.905-1.56-7.718-3.234-11.269l-0.948-2.001
		c3.446-0.128,7.239,0.017,10.623-0.269c0.776-0.136,1.343-0.406,1.672-0.797l1.741-2.066c1.249,4.577,2.927,10.561,4.056,15.144
		c0.089,0.529,0.288,0.61,0.143,1.398c-0.146,0.539-0.619,0.851-0.885,0.938c-1.584,0.527-4.614-0.514-4.465,2.019
		c0.107,0.932,0.807,1.765,1.863,1.917c1.029,0.163,2.208-0.202,3.071-0.977c-1.024,1.458-3.407,2.27-4.991,1.018
		c-1.108-0.916-1.612-2.54-0.86-3.895c0.979-1.685,3.09-1.506,4.63-1.886c0-0.018-0.222,0.093-0.295,0.345
		c-0.053,0.241-0.001,0.246-0.055,0.125c-0.24-0.74-0.732-2.125-0.98-2.878c-0.764-2.219-2.502-7.599-3.232-9.907l2.441,0.49
		c-1.678,2.008-4.265,2.014-6.446,2.06c-1.921,0.053-3.844,0.031-5.766,0.05l1.28-2.034c0.883,1.933,1.597,3.944,2.079,6.009
		c0.697,2.749,0.95,5.702,0.997,8.534l-1.836-1.133c-1.15-0.709-2.255-0.958-3.487-0.49c-1.269,0.412-2.183,1.23-2.012,2.443
		C133.16,134.209,137.313,134.159,139.198,131.97"/>
	<path clip-path="url(#SVGID_2_)" fill="#D88B6C" d="M136.529,130.35c-1.809,3.516-7.149,3.546-8.291-0.687
		c-0.989-4.67,5.303-6.998,8.767-4.865l-2.625,1.692c-0.627-4.922-2.5-9.664-4.79-14.032c2.936-0.026,6.269-0.144,9.181-0.151
		c1.349-0.049,2.94,0.09,3.761-0.65l2.678-2.887c1.403,5.061,2.812,10.306,3.965,15.42c0.196,1.021,0.877,2.422-0.215,3.395
		c-1.113,0.949-2.692,0.394-3.872,0.626c-0.777,0.136-1.144,0.449-1.126,1.268c0.147,2.233,3.142,2.322,4.644,1
		c-0.961,1.57-3.467,2.472-5.149,1.194c-1.243-0.991-1.815-2.732-1.002-4.264c0.931-1.796,3.436-1.784,4.741-2.143
		c-0.235,0.057-0.512,0.372-0.59,0.665c-0.098,0.433,0.002,0.513-0.06,0.4c-0.079-0.254-0.358-0.962-0.444-1.226
		c-1.4-3.797-2.731-7.649-3.961-11.502l3.671,0.738c-0.925,1.174-2.39,1.849-3.742,2.103c-3.188,0.448-5.893,0.206-9.009,0.296
		l1.94-3.085c2.329,4.971,3.067,10.58,2.987,16.023l-2.703-1.785c-1.312-1.02-3.22-0.869-4.404,0.182
		c-0.742,0.689-0.474,1.951,0.162,2.719C132.459,132.389,134.977,131.812,136.529,130.35"/>
	<path clip-path="url(#SVGID_2_)" fill="#627A73" d="M221.708,214.777c-3.624,0.864-6.866-3.152-5.152-6.615
		c1.705-4.23,8.207-3.792,9.574,0.677l-3.145,0.011c1.307-6.392,2.351-12.714,2.368-19.245c0.036-2.522,0.117-8.275,0.153-10.755
		l3.29,2.447c2.383,1.777,2.689,4.498,3.805,6.571c1.014,1.803,2.911,3.146,4.327,4.879c3.102,3.792,4.403,9.061,3.032,13.706
		c-0.149-4.437-1.979-8.759-5.203-11.666c-1.714-1.599-3.858-2.756-5.33-4.884c-1.276-1.751-1.671-4.094-3.101-5.174l3.349-1.733
		c0.229,6.731,0.104,13.661-1.639,20.225c-0.952,3.915-2.942,9.526-4.173,13.404l-0.876-6.934c-0.095-0.741-0.947-1.596-1.942-1.814
		c-1.079-0.258-2.081,0.317-2.721,1.226C216.6,211.459,218.844,214.707,221.708,214.777"/>
	<path clip-path="url(#SVGID_2_)" fill="#D88B6C" d="M223.595,218.136c-3.624,0.864-6.866-3.152-5.152-6.615
		c1.705-4.23,8.207-3.792,9.574,0.677l-3.146,0.011c1.308-6.392,2.352-12.714,2.369-19.245c0.036-2.522,0.117-8.275,0.153-10.755
		l3.29,2.447c2.383,1.777,2.688,4.498,3.805,6.571c1.013,1.803,2.911,3.146,4.327,4.879c3.101,3.792,4.403,9.061,3.032,13.706
		c-0.149-4.437-1.979-8.759-5.203-11.666c-1.714-1.599-3.859-2.756-5.33-4.884c-1.277-1.751-1.671-4.094-3.101-5.174l3.349-1.733
		c0.229,6.731,0.104,13.661-1.639,20.225c-0.952,3.915-2.942,9.526-4.174,13.404l-0.876-6.934c-0.094-0.741-0.946-1.596-1.941-1.814
		c-1.079-0.258-2.081,0.317-2.722,1.226C218.486,214.819,220.73,218.066,223.595,218.136"/>
	<path clip-path="url(#SVGID_2_)" fill="#627A73" d="M191.088,308.879c-2.755,0.617-5.289-2.472-3.929-5.121
		c1.301-3.177,6.194-2.827,7.207,0.525l-2.097,0.007c1.854-7.571,2.109-15.277,1.999-23.039l2.222,1.635
		c1.813,1.344,2.024,3.468,2.935,5.061c0.696,1.257,2.162,2.328,3.446,3.814c2.431,2.915,3.477,6.979,2.498,10.606
		c-0.032-3.487-1.435-6.92-3.945-9.246c-1.149-1.143-2.84-2.024-4.109-3.822c-0.984-1.392-1.289-3.248-2.469-4.129l2.229-1.153
		c0.138,5.253,0.081,10.647-1.269,15.772c-0.667,2.885-1.938,6.558-2.82,9.404l-0.715-4.343c-0.41-1.708-2.916-2.19-3.933-0.465
		C186.995,306.288,188.811,308.879,191.088,308.879"/>
	<path clip-path="url(#SVGID_2_)" fill="#D88B6C" d="M192.564,311.508c-2.755,0.617-5.289-2.473-3.93-5.121
		c1.302-3.177,6.194-2.827,7.207,0.524l-2.097,0.008c1.854-7.571,2.11-15.277,1.999-23.039l2.222,1.635
		c1.814,1.344,2.024,3.468,2.936,5.06c0.695,1.258,2.162,2.329,3.445,3.815c2.432,2.915,3.477,6.979,2.498,10.605
		c-0.031-3.486-1.435-6.92-3.944-9.245c-1.15-1.143-2.84-2.024-4.11-3.822c-0.984-1.393-1.289-3.248-2.468-4.129l2.229-1.153
		c0.139,5.253,0.081,10.647-1.269,15.772c-0.667,2.885-1.938,6.558-2.82,9.404l-0.715-4.343c-0.41-1.708-2.916-2.191-3.932-0.465
		C188.471,308.917,190.286,311.508,192.564,311.508"/>
</g>
</svg>
