<?xml version="1.0" encoding="utf-8"?>
<!-- Generator: Adobe Illustrator 16.0.0, SVG Export Plug-In . SVG Version: 6.00 Build 0)  -->
<!DOCTYPE svg PUBLIC "-//W3C//DTD SVG 1.1//EN" "http://www.w3.org/Graphics/SVG/1.1/DTD/svg11.dtd">
<svg version="1.1" id="Layer_1" xmlns="http://www.w3.org/2000/svg" xmlns:xlink="http://www.w3.org/1999/xlink" x="0px" y="0px"
	 width="285.057px" height="456.142px" viewBox="0 0 285.057 456.142" enable-background="new 0 0 285.057 456.142"
	 xml:space="preserve">
<polygon fill="#7FA29A" points="73.125,0 0,213.138 0,456.142 284.449,456.142 284.449,213.138 213.42,0 "/>
<g>
	<defs>
		<polygon id="SVGID_1_" points="73.125,0 0,213.137 0,456.142 284.449,456.142 284.449,213.137 213.42,0 		"/>
	</defs>
	<clipPath id="SVGID_2_">
		<use xlink:href="#SVGID_1_"  overflow="visible"/>
	</clipPath>
	<path clip-path="url(#SVGID_2_)" fill="#D88B6C" d="M73.426,594.738c12.164-25.841,17.038-54.755,13.327-83.023
		c-2.557-20.313-9.591-42.482-15.501-62.201c-8.207-27.619-15.319-56.968-10.352-85.917c7.274-43.508,37.202-79.104,69.203-107.7
		c26.684-23.983,56.523-44.382,81.243-70.417c43.813-44.481,74.429-94.776,83.552-157.317c0.718-3.84,0.918-6.997,1.383-10.647
		c0.914-6.546,1.255-14.937,1.761-21.462l0.748,0.001c0.247,8.911,0.224,18.128-0.345,27.068c-0.021,3.139-1.22,12.851-1.521,16.223
		c-1.263,8.883-2.953,17.986-5.107,26.737c-0.293,1.424-1.019,3.832-1.428,5.264c-0.999,3.25-2.028,7.361-3.117,10.465
		c-18.221,55.699-57.665,101.993-102.882,138.101c-43.69,35.412-96.943,67.281-115.764,123.351
		C51.624,392.774,79.196,441.395,89.1,489.439c8.352,35.48,3.94,74.599-15.014,105.651C74.086,595.09,73.426,594.738,73.426,594.738
		"/>
	<path clip-path="url(#SVGID_2_)" fill="#D88B6C" d="M61.279,558.554c0.436-2.104,1.207-5.807,1.607-7.739
		c0.252-1.524,1.042-6.161,1.316-7.774c0.261-2.055,0.752-5.907,1.009-7.806c0.13-1.478,0.556-6.243,0.695-7.826
		c0.126-3.139,0.438-7.395,0.419-10.451l0.052-5.223l-0.168-5.218l-0.073-2.605c-0.094-1.485-0.422-6.212-0.526-7.802
		c-0.204-2.027-0.66-5.883-0.854-7.764c-0.232-1.446-0.924-6.163-1.163-7.717c-0.382-1.901-1.093-5.878-1.448-7.663l-0.589-2.531
		l-1.182-5.057l-1.394-5.002c-0.723-2.713-2.2-7.18-3.063-9.912c-0.677-1.751-2.042-5.645-2.677-7.303
		c-0.55-1.414-2.395-5.68-2.994-7.175c-5.719-12.834-12.764-25.173-17.562-38.566c-7.526-20.348-7.298-42.892-2.241-63.763
		c15.274-63.229,67.099-107.133,106.484-155.734c17.715-21.618,31.288-46.142,43.191-71.2c5.881-12.549,10.738-25.568,13.376-38.937
		l0.484-2.507l0.357-2.518l0.351-2.52c1.222-11.254,1.897-22.586,2.082-33.91c0.106-27.707-1.245-56.524-13.479-81.902
		c-0.001,0,0.649-0.369,0.649-0.369c11.127,18.295,15.294,39.928,17.455,60.978c1.86,20.372,1.966,40.988-0.321,61.331
		c-2.232,15.208-7.449,29.758-13.702,43.676c-12.035,25.756-26.484,50.761-44.975,72.357c-22.527,27.216-49.092,50.517-71.356,77.86
		c-28.637,34.236-48.861,80.505-35.85,125.265c4.815,16.822,14.116,31.346,21.128,47.814c6.994,16.475,11.648,33.97,13.469,51.758
		c1.876,17.646,1.158,35.749-2.335,53.149l-1.087,5.205l-1.322,5.146l-0.667,2.568l-0.793,2.534l-1.584,5.056L61.279,558.554z"/>
	<path clip-path="url(#SVGID_2_)" fill="#D88B6C" d="M45.406,582.955c11.828-46.464,2.893-95.452-15.183-139.064
		c-7.768-19.117-17.929-37.042-23.266-57.281c-8.76-35.387-3.616-73.186,10.105-106.631c1.866-4.602,4.245-9.721,6.52-14.13
		c9.225-18.671,22.257-34.886,34.615-51.395c50.375-66.248,67.962-126.913,47.132-208.764C102.128-7.448,97.894-20.743,93.5-33.553
		c0,0.001,0.694-0.279,0.694-0.279c11.292,24.991,20.141,51.371,24.235,78.845c9.228,62.132-8.91,111.647-45.598,161.093
		c-11.042,15.257-23.6,29.418-34.664,44.604c-11.881,16.501-21.268,34.882-26.923,54.474c-7.603,25.972-8.483,54.333-0.325,80.271
		c4.165,12.829,10.568,24.828,16.714,37.089c9.4,18.405,16.904,38.089,21.704,58.268c4.01,16.785,6.216,34.298,5.884,51.568
		c-0.317,17.253-3.15,34.651-9.101,50.798L45.406,582.955"/>
	<path clip-path="url(#SVGID_2_)" fill="#D88B6C" d="M14.786,454.697c-8.112-13.417-16.08-26.799-22.859-40.781v13.97
		c9.908,20.085,22.966,38.361,33.69,57.969c11.706,23.376,14.426,50.002,12.805,75.907l0.742,0.092
		c4.411-24.621,3.344-50.771-6.298-74.219C28.008,476.116,21.043,465.46,14.786,454.697"/>
	<path clip-path="url(#SVGID_2_)" fill="#D88B6C" d="M43.054,2.944l-0.708,0.24c8.329,29.538,10.427,60.864,5.396,91.151
		c-3.133,24.334-17.253,45.098-30.538,65.287c-9.566,14.067-18.055,27.414-25.278,40.693v15.171
		c6.343-12.511,13.653-24.555,21.603-36.017c13.53-20.668,29.427-41.613,36.971-65.4c3.688-12.121,4.815-25.024,5.289-37.609
		C56.487,51.412,52.219,26.202,43.054,2.944"/>
	<path clip-path="url(#SVGID_2_)" fill="#627A73" d="M282.516,274.231c-0.861,0.926-1.536,2.14-2.143,3.201l-1.729,3.013
		c-10.29,18.142-18.766,37.303-25.383,57.084c-1.519,4.422-2.65,8.816-4.948,12.031c-1.698,2.569-5.141,4.761-8.182,4.217
		c-8.089-12.271-14.307-25.767-18.383-39.871c-1.006-4.016-2.893-9.63-7.617-11.029c-9.169-2.692-15.495,5.663-16.589,13.788
		c-0.17,0.999-0.304,1.788-0.504,2.286c-0.484,1.165-1.541,1.64-2.809,2.267c-7.353,3.116-14.058,8.049-19.081,14.287
		c-2.396,2.944-4.365,6.159-6.949,8.749c-6.625,6.521-16.738,5.831-25.521,6.584c-6.844,0.43-23.971,1.505-32.5,2.041
		c-0.268-5.354-2.037-10.589-5.072-14.977c-4.152-5.401-6.326-7.025-3.364-13.8c3.626-7.334,2.555-15.112-3.648-20.679
		c-8.525-7.857-22.713-2.081-25.011,8.799c-0.629,3.022-0.149,5.94-0.014,8.678c0.748,5.74-2.673,10.236-5.868,14.704
		c-2.965,4.289-10.377,14.823-13.947,19.938c-7.362-6.448-9.937-16.995-17.864-23.078c-2.256-1.804-5.01-3.213-7.98-3.662
		c2.562-3.607,4.993-7.475,5.438-12.05c0.591-5.292-2.554-11.566-8.377-12.125c-5.441-0.524-10.343,3.229-13.215,7.537
		c-2.686,4.165-3.764,9.264-5.506,13.784c-1.583,4.594-4.3,7.987-8.006,11.115c-1.949,1.613-3.887,3.522-5.507,5.655v118.094H291.9
		V274.994C290.311,270.019,285.234,270.859,282.516,274.231"/>
	<path clip-path="url(#SVGID_2_)" fill="#D88B6C" d="M288.165,277.109c-11.287,19.291-20.577,39.782-27.51,61.036
		c-1.907,5.466-2.78,10.382-6.553,13.886c-1.426,1.336-3.722,2.31-5.608,2.099c-8.11-12.095-14.415-25.425-18.588-39.409
		c-0.84-2.784-1.766-6.572-4.247-8.906c-3.805-3.819-10.211-3.114-14.026,0.113c-3.504,2.921-5.108,7.341-5.816,11.611
		c-0.328,1.697-0.209,2.565-1.419,3.602c-2.071,1.482-5.007,2.392-7.257,3.82c-3.48,1.995-6.672,4.462-9.521,7.258
		c-5.59,5.005-8.342,12.815-15.063,16.451c-6.519,3.418-14.459,3.203-21.759,3.832c-10.744,0.733-22.583,1.518-33.339,2.101
		c-0.062-5.497-1.781-10.925-4.834-15.481c-1.632-2.432-3.717-4.408-4.433-6.808c-1.419-5.347,3.923-10.497,3.521-16.027
		c-0.164-11.55-12.259-20.001-22.818-14.139c-4.185,2.189-7.449,6.026-8.579,10.733c-0.744,3.22-0.291,6.243-0.227,8.914
		c0.56,5.58-2.77,9.462-5.975,13.833c-2.789,3.822-9.153,12.68-13.036,18.124c-3.748-3.882-6.195-9.022-9.288-13.646
		c-3.232-4.867-7.927-9.775-13.729-11.519c2.119-3.264,3.909-6.791,4.248-10.884c0.769-8.035-5.686-15.591-14.154-12.878
		c-5.321,1.753-9.317,6.215-11.298,11.316c-2.28,5.506-3.071,11.689-6.391,16.604c-2.693,3.885-6.914,6.678-9.836,10.617
		c-1.605,2.089-2.618,4.573-3.339,6.959c-1.438,4.553-1.775,9.585-4.564,13.452c-0.153,0.206-0.317,0.411-0.488,0.612v2.18
		c4.298-3.72,5.586-10.063,7.394-15.47c2.196-7.342,9.151-10.496,13.678-16.294c6.288-8.041,5.138-21.896,16.162-25.6
		c5.169-1.59,8.481,3.285,7.894,8.103c-0.184,1.918-0.974,3.964-2.013,5.887c-1.692,3.136-4.635,6.793-6.77,9.849l5.013,0.04
		c9.829,0.629,14.12,11.232,19.06,18.548c1.926,2.913,4.199,5.86,7.205,8.202l2.229,1.736c0.591-0.877,10.344-15.054,11.143-16.238
		l4.733-7c2.32-3.536,5.439-7.496,6.075-12.083c0.667-4.157-0.81-8.864-0.083-12.584c1.722-8.859,13.424-14.004,20.581-7.556
		c5.516,4.867,6.246,11.475,3.066,17.929c-2.041,4.476-2.385,8.857,0.973,12.788c4.547,5.184,7.297,11.813,7.016,18.744l-0.03,1.019
		c7.968-0.427,15.944-0.724,23.915-1.084l11.454-0.422c9.575-0.45,20.687,0.2,28.249-6.987c2.887-2.701,5.028-6.002,7.509-8.912
		c4.763-5.61,10.885-9.847,17.696-12.606c5.755-2.425,5.569-5.431,6.878-10.698c0.738-2.35,1.796-4.445,3.635-5.92
		c2.617-2.003,6.601-2.137,8.049,1.344c4.951,16.797,11.544,33.577,21.621,48.128c3.219,1.396,6.969,1.203,10.05-0.269
		c7.524-3.331,9.869-12.009,12.102-19.021c5.738-17.306,12.742-34.202,21.159-50.385c1.107-2.201,2.342-4.472,3.558-6.703v-9.916
		C290.049,274.188,289.105,275.523,288.165,277.109"/>
	<path clip-path="url(#SVGID_2_)" fill="#627A73" d="M146.031,482.08c14.722-44.244,18.603-73.52,19.171-92.638
		c0.326-10.965-0.214-26.078,3.067-48.694c2.406-16.584,4.234-19.063,3.834-29.522c-0.667-17.439-6.511-30.451-1.15-34.124
		c1.345-0.921,2.111-0.377,6.519-0.383c9.086-0.015,23.7-2.351,26.072-9.202c0.618-1.787,0.389-3.834,0-7.285
		c-0.533-4.742-1.781-6.435-0.768-8.052c1.193-1.9,3.988-1.269,7.669-1.917c6.927-1.222,11.503-6.011,14.187-8.819
		c1.587-1.661,6.823-7.288,8.052-15.72c0.275-1.887,1.1-7.554-1.534-9.202c-0.499-0.312-1.05-0.435-6.134,0.384
		c-4.088,0.658-6.132,0.987-8.052,1.533c-3.957,1.127-4,1.744-6.902,2.301c-3.008,0.578-5.658,1.087-7.668-0.384
		c-2.211-1.617-2.85-5.048-2.3-7.668c0.944-4.507,4.899-4.204,8.051-9.585c1.878-3.207,0.265-2.959,3.068-12.269
		c0.357-1.191,2.547-8.378,1.532-8.819c-0.27-0.118-0.76,0.246-1.365-0.048c0,0-0.406-0.197-0.647-0.647
		c-0.452-0.844,0.291-1.836,0.936-3.523c0.241-0.634,1.468-3.847,0.431-4.744c-0.3-0.261-0.652-0.206-1.222-0.719
		c-0.14-0.126-0.504-0.454-0.72-0.935c-0.452-1.009,0.216-1.647-0.071-2.66c-0.186-0.65-0.707-1.256-1.15-1.438
		c-1.802-0.74-5.733,4.129-8.195,7.98c-2.149,3.362-4.497,8.007-5.464,9.921c-1.668,3.301-2.597,5.393-4.17,5.464
		c-1.646,0.074-3.043-2.109-3.163-2.301c-1.098-1.758-0.219-2.544-1.222-4.457c-1.199-2.287-3.58-3.31-4.242-3.594
		c-1.364-0.587-1.808-0.841-2.228-0.647c-0.659,0.303-0.974,1.258-0.863,2.012c0.13,0.888,0.796,1.167,1.366,1.941
		c0.847,1.151,0.648,2.265,0.719,4.386c0.007,0.218,0.115,3.101,0.791,5.895c0.759,3.136,1.138,4.705,2.443,5.967
		c0.598,0.577,1.565,1.278,1.869,2.588c0,0,0.183,0.781,0,1.653c-0.799,3.848-9.273,11.646-9.273,11.646
		c-6.4,5.89-4.385,7.537-11.574,14.164c-4.292,3.954-6.941,6.327-10.28,6.038c-2.057-0.179-3.812-1.317-9.776-8.986
		c-9.046-11.627-7.809-12.603-12.582-17.038c-4.803-4.462-7.779-5.074-9.274-9.417c-0.178-0.518-1.585-4.803,0.216-9.274
		c0.723-1.795,2.351-3.473,5.607-6.83c0.637-0.657,0.757-0.426,1.965-1.246c2.333-1.582,3.712-2.903,5.368-4.505
		c2.391-2.314,2.805-3.087,2.78-3.93c-0.01-0.328-0.072-0.195-0.372-1.713c-0.315-1.599-0.473-2.398-0.431-2.984
		c0.039-0.55,0.15-1.009,0-1.725c-0.054-0.258-0.125-0.581-0.324-0.899c-0.43-0.688-1.312,0.313-1.845-0.012
		c-1.608-0.981-1.607-5.234-0.779-5.775c0.258-0.168,0.483,0.006,0.719-0.216c0.439-0.411,0.102-1.423-0.108-2.049
		c-0.205-0.615-0.298-0.563-0.647-0.73c-0.453-0.218-0.817-0.276-1.15-0.456c-0.524-0.282-0.692-1.708-0.072-2.66
		c0.683-1.047,1.756-0.657,3.02-1.869c0.476-0.456,0.711-1.998,0.649-2.777c-0.098-1.221-1.892-0.888-5.993-3.07
		c-1.678-0.893-3.431-1.135-4.505-1.821c-3.434-2.193-3.292-2.753-3.643-3.163c-1.255-1.466-1.6-3.225-2.324-4.481
		c-1.957-3.397-5.478-4.864-8.124-5.967c-5.611-2.339-10.737-1.705-13.228-1.366c-2.423,0.329-15.742,2.445-22.933,14.665
		c-4.387,7.457-4.282,14.918-3.882,18.62c0.487,4.503,0.887,8.196,3.667,11.359c4.941,5.621,13.092,4.665,15.24,10.783
		c0.291,0.829,0.361,1.472,0.432,2.157c0.905,8.829-7.395,17.773-11.718,24.658c-8.489,13.52-7.519,28.462-7.261,32.423
		c0.444,6.848,2.98,13.384,8.051,26.456c5.772,14.876,8.062,16.223,10.736,26.455c3.009,11.513,2.956,20.697,2.876,23.772
		c-0.344,13.177-3.86,16.898-6.135,28.756c-2.563,13.363-0.559,25.332,3.451,49.269c1.763,10.528,3.91,19.978,4.792,35.274
		c0.706,12.241,0.016,18.077-3.642,23.005c-3.663,4.935-7.783,5.567-11.886,11.694c-3.522,5.261-4.503,10.795-4.793,14.569"/>
	<path clip-path="url(#SVGID_2_)" fill="#D88B6C" d="M139.647,478.02c9.361-30.602,17.396-62.217,17.983-94.335
		c-0.063-16.105,0.437-32.423,2.909-48.403c0.953-7.863,3.271-15.83,3.566-23.66c0.188-7.923-1.143-15.776-2.502-23.627
		c-0.702-5.395-3.413-15.319,4.07-17.352c2.773-0.155,5.095,0.206,7.769,0.021c6.182-0.344,19.737-1.642,22.146-8.108
		c0.513-3.594-0.32-7.466-1.056-11.062c-0.31-1.298-0.415-3.079,0.474-4.353c1.458-2.413,4.736-2.289,7.033-2.482
		c5.698-0.32,10.604-3.632,14.492-7.713c5.49-5.228,9.102-12.709,8.758-20.299c-0.093-1.763-0.85-3.325-1.701-2.886
		c-3.716,0.34-7.98,1.012-11.666,1.776c-2.019,0.455-3.592,1.131-5.599,1.898c-2.184,0.658-4.05,0.95-6.304,1.104
		c-5.465,0.481-8.182-5.032-7.239-9.756c0.583-4.554,5.714-5.906,7.864-9.426c1.254-1.669,1.498-3.164,1.728-5.246
		c0.596-4.04,2.057-7.878,3.036-11.776c0.281-1.256,0.647-2.502,0.588-3.746c0.002-0.052-0.047-0.08,0.064,0.057
		c0.059,0.085,0.221,0.157,0.313,0.167c0.097,0.01,0.083,0.002,0.063,0.006c-1.233,0.345-2.536-0.339-2.794-1.772
		c-0.029-1.7,0.948-2.691,1.353-4.141c0.353-1.029,0.773-2.3,0.47-3.236c-0.05-0.049,0.008-0.034-0.184-0.117
		c-0.19-0.074-0.506-0.215-0.737-0.385c-0.922-0.639-1.668-1.854-1.413-2.996c0.263-1.037,0.133-1.599-0.618-2.178
		c-0.06-0.021-0.11-0.038-0.232-0.027c-1.089,0.275-1.973,1.242-2.805,2.063c-4.826,5.211-7.812,11.787-11.089,18.071
		c-0.697,1.209-1.477,2.898-3.118,3.22c-2.246,0.224-3.896-1.87-4.618-3.707c-0.165-0.511-0.208-1.052-0.234-1.484
		c-0.079-3.001-3.149-4.777-5.707-5.695c-0.175-0.069-0.345-0.099-0.336-0.091c-0.418,0.231-0.596,1.256-0.26,1.647
		c0.477,0.594,1.461,1.421,1.661,2.342c0.495,1.989,0.127,3.575,0.425,5.492c0.172,1.764,0.496,3.419,0.96,5.158
		c0.445,1.722,0.859,3.39,2.014,4.399c4.096,3.178,1.392,7.226-1.152,10.318c-3.278,4.302-7.775,7.365-10.668,11.865
		c-1.731,3.069-3.972,6.268-6.646,8.668c-10.754,10.741-13.839,8.22-22.388-2.782c-2.225-2.826-4.398-5.716-6.399-8.741
		c-1.951-3.017-3.601-5.818-6.386-8.11c-2.716-2.604-6.096-3.997-8.3-7.391c-2.492-4.349-2.588-10.258,0.192-14.513
		c1.377-1.945,3.008-3.517,4.605-5.22c0.339-0.439,1.086-0.992,1.52-1.171c2.809-1.648,6.016-4.538,8.181-7.303
		c0.119-0.202,0.055-0.202,0.08-0.146c0.032,0.161-0.005-0.004-0.041-0.122c-0.214-0.792-0.367-1.658-0.527-2.424
		c-0.205-0.935-0.36-2.087-0.203-3.114c0.013-0.28-0.008-0.396-0.088-0.714c-0.017-0.053-0.022-0.067-0.038-0.094
		c0.067,0.134,0.409,0.497,0.789,0.564c0.329,0.079,0.477,0.031,0.534,0.023c-3.316,1.58-4.943-2.79-4.81-5.3
		c-0.014-1.406,0.325-3.446,2.086-3.92c0.524-0.112,0.754-0.082,0.493-0.07c-0.788,0.136-1.081,0.79-1.101,0.962
		c-0.037,0.214-0.009,0.151-0.033,0.065c-0.017-0.094-0.055-0.242-0.108-0.409c-0.047-0.15-0.145-0.44-0.153-0.448
		c0.001-0.02,0,0.087,0.279,0.367c0.138,0.131,0.287,0.208,0.313,0.221c0.032,0.015-0.014-0.006-0.092-0.039l-0.249-0.11
		c-3.182-0.7-3.283-4.673-1.242-6.582c0.74-0.741,1.755-0.784,2.456-1.309c0.045-0.031,0.089-0.077,0.134-0.117
		c0.034-0.027,0.053-0.051-0.027,0.03c-0.057,0.072-0.066,0.081-0.083,0.108c-0.042,0.073,0.013-0.03,0.041-0.141
		c0.07-0.236,0.128-0.588,0.147-0.893c0.011-0.142,0.01-0.323,0.003-0.347c-0.019,0.143,0.182,0.583,0.335,0.683
		c0.269,0.182-0.164-0.068-0.534-0.169c-1.664-0.527-3.537-1.313-5.125-2.15c-1.108-0.507-2.555-0.816-3.834-1.444
		c-1.68-1.04-3.512-2.077-4.651-3.901c0,0-0.001,0.002,0.041,0.058c0.071,0.082-0.061-0.075-0.081-0.101
		c-0.377-0.454-0.696-0.939-0.962-1.419c-0.535-0.961-0.87-1.905-1.184-2.615c-1.258-2.798-4.121-4.333-7.024-5.503
		c-6.143-2.702-13.207-1.859-19.363,0.423c-12.198,4.325-19.675,16.588-17.981,29.407c0.421,3.917,0.878,8.038,3.993,10.67
		c4.908,4.185,13.908,4.136,15.246,12.178c0.943,5.041-1.016,10.333-3.293,14.372c-3.477,6.341-8.43,11.515-11.292,17.991
		c-4.127,9.244-5.374,20.039-3.75,30.076c1.359,6.759,4.183,13.417,6.626,19.946c2.504,6.805,5.432,12.979,8.424,19.646
		c1.465,3.421,2.511,7.015,3.341,10.56c2.423,10.71,3.399,21.934,1.228,32.803c-0.756,3.652-1.974,7.12-3.018,10.476
		c-2.121,6.709-3.374,13.581-3.357,20.577c0.176,14.099,3.037,28.316,5.174,42.284c1.861,10.573,3.289,21.344,3.608,32.113
		c0.131,7.139,0.412,15.18-4.24,21.133c-2.181,2.953-5.424,4.846-8.141,7.151c-5.35,4.634-8.216,11.663-8.834,18.65l-0.447-0.034
		c0.217-3.588,0.948-7.178,2.357-10.527c1.398-3.342,3.472-6.447,6.178-8.925c2.644-2.376,5.71-4.251,7.757-7.161
		c2.062-2.78,3.05-6.148,3.366-9.622c0.567-7.017-0.196-14.199-0.863-21.215c-2.342-21.413-8.696-42.187-9.358-63.839
		c-0.114-7.331,1.143-14.712,3.256-21.66c1.04-3.482,2.153-6.799,2.806-10.169c2.34-13.517,0.293-28.194-4.818-40.884
		c-4.654-9.613-8.869-19.696-12.5-29.8c-6.939-17.168-4.757-38.275,6.546-53.154c3.873-5.715,8.993-11.848,8.666-18.855
		c-0.047-2.511-1.368-4.11-3.832-5.26c-2.832-1.405-6.782-2.478-9.964-5.348c-1.571-1.399-2.873-3.204-3.689-5.159
		c-3.109-9.15-2.673-19.504,2.02-28.001c7.159-13.249,25.719-20.626,39.769-14.705c3.626,1.461,7.508,3.789,9.172,7.715
		c0.396,0.93,0.663,1.677,1,2.283c0.165,0.302,0.34,0.567,0.533,0.803c0.677,0.908,0.427,0.686,0.689,0.95
		c0.948,0.837,2.363,1.993,3.667,2.376c0.791,0.271,1.753,0.568,2.717,1.028c0.729,0.336,1.62,0.87,2.346,1.154
		c1.431,0.75,2.876,0.781,4.251,1.898c0.811,0.669,1.038,1.917,0.914,2.844c-0.102,1.039-0.232,1.827-0.806,2.831
		c-0.575,0.883-1.711,1.555-2.612,1.868c-0.521,0.177-0.704,0.277-0.602,0.22c0.055-0.064-0.021,0.008-0.052,0.142
		c-0.037,0.123-0.023,0.346-0.021,0.334c-0.035,0,0.046-0.173-0.52-0.548c-0.071-0.031,0.068,0.032,0.304,0.109
		c0.307,0.09,0.699,0.29,0.988,0.415c1.267,0.635,1.447,1.9,1.72,3.047c0.321,1.256-0.407,3.092-1.967,3.29
		c-0.482,0.048-0.48,0.052-0.173-0.002c0.235-0.077,0.609-0.265,0.716-0.452c0.177-0.255,0.088-0.165,0.082-0.091
		c-0.24,0.833-0.03,2.472,0.337,3.012c0.044,0.033-0.108-0.081-0.295-0.137c-0.136-0.055-0.33-0.067-0.403-0.07
		c-0.229,0.011-0.232,0.027-0.232,0.027c0.397-0.152,1.195-0.457,1.97-0.244c1.994,0.633,2.177,2.952,1.965,4.704
		c-0.019,0.74,0.296,2.013,0.43,2.807l0.128,0.601l0.067,0.276c0.345,0.903,0.031,2.334-0.404,2.946
		c-1.412,2.135-3.256,3.571-5.028,5.241c-1.525,1.298-3.163,2.599-4.964,3.481c-1.482,1.522-3.457,3.412-4.708,5.096
		c-2.114,3.101-2.041,7.859-0.279,11.065c1.712,2.711,5.257,4.479,7.61,6.856c2.78,2.33,4.852,5.738,6.7,8.774
		c2.851,4.443,6.066,8.752,9.417,12.848c2.045,2.274,4.195,5.579,7.591,4.59c1.453-0.369,2.858-1.367,4.203-2.445
		c2.625-2.231,5.388-4.584,7.525-7.298c2.095-2.785,3.774-6.278,6.445-8.685c2.658-2.468,5.183-4.89,7.422-7.623
		c1.341-1.817,3.11-3.586,2.909-5.856c-0.154-0.952-0.715-1.485-1.563-2.257c-1.485-1.337-1.987-3.368-2.438-5.181
		c-0.692-2.612-1.098-5.407-1.117-8.129c-0.015-0.9,0.027-1.795-0.182-2.445c-0.283-0.86-0.831-1.139-1.456-1.958
		c-0.705-1.106-0.546-2.441,0.32-3.423c0.246-0.232,0.539-0.467,1.042-0.522c0.459-0.021,0.725,0.101,0.967,0.181
		c1.344,0.551,2.573,1.057,3.745,1.951c1.16,0.894,2.159,2.099,2.612,3.536c0.39,1.268,0.066,2.609,0.914,3.647
		c2.013,2.81,3.332,2.035,4.708-0.738c3.782-7.073,6.952-15.084,13.372-20.296c2.413-1.822,4.721,0.592,4.011,3.218
		c-0.121,0.84,0.514,1.488,1.271,1.779c2.724,1.219,0.323,5.917-0.403,7.779c-0.158,0.377-0.253,0.744-0.217,0.885
		c0.025,0.118,0.11,0.309,0.424,0.473l-0.093-0.053c0.083,0.03,0.117,0.043,0.27,0.023l0.364-0.068
		c0.271-0.064,0.869,0.036,1.075,0.34c0.416,0.499,0.329,0.789,0.389,1.257c-0.15,3.371-1.369,6.606-2.21,9.79
		c-0.953,3.027-1.133,5.764-1.7,8.901c-1.007,3.154-3.343,5.577-5.891,7.496c-1.532,1.149-2.616,2.29-2.896,4.179
		c-0.599,3.295,1.093,7.443,4.962,6.925c2.921-0.192,5.637-1.002,8.338-2.214c2.894-1.102,6.069-1.625,9.046-2.133
		c2.481-0.297,5.099-1.191,7.755-0.775c2.232,0.734,3.097,3.459,3.244,5.412c0.58,8.644-3.28,16.996-9.273,22.989
		c-2.882,3.073-6.271,5.918-10.277,7.534c-2.868,1.275-6.299,1.494-9.272,1.778c-0.681,0.169-1.351,0.155-1.34,0.925
		c0.733,4.548,2.199,9.225,1.292,13.948c-1.775,5.891-8.258,8.043-13.48,9.444c-6.421,1.615-13.149,1.946-19.676,1.599
		c-0.202,0.043-0.266,0.08-0.456,0.232c-1.72,1.548-1.302,4.205-1.189,6.684c1.208,10.006,3.57,19.856,3.17,30.224
		c-0.37,8.291-2.731,15.953-3.782,24.065c-2.524,15.891-3.235,31.841-3.505,47.945c-0.522,16.235-3.065,32.299-6.712,48.025
		c-3.681,15.732-8.356,31.193-13.733,46.388L139.647,478.02z"/>
</g>
</svg>
