<svg xmlns="http://www.w3.org/2000/svg" viewBox="0 0 284.19 456.14"><defs><style>.cls-1{fill:#252727;}.cls-2{fill:#222424;}.cls-3{fill:#252626;}.cls-4{fill:#242424;}.cls-5{fill:#272828;}.cls-6{fill:#2e2e2f;}.cls-7{fill:#2b2b2b;}.cls-8{fill:#353435;}.cls-9{fill:#484647;}.cls-10{fill:#494848;}.cls-11{fill:#474646;}.cls-12{fill:#2e2e2d;}.cls-13{fill:#4f4947;}.cls-14{fill:#3f3f3e;}.cls-15{fill:#444443;}.cls-16{fill:#322f30;}.cls-17{fill:#3c3c3c;}.cls-18{fill:#434242;}.cls-19{fill:#35373a;}.cls-20{fill:#77787b;}.cls-21{fill:#555353;}.cls-22{fill:#6b7178;}.cls-23{fill:#504e4d;}.cls-24{fill:#7c8286;}.cls-25{fill:#777f87;}.cls-26{fill:#616164;}.cls-27{fill:#212222;}.cls-28{fill:#6b6c70;}</style></defs><g id="Layer_2" data-name="Layer 2"><g id="FB_pohja" data-name="FB pohja"><path class="cls-1" d="M.33,356.7V324.45c12-.42,24-1.14,36-1.2,33.14-.19,66.29,0,99.43-.29,2.1,0,4.18-2.38,6.27-3.66l2.88.05c2.1,1.25,4.2,3.57,6.33,3.6,44.26.66,88.52,1.06,132.78,1.51q0,16.11,0,32.23-66.39-.6-132.79-1.14c-2,0-4.09,1.2-6.13,1.84,2,.63,4.08,1.81,6.13,1.83q66.39.82,132.79,1.43V376.1c-10.16.08-20.47-.89-30.44.54-9.39,1.35-18.44,5.15-27.56,8.14-.67.22-.62,2.63-.9,4l10.52-1.39,22.82,2.72,16.7,0,2.65.05,6.21.29,0,2.38H145.68v3.88h88.2c1,1.27,1.88,2.56,2.86,3.8s2.16,2.61,3.24,3.91c-1.82.88-3.66,2.48-5.47,2.45-2.17,0-4.89-2.72-6.38-2.06-6.88,3.09-14.58.91-20.38,2.27-6.9,1.61-13.93,3-20.24,1.88s-13.32,1.69-19.39-4.34c-6.55-6.49-17.66-1.6-19.75,7.34-.65,2.81-2.38,5.37-3.61,8.05,0-12.81,0-12.81-16.09-11.62l2.59,3.08c-1,.67-2.3,2.11-3,1.87-7.07-2.69-12.89.43-18.86,3.48a5.19,5.19,0,0,1-4.26-.08c-9.36-5.4-17.12-2.1-25,3.57-2,1.46-8,1.46-8.5.46-3.74-8.32-12.19-6.93-18.49-9.56a34.63,34.63,0,0,0-12.7-2.16c-5.43-.05-10.87.86-17.55,1.46,2.94-5.87,4.92-9.8,6.89-13.73L141.34,395l0-2.09H.29c0-.8,0-1.59,0-2.39l7.5-.28,2.65-.05,16.7,0L50,387.41c.18.12.36.34.54.34,3.66.1,7.33.18,11,.26-1.91-1.92-3.49-4.53-5.79-5.65-12.29-6-25.66-6.06-38.93-6.2-15.54-.15-15.54,0-15.39-15.5,29.82-.44,59.65-1,89.47-1.29,15-.17,30.08,0,45.12-.14,1.95,0,3.88-1.33,5.82-2.05-1.87-.58-3.75-1.7-5.61-1.67-16.07.28-32.14,1-48.21,1.12C58.77,356.83,29.55,356.7.33,356.7Z"/><path class="cls-2" d="M144.94,319.35l-2.87-.05c-9.41.41-18.81,1.11-28.22,1.16-31.15.16-62.31.1-93.46.05a37.81,37.81,0,0,1-6.18-1c12.22-7,25.71-3.9,38.69-4.62,4.77-.26,9.62,1.6,14.45,1.67,10.85.15,21.7-.35,32.55-.34,13.44,0,26.88.43,40.31.31,1.52,0,4.38-2.51,4.28-3.65-.35-3.88-.78-10.21-2.91-11a49.54,49.54,0,0,0-18.87-2.64c-12.87.48-25.68,2.34-38.55,2.88a279.53,279.53,0,0,1-32.23-.48c-12.66-.93-24.86,4.91-38.48-1.86C6.22,296.15,5,293.1,4,287.23l16.77-.3,87,0c9.88,0,19.76.07,29.63-.08,1.47,0,2.93-1,4.39-1.58-1.5-.72-3-2.09-4.49-2.06-6,.13-11.93,1.08-17.89,1-14.47-.16-28.93-1.08-43.39-1-18.42.07-36.84.78-55.27,1.22L.3,283.05V252a51.25,51.25,0,0,1,7.49-1.22c11.18-.2,22.36-.2,33.54-.27l100.87-1,2.57-.1c5.32.42,10.63,1.19,16,1.2,27.44.08,54.88,0,82.32-.09l41,.26q0,16.76,0,33.5l-19.11.1H149.48l-.06,2.27c38.48.57,77,.14,115.47.26l16.77.3c-.59,2.7-.29,6.51-2,7.83a12.08,12.08,0,0,1-9.1,2.08c-3-.68-5.43-3.73-8.24-5.53-.74-.48-2-.15-3-.18,0,1.17-.6,2.86,0,3.43,2.32,2.32,5,4.3,7.91,6.73a46.36,46.36,0,0,1-7.86,1.28c-5.29.1-10.58-.46-15.87-.5-11-.08-22,.05-33.07,0-8.53,0-16.54-3.71-25.63-1.65-6.48,1.46-13.89-1.78-20.84-1.57-4.05.12-8.49,2.28-11.81,4.77-1.68,1.26-2.63,6.64-1.49,7.83,2.36,2.46,6.37,4.73,9.65,4.67,14.1-.29,28.19-1.46,42.28-2.26a19,19,0,0,1,3.18.26c7.49.73,15,2,22.47,2.08,10.76.08,21.53-1,32.29-.89,2.33,0,4.61,3.17,6.92,4.87Zm-117.42-27-1.75-1.83-9.86,4.94c2,1.36,5.08,4.29,5.86,3.77C24.16,297.68,25.67,294.78,27.52,292.39Z"/><path class="cls-2" d="M225,30.93,235.27,64.6l-86.58-1.24-6.55,0-91.49,0q5.82-16.14,11.63-32.26c24,0,48,0,72.05-.16,2.5,0,5-1.13,7.49-1.73-2.4-.69-4.8-2-7.2-2C110.82,27,87,27.1,63.21,27.1c2.65-8,5.13-16.17,8.09-24.11.52-1.38,3-2.87,4.65-2.87q67.43-.24,134.86.05c1.68,0,4.2,2.32,4.88,4.11,2.86,7.49,5.16,15.2,7.66,22.83H145.56c0,1.27,0,2.55,0,3.82Z"/><path class="cls-3" d="M12.89,174.47,24.5,140.82c37.32,0,74.64.08,112-.13,1.9,0,3.78-2.39,5.67-3.66h5.29c3.31,1.27,6.61,3.62,9.93,3.65,34.6.26,69.2.14,103.8.13q5.63,16.81,11.27,33.63c-14,0-28,0-41.93,0-13.11,0-26.22-.07-39.32-.26-13.43-.18-26.86-.71-40.28-.68-2,0-4.06,2.28-6.09,3.5l-2.62.08c-1.9-1.28-3.8-3.66-5.7-3.65-12.84.05-25.68.86-38.53.94C69.59,174.55,41.24,174.45,12.89,174.47Z"/><path class="cls-2" d="M147.41,137h-5.29L25.81,138.27c2.6-8.47,5.18-17,7.83-25.4.85-2.74,1.87-5.43,2.82-8.15l105.73-1.25,2.57-.09,104.78,1.23,10.29,33.66Z"/><path class="cls-4" d="M142.17,177.07l2.62-.08,129,1.41q2.75,8.35,5.5,16.71c-6.45,1.72-12.81,3.92-19.36,5.09-22.22,4-44.61,2.58-67,1.41-3.32-.18-7.21-1.36-9.87-.07-6.16,3-11.39,2.05-16.9-1.09s-11.56-.64-14.29,6.35H159c23,0,46-.09,69,.16,2,0,3.94,2.27,5.91,3.49q-44.53.18-89.09.33l-2.62-.14-90.54.2-2.46-.25,6.17-6.5c-8.82-.72-17.38-1.45-25.94-2.09-1.63-.12-4.11.82-4.8,0-5.45-6.12-12.63-3.62-19.15-4.3q3.21-9.66,6.43-19.34ZM65.22,204.38l.21,1.84h42l.61-2.07c-3.75-1.17-7.48-3.28-11.24-3.31-5.79-.05-11.59,1.37-17.4,2.07C74.69,203.47,70,203.89,65.22,204.38Zm45.44-.31c.06.89.11,1.79.17,2.68,10.23,0,20.46.08,30.68-.1,1,0,2-1.56,3-2.39-1-.86-2-2.5-2.92-2.45C131.3,202.41,121,203.28,110.66,204.07Z"/><path class="cls-3" d="M144.76,103.38l-2.57.09c-2.27-.91-4.54-2.59-6.82-2.6-32.23-.16-64.46-.1-96.68-.09Q44.51,84,50.34,67.15c28.71,0,57.43.1,86.14-.13,1.9,0,3.77-2.39,5.66-3.68l6.55,0c2.57,1.27,5.14,3.63,7.72,3.65,26.73.27,53.46.15,80.18.14l11.3,33.63c-32.06,0-64.11-.06-96.17.1C149.4,100.89,147.08,102.51,144.76,103.38Z"/><path class="cls-5" d="M144.76,420.07c1.23-2.68,3-5.24,3.61-8.05,2.09-8.94,13.2-13.83,19.75-7.34,6.07,6,13.08,3.19,19.39,4.34s13.34-.27,20.24-1.88c5.8-1.36,13.5.82,20.38-2.27,1.49-.66,4.21,2,6.38,2.06,1.81,0,3.65-1.57,5.47-2.45-1.08-1.3-2.19-2.58-3.24-3.91s-1.91-2.53-2.86-3.8l23.24.07c1.73,3.31,3.56,6.58,5.16,10a19.26,19.26,0,0,1,1,4.13,15.43,15.43,0,0,1-3.43.28c-5.44-.72-10.86-1.62-16.31-2.33a8.82,8.82,0,0,0-3.64.34,87.69,87.69,0,0,0-8.8,3.15c-5.24,2.27-11.86,3.5-15.19,7.45-4,4.73-5.25,4.29-10.37,1.64-6.78-3.5-15.34-6.33-22.52-5.28-4.57.66-7.57,1.47-11.61-1-8.77-5.4-22.06.68-22.73,10.09l-3.85,3.93c2.24.84,4.48,2.37,6.73,2.4q53.38.87,106.76,1.39c8.59.1,17.17.05,25.76.07q0,9,0,18c-10.07.77-20.4-5.05-30.31,1.21-.9.57-2.52-.08-3.8,0-9.35.38-18.66-7.31-28.09-.17-.45.34-1.6-.36-2.44-.43-7.32-.64-14.68-2.07-22-1.7-15.64.78-31.23,2.47-46.83,3.92-.73.07-1.34,1.41-2,2.15h-6.43c-.08-5.12-2.79-4.93-6.95-4.27-6.9,1.09-14.79,3.44-20.8,1.25-13.94-5.07-27.5-4.23-41.56-2.46-4.6.58-9.46-1.24-14.23-1.55-2.87-.18-5.79.47-8.7.7-7.09.55-14.17,1.37-21.27,1.52-5.5.12-11-.78-16.53-.87a46,46,0,0,0-7.23.72L.31,444.61c0-3.45,0-6.89,0-10.34l1.08-1.19c24.43-.45,48.86-1,73.3-1.3,20.4-.22,40.8,0,61.2-.19,2.1,0,4.18-1.63,6.27-2.5Zm102.37-18.56c.15-.38.48-.81.38-1.06s-.64-.32-1-.47c-.15.35-.48.77-.39,1S246.76,401.34,247.13,401.51Z"/><path class="cls-3" d="M284,244.29l0,2.53-41,.33-91.82-1.49c-.65-5.2-4.11-10.52,2.26-15,7.63-5.4,16.69-5.78,24.41-.46a14.07,14.07,0,0,0,5.6,1.78c4.07.69,8.3.72,12.26,1.78,4.58,1.22,8.95,3.93,11.66-2.86.35-.87,3.72-.65,5.69-.73,2.58-.11,5.17,0,7.76,0-.65-3.08-.8-6.4-2.11-9.16-1.18-2.47-3.65-4.33-5.55-6.46,7.36,1.47,16.42-4.13,21.91,5.23l23.27,2.85c1.34,1.19,2.54,3.12,4.05,3.41,2.89.55,6.07-.33,8.92.31,2.56.56,4.84,2.36,7.25,3.62-2.54,1.23-5,2.53-7.61,3.67-1.49.66-3.68.62-4.52,1.71-1.85,2.4-3.05,5.32-5,8.95Z"/><path class="cls-5" d="M4,287.23c1,5.87,2.24,8.92,9.47,12.51,13.62,6.77,25.82.93,38.48,1.86a279.53,279.53,0,0,0,32.23.48c12.87-.54,25.68-2.4,38.55-2.88a49.54,49.54,0,0,1,18.87,2.64c2.13.79,2.56,7.12,2.91,11,.1,1.14-2.76,3.63-4.28,3.65-13.43.12-26.87-.28-40.31-.31-10.85,0-21.7.49-32.55.34-4.83-.07-9.68-1.93-14.45-1.67-13,.72-26.47-2.42-38.69,4.62L.3,319.25v-31Z"/><path class="cls-5" d="M267.46,320.49c-2.31-1.7-4.59-4.84-6.92-4.87-10.76-.14-21.53,1-32.29.89-7.49-.07-15-1.35-22.47-2.08a19,19,0,0,0-3.18-.26c-14.09.8-28.18,2-42.28,2.26-3.28.06-7.29-2.21-9.65-4.67-1.14-1.19-.19-6.57,1.49-7.83,3.32-2.49,7.76-4.65,11.81-4.77,6.95-.21,14.36,3,20.84,1.57,9.09-2.06,17.1,1.61,25.63,1.65,11,0,22.05-.09,33.07,0,5.29,0,10.58.6,15.87.5a46.36,46.36,0,0,0,7.86-1.28c-2.93-2.43-5.59-4.41-7.91-6.73-.57-.57,0-2.26,0-3.43,1,0,2.26-.3,3,.18,2.81,1.8,5.24,4.85,8.24,5.53a12.08,12.08,0,0,0,9.1-2.08c1.67-1.32,1.37-5.13,2-7.83L284,287l0,33.51Z"/><path class="cls-6" d="M148.63,425.24c.67-9.41,14-15.49,22.73-10.09,4,2.49,7,1.68,11.61,1,7.18-1.05,15.74,1.78,22.52,5.28,5.12,2.65,6.38,3.09,10.37-1.64,3.33-3.95,9.95-5.18,15.19-7.45a87.69,87.69,0,0,1,8.8-3.15,8.82,8.82,0,0,1,3.64-.34c5.45.71,10.87,1.61,16.31,2.33a15.43,15.43,0,0,0,3.43-.28,19.26,19.26,0,0,0-1-4.13c-1.6-3.37-3.43-6.64-5.16-10H284v5.11l-10.13,1.3c-.27,3.72-.54,7.43-.82,11.42-7.54-1.38-7.17,3.15-5.15,8.8.35,1,.57,2,.86,3.05-12.76,0-25.52-.09-38.28.13-1.89,0-3.75,1.57-5.63,2.41l-27.07-1.16L190,429h-2.67c-.24-.57-.45-1.63-.73-1.65-7.22-.5-14.45-.91-21.69-1.17-.22,0-.5,1.82-.75,2.79H161.5l-7.65,0-4,0Z"/><path class="cls-7" d="M233.9,210.45c-2-1.22-3.93-3.47-5.91-3.49-23-.25-46-.16-69-.16h-7.17c2.73-7,8.76-9.51,14.29-6.35s10.74,4.09,16.9,1.09c2.66-1.29,6.55-.11,9.87.07,22.36,1.17,44.75,2.56,67-1.41,6.55-1.17,12.91-3.37,19.36-5.09q2.38,7.14,4.78,14.28l-16.56,1.32-5.23,1-2.52-1.12c-.52-.65-1-1.3-1.57-2-.34.65-.67,1.31-1,2l-7.81.52.09-.63-10.34,0-5.18.36Z"/><path class="cls-8" d="M.31,444.61l4.61,6.46a46,46,0,0,1,7.23-.72c5.52.09,11,1,16.53.87,7.1-.15,14.18-1,21.27-1.52,2.91-.23,5.83-.88,8.7-.7,4.77.31,9.63,2.13,14.23,1.55,14.06-1.77,27.62-2.61,41.56,2.46,6,2.19,13.9-.16,20.8-1.25,4.16-.66,6.87-.85,6.95,4.27-46.06.07-92.13.18-138.19.05-1.31,0-3.37-2.25-3.74-3.78C-.32,449.88.24,447.19.31,444.61Z"/><path class="cls-8" d="M148.62,456c.66-.74,1.27-2.08,2-2.15,15.6-1.45,31.19-3.14,46.83-3.92,7.27-.37,14.63,1.06,22,1.7.84.07,2,.77,2.44.43,9.43-7.14,18.74.55,28.09.17,1.28-.05,2.9.6,3.8,0,9.91-6.26,20.24-.44,30.31-1.21-1.2,1.73-2.38,5-3.58,5C236.51,456.22,192.56,456.1,148.62,456Z"/><path class="cls-9" d="M.29,392.89h141l0,2.09L29.81,396.84c-7.73,0-15.47-.15-23.19.1-1.7.05-3.35,1.54-5,2.37,1.62.89,3.29,1.68,4.83,2.68,1.82,1.19,3.52,2.56,5.28,3.85-6.67-.58-7.23,4.83-8,9-.71,3.72.11,7.72.25,11.6L.3,427.83Q.3,410.37.29,392.89Z"/><path class="cls-10" d="M.33,356.7c29.22,0,58.44.13,87.67-.07,16.07-.11,32.14-.84,48.21-1.12,1.86,0,3.74,1.09,5.61,1.67-1.94.72-3.87,2-5.82,2.05-15,.18-30.08,0-45.12.14-29.82.34-59.65.85-89.47,1.29a10.29,10.29,0,0,0-1.11,0Z"/><path class="cls-10" d="M284,360.65q-66.39-.67-132.79-1.43c-2.05,0-4.09-1.2-6.13-1.83,2-.64,4.09-1.85,6.13-1.84q66.41.45,132.79,1.14Z"/><path class="cls-11" d="M142.18,429.09c-2.09.87-4.17,2.47-6.27,2.5-20.4.2-40.8,0-61.2.19-24.44.27-48.87.85-73.3,1.3A8.13,8.13,0,0,0,.31,433c0-1.31,0-2.62,0-3.93l60.44,0,27.07-1.16L95.63,429H98.3l23.17,0h2.66l5.15-1.12h6.42l3.88,0Z"/><path class="cls-11" d="M161.5,429h2.67l23.17,0H190l7.79-1.12,27.07,1.16,59.17,0c0,1.32,0,2.63,0,3.95-8.59,0-17.17,0-25.76-.07q-53.37-.6-106.76-1.39c-2.25,0-4.49-1.56-6.73-2.4l5.11-.16,4,0Z"/><path class="cls-10" d="M267.46,320.49H284c0,1.32,0,2.64,0,4-44.26-.45-88.52-.85-132.78-1.51-2.13,0-4.23-2.35-6.33-3.6Z"/><path class="cls-10" d="M.3,319.25l13.91.22a37.81,37.81,0,0,0,6.18,1c31.15.05,62.31.11,93.46-.05,9.41,0,18.81-.75,28.22-1.16-2.1,1.28-4.18,3.65-6.28,3.66-33.14.26-66.29.1-99.43.29-12,.06-24,.78-36,1.2Z"/><path class="cls-11" d="M284,396.83H257.12l-23.24-.07h-88.2v-3.88H284.06C284,394.21,284,395.52,284,396.83Z"/><path class="cls-12" d="M5.47,197.74c6.52.68,13.7-1.82,19.15,4.3.69.78,3.17-.16,4.8,0,8.56.64,17.12,1.37,25.94,2.09l-6.17,6.5H45.3l-9.08,0,.09.61-7.81-.51-1-2-1.58,2-2.52,1.12-5.22-1.05c-4.71-4.23-9.44-4.06-14.21-.1l-3.67,0Q2.88,204.17,5.47,197.74Z"/><path class="cls-13" d="M142.17,177.07,11.9,178.4l1-3.93c28.35,0,56.7.08,85.05-.11,12.85-.08,25.69-.89,38.53-.94C138.37,173.41,140.27,175.79,142.17,177.07Z"/><path class="cls-13" d="M273.74,178.4l-129-1.41c2-1.22,4.06-3.49,6.09-3.5,13.42,0,26.85.5,40.28.68,13.1.19,26.21.22,39.32.26,14,0,28,0,41.93,0C272.85,175.76,273.29,177.08,273.74,178.4Z"/><path class="cls-6" d="M284,244.29H261.48c2-3.63,3.16-6.55,5-8.95.84-1.09,3-1.05,4.52-1.71,2.57-1.14,5.07-2.44,7.61-3.67-2.41-1.26-4.69-3.06-7.25-3.62-2.85-.64-6,.24-8.92-.31-1.51-.29-2.71-2.22-4.05-3.41l10.37-1.14,5.21-.29,2.35.15,7.67-.17Z"/><path class="cls-14" d="M25.81,138.27,142.12,137c-1.89,1.27-3.77,3.65-5.67,3.66-37.31.21-74.63.14-111.95.13C24.94,140,25.38,139.12,25.81,138.27Z"/><path class="cls-15" d="M38.69,100.78c32.22,0,64.45-.07,96.68.09,2.28,0,4.55,1.69,6.82,2.6L36.46,104.72Z"/><path class="cls-15" d="M144.76,103.38c2.32-.87,4.64-2.49,7-2.5,32.06-.16,64.11-.1,96.17-.1l1.65,3.83Z"/><path class="cls-16" d="M.28,246.84q0-12.84,0-25.69l8.8-.14,2.53.17,5.21.28,10.37,1.13c-3.21,7.1-9.51,2-14.11,3.62A34.52,34.52,0,0,0,6,229.34c-.4.26.44,4,1.1,4.16a40.3,40.3,0,0,0,8.16.23,14.18,14.18,0,0,0,2.25-.44c1.66,11,1.66,10.8-8.54,11.11-2.55.07-5.05,1.6-7.58,2.46A6.76,6.76,0,0,1,.28,246.84Z"/><path class="cls-17" d="M142.14,63.34c-1.89,1.29-3.76,3.67-5.66,3.68-28.71.23-57.43.14-86.14.13l.31-3.84Z"/><path class="cls-14" d="M147.41,137l112.42,1.23,1.31,2.55c-34.6,0-69.2.13-103.8-.13C154,140.66,150.72,138.31,147.41,137Z"/><path class="cls-18" d="M63.21,27.1c23.8,0,47.61-.07,71.41.08,2.4,0,4.8,1.29,7.2,2-2.5.6-5,1.72-7.49,1.73-24,.16-48,.13-72.05.16Z"/><path class="cls-19" d="M.3,360.62a10.29,10.29,0,0,1,1.11,0c-.15,15.47-.15,15.35,15.39,15.5,13.27.14,26.64.19,38.93,6.2,2.3,1.12,3.88,3.73,5.79,5.65-3.67-.08-7.34-.16-11-.26-.18,0-.36-.22-.54-.34-.92-1.17-1.68-3.13-2.82-3.38a187.42,187.42,0,0,0-20.29-3.73c-3.68-.41-7.53.6-11.3,1l-3.83,0L.37,381.17Q.33,370.9.3,360.62Z"/><path class="cls-18" d="M225,30.93H145.54c0-1.27,0-2.55,0-3.82h77.79C223.91,28.38,224.46,29.66,225,30.93Z"/><path class="cls-19" d="M235.65,387.41l-10.52,1.39c.28-1.39.23-3.8.9-4,9.12-3,18.17-6.79,27.56-8.14,10-1.43,20.28-.46,30.44-.54,0,1.28.05,2.56.08,3.85l-8.89,1.34-5.16,0c-10.54.88-21.09,1.66-31.6,2.77C237.41,384.15,236.58,386.24,235.65,387.41Z"/><path class="cls-14" d="M236.59,67.15c-26.72,0-53.45.13-80.18-.14-2.58,0-5.15-2.38-7.72-3.65l86.58,1.24Z"/><path class="cls-20" d="M9.13,221l-8.8.14,0-10.55,3.67,0,14.21.1,5.22,1.05-6.53,9.68-5.21-.29L10.19,219Z"/><path class="cls-20" d="M274,221.19l-5.21.29-6.54-9.72,5.23-1,16.63-.12L284,221.17l-7.67.17L275,219.07C274.63,219.77,274.31,220.48,274,221.19Z"/><path class="cls-21" d="M.28,246.84a6.76,6.76,0,0,0,1.1,0l39.91.28,0,3.41c-11.18.07-22.36.07-33.54.27A51.25,51.25,0,0,0,.29,252Z"/><path class="cls-15" d="M273.89,403.24l10.13-1.3,0,24.62-6.21-.08C277,418.66,282.85,409.69,273.89,403.24Z"/><path class="cls-21" d="M243.06,247.15l41-.33c0,1.33,0,2.66-.05,4l-41-.26Z"/><path class="cls-3" d="M60.77,429.05l-60.44,0a1.32,1.32,0,0,1,0-1.25l3.63-1.35,11.63,0c13.19,0,26.38-.08,39.57.14C57,426.67,58.89,428.21,60.77,429.05Z"/><path class="cls-3" d="M277.83,426.48l6.21.08v2.52l-59.17,0c1.88-.84,3.74-2.38,5.63-2.41,12.76-.22,25.52-.12,38.28-.13Z"/><path class="cls-22" d="M.37,381.17l11.37.06q-.63,4.47-1.28,8.94l-2.65.05c-.2-2.31-.41-4.62-.61-6.93-1.48.93-2.91,1.95-4.45,2.75a7.76,7.76,0,0,1-2.45.38Z"/><path class="cls-23" d="M4,287.23l-3.68,1V283q10.22.69,20.42,1.35l0,2.54Z"/><path class="cls-22" d="M275.22,381.29l8.89-1.34c0,2.15,0,4.31-.05,6.46l-5.62-3.13c-.2,2.31-.41,4.63-.62,6.94l-2.65-.05C275.19,387.21,275.2,384.25,275.22,381.29Z"/><path class="cls-23" d="M284,287l-2.35.24-16.77-.3c0-.84,0-1.69,0-2.53l19.11-.1Z"/><path class="cls-24" d="M.3,386.42A7.76,7.76,0,0,0,2.75,386c1.54-.8,3-1.82,4.45-2.75.2,2.31.41,4.62.61,6.93l-7.5.28Z"/><path class="cls-24" d="M277.82,390.22c.21-2.31.42-4.63.62-6.94l5.62,3.13,0,4.1Z"/><path class="cls-4" d="M284.09,210.59l-16.63.12L284,209.39A1.44,1.44,0,0,1,284.09,210.59Z"/><path class="cls-8" d="M.31,433a8.13,8.13,0,0,1,1.1.07L.33,434.27Z"/><path class="cls-6" d="M60.77,429.05c-1.88-.84-3.75-2.38-5.64-2.41-13.19-.22-26.38-.13-39.57-.14.54-5.16,7.34-13.12-5.18-11.93.48-3.15.9-5.94,1.33-8.73C10,404.55,8.25,403.18,6.43,402c-1.54-1-3.21-1.79-4.83-2.68,1.67-.83,3.32-2.32,5-2.37,7.72-.25,15.46-.1,23.19-.1-2,3.93-3.95,7.86-6.89,13.73,6.68-.6,12.12-1.51,17.55-1.46a34.63,34.63,0,0,1,12.7,2.16c6.3,2.63,14.75,1.24,18.49,9.56.46,1,6.46,1,8.5-.46,7.9-5.67,15.66-9,25-3.57a5.19,5.19,0,0,0,4.26.08c6-3.05,11.79-6.17,18.86-3.48.66.24,2-1.2,3-1.87l-2.59-3.08c16.08-1.19,16.08-1.19,16.09,11.62l-2.58,9-2.6-1.2c-.54-.8-1.08-1.59-1.61-2.39-.76.79-1.52,1.57-2.27,2.36h-2.53l-3.91-1.33L124.13,429h-2.66c-.85-1-1.68-2.94-2.54-3a161.55,161.55,0,0,0-16.31.61c-1.5.13-2.88,1.54-4.32,2.37H95.63l-7.79-1.12Z"/><path class="cls-22" d="M15.57,381.27c3.77-.37,7.62-1.38,11.3-1A187.42,187.42,0,0,1,47.16,384c1.14.25,1.9,2.21,2.82,3.38l-22.82,2.72c-.56-2.33-1.12-4.67-1.23-5.15-3.26,0-5.49.44-7.4-.16C17.29,384.43,16.54,382.51,15.57,381.27Z"/><path class="cls-22" d="M235.65,387.41c.93-1.17,1.76-3.26,2.81-3.37,10.51-1.11,21.06-1.89,31.6-2.77-2.95,1.26-4.18,10.42-9.61.59-.85,3.58-1.41,5.93-2,8.27Z"/><path class="cls-25" d="M258.47,390.13c.57-2.34,1.13-4.69,2-8.27,5.43,9.83,6.66.67,9.61-.59l5.16,0c0,3,0,5.92-.05,8.88Z"/><path class="cls-25" d="M15.57,381.27c1,1.24,1.72,3.16,3,3.55,1.91.6,4.14.16,7.4.16.11.48.67,2.82,1.23,5.15l-16.7,0q.64-4.47,1.28-8.94Z"/><path class="cls-5" d="M41.29,247.14l-39.91-.28c2.53-.86,5-2.39,7.58-2.46,10.2-.31,10.2-.14,8.54-11.11a14.18,14.18,0,0,1-2.25.44,40.3,40.3,0,0,1-8.16-.23c-.66-.13-1.5-3.9-1.1-4.16a34.52,34.52,0,0,1,7.14-3.13c4.6-1.58,10.9,3.48,14.11-3.62l23.26-2.83c2.87-7,9-5,14.36-5.23,2.51-.1,5,0,7.56,0a96.46,96.46,0,0,0-7,6.87c-1.39,1.65-3.46,4.42-2.91,5.66,1.23,2.78,3.83,5,6.17,7.12.18.16,2.49-2.78,4.1-3.23,1.79-.51,5.36-.35,5.66.46,2.3,6.1,5.75,5.08,10.77,3.38,8.92-3,18.21-4.94,27.35-7.31.2-.05.45,0,.64,0,6.76-2.39,12.31,3.53,18,3.32,10.56-.39,10.2,5.21,9.61,12.25-.11,1.28,0,2.57,0,3.86v2.53l-2.57.1c-1.64-.9-3.27-2.57-4.91-2.58C105.28,246.9,73.28,247,41.29,247.14Z"/><path class="cls-14" d="M20.75,286.93l0-2.54c18.43-.43,36.85-1.14,55.27-1.21,14.46-.05,28.92.87,43.39,1,6,.06,11.92-.89,17.89-1,1.48,0,3,1.34,4.49,2.06-1.46.55-2.92,1.56-4.39,1.58-9.87.15-19.75.08-29.63.08Z"/><path class="cls-15" d="M144.76,249.43c0-.84,0-1.68,0-2.53l6.47-1.24,91.82,1.49,0,3.39c-27.44.05-54.88.17-82.32.09C155.39,250.62,150.08,249.85,144.76,249.43Z"/><path class="cls-15" d="M41.29,247.14c32-.1,64-.24,96-.19,1.64,0,3.27,1.68,4.91,2.58l-100.87,1Z"/><path class="cls-14" d="M264.91,284.4c0,.84,0,1.69,0,2.53-38.49-.12-77,.31-115.47-.26l.06-2.27Z"/><path class="cls-5" d="M27.52,292.39c-1.85,2.39-3.36,5.29-5.75,6.88-.78.52-3.84-2.41-5.86-3.77l9.86-4.94Z"/><path class="cls-23" d="M72.42,214.54c-2.52,0-5-.11-7.56,0-5.33.21-11.49-1.76-14.36,5.23l-3.74-2.84,4.89-6.08,90.54-.2,0,2.6Z"/><path class="cls-23" d="M235.13,219.77c-5.49-9.36-14.55-3.76-21.91-5.23l-68.41-1.4v-2.36q44.55-.15,89.09-.33v.46l5,6Z"/><path class="cls-12" d="M65.22,204.38c4.73-.49,9.47-.91,14.19-1.47,5.81-.7,11.61-2.12,17.4-2.07,3.76,0,7.49,2.14,11.24,3.31l-.61,2.07h-42Z"/><path class="cls-12" d="M110.66,204.07c10.32-.79,20.64-1.66,31-2.26.92-.05,1.94,1.59,2.92,2.45-1,.83-2,2.37-3,2.39-10.22.18-20.45.1-30.68.1C110.77,205.86,110.72,205,110.66,204.07Z"/><path class="cls-26" d="M51.65,210.84l-4.89,6.08c-6.71,3.94-8.85-.42-10.45-5.76l-.09-.61,9.08,0h3.89Z"/><path class="cls-12" d="M144.81,210.78v2.36l-2.65.1,0-2.6Z"/><path class="cls-1" d="M149.89,429l-5.11.16,3.85-3.93Z"/><path class="cls-1" d="M247.13,401.51c-.37-.17-.9-.25-1-.51s.24-.67.39-1c.35.15.88.22,1,.47S247.28,401.13,247.13,401.51Z"/><path class="cls-27" d="M142.16,213.24l2.65-.1,68.41,1.4c1.9,2.13,4.37,4,5.55,6.46,1.31,2.76,1.46,6.08,2.11,9.16-2.59,0-5.18-.11-7.76,0-2,.08-5.34-.14-5.69.73-2.71,6.79-7.08,4.08-11.66,2.86-4-1.06-8.19-1.09-12.26-1.78a14.07,14.07,0,0,1-5.6-1.78c-7.72-5.32-16.78-4.94-24.41.46-6.37,4.49-2.91,9.81-2.26,15l-6.47,1.24c0-1.29-.11-2.58,0-3.86.59-7,.95-12.64-9.61-12.25-5.64.21-11.19-5.71-18-3.32-.19.07-.44,0-.64,0-9.14,2.37-18.43,4.29-27.35,7.31-5,1.7-8.47,2.72-10.77-3.38-.3-.81-3.87-1-5.66-.46-1.61.45-3.92,3.39-4.1,3.23-2.34-2.12-4.94-4.34-6.17-7.12-.55-1.24,1.52-4,2.91-5.66a96.46,96.46,0,0,1,7-6.87Z"/><path class="cls-28" d="M235.13,219.77q1.86-1.43,3.73-2.84c6.71,3.93,8.88-.4,10.47-5.77l7.81-.52h2.57l2.52,1.12,6.54,9.72-10.37,1.14Z"/><path class="cls-19" d="M277.83,426.48l-9.05,0c-.29-1-.51-2.06-.86-3.05-2-5.65-2.39-10.18,5.15-8.8.28-4,.55-7.7.82-11.42C282.85,409.69,277,418.66,277.83,426.48Z"/><path class="cls-1" d="M187.34,429l-23.17,0c.25-1,.53-2.81.75-2.8,7.24.26,14.47.67,21.69,1.17C186.89,427.38,187.1,428.44,187.34,429Z"/><path class="cls-1" d="M161.5,429l-7.65,0Z"/><path class="cls-1" d="M197.8,427.89,190,429Z"/><path class="cls-26" d="M249.33,211.16c-1.59,5.37-3.76,9.7-10.47,5.77l-5-6,5.18-.36,10.34,0Z"/><path class="cls-4" d="M249.42,210.53l-10.34,0Z"/><path class="cls-4" d="M259.71,210.64h-2.57c.33-.65.66-1.31,1-2C258.66,209.34,259.19,210,259.71,210.64Z"/><path class="cls-17" d="M11.71,405.84c-.43,2.79-.85,5.58-1.33,8.73,12.52-1.19,5.72,6.77,5.18,11.93l-11.63,0c-.14-3.88-1-7.88-.25-11.6C4.48,410.67,5,405.26,11.71,405.84Z"/><path class="cls-1" d="M98.3,429c1.44-.83,2.82-2.24,4.32-2.37a161.55,161.55,0,0,1,16.31-.61c.86,0,1.69,1.93,2.54,3Z"/><path class="cls-1" d="M87.84,427.89,95.63,429Z"/><path class="cls-1" d="M124.13,429l5.13-2.46,0,1.34Z"/><path class="cls-5" d="M135.7,427.86c.75-.79,1.51-1.57,2.27-2.36.53.8,1.07,1.59,1.61,2.39Z"/><path class="cls-5" d="M129.28,427.87l0-1.34,3.91,1.33Z"/><path class="cls-28" d="M36.31,211.16c1.6,5.34,3.74,9.7,10.45,5.76l3.74,2.84-23.26,2.83-10.37-1.13,6.53-9.68,2.52-1.12H28.5Z"/><path class="cls-4" d="M18.18,210.73,4,210.63C8.74,206.67,13.47,206.5,18.18,210.73Z"/><path class="cls-4" d="M45.3,210.58l-9.08,0Z"/><path class="cls-4" d="M28.5,210.65H25.92l1.58-2Z"/><path class="cls-28" d="M274,221.19c.33-.71.65-1.42,1-2.12l1.37,2.27Z"/><path class="cls-28" d="M9.13,221l1.06-2,1.47,2.14Z"/></g></g></svg>