<svg xmlns="http://www.w3.org/2000/svg" viewBox="0 0 291.45 464.24"><defs><style>.cls-1{fill:#252727;}.cls-2{fill:#222424;}.cls-3{fill:#252626;}.cls-4{fill:#242424;}.cls-5{fill:#272828;}.cls-6{fill:#2e2e2f;}.cls-7{fill:#2b2b2b;}.cls-8{fill:#353435;}.cls-9{fill:#484647;}.cls-10{fill:#494848;}.cls-11{fill:#474646;}.cls-12{fill:#2e2e2d;}.cls-13{fill:#4f4947;}.cls-14{fill:#3f3f3e;}.cls-15{fill:#444443;}.cls-16{fill:#322f30;}.cls-17{fill:#3c3c3c;}.cls-18{fill:#434242;}.cls-19{fill:#35373a;}.cls-20{fill:#77787b;}.cls-21{fill:#555353;}.cls-22{fill:#6b7178;}.cls-23{fill:#504e4d;}.cls-24{fill:#7c8286;}.cls-25{fill:#777f87;}.cls-26{fill:#616164;}.cls-27{fill:#212222;}.cls-28{fill:#6b6c70;}.cls-29{fill:none;stroke:#5c493d;stroke-miterlimit:10;stroke-width:7px;}.cls-30{fill:#423027;}</style></defs><g id="Layer_2" data-name="Layer 2"><g id="FB_pohja" data-name="FB pohja"><path class="cls-1" d="M3.85,361.3q0-16.12,0-32.25c12-.42,24-1.13,36-1.2,33.15-.19,66.29,0,99.44-.28,2.1,0,4.18-2.39,6.27-3.67l2.87.05c2.11,1.26,4.2,3.57,6.33,3.61,44.26.65,88.52,1.05,132.79,1.5q0,16.13,0,32.24-66.4-.62-132.79-1.15c-2,0-4.09,1.2-6.14,1.84,2.05.64,4.08,1.81,6.14,1.83q66.39.84,132.78,1.43V380.7c-10.17.08-20.48-.88-30.44.55-9.39,1.34-18.45,5.14-27.56,8.13-.67.22-.62,2.63-.91,4L239.18,392,262,394.74l16.7,0,2.65.05,6.2.29,0,2.38H149.2v3.88h88.21c1,1.27,1.87,2.56,2.85,3.8s2.16,2.61,3.25,3.91c-1.83.88-3.67,2.48-5.48,2.45-2.17,0-4.88-2.72-6.38-2-6.88,3.08-14.58.9-20.38,2.26-6.89,1.62-13.92,3-20.23,1.88s-13.32,1.69-19.4-4.34c-6.55-6.49-17.65-1.6-19.74,7.34-.66,2.81-2.38,5.37-3.62,8.05,0-12.81,0-12.81-16.09-11.62l2.6,3.09c-1,.66-2.31,2.11-3,1.86-7.08-2.69-12.9.43-18.87,3.48a5.15,5.15,0,0,1-4.26-.08c-9.36-5.39-17.12-2.1-25,3.57-2,1.46-8,1.47-8.49.46-3.75-8.32-12.19-6.92-18.5-9.56A34.41,34.41,0,0,0,44,413.72c-5.43-.06-10.86.85-17.55,1.46,2.95-5.87,4.92-9.8,6.89-13.74l111.54-1.86,0-2.09H3.81c0-.79,0-1.59,0-2.39l7.51-.28,2.65-.05,16.7,0L53.51,392c.17.12.35.34.53.34,3.67.11,7.34.18,11,.27-1.91-1.93-3.48-4.54-5.78-5.66-12.3-6-25.67-6.06-38.94-6.19-15.53-.16-15.53,0-15.38-15.51,29.82-.44,59.64-.95,89.47-1.29,15-.17,30.08,0,45.12-.13,1.94,0,3.88-1.34,5.81-2.06-1.87-.58-3.75-1.7-5.6-1.66-16.08.27-32.15,1-48.22,1.11C62.3,361.43,33.08,361.3,3.85,361.3Z"/><path class="cls-2" d="M148.46,324l-2.87-.05c-9.4.41-18.81,1.12-28.22,1.16-31.15.16-62.31.1-93.46.05a36.94,36.94,0,0,1-6.18-1c12.22-7,25.72-3.89,38.69-4.62,4.77-.26,9.63,1.6,14.45,1.67,10.85.15,21.7-.35,32.56-.33,13.43,0,26.87.42,40.31.3,1.52,0,4.38-2.51,4.27-3.64-.34-3.89-.78-10.21-2.9-11a49.61,49.61,0,0,0-18.88-2.64c-12.86.48-25.68,2.35-38.54,2.88a279.46,279.46,0,0,1-32.23-.48c-12.67-.93-24.87,4.92-38.49-1.86-7.22-3.59-8.49-6.64-9.46-12.51l16.77-.29,87,0c9.88,0,19.76.06,29.64-.08,1.47,0,2.92-1,4.38-1.59-1.49-.72-3-2.08-4.48-2.05-6,.13-11.94,1.07-17.9,1-14.46-.16-28.92-1.08-43.38-1-18.43.07-36.85.78-55.27,1.22L3.82,287.65v-31a52.63,52.63,0,0,1,7.49-1.22c11.18-.2,22.36-.2,33.55-.27l100.86-1,2.58-.09c5.31.42,10.62,1.18,15.94,1.2,27.44.07,54.88-.05,82.32-.1l41,.27q0,16.74,0,33.49l-19.1.1H153l-.05,2.27c38.47.57,77,.15,115.46.27l16.77.29c-.58,2.7-.29,6.52-2,7.84a12.09,12.09,0,0,1-9.09,2.08c-3-.69-5.43-3.74-8.25-5.54-.73-.47-2-.14-3-.18-.05,1.17-.61,2.87,0,3.43,2.32,2.32,5,4.3,7.92,6.73a46.5,46.5,0,0,1-7.87,1.28c-5.28.1-10.57-.46-15.86-.5-11-.08-22,0-33.08,0-8.52,0-16.53-3.7-25.63-1.65-6.48,1.47-13.89-1.78-20.84-1.57-4,.12-8.49,2.28-11.81,4.77-1.67,1.26-2.63,6.64-1.49,7.83,2.36,2.46,6.37,4.73,9.65,4.67,14.1-.28,28.19-1.45,42.28-2.26a21.44,21.44,0,0,1,3.19.26c7.49.73,15,2,22.47,2.08,10.76.09,21.53-1,32.28-.89,2.33,0,4.62,3.17,6.93,4.87ZM31,297l-1.75-1.82-9.85,4.93c2,1.36,5.08,4.29,5.85,3.77C27.68,302.29,29.19,299.38,31,297Z"/><path class="cls-2" d="M228.54,35.53q5.11,16.85,10.25,33.67L152.22,68h-6.56l-91.48,0Q60,51.79,65.81,35.65c24,0,48,0,72-.16,2.5,0,5-1.12,7.49-1.73-2.4-.69-4.79-2-7.2-2-23.8-.15-47.6-.08-71.4-.08,2.64-8,5.12-16.17,8.09-24.1.51-1.39,3-2.88,4.64-2.88q67.44-.24,134.86,0c1.69,0,4.21,2.32,4.89,4.11,2.85,7.5,5.15,15.2,7.66,22.83H149.09l0,3.82Z"/><path class="cls-3" d="M16.42,179.07,28,145.43c37.31,0,74.63.07,112-.14,1.89,0,3.78-2.39,5.67-3.66h5.28c3.31,1.27,6.62,3.62,9.94,3.65,34.59.26,69.19.15,103.79.14q5.64,16.8,11.27,33.62c-14,0-28,0-41.92,0-13.11,0-26.22-.07-39.33-.25-13.43-.19-26.85-.72-40.28-.68-2,0-4.06,2.27-6.09,3.49l-2.61.08c-1.9-1.27-3.81-3.65-5.7-3.65-12.85,0-25.69.86-38.53.94C73.12,179.15,44.77,179.05,16.42,179.07Z"/><path class="cls-2" d="M150.93,141.64h-5.28L29.34,142.87c2.6-8.47,5.18-16.94,7.82-25.4C38,114.73,39,112,40,109.33l105.73-1.26,2.57-.08,104.79,1.23,10.28,33.65Z"/><path class="cls-4" d="M145.7,181.67l2.61-.08,129,1.41q2.76,8.35,5.5,16.71c-6.44,1.73-12.81,3.92-19.35,5.09-22.23,4-44.61,2.58-67,1.41-3.32-.18-7.21-1.36-9.86-.07-6.16,3-11.4,2.05-16.91-1.09s-11.55-.64-14.28,6.35h7.17c23,0,46-.09,69,.16,2,0,4,2.28,5.92,3.5l-89.1.33-2.62-.15-90.53.2-2.47-.25,6.17-6.5c-8.81-.72-17.37-1.45-25.94-2.09-1.63-.12-4.1.83-4.8,0C22.69,200.52,15.52,203,9,202.35q3.22-9.67,6.43-19.35ZM68.75,209l.21,1.84h42l.6-2.06c-3.74-1.18-7.48-3.28-11.23-3.32-5.8-.05-11.6,1.37-17.4,2.07C78.21,208.08,73.48,208.5,68.75,209Zm45.43-.31c.06.9.12,1.79.17,2.69,10.23,0,20.46.07,30.69-.11,1,0,2-1.56,3-2.39-1-.86-2-2.5-2.92-2.45C134.82,207,124.5,207.88,114.18,208.67Z"/><path class="cls-3" d="M148.28,108l-2.57.08c-2.27-.9-4.54-2.58-6.82-2.59-32.22-.17-64.45-.11-96.68-.1L53.86,71.75c28.72,0,57.43.1,86.14-.13,1.9,0,3.78-2.39,5.66-3.67h6.56c2.57,1.27,5.13,3.63,7.72,3.66,26.72.26,53.45.14,80.18.13q5.64,16.81,11.29,33.64c-32,0-64.11-.07-96.16.09C152.92,105.5,150.6,107.12,148.28,108Z"/><path class="cls-5" d="M148.28,424.67c1.24-2.68,3-5.24,3.62-8.05,2.09-8.94,13.19-13.83,19.74-7.34,6.08,6,13.09,3.19,19.4,4.34s13.34-.26,20.23-1.88c5.8-1.36,13.5.82,20.38-2.26,1.5-.67,4.21,2,6.38,2,1.81,0,3.65-1.57,5.48-2.45-1.09-1.3-2.2-2.58-3.25-3.91s-1.9-2.53-2.85-3.8l23.24.08c1.73,3.3,3.55,6.57,5.15,9.95a19,19,0,0,1,.95,4.13,16.62,16.62,0,0,1-3.42.28c-5.45-.73-10.87-1.62-16.31-2.34a9,9,0,0,0-3.64.34,90.43,90.43,0,0,0-8.81,3.15c-5.23,2.27-11.85,3.5-15.19,7.46-4,4.72-5.24,4.28-10.36,1.63-6.78-3.5-15.34-6.33-22.53-5.28-4.56.66-7.56,1.47-11.61-1-8.77-5.4-22.06.69-22.72,10.09l-3.86,3.93c2.25.84,4.48,2.37,6.74,2.41q53.37.87,106.76,1.38c8.58.1,17.17.05,25.75.07q0,9,0,18.05c-10.07.76-20.39-5.06-30.3,1.2-.9.57-2.52-.08-3.8,0-9.35.37-18.66-7.32-28.1-.18-.44.34-1.6-.36-2.43-.43-7.32-.64-14.69-2.07-22-1.7-15.64.79-31.23,2.48-46.83,3.93-.72.06-1.33,1.4-2,2.15h-6.43c-.07-5.12-2.79-4.93-6.94-4.27-6.91,1.09-14.79,3.44-20.81,1.25-13.94-5.07-27.49-4.23-41.56-2.46-4.6.58-9.46-1.24-14.22-1.55-2.88-.18-5.8.47-8.7.7-7.09.55-14.18,1.37-21.28,1.52-5.49.12-11-.78-16.52-.87a45.87,45.87,0,0,0-7.23.72c-2.18-3.05-3.4-4.75-4.61-6.46,0-3.44,0-6.89,0-10.34l1.08-1.19c24.44-.45,48.87-1,73.3-1.29,20.4-.22,40.8,0,61.2-.2,2.1,0,4.18-1.62,6.28-2.49Q147,429.19,148.28,424.67Zm102.38-18.55c.15-.38.48-.81.37-1.06s-.64-.33-1-.48c-.15.35-.49.77-.39,1S250.29,405.94,250.66,406.12Z"/><path class="cls-3" d="M287.56,248.89l0,2.53-41,.33-91.82-1.49c-.64-5.2-4.1-10.52,2.26-15,7.64-5.39,16.69-5.78,24.41-.45a14.4,14.4,0,0,0,5.6,1.78c4.08.68,8.3.71,12.26,1.77,4.58,1.22,9,3.94,11.67-2.86.35-.87,3.71-.65,5.68-.73,2.59-.1,5.18,0,7.76,0-.65-3.08-.79-6.4-2.11-9.16-1.18-2.47-3.65-4.33-5.55-6.45,7.37,1.47,16.42-4.14,21.91,5.22l23.27,2.85c1.34,1.19,2.54,3.12,4.06,3.41,2.89.55,6.06-.33,8.91.31,2.56.56,4.85,2.36,7.25,3.62-2.53,1.23-5,2.53-7.61,3.67-1.49.67-3.68.63-4.51,1.71-1.86,2.41-3,5.32-5,8.95Z"/><path class="cls-5" d="M7.51,291.83c1,5.87,2.24,8.92,9.46,12.51,13.62,6.78,25.82.93,38.49,1.86a279.46,279.46,0,0,0,32.23.48c12.86-.53,25.68-2.4,38.54-2.88a49.61,49.61,0,0,1,18.88,2.64c2.12.8,2.56,7.12,2.9,11,.11,1.13-2.75,3.62-4.27,3.64-13.44.12-26.88-.28-40.31-.3-10.86,0-21.71.48-32.56.33-4.82-.07-9.68-1.93-14.45-1.67-13,.73-26.47-2.42-38.69,4.62l-13.91-.22v-31Z"/><path class="cls-5" d="M271,325.09c-2.31-1.7-4.6-4.84-6.93-4.87-10.75-.13-21.52,1-32.28.89-7.5-.06-15-1.35-22.47-2.08a21.44,21.44,0,0,0-3.19-.26c-14.09.81-28.18,2-42.28,2.26-3.28.06-7.29-2.21-9.65-4.67-1.14-1.19-.18-6.57,1.49-7.83,3.32-2.49,7.77-4.65,11.81-4.77,6.95-.21,14.36,3,20.84,1.57,9.1-2.05,17.11,1.61,25.63,1.65,11,0,22-.09,33.08,0,5.29,0,10.58.6,15.86.5a46.5,46.5,0,0,0,7.87-1.28c-2.94-2.43-5.6-4.41-7.92-6.73-.57-.56,0-2.26,0-3.43,1,0,2.26-.29,3,.18,2.82,1.8,5.24,4.85,8.25,5.54a12.09,12.09,0,0,0,9.09-2.08c1.67-1.32,1.38-5.14,2-7.84l2.36-.24V325.1Z"/><path class="cls-6" d="M152.16,429.84c.66-9.4,14-15.49,22.72-10.09,4.05,2.49,7.05,1.68,11.61,1,7.19-1,15.75,1.78,22.53,5.28,5.12,2.65,6.38,3.09,10.36-1.63,3.34-4,10-5.19,15.19-7.46a90.43,90.43,0,0,1,8.81-3.15,9,9,0,0,1,3.64-.34c5.44.72,10.86,1.61,16.31,2.34a16.62,16.62,0,0,0,3.42-.28,19,19,0,0,0-.95-4.13c-1.6-3.38-3.42-6.65-5.15-9.95h26.89v5.1l-10.13,1.31-.83,11.42c-7.54-1.39-7.17,3.14-5.15,8.79.36,1,.58,2,.86,3.05-12.76,0-25.52-.09-38.27.13-1.89,0-3.76,1.57-5.64,2.41l-27.06-1.16-7.8,1.12h-2.66c-.25-.57-.45-1.63-.73-1.65-7.23-.5-14.46-.91-21.69-1.17-.22,0-.5,1.82-.76,2.8H165l-7.65,0-4,0Z"/><path class="cls-7" d="M237.43,215.05c-2-1.21-3.93-3.47-5.92-3.49-23-.25-46-.16-69-.16h-7.17c2.73-7,8.75-9.51,14.28-6.35s10.75,4.09,16.91,1.09c2.65-1.29,6.54-.11,9.86.07,22.37,1.17,44.75,2.56,67-1.41,6.54-1.17,12.91-3.36,19.35-5.09L287.54,214,271,215.31l-5.23,1.05-2.52-1.11-1.58-2c-.33.66-.66,1.31-1,2l-7.81.52.1-.63-10.35,0-5.17.35Z"/><path class="cls-8" d="M3.84,449.21c1.21,1.71,2.43,3.41,4.61,6.46a45.87,45.87,0,0,1,7.23-.72c5.51.09,11,1,16.52.87,7.1-.15,14.19-1,21.28-1.52,2.9-.23,5.82-.88,8.7-.7,4.76.31,9.62,2.13,14.22,1.55,14.07-1.77,27.62-2.61,41.56,2.46,6,2.19,13.9-.16,20.81-1.25,4.15-.66,6.87-.85,6.94,4.27-46.06.08-92.12.18-138.18.06-1.31,0-3.38-2.26-3.74-3.78C3.2,454.49,3.76,451.79,3.84,449.21Z"/><path class="cls-8" d="M152.14,460.63c.67-.75,1.28-2.09,2-2.15,15.6-1.45,31.19-3.14,46.83-3.93,7.27-.37,14.64,1.06,22,1.7.83.07,2,.77,2.43.43,9.44-7.14,18.75.55,28.1.18,1.28-.06,2.9.59,3.8,0,9.91-6.26,20.23-.44,30.3-1.2-1.19,1.72-2.38,4.95-3.58,5C240,460.82,196.09,460.7,152.14,460.63Z"/><path class="cls-9" d="M3.81,397.49h141l0,2.09L33.33,401.44c-7.73,0-15.46-.15-23.19.1-1.69.06-3.34,1.54-5,2.37,1.61.89,3.29,1.68,4.83,2.68,1.82,1.19,3.52,2.56,5.27,3.86-6.66-.59-7.23,4.83-8,9-.7,3.71.11,7.72.26,11.59l-3.64,1.36Q3.82,415,3.81,397.49Z"/><path class="cls-10" d="M3.85,361.3c29.23,0,58.45.13,87.67-.07,16.07-.11,32.14-.84,48.22-1.11,1.85,0,3.73,1.08,5.6,1.66-1.93.72-3.87,2-5.81,2.06-15,.17-30.09,0-45.12.13-29.83.34-59.65.85-89.47,1.29-.38,0-.75,0-1.12,0Z"/><path class="cls-10" d="M287.57,365.25q-66.4-.67-132.79-1.43c-2.06,0-4.09-1.19-6.14-1.83,2.05-.64,4.1-1.85,6.14-1.84q66.39.45,132.79,1.15Z"/><path class="cls-11" d="M145.71,433.7c-2.1.87-4.18,2.47-6.28,2.49-20.4.2-40.8,0-61.2.2-24.43.26-48.86.84-73.3,1.29a10,10,0,0,0-1.09-.07c0-1.31,0-2.62,0-3.93l60.43,0,27.07-1.16,7.79,1.12h2.67l23.17,0h2.67l5.14-1.12h6.42l3.88,0Z"/><path class="cls-11" d="M165,433.59h2.66l23.18,0h2.66l7.8-1.12,27.06,1.16,59.17,0c0,1.32,0,2.63,0,3.95-8.58,0-17.17,0-25.75-.07Q208.42,437,155,436.18c-2.26,0-4.49-1.57-6.74-2.41l5.12-.16,4,0Z"/><path class="cls-10" d="M271,325.09h16.56l0,4c-44.27-.45-88.53-.85-132.79-1.5-2.13,0-4.22-2.35-6.33-3.61Z"/><path class="cls-10" d="M3.82,323.85l13.91.22a36.94,36.94,0,0,0,6.18,1c31.15.05,62.31.11,93.46-.05,9.41,0,18.82-.75,28.22-1.16-2.09,1.28-4.17,3.65-6.27,3.67-33.15.25-66.29.09-99.44.28-12,.07-24,.78-36,1.2C3.85,327.32,3.83,325.58,3.82,323.85Z"/><path class="cls-11" d="M287.54,401.44H260.65l-23.24-.08H149.2v-3.88H287.58C287.57,398.81,287.55,400.12,287.54,401.44Z"/><path class="cls-12" d="M9,202.35c6.53.67,13.7-1.83,19.15,4.29.7.79,3.17-.16,4.8,0,8.57.64,17.13,1.37,25.94,2.09l-6.17,6.5H48.83l-9.08,0,.09.61-7.82-.5-1-2-1.58,2-2.53,1.12-5.21-1c-4.71-4.23-9.45-4.05-14.21-.1l-3.67,0Z"/><path class="cls-13" d="M145.7,181.67,15.42,183c.33-1.31.66-2.62,1-3.93,28.35,0,56.7.08,85.05-.11,12.84-.08,25.68-.89,38.53-.94C141.89,178,143.8,180.4,145.7,181.67Z"/><path class="cls-13" d="M277.26,183l-128.95-1.41c2-1.22,4.06-3.49,6.09-3.49,13.43,0,26.85.49,40.28.68,13.11.18,26.22.21,39.33.25,14,0,27.95,0,41.92,0C276.38,180.37,276.82,181.69,277.26,183Z"/><path class="cls-6" d="M287.56,248.89H265c2-3.63,3.16-6.54,5-8.95.83-1.08,3-1,4.51-1.71,2.58-1.14,5.08-2.44,7.61-3.67-2.4-1.26-4.69-3.06-7.25-3.62-2.85-.64-6,.24-8.91-.31-1.52-.29-2.72-2.22-4.06-3.41l10.38-1.14,5.2-.29,2.35.16,7.67-.18Z"/><path class="cls-14" d="M29.34,142.87l116.31-1.24c-1.89,1.27-3.78,3.65-5.67,3.66-37.32.21-74.64.15-111.95.14Z"/><path class="cls-15" d="M42.21,105.38c32.23,0,64.46-.07,96.68.1,2.28,0,4.55,1.69,6.82,2.59L40,109.33Z"/><path class="cls-15" d="M148.28,108c2.32-.87,4.64-2.49,7-2.51,32.05-.16,64.11-.1,96.16-.09.55,1.27,1.11,2.55,1.66,3.83Z"/><path class="cls-16" d="M3.81,251.45q0-12.85,0-25.7l8.8-.13,2.52.16,5.21.28,10.37,1.14c-3.2,7.1-9.51,2-14.11,3.62a34.18,34.18,0,0,0-7.13,3.12c-.41.26.43,4,1.09,4.16a39.68,39.68,0,0,0,8.17.23,12.14,12.14,0,0,0,2.24-.44c1.67,11,1.66,10.81-8.54,11.11-2.54.08-5.05,1.6-7.57,2.46A8.06,8.06,0,0,1,3.81,251.45Z"/><path class="cls-17" d="M145.66,68c-1.88,1.28-3.76,3.66-5.66,3.67-28.71.23-57.42.15-86.14.13l.32-3.84Z"/><path class="cls-14" d="M150.93,141.64l112.42,1.23,1.31,2.56c-34.6,0-69.2.12-103.79-.14C157.55,145.26,154.24,142.91,150.93,141.64Z"/><path class="cls-18" d="M66.74,31.7c23.8,0,47.6-.07,71.4.08,2.41,0,4.8,1.29,7.2,2-2.49.61-5,1.72-7.49,1.73-24,.16-48,.13-72,.16Z"/><path class="cls-19" d="M3.82,365.22c.37,0,.74,0,1.12,0-.15,15.47-.15,15.35,15.38,15.51C33.59,380.9,47,381,59.26,387c2.3,1.12,3.87,3.73,5.78,5.66-3.66-.09-7.33-.16-11-.27-.18,0-.36-.22-.53-.34-.93-1.17-1.69-3.13-2.83-3.38a186.53,186.53,0,0,0-20.29-3.73c-3.68-.41-7.52.6-11.29,1l-3.83,0-11.38-.06Q3.86,375.5,3.82,365.22Z"/><path class="cls-18" d="M228.54,35.53H149.06l0-3.82h77.79C227.43,33,228,34.26,228.54,35.53Z"/><path class="cls-19" d="M239.18,392l-10.53,1.39c.29-1.39.24-3.8.91-4,9.11-3,18.17-6.79,27.56-8.13,10-1.43,20.27-.47,30.44-.55,0,1.28.05,2.57.08,3.85l-8.9,1.35-5.15,0c-10.54.88-21.09,1.66-31.61,2.77C240.94,388.75,240.11,390.84,239.18,392Z"/><path class="cls-14" d="M240.12,71.75c-26.73,0-53.46.13-80.18-.13-2.59,0-5.15-2.39-7.72-3.66l86.57,1.24Z"/><path class="cls-20" d="M12.66,225.62l-8.8.13,0-10.55,3.67,0,14.21.1,5.21,1q-3.26,4.85-6.53,9.68l-5.2-.28-1.48-2.15Z"/><path class="cls-20" d="M277.5,225.79l-5.2.29-6.54-9.72,5.23-1.05,16.62-.12-.09,10.58-7.67.18-1.36-2.28Z"/><path class="cls-21" d="M3.81,251.45a8.06,8.06,0,0,0,1.1,0l39.9.28,0,3.41c-11.18.07-22.36.07-33.54.27a52.63,52.63,0,0,0-7.49,1.22Z"/><path class="cls-15" d="M277.42,407.85l10.13-1.31v24.62l-6.2-.08C280.51,423.26,286.38,414.29,277.42,407.85Z"/><path class="cls-21" d="M246.59,251.75l41-.33c0,1.33,0,2.66-.05,4l-41-.27C246.56,254,246.57,252.88,246.59,251.75Z"/><path class="cls-3" d="M64.29,433.65l-60.43,0a1.27,1.27,0,0,1,0-1.24l3.64-1.36,11.62,0c13.19,0,26.39-.08,39.58.14C60.55,431.28,62.41,432.81,64.29,433.65Z"/><path class="cls-3" d="M281.36,431.08l6.2.08v2.52l-59.17,0c1.88-.84,3.75-2.37,5.64-2.41,12.75-.22,25.51-.12,38.27-.13Z"/><path class="cls-22" d="M3.89,385.77l11.37.06c-.42,3-.85,6-1.27,8.94l-2.65.05c-.21-2.31-.41-4.62-.62-6.93-1.47.93-2.9,2-4.45,2.75a7.66,7.66,0,0,1-2.44.38Z"/><path class="cls-23" d="M7.51,291.83l-3.69,1v-5.18L24.25,289l0,2.54Z"/><path class="cls-22" d="M278.74,385.9l8.9-1.35-.06,6.47L282,387.88c-.21,2.31-.42,4.63-.62,6.94l-2.65-.05C278.71,391.81,278.73,388.85,278.74,385.9Z"/><path class="cls-23" d="M287.54,291.59l-2.36.24-16.77-.29,0-2.54,19.1-.1Z"/><path class="cls-24" d="M3.83,391a7.66,7.66,0,0,0,2.44-.38c1.55-.79,3-1.82,4.45-2.75.21,2.31.41,4.62.62,6.93l-7.51.28Z"/><path class="cls-24" d="M281.35,394.82c.2-2.31.41-4.63.62-6.94l5.61,3.14,0,4.09Z"/><path class="cls-4" d="M287.61,215.19l-16.62.12L287.54,214A1.4,1.4,0,0,1,287.61,215.19Z"/><path class="cls-8" d="M3.84,437.61a10,10,0,0,1,1.09.07l-1.08,1.19Z"/><path class="cls-6" d="M64.29,433.65c-1.88-.84-3.74-2.37-5.63-2.41-13.19-.22-26.39-.13-39.58-.14.54-5.16,7.34-13.12-5.18-11.93.48-3.15.91-5.94,1.33-8.72-1.75-1.3-3.45-2.67-5.27-3.86-1.54-1-3.22-1.79-4.83-2.68,1.67-.83,3.32-2.31,5-2.37,7.73-.25,15.46-.1,23.19-.1-2,3.94-3.94,7.87-6.89,13.74,6.69-.61,12.12-1.52,17.55-1.46a34.41,34.41,0,0,1,12.7,2.15c6.31,2.64,14.75,1.24,18.5,9.56.45,1,6.45,1,8.49-.46,7.9-5.67,15.66-9,25-3.57a5.15,5.15,0,0,0,4.26.08c6-3.05,11.79-6.17,18.87-3.48.65.25,1.95-1.2,3-1.86l-2.6-3.09c16.08-1.19,16.08-1.19,16.09,11.62q-1.29,4.51-2.57,9l-2.61-1.21-1.61-2.39c-.75.79-1.51,1.57-2.27,2.36h-2.53l-3.91-1.33-5.12,2.46H125c-.84-1-1.68-2.94-2.53-2.95a161.33,161.33,0,0,0-16.31.6c-1.5.13-2.89,1.55-4.33,2.37H99.15l-7.79-1.12Z"/><path class="cls-22" d="M19.1,385.87c3.77-.37,7.61-1.38,11.29-1a186.53,186.53,0,0,1,20.29,3.73c1.14.25,1.9,2.21,2.83,3.38l-22.82,2.73c-.56-2.34-1.12-4.68-1.24-5.16-3.25,0-5.49.44-7.4-.16C20.82,389,20.07,387.11,19.1,385.87Z"/><path class="cls-22" d="M239.18,392c.93-1.17,1.76-3.26,2.8-3.37,10.52-1.11,21.07-1.89,31.61-2.77-3,1.26-4.19,10.43-9.61.59-.86,3.58-1.42,5.93-2,8.28Z"/><path class="cls-25" d="M262,394.74c.56-2.35,1.12-4.7,2-8.28,5.42,9.84,6.65.67,9.61-.59l5.15,0c0,3,0,5.91,0,8.87Z"/><path class="cls-25" d="M19.1,385.87c1,1.24,1.72,3.16,2.95,3.55,1.91.6,4.15.16,7.4.16.12.48.68,2.82,1.24,5.16l-16.7,0c.42-3,.85-6,1.27-8.94Z"/><path class="cls-5" d="M44.81,251.74l-39.9-.28c2.52-.86,5-2.38,7.57-2.46,10.2-.3,10.21-.14,8.54-11.11a12.14,12.14,0,0,1-2.24.44,39.68,39.68,0,0,1-8.17-.23c-.66-.13-1.5-3.9-1.09-4.16a34.18,34.18,0,0,1,7.13-3.12c4.6-1.59,10.91,3.48,14.11-3.63L54,224.36c2.87-7,9-5,14.35-5.23,2.52-.1,5,0,7.56,0A96.46,96.46,0,0,0,69,226c-1.38,1.65-3.46,4.42-2.91,5.66,1.24,2.78,3.84,5,6.17,7.12.18.17,2.49-2.78,4.11-3.23,1.78-.5,5.35-.35,5.66.46,2.29,6.1,5.75,5.08,10.76,3.38,8.92-3,18.21-4.94,27.35-7.31.2-.05.45,0,.64,0,6.76-2.38,12.31,3.53,18,3.32,10.57-.39,10.21,5.21,9.62,12.25-.11,1.28,0,2.58,0,3.87V254l-2.58.09c-1.63-.9-3.27-2.57-4.9-2.57C108.81,251.5,76.81,251.64,44.81,251.74Z"/><path class="cls-14" d="M24.28,291.54l0-2.54c18.42-.44,36.84-1.15,55.27-1.22,14.46,0,28.92.87,43.38,1,6,.06,11.93-.88,17.9-1,1.48,0,3,1.33,4.48,2.05-1.46.56-2.91,1.56-4.38,1.59-9.88.14-19.76.07-29.64.08Z"/><path class="cls-15" d="M148.29,254v-2.53l6.47-1.25,91.82,1.49,0,3.39c-27.44.05-54.88.17-82.32.1C158.91,255.22,153.6,254.46,148.29,254Z"/><path class="cls-15" d="M44.81,251.74c32-.1,64-.24,96-.18,1.63,0,3.27,1.67,4.9,2.57l-100.86,1C44.83,254,44.82,252.88,44.81,251.74Z"/><path class="cls-14" d="M268.44,289l0,2.54c-38.49-.12-77,.3-115.46-.27L153,289Z"/><path class="cls-5" d="M31,297c-1.85,2.39-3.36,5.3-5.75,6.88-.77.52-3.84-2.41-5.85-3.77l9.85-4.93Z"/><path class="cls-23" d="M75.94,219.14c-2.52,0-5-.11-7.56,0-5.33.21-11.48-1.76-14.35,5.23l-3.75-2.84,4.9-6.08,90.53-.2c0,.87,0,1.73,0,2.6Z"/><path class="cls-23" d="M238.65,224.37c-5.49-9.36-14.54-3.75-21.91-5.22l-68.41-1.41v-2.35l89.1-.33v.45l4.95,6Z"/><path class="cls-12" d="M68.75,209c4.73-.48,9.46-.9,14.19-1.47,5.8-.7,11.6-2.12,17.4-2.07,3.75,0,7.49,2.14,11.23,3.32l-.6,2.06H69Z"/><path class="cls-12" d="M114.18,208.67c10.32-.79,20.64-1.66,31-2.26.93,0,1.95,1.59,2.92,2.45-1,.83-2,2.37-3,2.39-10.23.18-20.46.11-30.69.11C114.3,210.46,114.24,209.57,114.18,208.67Z"/><path class="cls-26" d="M55.18,215.44l-4.9,6.09c-6.71,3.93-8.85-.43-10.44-5.77l-.09-.61,9.08,0h3.88Z"/><path class="cls-12" d="M148.33,215.39v2.35l-2.64.1c0-.87,0-1.73,0-2.6Z"/><path class="cls-1" d="M153.42,433.61l-5.12.16,3.86-3.93Z"/><path class="cls-1" d="M250.66,406.12c-.37-.18-.91-.26-1-.51s.24-.68.39-1c.34.15.88.23,1,.48S250.81,405.74,250.66,406.12Z"/><path class="cls-27" d="M145.69,217.84l2.64-.1,68.41,1.41c1.9,2.12,4.37,4,5.55,6.45,1.32,2.76,1.46,6.08,2.11,9.16-2.58,0-5.17-.1-7.76,0-2,.08-5.33-.14-5.68.73-2.72,6.8-7.09,4.08-11.67,2.86-4-1.06-8.18-1.09-12.26-1.77a14.4,14.4,0,0,1-5.6-1.78c-7.72-5.33-16.77-4.94-24.41.45-6.36,4.49-2.9,9.81-2.26,15l-6.47,1.25c0-1.29-.1-2.59,0-3.87.59-7,.95-12.64-9.62-12.25-5.64.21-11.19-5.7-18-3.32-.19.07-.44,0-.64,0-9.14,2.37-18.43,4.29-27.35,7.31-5,1.7-8.47,2.72-10.76-3.38-.31-.81-3.88-1-5.66-.46-1.62.45-3.93,3.4-4.11,3.23-2.33-2.12-4.93-4.34-6.17-7.12-.55-1.24,1.53-4,2.91-5.66a96.46,96.46,0,0,1,7-6.87Z"/><path class="cls-28" d="M238.65,224.37l3.73-2.84c6.71,3.93,8.88-.39,10.47-5.77l7.81-.52h2.58l2.52,1.11,6.54,9.72-10.38,1.14Z"/><path class="cls-19" d="M281.36,431.08l-9.06,0c-.28-1-.5-2.06-.86-3.05-2-5.65-2.39-10.18,5.15-8.79l.83-11.42C286.38,414.29,280.51,423.26,281.36,431.08Z"/><path class="cls-1" d="M190.87,433.61l-23.18,0c.26-1,.54-2.81.76-2.8,7.23.26,14.46.67,21.69,1.17C190.42,432,190.62,433,190.87,433.61Z"/><path class="cls-1" d="M165,433.59l-7.65,0Z"/><path class="cls-1" d="M201.33,432.49l-7.8,1.12Z"/><path class="cls-26" d="M252.85,215.76c-1.59,5.38-3.76,9.7-10.47,5.77l-4.95-6,5.17-.35,10.35,0Z"/><path class="cls-4" d="M253,215.13l-10.35,0Z"/><path class="cls-4" d="M263.24,215.25h-2.58c.34-.65.67-1.3,1-2Z"/><path class="cls-17" d="M15.23,410.45c-.42,2.78-.85,5.57-1.33,8.72,12.52-1.19,5.72,6.77,5.18,11.93l-11.62,0c-.15-3.87-1-7.88-.26-11.59C8,415.28,8.57,409.86,15.23,410.45Z"/><path class="cls-1" d="M101.82,433.61c1.44-.82,2.83-2.24,4.33-2.37a161.33,161.33,0,0,1,16.31-.6c.85,0,1.69,1.92,2.53,2.95Z"/><path class="cls-1" d="M91.36,432.49l7.79,1.12Z"/><path class="cls-1" d="M127.66,433.59l5.12-2.46,0,1.34Z"/><path class="cls-5" d="M139.22,432.46c.76-.79,1.52-1.57,2.27-2.36l1.61,2.39Z"/><path class="cls-5" d="M132.8,432.47l0-1.34,3.91,1.33Z"/><path class="cls-28" d="M39.84,215.76c1.59,5.34,3.73,9.7,10.44,5.77L54,224.36l-23.27,2.83-10.37-1.13q3.27-4.83,6.53-9.68l2.53-1.12H32Z"/><path class="cls-4" d="M21.71,215.33l-14.21-.1C12.26,211.28,17,211.1,21.71,215.33Z"/><path class="cls-4" d="M48.83,215.18l-9.08,0Z"/><path class="cls-4" d="M32,215.26H29.45l1.58-2Z"/><path class="cls-28" d="M277.5,225.79l1-2.12,1.36,2.28Z"/><path class="cls-28" d="M12.66,225.62l1.05-2,1.48,2.15Z"/><polygon class="cls-29" points="76.63 4.6 3.5 217.74 3.5 460.74 287.95 460.74 287.95 217.74 216.92 4.6 76.63 4.6"/><polygon class="cls-30" points="74.65 0 79.28 7.5 6.47 217.3 0.09 217.3 74.65 0"/><polygon class="cls-30" points="74.65 0 216.92 0 212.71 8.49 79.95 7.5 74.65 0"/></g></g></svg>